<?xml version="1.0" standalone="no"?>
<!DOCTYPE svg PUBLIC "-//W3C//DTD SVG 1.1//EN" "http://www.w3.org/Graphics/SVG/1.1/DTD/svg11.dtd" >
<svg xmlns="http://www.w3.org/2000/svg" xmlns:xlink="http://www.w3.org/1999/xlink" version="1.1">
<metadata>
Created by FontForge 20200511 at Tue Mar  5 23:50:52 2019
 By convertio
Designed for Typetype in 2016-2019 by Ivan Gladkikh and Pavel Emelyanov. TT Norms Pro is one of series of fontfamilies which were designed for use in web and mobile applications, print and multimedia environments. |DCNT
</metadata>
<defs>
<font id="TTNormsPro-Bold" horiz-adv-x="630" >
  <font-face 
    font-family="TT Norms Pro"
    font-weight="700"
    font-stretch="normal"
    units-per-em="1000"
    panose-1="2 0 8 3 2 0 0 2 0 4"
    ascent="700"
    descent="-300"
    x-height="490"
    cap-height="700"
    bbox="-580 -240 1438 1010"
    underline-thickness="50"
    underline-position="-100"
    stemh="140"
    stemv="150"
    unicode-range="U+000D-FB06"
  />
<missing-glyph horiz-adv-x="0" 
 />
    <glyph glyph-name="f_f" unicode="ff" horiz-adv-x="685" 
d="M95 0v355h-75v125h75v30c0 116 65 180 165 180c23 0 42 -4 57 -8c8 -3 16 -5 23 -7v-125c-4 1 -8 3 -13 5c-8 3 -20 5 -32 5c-40 0 -65 -25 -65 -70v-10h180v50c0 116 65 180 165 180c25 0 48 -4 64 -8c9 -3 18 -5 26 -7v-125c-5 1 -10 3 -16 5c-11 3 -24 5 -39 5
c-40 0 -65 -25 -65 -70v-30h110v-125h-110v-355h-135v355h-180v-355h-135z" />
    <glyph glyph-name="uniFB01" unicode="fi" horiz-adv-x="615" 
d="M95 0v355h-75v125h75v50c0 116 65 180 165 180c23 0 42 -4 57 -8c8 -3 16 -5 23 -7v-125c-4 1 -8 3 -13 5c-8 3 -20 5 -32 5c-40 0 -65 -25 -65 -70v-30h315v-480h-135v355h-180v-355h-135zM400 630c0 40 35 75 78 75s77 -35 77 -75s-35 -75 -78 -75s-77 35 -77 75z" />
    <glyph glyph-name="f_f_i" unicode="ffi" horiz-adv-x="930" 
d="M95 0v355h-75v125h75v30c0 116 65 180 165 180c23 0 42 -4 57 -8c8 -3 16 -5 23 -7v-125c-4 1 -8 3 -13 5c-8 3 -20 5 -32 5c-40 0 -65 -25 -65 -70v-10h180v50c0 116 65 180 165 180c23 0 42 -4 57 -8c8 -3 16 -5 23 -7v-125c-4 1 -8 3 -13 5c-8 3 -20 5 -32 5
c-40 0 -65 -25 -65 -70v-30h315v-480h-135v355h-180v-355h-135v355h-180v-355h-135zM715 630c0 40 35 75 78 75s77 -35 77 -75s-35 -75 -78 -75s-77 35 -77 75z" />
    <glyph glyph-name=".notdef" horiz-adv-x="0" 
 />
    <glyph glyph-name="NULL" horiz-adv-x="0" 
 />
    <glyph glyph-name="NULL" horiz-adv-x="0" 
 />
    <glyph glyph-name="CR" unicode="&#xd;" horiz-adv-x="0" 
 />
    <glyph glyph-name="space" unicode=" " horiz-adv-x="210" 
 />
    <glyph glyph-name="exclam" unicode="!" horiz-adv-x="320" 
d="M105 215l-25 485h160l-25 -485h-110zM80 70c0 45 35 80 80 80s80 -35 80 -80s-35 -80 -80 -80s-80 35 -80 80z" />
    <glyph glyph-name="quotedbl" unicode="&#x22;" horiz-adv-x="425" 
d="M50 455v245h130v-245h-130zM245 455v245h130v-245h-130z" />
    <glyph glyph-name="numbersign" unicode="#" horiz-adv-x="750" 
d="M120 0l35 185h-135l20 100h135l25 130h-135l20 100h135l35 185h115l-35 -185h145l35 185h115l-35 -185h135l-20 -100h-135l-25 -130h135l-20 -100h-135l-35 -185h-115l35 185h-145l-35 -185h-115zM290 285h145l25 130h-145z" />
    <glyph glyph-name="dollar" unicode="$" horiz-adv-x="585" 
d="M20 95l100 100c12 -14 26 -27 43 -38c28 -19 69 -37 122 -37c80 0 115 35 115 80c0 119 -350 66 -350 310c0 100 69 169 185 200v90h130v-90c52 -8 96 -30 127 -51c18 -12 34 -25 48 -39l-100 -100c-11 11 -22 21 -35 30c-23 15 -55 30 -95 30c-76 0 -105 -30 -105 -70
c0 -119 350 -66 350 -310c0 -104 -80 -186 -190 -210v-90h-130v90c-73 11 -126 36 -162 60c-21 14 -39 29 -53 45z" />
    <glyph glyph-name="percent" unicode="%" horiz-adv-x="815" 
d="M125 0l440 700h125l-440 -700h-125zM615 80c40 0 70 30 70 70s-30 70 -70 70s-70 -30 -70 -70s30 -70 70 -70zM445 150c0 91 74 165 170 165s170 -74 170 -165s-74 -165 -170 -165s-170 74 -170 165zM130 550c0 -40 30 -70 70 -70s70 30 70 70s-30 70 -70 70
s-70 -30 -70 -70zM30 550c0 91 74 165 170 165s170 -74 170 -165s-74 -165 -170 -165s-170 74 -170 165z" />
    <glyph glyph-name="ampersand" unicode="&#x26;" horiz-adv-x="655" 
d="M345 370l110 -130c5 9 10 19 15 31c7 20 15 49 15 84h125c0 -64 -18 -115 -35 -154c-11 -22 -22 -42 -35 -61c5 -6 11 -11 18 -15c12 -8 29 -15 52 -15c7 0 13 1 18 2l7 3v-115c-5 -3 -10 -5 -17 -8c-13 -5 -27 -7 -43 -7c-43 0 -74 16 -95 32c-12 9 -22 20 -31 33
c-13 -13 -28 -25 -46 -35c-31 -19 -78 -35 -143 -35c-135 0 -220 85 -220 195c0 65 32 113 67 146c20 19 43 35 68 49c-17 16 -32 33 -45 51c-23 31 -45 74 -45 119c0 104 75 180 195 180c109 0 185 -74 185 -170c0 -56 -29 -100 -60 -131c-17 -18 -37 -34 -60 -49zM370 140
l-125 150c-13 -8 -24 -18 -33 -29c-16 -19 -32 -46 -32 -81c0 -45 34 -80 90 -80c31 0 53 9 72 20c10 6 19 13 28 20zM275 445c11 9 21 18 30 29c15 17 30 41 30 66c0 35 -24 60 -55 60c-35 0 -60 -25 -60 -60c0 -25 12 -49 27 -66c8 -11 17 -20 28 -29z" />
    <glyph glyph-name="quotesingle" unicode="'" horiz-adv-x="230" 
d="M50 455v245h130v-245h-130z" />
    <glyph glyph-name="parenleft" unicode="(" horiz-adv-x="370" 
d="M360 -165l-105 -65c-35 38 -66 82 -93 131c-46 83 -92 206 -92 349c0 145 47 264 92 349c27 49 58 93 93 131l105 -65c-27 -35 -52 -75 -73 -118c-36 -75 -72 -176 -72 -297s36 -223 72 -298c21 -43 46 -82 73 -117z" />
    <glyph glyph-name="parenright" unicode=")" horiz-adv-x="370" 
d="M115 -230l-105 65c27 35 51 74 72 117c36 75 73 177 73 298s-37 222 -73 297c-21 43 -45 83 -72 118l105 65c35 -38 65 -82 92 -131c46 -86 93 -204 93 -349c0 -144 -47 -265 -93 -349c-27 -49 -57 -93 -92 -131z" />
    <glyph glyph-name="asterisk" unicode="*" horiz-adv-x="400" 
d="M55 420l85 90l-115 20l30 95l110 -45l-15 120h100l-15 -120l110 45l30 -95l-115 -20l85 -90l-80 -60l-65 105l-65 -105z" />
    <glyph glyph-name="plus" unicode="+" horiz-adv-x="525" 
d="M35 230v125h170v170h115v-170h170v-125h-170v-170h-115v170h-170z" />
    <glyph glyph-name="comma" unicode="," horiz-adv-x="240" 
d="M-15 -85l105 235l115 -65l-140 -215z" />
    <glyph glyph-name="hyphen" unicode="-" horiz-adv-x="435" 
d="M50 235v125h335v-125h-335z" />
    <glyph glyph-name="period" unicode="." horiz-adv-x="240" 
d="M40 70c0 45 35 80 80 80s80 -35 80 -80s-35 -80 -80 -80s-80 35 -80 80z" />
    <glyph glyph-name="slash" unicode="/" horiz-adv-x="425" 
d="M0 -210l300 920h125l-300 -920h-125z" />
    <glyph glyph-name="zero" unicode="0" horiz-adv-x="700" 
d="M350 125c75 0 150 75 150 225s-75 225 -150 225s-150 -75 -150 -225s75 -225 150 -225zM350 -15c-160 0 -300 140 -300 365s140 365 300 365s300 -140 300 -365s-140 -365 -300 -365z" />
    <glyph glyph-name="one" unicode="1" horiz-adv-x="390" 
d="M150 0v510h-120v95c56 7 91 30 114 53c13 13 23 27 31 42h125v-700h-150z" />
    <glyph glyph-name="two" unicode="2" horiz-adv-x="575" 
d="M225 140h300v-140h-495c0 330 340 330 340 485c0 51 -40 90 -100 90c-43 0 -73 -22 -92 -43c-11 -12 -21 -26 -28 -42l-120 60c13 31 30 58 52 82c38 41 100 83 198 83c150 0 245 -96 245 -220c0 -199 -220 -231 -300 -355z" />
    <glyph glyph-name="three" unicode="3" horiz-adv-x="575" 
d="M10 95l100 100c12 -14 26 -27 41 -38c27 -19 64 -37 109 -37c80 0 120 40 120 85s-39 85 -110 85h-80v130h70c60 0 95 35 95 80s-35 80 -95 80c-39 0 -68 -18 -91 -35c-13 -11 -24 -22 -34 -35l-100 100c17 19 37 37 60 52c40 27 100 53 180 53c140 0 235 -95 235 -195
c0 -59 -28 -95 -55 -118c-17 -13 -35 -24 -55 -32c25 -9 47 -21 67 -37c34 -26 68 -72 68 -138c0 -109 -100 -210 -260 -210c-88 0 -154 27 -198 55c-26 16 -48 34 -67 55z" />
    <glyph glyph-name="four" unicode="4" horiz-adv-x="590" 
d="M15 125v160l305 415h175v-435h80v-140h-80v-125h-150v125h-330zM170 265h175v240z" />
    <glyph glyph-name="five" unicode="5" horiz-adv-x="605" 
d="M35 95l100 100c12 -14 26 -27 41 -38c27 -19 64 -37 109 -37c80 0 125 45 125 105s-44 105 -120 105c-39 0 -67 -13 -86 -28c-11 -8 -21 -17 -29 -27l-105 15l25 410h425v-140h-295l-5 -125c7 5 16 9 27 12c17 7 42 13 73 13c145 0 245 -99 245 -235
c0 -135 -105 -240 -265 -240c-88 0 -154 27 -198 55c-26 16 -48 34 -67 55z" />
    <glyph glyph-name="six" unicode="6" horiz-adv-x="610" 
d="M100 400l195 300h155l-150 -230l10 2c7 1 14 3 25 3c125 0 235 -110 235 -245s-110 -245 -265 -245s-265 110 -265 245c0 47 15 90 30 121c9 18 19 34 30 49zM305 120c65 0 110 45 110 110s-45 110 -110 110s-110 -45 -110 -110s45 -110 110 -110z" />
    <glyph glyph-name="seven" unicode="7" horiz-adv-x="525" 
d="M75 0l270 560h-320v140h480v-130l-275 -570h-155z" />
    <glyph glyph-name="eight" unicode="8" horiz-adv-x="610" 
d="M305 300c-65 0 -105 -39 -105 -90s40 -90 105 -90s105 39 105 90s-40 90 -105 90zM305 580c-51 0 -85 -35 -85 -75s34 -75 85 -75s85 35 85 75s-34 75 -85 75zM305 -15c-160 0 -260 100 -260 215c0 63 28 106 57 134c17 17 37 30 58 41c-17 9 -32 21 -45 35
c-23 24 -45 59 -45 110c0 100 95 195 235 195s235 -95 235 -195c0 -51 -22 -86 -45 -110c-13 -14 -28 -26 -45 -35c21 -11 40 -24 57 -41c29 -28 58 -71 58 -134c0 -115 -100 -215 -260 -215z" />
    <glyph glyph-name="nine" unicode="9" horiz-adv-x="610" 
d="M160 0l150 230l-10 -3c-7 -1 -14 -2 -25 -2c-125 0 -235 110 -235 245s110 245 265 245s265 -110 265 -245c0 -48 -15 -90 -30 -121c-9 -18 -19 -34 -30 -49l-195 -300h-155zM195 470c0 -65 45 -110 110 -110s110 45 110 110s-45 110 -110 110s-110 -45 -110 -110z" />
    <glyph glyph-name="colon" unicode=":" horiz-adv-x="240" 
d="M40 70c0 45 35 80 80 80s80 -35 80 -80s-35 -80 -80 -80s-80 35 -80 80zM40 420c0 45 35 80 80 80s80 -35 80 -80s-35 -80 -80 -80s-80 35 -80 80z" />
    <glyph glyph-name="semicolon" unicode=";" horiz-adv-x="240" 
d="M45 420c0 45 35 80 80 80s80 -35 80 -80s-35 -80 -80 -80s-80 35 -80 80zM-15 -85l105 235l115 -65l-140 -215z" />
    <glyph glyph-name="less" unicode="&#x3c;" horiz-adv-x="510" 
d="M40 200v90l430 205v-130l-260 -120l260 -120v-130z" />
    <glyph glyph-name="equal" unicode="=" horiz-adv-x="495" 
d="M40 140v115h415v-115h-415zM40 335v115h415v-115h-415z" />
    <glyph glyph-name="greater" unicode="&#x3e;" horiz-adv-x="510" 
d="M40 -5v130l260 120l-260 120v130l430 -205v-90z" />
    <glyph glyph-name="question" unicode="?" horiz-adv-x="545" 
d="M320 215h-130c-2 4 -4 8 -5 13c-3 9 -5 19 -5 32c0 136 175 154 175 235c0 35 -35 70 -90 70c-45 0 -76 -20 -96 -40c-12 -12 -22 -25 -29 -40l-130 60c12 31 29 58 52 82c41 41 102 83 203 83c155 0 250 -95 250 -205c0 -170 -195 -170 -195 -290zM170 70
c0 45 35 80 80 80s80 -35 80 -80s-35 -80 -80 -80s-80 35 -80 80z" />
    <glyph glyph-name="at" unicode="@" horiz-adv-x="880" 
d="M620 10l55 -70c-17 -17 -38 -31 -61 -43c-40 -21 -98 -42 -174 -42c-210 0 -390 180 -390 395s180 395 390 395c225 0 395 -171 395 -375c0 -135 -75 -210 -175 -210c-45 0 -75 16 -94 32c-11 9 -20 20 -26 33h-5c-7 -13 -15 -24 -26 -33c-19 -16 -46 -32 -89 -32
c-91 0 -165 76 -165 185s74 185 165 185c31 0 52 -9 67 -20c9 -6 16 -13 23 -20h5v35h95v-215c0 -35 24 -60 55 -60c40 0 70 29 70 120c0 155 -124 280 -295 280c-160 0 -290 -130 -290 -300s130 -300 290 -300c57 0 102 15 133 30c18 9 34 19 47 30zM435 155
c45 0 80 34 80 90s-36 90 -80 90c-45 0 -80 -34 -80 -90s35 -90 80 -90z" />
    <glyph glyph-name="A" unicode="A" horiz-adv-x="720" 
d="M275 295h170l-83 230h-4zM5 0l270 700h170l270 -700h-160l-60 160h-270l-60 -160h-160z" />
    <glyph glyph-name="B" unicode="B" horiz-adv-x="690" 
d="M90 0v700h295c140 0 225 -85 225 -185c0 -56 -24 -91 -48 -114c-14 -13 -30 -24 -47 -31c24 -7 46 -19 65 -34c32 -27 65 -68 65 -136c0 -109 -91 -200 -240 -200h-315zM240 130h155c60 0 95 34 95 85s-35 85 -95 85h-155v-170zM240 430h135c51 0 80 30 80 70
s-29 70 -80 70h-135v-140z" />
    <glyph glyph-name="C" unicode="C" horiz-adv-x="745" 
d="M625 225l100 -100c-21 -26 -46 -49 -75 -70c-51 -35 -125 -70 -225 -70c-216 0 -380 165 -380 365s164 365 380 365c97 0 172 -35 221 -70c29 -21 53 -44 74 -70l-100 -100c-15 19 -32 35 -51 50c-33 25 -81 50 -144 50c-125 0 -225 -100 -225 -225s100 -225 225 -225
c65 0 114 25 149 50c20 15 37 31 51 50z" />
    <glyph glyph-name="D" unicode="D" horiz-adv-x="760" 
d="M90 0v700h255c215 0 370 -155 370 -350s-155 -350 -370 -350h-255zM240 140h105c125 0 215 90 215 210s-90 210 -215 210h-105v-420z" />
    <glyph glyph-name="E" unicode="E" horiz-adv-x="665" 
d="M90 0v700h520v-140h-370v-135h290v-135h-290v-150h380v-140h-530z" />
    <glyph glyph-name="F" unicode="F" horiz-adv-x="640" 
d="M90 0v700h515v-140h-365v-165h285v-140h-285v-255h-150z" />
    <glyph glyph-name="G" unicode="G" horiz-adv-x="795" 
d="M450 265v120h280v-265c-22 -25 -48 -48 -78 -68c-51 -35 -127 -67 -227 -67c-216 0 -380 165 -380 365s164 365 380 365c97 0 172 -35 221 -70c29 -21 53 -44 74 -70l-100 -100c-15 19 -32 35 -51 50c-33 25 -81 50 -144 50c-125 0 -225 -100 -225 -225
s100 -225 225 -225c51 0 88 12 115 27c15 8 29 17 40 28v85h-130z" />
    <glyph glyph-name="H" unicode="H" horiz-adv-x="780" 
d="M90 0v700h150v-275h300v275h150v-700h-150v285h-300v-285h-150z" />
    <glyph glyph-name="I" unicode="I" horiz-adv-x="330" 
d="M90 0v700h150v-700h-150z" />
    <glyph glyph-name="J" unicode="J" horiz-adv-x="525" 
d="M-10 75l100 100c7 -9 16 -18 27 -25c17 -13 42 -25 73 -25c60 0 100 39 100 110v465h150v-465c0 -149 -100 -250 -245 -250c-73 0 -124 22 -157 45c-19 13 -35 28 -48 45z" />
    <glyph glyph-name="K" unicode="K" horiz-adv-x="700" 
d="M90 0v700h150v-300l270 300h180l-260 -290l280 -410h-175l-205 300l-90 -95v-205h-150z" />
    <glyph glyph-name="L" unicode="L" horiz-adv-x="585" 
d="M90 0v700h150v-560h325v-140h-475z" />
    <glyph glyph-name="M" unicode="M" horiz-adv-x="930" 
d="M90 0v700h135l240 -300l240 300h135v-700h-150v460l-225 -280l-225 280v-460h-150z" />
    <glyph glyph-name="N" unicode="N" horiz-adv-x="805" 
d="M90 0v700h135l340 -435v435h150v-700h-135l-340 435v-435h-150z" />
    <glyph glyph-name="O" unicode="O" horiz-adv-x="850" 
d="M200 350c0 -125 100 -225 225 -225s225 100 225 225s-100 225 -225 225s-225 -100 -225 -225zM45 350c0 200 164 365 380 365s380 -165 380 -365s-164 -365 -380 -365s-380 165 -380 365z" />
    <glyph glyph-name="P" unicode="P" horiz-adv-x="680" 
d="M90 0v700h295c149 0 250 -99 250 -235s-101 -235 -250 -235h-145v-230h-150zM240 370h140c60 0 100 39 100 95s-40 95 -100 95h-140v-190z" />
    <glyph glyph-name="Q" unicode="Q" horiz-adv-x="850" 
d="M815 -35v-130l-14 -3c-9 -1 -21 -2 -36 -2c-105 0 -177 40 -224 80c-27 23 -49 50 -66 80l-14 -3c-9 -1 -21 -2 -36 -2c-216 0 -380 165 -380 365s164 365 380 365s380 -165 380 -365c0 -116 -50 -193 -98 -244c-29 -29 -61 -53 -97 -71c11 -14 25 -27 41 -38
c27 -19 66 -37 119 -37c12 0 24 1 32 2zM200 350c0 -125 100 -225 225 -225s225 100 225 225s-100 225 -225 225s-225 -100 -225 -225z" />
    <glyph glyph-name="R" unicode="R" horiz-adv-x="705" 
d="M90 0v700h310c150 0 245 -95 245 -235c0 -80 -29 -132 -60 -163c-17 -18 -37 -32 -60 -42l145 -260h-165l-125 230h-140v-230h-150zM240 370h155c56 0 95 39 95 95s-39 95 -95 95h-155v-190z" />
    <glyph glyph-name="S" unicode="S" horiz-adv-x="585" 
d="M20 95l100 100c12 -14 26 -27 43 -38c28 -19 69 -37 122 -37c80 0 115 35 115 80c0 119 -350 66 -350 310c0 110 95 205 255 205c77 0 137 -24 176 -48c23 -14 42 -30 59 -47l-100 -100c-11 11 -22 21 -35 30c-23 15 -55 30 -95 30c-76 0 -105 -30 -105 -70
c0 -119 350 -66 350 -310c0 -115 -100 -215 -265 -215c-91 0 -158 27 -203 55c-27 16 -49 34 -67 55z" />
    <glyph glyph-name="T" unicode="T" horiz-adv-x="590" 
d="M220 0v560h-200v140h550v-140h-200v-560h-150z" />
    <glyph glyph-name="U" unicode="U" horiz-adv-x="780" 
d="M85 290v410h150v-410c0 -100 64 -165 155 -165s155 65 155 165v410h150v-410c0 -180 -125 -305 -305 -305s-305 125 -305 305z" />
    <glyph glyph-name="V" unicode="V" horiz-adv-x="720" 
d="M275 0l-260 700h160l183 -515h4l183 515h160l-260 -700h-170z" />
    <glyph glyph-name="W" unicode="W" horiz-adv-x="1070" 
d="M245 0l-230 700h155l145 -470h5l145 470h140l145 -470h5l145 470h155l-230 -700h-145l-142 455h-6l-142 -455h-145z" />
    <glyph glyph-name="X" unicode="X" horiz-adv-x="680" 
d="M0 0l240 365l-220 335h175l143 -230h4l143 230h175l-220 -335l240 -365h-175l-163 260h-4l-163 -260h-175z" />
    <glyph glyph-name="Y" unicode="Y" horiz-adv-x="670" 
d="M260 0v250l-265 450h175l163 -300h4l163 300h175l-265 -450v-250h-150z" />
    <glyph glyph-name="Z" unicode="Z" horiz-adv-x="645" 
d="M45 0v140l355 420h-340v140h530v-140l-355 -420h365v-140h-555z" />
    <glyph glyph-name="bracketleft" unicode="[" horiz-adv-x="365" 
d="M80 -210v920h255v-125h-115v-670h115v-125h-255z" />
    <glyph glyph-name="backslash" unicode="\" horiz-adv-x="425" 
d="M300 -210l-300 920h125l300 -920h-125z" />
    <glyph glyph-name="bracketright" unicode="]" horiz-adv-x="365" 
d="M30 -210v125h115v670h-115v125h255v-920h-255z" />
    <glyph glyph-name="asciicircum" unicode="^" horiz-adv-x="430" 
d="M30 400l135 300h100l135 -300h-115l-70 160l-70 -160h-115z" />
    <glyph glyph-name="underscore" unicode="_" horiz-adv-x="345" 
d="M-10 -210v125h365v-125h-365z" />
    <glyph glyph-name="grave" unicode="`" horiz-adv-x="280" 
d="M140 555l-110 150h140l80 -150h-110z" />
    <glyph glyph-name="a" unicode="a" horiz-adv-x="540" 
d="M340 0v60h-5c-11 -13 -23 -25 -37 -35c-24 -19 -61 -35 -108 -35c-90 0 -150 60 -150 140s54 141 145 157l155 28c-5 35 -34 65 -85 65c-35 0 -62 -13 -81 -28c-11 -8 -21 -17 -29 -27l-80 80c14 17 31 33 51 47c35 24 84 48 149 48c125 0 210 -86 210 -195v-305h-135z
M340 210v10l-110 -20c-35 -7 -55 -25 -55 -50c0 -31 20 -50 60 -50c60 0 105 45 105 110z" />
    <glyph glyph-name="b" unicode="b" horiz-adv-x="620" 
d="M70 0v700h135v-280h5c10 15 23 28 38 40c27 20 64 40 117 40c116 0 220 -106 220 -255c0 -150 -104 -255 -220 -255c-53 0 -90 20 -117 40c-15 12 -28 25 -38 40h-5v-70h-135zM325 115c70 0 125 55 125 130s-55 130 -125 130s-125 -55 -125 -130s55 -130 125 -130z" />
    <glyph glyph-name="c" unicode="c" horiz-adv-x="520" 
d="M415 175l85 -85c-13 -19 -30 -35 -50 -50c-35 -25 -84 -50 -155 -50c-145 0 -260 115 -260 255s115 255 260 255c71 0 120 -25 155 -50c20 -15 37 -31 50 -50l-85 -85c-9 11 -20 21 -32 30c-21 15 -51 30 -88 30c-70 0 -125 -55 -125 -130s55 -130 125 -130
c37 0 67 15 88 30c12 9 23 19 32 30z" />
    <glyph glyph-name="d" unicode="d" horiz-adv-x="620" 
d="M415 0v70h-5c-10 -15 -23 -28 -38 -40c-27 -20 -65 -40 -117 -40c-116 0 -220 105 -220 255c0 149 104 255 220 255c52 0 90 -20 117 -40c15 -12 28 -25 38 -40h5v280h135v-700h-135zM295 115c70 0 125 55 125 130s-55 130 -125 130s-125 -55 -125 -130s55 -130 125 -130
z" />
    <glyph glyph-name="e" unicode="e" horiz-adv-x="570" 
d="M435 165l70 -95c-15 -15 -33 -28 -54 -40c-36 -20 -88 -40 -156 -40c-145 0 -260 115 -260 255s115 255 255 255c135 0 245 -110 245 -245c0 -19 -2 -32 -3 -43l-2 -17h-355c15 -45 55 -85 130 -85c43 0 74 12 97 27c13 8 24 17 33 28zM175 295h220
c-15 45 -54 85 -110 85s-95 -40 -110 -85z" />
    <glyph glyph-name="f" unicode="f" horiz-adv-x="370" 
d="M95 0v355h-75v125h75v50c0 116 65 180 165 180c25 0 48 -4 64 -8c9 -3 18 -5 26 -7v-125c-5 1 -10 3 -16 5c-11 3 -24 5 -39 5c-40 0 -65 -25 -65 -70v-30h110v-125h-110v-355h-135z" />
    <glyph glyph-name="g" unicode="g" horiz-adv-x="600" 
d="M285 135c65 0 115 49 115 120s-50 120 -115 120s-115 -49 -115 -120s50 -120 115 -120zM55 -110l85 85c10 -11 22 -21 35 -30c23 -15 55 -30 95 -30c75 0 130 55 130 135v40h-5c-10 -15 -22 -28 -36 -40c-24 -20 -62 -40 -114 -40c-109 0 -210 100 -210 245
s101 245 210 245c52 0 90 -20 114 -40c14 -12 26 -25 36 -40h5v70h135v-440c0 -150 -110 -260 -265 -260c-73 0 -126 25 -162 50c-21 15 -39 31 -53 50z" />
    <glyph glyph-name="h" unicode="h" horiz-adv-x="600" 
d="M70 0v700h135v-280h5c11 15 23 28 37 40c24 20 60 40 108 40c100 0 180 -80 180 -205v-295h-135v275c0 60 -34 95 -90 95c-60 0 -105 -45 -105 -110v-260h-135z" />
    <glyph glyph-name="i" unicode="i" horiz-adv-x="265" 
d="M65 0v490h135v-490h-135zM55 630c0 40 35 75 78 75s77 -35 77 -75s-35 -75 -78 -75s-77 35 -77 75z" />
    <glyph glyph-name="j" unicode="j" horiz-adv-x="265" 
d="M-55 -195v125c5 -2 10 -4 16 -5c11 -3 24 -5 39 -5c40 0 65 25 65 70v500h135v-520c0 -116 -65 -180 -165 -180c-25 0 -48 3 -64 7c-9 3 -18 5 -26 8zM55 630c0 40 35 75 78 75s77 -35 77 -75s-35 -75 -78 -75s-77 35 -77 75z" />
    <glyph glyph-name="k" unicode="k" horiz-adv-x="545" 
d="M70 0v700h135v-410l175 200h160l-180 -205l190 -285h-155l-125 190l-65 -75v-115h-135z" />
    <glyph glyph-name="l" unicode="l" horiz-adv-x="275" 
d="M70 0v700h135v-700h-135z" />
    <glyph glyph-name="m" unicode="m" horiz-adv-x="885" 
d="M65 0v490h135v-70h5c9 15 19 28 32 40c23 20 55 40 103 40c52 0 89 -22 112 -43c13 -12 24 -26 33 -42h5c11 16 25 30 41 42c27 21 66 43 119 43c96 0 170 -75 170 -195v-305h-135v285c0 56 -29 85 -80 85c-56 0 -95 -40 -95 -100v-270h-135v285c0 56 -29 85 -80 85
c-56 0 -95 -40 -95 -100v-270h-135z" />
    <glyph glyph-name="n" unicode="n" horiz-adv-x="595" 
d="M65 0v490h135v-70h5c11 15 23 28 37 40c24 20 60 40 108 40c100 0 180 -80 180 -205v-295h-135v275c0 60 -34 95 -90 95c-60 0 -105 -45 -105 -110v-260h-135z" />
    <glyph glyph-name="o" unicode="o" horiz-adv-x="590" 
d="M295 115c70 0 125 55 125 130s-55 130 -125 130s-125 -55 -125 -130s55 -130 125 -130zM35 245c0 140 115 255 260 255s260 -115 260 -255s-115 -255 -260 -255s-260 115 -260 255z" />
    <glyph glyph-name="p" unicode="p" horiz-adv-x="615" 
d="M65 -210v700h135v-70h5c10 15 23 28 38 40c27 20 64 40 117 40c116 0 220 -106 220 -255c0 -150 -104 -255 -220 -255c-53 0 -90 20 -117 40c-15 12 -28 25 -38 40h-5v-280h-135zM320 115c70 0 125 55 125 130s-55 130 -125 130s-125 -55 -125 -130s55 -130 125 -130z
" />
    <glyph glyph-name="q" unicode="q" horiz-adv-x="615" 
d="M415 -210v280h-5c-10 -15 -23 -28 -38 -40c-27 -20 -65 -40 -117 -40c-116 0 -220 105 -220 255c0 149 104 255 220 255c52 0 90 -20 117 -40c15 -12 28 -25 38 -40h5v70h135v-700h-135zM295 115c70 0 125 55 125 130s-55 130 -125 130s-125 -55 -125 -130
s55 -130 125 -130z" />
    <glyph glyph-name="r" unicode="r" horiz-adv-x="380" 
d="M65 0v490h135v-70h5c11 15 23 28 37 40c24 20 60 40 108 40h10v-145l-11 2c-8 1 -19 3 -34 3c-65 0 -115 -50 -115 -130v-230h-135z" />
    <glyph glyph-name="s" unicode="s" horiz-adv-x="455" 
d="M15 80l80 85c10 -11 22 -20 35 -28c23 -15 55 -27 95 -27c45 0 60 15 60 35c0 55 -250 45 -250 205c0 80 70 150 195 150c63 0 110 -19 142 -38c19 -11 35 -24 48 -37l-80 -85c-8 7 -18 14 -29 20c-19 11 -46 20 -81 20s-50 -15 -50 -30c0 -55 250 -45 250 -205
c0 -84 -70 -155 -205 -155c-68 0 -120 22 -156 45c-21 13 -39 28 -54 45z" />
    <glyph glyph-name="t" unicode="t" horiz-adv-x="400" 
d="M105 170v185h-85v125h45c37 0 55 20 55 60v90h120v-150h110v-125h-110v-165c0 -45 25 -70 65 -70c15 0 28 2 39 5c6 1 11 3 16 5v-125c-8 -3 -17 -5 -26 -8c-16 -4 -39 -7 -64 -7c-100 0 -165 64 -165 180z" />
    <glyph glyph-name="u" unicode="u" horiz-adv-x="595" 
d="M65 195v295h135v-275c0 -60 34 -95 90 -95c60 0 105 45 105 110v260h135v-490h-135v70h-5c-11 -15 -23 -28 -37 -40c-24 -20 -61 -40 -108 -40c-100 0 -180 80 -180 205z" />
    <glyph glyph-name="v" unicode="v" horiz-adv-x="510" 
d="M180 0l-185 490h145l113 -330h4l113 330h145l-185 -490h-150z" />
    <glyph glyph-name="w" unicode="w" horiz-adv-x="770" 
d="M167 0l-172 490h145l90 -290h5l95 290h110l95 -290h5l90 290h145l-172 -490h-123l-93 285h-4l-93 -285h-123z" />
    <glyph glyph-name="x" unicode="x" horiz-adv-x="510" 
d="M-5 0l175 250l-165 240h155l93 -150h4l93 150h155l-165 -240l175 -250h-155l-103 160h-4l-103 -160h-155z" />
    <glyph glyph-name="y" unicode="y" horiz-adv-x="510" 
d="M35 -195v125c5 -2 10 -4 16 -5c11 -3 24 -5 39 -5c45 0 70 25 85 60l10 25l-190 485h145l115 -325h5l110 325h145l-200 -530c-41 -111 -99 -170 -190 -170c-25 0 -48 3 -64 7c-9 3 -18 5 -26 8z" />
    <glyph glyph-name="z" unicode="z" horiz-adv-x="500" 
d="M35 0v125l240 240h-230v125h410v-125l-240 -240h250v-125h-430z" />
    <glyph glyph-name="braceleft" unicode="{" horiz-adv-x="380" 
d="M105 -45v170c0 40 -25 65 -65 65h-10v120h10c40 0 65 25 65 65v170c0 105 59 165 170 165h75v-125h-45c-40 0 -60 -20 -60 -60v-165c0 -45 -20 -73 -40 -89c-12 -9 -25 -16 -40 -21c15 -5 28 -12 40 -21c20 -16 40 -44 40 -89v-165c0 -40 20 -60 60 -60h45v-125h-75
c-111 0 -170 60 -170 165z" />
    <glyph glyph-name="bar" unicode="|" horiz-adv-x="380" 
d="M120 -210v920h140v-920h-140z" />
    <glyph glyph-name="braceright" unicode="}" horiz-adv-x="380" 
d="M30 -210v125h45c40 0 60 20 60 60v165c0 45 20 73 40 89c12 9 25 16 40 21c-15 5 -28 12 -40 21c-20 16 -40 44 -40 89v165c0 40 -20 60 -60 60h-45v125h75c111 0 170 -60 170 -165v-170c0 -40 25 -65 65 -65h10v-120h-10c-40 0 -65 -25 -65 -65v-170
c0 -105 -59 -165 -170 -165h-75z" />
    <glyph glyph-name="asciitilde" unicode="~" horiz-adv-x="570" 
d="M120 210l-90 70c9 19 20 37 34 52c24 27 60 53 116 53c96 0 129 -60 190 -60c27 0 48 12 61 27c7 8 14 17 19 28l90 -70c-9 -20 -20 -38 -34 -53c-24 -27 -60 -52 -116 -52c-95 0 -130 60 -190 60c-28 0 -48 -13 -61 -28c-7 -8 -14 -17 -19 -27z" />
    <glyph glyph-name="nbspace" unicode="&#xa0;" horiz-adv-x="210" 
 />
    <glyph glyph-name="exclamdown" unicode="&#xa1;" horiz-adv-x="320" 
d="M80 -210l25 485h110l25 -485h-160zM80 420c0 45 35 80 80 80s80 -35 80 -80s-35 -80 -80 -80s-80 35 -80 80z" />
    <glyph glyph-name="cent" unicode="&#xa2;" horiz-adv-x="520" 
d="M230 -100v100c-100 19 -195 115 -195 245c0 131 95 224 195 245v100h120v-95c47 -11 84 -34 111 -55c15 -12 28 -25 39 -40l-85 -85c-9 11 -20 21 -32 30c-21 15 -51 30 -88 30c-70 0 -125 -55 -125 -130s55 -130 125 -130c37 0 67 15 88 30c12 9 23 19 32 30l85 -85
c-11 -15 -24 -28 -39 -40c-27 -21 -64 -44 -111 -55v-95h-120z" />
    <glyph glyph-name="sterling" unicode="&#xa3;" horiz-adv-x="560" 
d="M30 0v130c45 0 70 25 70 65v75h-65v120h65v90c0 140 95 235 230 235c72 0 124 -22 159 -45c20 -13 37 -28 51 -45l-100 -95c-7 9 -16 18 -25 25c-16 12 -39 25 -70 25c-65 0 -105 -40 -105 -100v-90h175v-120h-175v-75c0 -23 -6 -38 -13 -49c-3 -7 -7 -12 -12 -16h325
v-130h-510z" />
    <glyph glyph-name="currency" unicode="&#xa4;" horiz-adv-x="510" 
d="M350 335c0 51 -39 95 -95 95s-95 -44 -95 -95s39 -95 95 -95s95 44 95 95zM40 185l60 60c-5 8 -10 17 -13 26c-7 16 -12 39 -12 64s5 48 12 64c3 9 8 18 13 26l-60 60l60 60l60 -60c9 5 18 10 29 15c17 7 41 15 66 15s47 -8 66 -15l29 -15l60 60l60 -60l-60 -60
c5 -8 9 -17 12 -26c7 -16 13 -39 13 -64s-6 -48 -13 -64c-3 -9 -7 -18 -12 -26l60 -60l-60 -60l-60 60c-9 -6 -19 -11 -29 -15c-19 -8 -41 -15 -66 -15s-49 7 -66 15c-11 4 -20 9 -29 15l-60 -60z" />
    <glyph glyph-name="yen" unicode="&#xa5;" horiz-adv-x="670" 
d="M110 95v100h150v60h-150v100h90l-205 345h175l163 -300h4l163 300h175l-205 -345h90v-100h-150v-60h150v-100h-150v-95h-150v95h-150z" />
    <glyph glyph-name="brokenbar" unicode="&#xa6;" horiz-adv-x="380" 
d="M120 -210v380h140v-380h-140zM120 330v380h140v-380h-140z" />
    <glyph glyph-name="section" unicode="&#xa7;" horiz-adv-x="560" 
d="M55 -20l80 85c11 -11 23 -21 36 -30c23 -15 51 -30 84 -30c60 0 85 25 85 50c0 80 -290 80 -290 260c0 47 23 80 47 103c14 13 30 23 48 32c-13 7 -25 16 -35 27c-19 19 -35 44 -35 83c0 84 70 155 205 155c65 0 113 -19 144 -38c18 -11 33 -24 46 -37l-80 -85
c-9 7 -18 14 -28 20c-19 11 -41 20 -72 20c-51 0 -70 -20 -70 -45c0 -70 290 -70 290 -250c0 -48 -24 -80 -48 -103c-14 -13 -30 -23 -47 -32c13 -7 24 -17 35 -28c17 -19 35 -49 35 -92c0 -85 -75 -160 -220 -160c-68 0 -120 23 -156 47c-21 14 -39 30 -54 48zM185 320
c0 -33 36 -56 72 -72c21 -9 46 -17 73 -23c8 4 15 9 22 16c11 11 23 29 23 54c0 32 -37 56 -73 72c-21 9 -45 17 -72 23c-9 -4 -16 -9 -23 -16c-11 -11 -22 -29 -22 -54z" />
    <glyph glyph-name="dieresis" unicode="&#xa8;" horiz-adv-x="430" 
d="M30 630c0 40 35 75 75 75s75 -35 75 -75s-35 -75 -75 -75s-75 35 -75 75zM250 630c0 40 35 75 75 75s75 -35 75 -75s-35 -75 -75 -75s-75 35 -75 75z" />
    <glyph glyph-name="copyright" unicode="&#xa9;" horiz-adv-x="850" 
d="M425 60c156 0 285 130 285 290s-129 290 -285 290s-285 -130 -285 -290s129 -290 285 -290zM50 350c0 205 164 370 375 370s375 -165 375 -370s-164 -370 -375 -370s-375 165 -375 370zM535 290l60 -60c-11 -14 -24 -27 -39 -38c-27 -19 -65 -37 -121 -37
c-115 0 -200 85 -200 195c0 109 85 195 200 195c56 0 94 -19 121 -38c15 -11 28 -24 39 -37l-60 -60c-6 8 -14 15 -23 22c-16 11 -40 23 -72 23c-65 0 -110 -45 -110 -105s45 -105 110 -105c32 0 56 11 72 22c9 7 17 14 23 23z" />
    <glyph glyph-name="ordfeminine" unicode="&#xaa;" horiz-adv-x="360" 
d="M230 390v40c-6 -9 -14 -16 -23 -23c-16 -11 -40 -22 -72 -22c-65 0 -105 39 -105 95c0 45 39 84 102 95l98 15c0 20 -20 40 -55 40c-25 0 -44 -8 -56 -15c-7 -5 -14 -10 -19 -15l-55 50c9 11 19 21 32 30c23 15 55 30 103 30c91 0 140 -50 140 -130v-190h-90zM230 525v10
l-75 -15c-20 -4 -35 -20 -35 -35s15 -30 40 -30c35 0 70 35 70 70z" />
    <glyph glyph-name="guillemotleft" unicode="&#xab;" horiz-adv-x="550" 
d="M160 60l-125 180l125 180h135l-125 -180l125 -180h-135zM380 60l-125 180l125 180h135l-125 -180l125 -180h-135z" />
    <glyph glyph-name="logicalnot" unicode="&#xac;" horiz-adv-x="485" 
d="M40 290v120h405v-245h-125v125h-280z" />
    <glyph glyph-name="uni00AD" unicode="&#xad;" horiz-adv-x="435" 
d="M50 235v125h335v-125h-335z" />
    <glyph glyph-name="registered" unicode="&#xae;" horiz-adv-x="850" 
d="M285 160v380h165c80 0 135 -55 135 -125c0 -39 -18 -62 -35 -78c-11 -9 -22 -17 -35 -22l85 -155h-105l-65 130h-50v-130h-95zM380 375h65c27 0 40 13 40 40s-13 40 -40 40h-65v-80zM425 60c156 0 285 130 285 290s-129 290 -285 290s-285 -130 -285 -290
s129 -290 285 -290zM50 350c0 205 164 370 375 370s375 -165 375 -370s-164 -370 -375 -370s-375 165 -375 370z" />
    <glyph glyph-name="overscore" unicode="&#xaf;" horiz-adv-x="380" 
d="M30 615v100h320v-100h-320z" />
    <glyph glyph-name="degree" unicode="&#xb0;" horiz-adv-x="370" 
d="M125 560c0 -35 25 -60 60 -60s60 25 60 60s-25 60 -60 60s-60 -25 -60 -60zM30 560c0 80 64 150 155 150s155 -70 155 -150s-64 -150 -155 -150s-155 70 -155 150z" />
    <glyph glyph-name="plusminus" unicode="&#xb1;" horiz-adv-x="525" 
d="M35 0v115h455v-115h-455zM35 330v125h170v160h115v-160h170v-125h-170v-160h-115v160h-170z" />
    <glyph glyph-name="uni00B2" unicode="&#xb2;" horiz-adv-x="330" 
d="M160 535h130v-90h-260c0 164 170 185 170 240c0 20 -20 35 -45 35c-19 0 -32 -9 -41 -18c-5 -5 -10 -11 -14 -17l-70 30c7 17 16 32 28 45c21 23 54 45 107 45c80 0 130 -50 130 -115c0 -91 -95 -104 -135 -155z" />
    <glyph glyph-name="uni00B3" unicode="&#xb3;" horiz-adv-x="325" 
d="M15 495l55 60c6 -7 13 -13 21 -18c15 -9 34 -17 59 -17c35 0 50 15 50 35s-15 35 -50 35h-45v75h45c25 0 40 15 40 30s-15 30 -40 30c-20 0 -38 -9 -50 -18c-7 -5 -14 -11 -20 -17l-55 60c9 10 20 19 33 27c23 15 54 28 97 28c85 0 130 -44 130 -100
c0 -28 -13 -46 -25 -58c-7 -7 -16 -13 -25 -17c11 -5 21 -11 30 -18c15 -13 30 -31 30 -62c0 -60 -50 -110 -135 -110c-51 0 -86 12 -110 27c-14 8 -26 17 -35 28z" />
    <glyph glyph-name="acute" unicode="&#xb4;" horiz-adv-x="280" 
d="M30 555l80 150h140l-110 -150h-110z" />
    <glyph glyph-name="uni00B5" unicode="&#xb5;" horiz-adv-x="605" 
d="M65 -210v700h135v-275c0 -60 34 -95 90 -95c60 0 105 45 105 110v260h135v-335c0 -20 15 -35 35 -35c4 0 9 1 14 2l6 3v-125c-5 -2 -10 -4 -16 -5c-11 -3 -24 -5 -39 -5c-48 0 -77 20 -96 40c-11 12 -19 25 -24 40h-5c-9 -15 -20 -28 -34 -40c-24 -20 -60 -40 -116 -40
c-15 0 -28 2 -39 5c-6 1 -11 3 -16 5v-210h-135z" />
    <glyph glyph-name="paragraph" unicode="&#xb6;" horiz-adv-x="615" 
d="M210 -100v440c-100 0 -180 80 -180 180s80 180 180 180h325v-800h-120v670h-85v-670h-120z" />
    <glyph glyph-name="middot" unicode="&#xb7;" horiz-adv-x="210" 
d="M25 250c0 45 35 80 80 80s80 -35 80 -80s-35 -80 -80 -80s-80 35 -80 80z" />
    <glyph glyph-name="cedilla" unicode="&#xb8;" horiz-adv-x="280" 
d="M30 -190l30 60c6 -5 13 -10 20 -13c12 -7 30 -12 50 -12c23 0 35 8 35 25s-12 25 -35 25c-8 0 -14 -2 -18 -3l-7 -2l-30 35l45 95h80l-35 -65c16 -1 30 -6 42 -13c21 -12 43 -34 43 -77c0 -56 -39 -95 -110 -95c-35 0 -62 9 -81 20c-11 6 -21 13 -29 20z" />
    <glyph glyph-name="uni00B9" unicode="&#xb9;" horiz-adv-x="270" 
d="M115 445v235h-65v75c51 5 75 30 80 45h80v-355h-95z" />
    <glyph glyph-name="ordmasculine" unicode="&#xba;" horiz-adv-x="380" 
d="M190 470c40 0 70 30 70 75s-30 75 -70 75s-70 -30 -70 -75s30 -75 70 -75zM25 545c0 95 70 165 165 165s165 -70 165 -165s-70 -165 -165 -165s-165 70 -165 165z" />
    <glyph glyph-name="guillemotright" unicode="&#xbb;" horiz-adv-x="550" 
d="M255 60l125 180l-125 180h135l125 -180l-125 -180h-135zM35 60l125 180l-125 180h135l125 -180l-125 -180h-135z" />
    <glyph glyph-name="onequarter" unicode="&#xbc;" horiz-adv-x="725" 
d="M65 0l435 700h125l-435 -700h-125zM95 345v235h-65v75c51 5 75 30 80 45h80v-355h-95zM400 65v85l155 205h100v-205h40v-85h-40v-65h-95v65h-160zM495 150h65v85z" />
    <glyph glyph-name="onehalf" unicode="&#xbd;" horiz-adv-x="745" 
d="M65 0l435 700h125l-435 -700h-125zM95 345v235h-65v75c51 5 75 30 80 45h80v-355h-95zM570 90h130v-90h-260c0 164 170 185 170 240c0 20 -20 35 -45 35c-19 0 -32 -9 -41 -18c-5 -5 -10 -11 -14 -17l-70 30c7 17 16 32 28 45c21 23 54 45 107 45c80 0 130 -50 130 -115
c0 -91 -95 -104 -135 -155z" />
    <glyph glyph-name="threequarters" unicode="&#xbe;" horiz-adv-x="795" 
d="M135 0l435 700h125l-435 -700h-125zM470 65v85l155 205h100v-205h40v-85h-40v-65h-95v65h-160zM565 150h65v85zM30 395l55 60c6 -7 13 -13 21 -18c15 -9 34 -17 59 -17c35 0 50 15 50 35s-15 35 -50 35h-45v75h45c25 0 40 15 40 30s-15 30 -40 30c-20 0 -38 -9 -50 -18
c-7 -5 -14 -11 -20 -17l-55 60c9 10 20 19 33 27c23 15 54 28 97 28c85 0 130 -44 130 -100c0 -28 -13 -46 -25 -58c-7 -7 -16 -13 -25 -17c11 -5 21 -11 30 -18c15 -13 30 -31 30 -62c0 -60 -50 -110 -135 -110c-51 0 -86 12 -110 27c-14 8 -26 17 -35 28z" />
    <glyph glyph-name="questiondown" unicode="&#xbf;" horiz-adv-x="525" 
d="M395 5l130 -60c-13 -31 -30 -59 -53 -83c-40 -40 -101 -82 -202 -82c-155 0 -250 95 -250 205c0 170 195 170 195 290h130c1 -4 3 -8 5 -13c3 -8 5 -20 5 -32c0 -136 -175 -154 -175 -235c0 -35 35 -70 90 -70c45 0 76 20 96 40c12 12 22 25 29 40zM205 420
c0 45 35 80 80 80s80 -35 80 -80s-35 -80 -80 -80s-80 35 -80 80z" />
    <glyph glyph-name="Agrave" unicode="&#xc0;" horiz-adv-x="720" 
d="M275 295h170l-83 230h-4zM5 0l270 700h170l270 -700h-160l-60 160h-270l-60 -160h-160zM300 785l-110 150h140l80 -150h-110z" />
    <glyph glyph-name="Aacute" unicode="&#xc1;" horiz-adv-x="720" 
d="M275 295h170l-83 230h-4zM5 0l270 700h170l270 -700h-160l-60 160h-270l-60 -160h-160zM310 785l80 150h140l-110 -150h-110z" />
    <glyph glyph-name="Acircumflex" unicode="&#xc2;" horiz-adv-x="720" 
d="M275 295h170l-83 230h-4zM5 0l270 700h170l270 -700h-160l-60 160h-270l-60 -160h-160zM180 785l120 150h120l120 -150h-120l-60 80l-60 -80h-120z" />
    <glyph glyph-name="Atilde" unicode="&#xc3;" horiz-adv-x="720" 
d="M275 295h170l-83 230h-4zM5 0l270 700h170l270 -700h-160l-60 160h-270l-60 -160h-160zM265 780h-85c0 105 44 150 107 150c68 0 88 -55 128 -55c20 0 35 15 35 55h85c0 -105 -45 -150 -105 -150c-70 0 -85 50 -130 50c-20 0 -35 -15 -35 -50z" />
    <glyph glyph-name="Adieresis" unicode="&#xc4;" horiz-adv-x="720" 
d="M275 295h170l-83 230h-4zM5 0l270 700h170l270 -700h-160l-60 160h-270l-60 -160h-160zM175 855c0 40 35 75 75 75s75 -35 75 -75s-35 -75 -75 -75s-75 35 -75 75zM395 855c0 40 35 75 75 75s75 -35 75 -75s-35 -75 -75 -75s-75 35 -75 75z" />
    <glyph glyph-name="Aring" unicode="&#xc5;" horiz-adv-x="720" 
d="M275 295h170l-83 230h-4zM5 0l270 700h170l270 -700h-160l-60 160h-270l-60 -160h-160zM320 870c0 -25 20 -40 40 -40s40 15 40 40s-20 40 -40 40s-40 -15 -40 -40zM245 870c0 59 51 110 115 110s115 -51 115 -110c0 -61 -51 -110 -115 -110s-115 49 -115 110z" />
    <glyph glyph-name="AE" unicode="&#xc6;" horiz-adv-x="995" 
d="M-40 0l390 700h590v-140h-330v-135h250v-135h-250v-150h340v-140h-490v170h-240l-95 -170h-165zM295 305h165v255h-25z" />
    <glyph glyph-name="Ccedilla" unicode="&#xc7;" horiz-adv-x="745" 
d="M295 -190l30 60c6 -5 13 -10 20 -13c12 -7 30 -12 50 -12c23 0 35 8 35 25s-12 25 -35 25c-8 0 -14 -2 -18 -3l-7 -2l-30 35l30 65c-176 19 -325 171 -325 360c0 200 164 365 380 365c97 0 172 -35 221 -70c29 -21 53 -44 74 -70l-100 -100c-15 19 -32 35 -51 50
c-33 25 -81 50 -144 50c-125 0 -225 -100 -225 -225s100 -225 225 -225c65 0 114 25 149 50c20 15 37 31 51 50l100 -100c-20 -24 -44 -46 -71 -66c-47 -35 -117 -69 -209 -74l-15 -30c16 -1 30 -6 42 -13c21 -12 43 -34 43 -77c0 -56 -39 -95 -110 -95c-35 0 -62 9 -81 20
c-11 6 -21 13 -29 20z" />
    <glyph glyph-name="Egrave" unicode="&#xc8;" horiz-adv-x="665" 
d="M90 0v700h520v-140h-370v-135h290v-135h-290v-150h380v-140h-530zM305 785l-110 150h140l80 -150h-110z" />
    <glyph glyph-name="Eacute" unicode="&#xc9;" horiz-adv-x="665" 
d="M90 0v700h520v-140h-370v-135h290v-135h-290v-150h380v-140h-530zM295 785l80 150h140l-110 -150h-110z" />
    <glyph glyph-name="Ecircumflex" unicode="&#xca;" horiz-adv-x="665" 
d="M90 0v700h520v-140h-370v-135h290v-135h-290v-150h380v-140h-530zM175 785l120 150h120l120 -150h-120l-60 80l-60 -80h-120z" />
    <glyph glyph-name="Edieresis" unicode="&#xcb;" horiz-adv-x="665" 
d="M90 0v700h520v-140h-370v-135h290v-135h-290v-150h380v-140h-530zM170 860c0 40 35 75 75 75s75 -35 75 -75s-35 -75 -75 -75s-75 35 -75 75zM390 860c0 40 35 75 75 75s75 -35 75 -75s-35 -75 -75 -75s-75 35 -75 75z" />
    <glyph glyph-name="Igrave" unicode="&#xcc;" horiz-adv-x="330" 
d="M90 0v700h150v-700h-150zM110 785l-110 150h140l80 -150h-110z" />
    <glyph glyph-name="Iacute" unicode="&#xcd;" horiz-adv-x="330" 
d="M90 0v700h150v-700h-150zM110 785l80 150h140l-110 -150h-110z" />
    <glyph glyph-name="Icircumflex" unicode="&#xce;" horiz-adv-x="330" 
d="M90 0v700h150v-700h-150zM-15 785l120 150h120l120 -150h-120l-60 80l-60 -80h-120z" />
    <glyph glyph-name="Idieresis" unicode="&#xcf;" horiz-adv-x="330" 
d="M90 0v700h150v-700h-150zM-20 855c0 40 35 75 75 75s75 -35 75 -75s-35 -75 -75 -75s-75 35 -75 75zM200 855c0 40 35 75 75 75s75 -35 75 -75s-35 -75 -75 -75s-75 35 -75 75z" />
    <glyph glyph-name="Eth" unicode="&#xd0;" horiz-adv-x="770" 
d="M100 0v290h-85v120h85v290h255c215 0 370 -155 370 -350s-155 -350 -370 -350h-255zM250 140h105c125 0 215 90 215 210s-90 210 -215 210h-105v-150h135v-120h-135v-150z" />
    <glyph glyph-name="Ntilde" unicode="&#xd1;" horiz-adv-x="805" 
d="M90 0v700h135l340 -435v435h150v-700h-135l-340 435v-435h-150zM310 780h-85c0 105 44 150 107 150c68 0 88 -55 128 -55c20 0 35 15 35 55h85c0 -105 -45 -150 -105 -150c-70 0 -85 50 -130 50c-20 0 -35 -15 -35 -50z" />
    <glyph glyph-name="Ograve" unicode="&#xd2;" horiz-adv-x="850" 
d="M200 350c0 -125 100 -225 225 -225s225 100 225 225s-100 225 -225 225s-225 -100 -225 -225zM45 350c0 200 164 365 380 365s380 -165 380 -365s-164 -365 -380 -365s-380 165 -380 365zM370 785l-110 150h140l80 -150h-110z" />
    <glyph glyph-name="Oacute" unicode="&#xd3;" horiz-adv-x="850" 
d="M200 350c0 -125 100 -225 225 -225s225 100 225 225s-100 225 -225 225s-225 -100 -225 -225zM45 350c0 200 164 365 380 365s380 -165 380 -365s-164 -365 -380 -365s-380 165 -380 365zM375 785l80 150h140l-110 -150h-110z" />
    <glyph glyph-name="Ocircumflex" unicode="&#xd4;" horiz-adv-x="850" 
d="M200 350c0 -125 100 -225 225 -225s225 100 225 225s-100 225 -225 225s-225 -100 -225 -225zM45 350c0 200 164 365 380 365s380 -165 380 -365s-164 -365 -380 -365s-380 165 -380 365zM245 785l120 150h120l120 -150h-120l-60 80l-60 -80h-120z" />
    <glyph glyph-name="Otilde" unicode="&#xd5;" horiz-adv-x="850" 
d="M200 350c0 -125 100 -225 225 -225s225 100 225 225s-100 225 -225 225s-225 -100 -225 -225zM45 350c0 200 164 365 380 365s380 -165 380 -365s-164 -365 -380 -365s-380 165 -380 365zM335 780h-85c0 105 44 150 107 150c68 0 88 -55 128 -55c20 0 35 15 35 55h85
c0 -105 -45 -150 -105 -150c-70 0 -85 50 -130 50c-20 0 -35 -15 -35 -50z" />
    <glyph glyph-name="Odieresis" unicode="&#xd6;" horiz-adv-x="850" 
d="M200 350c0 -125 100 -225 225 -225s225 100 225 225s-100 225 -225 225s-225 -100 -225 -225zM45 350c0 200 164 365 380 365s380 -165 380 -365s-164 -365 -380 -365s-380 165 -380 365zM240 855c0 40 35 75 75 75s75 -35 75 -75s-35 -75 -75 -75s-75 35 -75 75z
M460 855c0 40 35 75 75 75s75 -35 75 -75s-35 -75 -75 -75s-75 35 -75 75z" />
    <glyph glyph-name="multiply" unicode="&#xd7;" horiz-adv-x="520" 
d="M50 180l130 130l-130 130l80 80l130 -130l130 130l80 -80l-130 -130l130 -130l-80 -80l-130 130l-130 -130z" />
    <glyph glyph-name="Oslash" unicode="&#xd8;" horiz-adv-x="850" 
d="M230 235l315 305c-11 6 -22 12 -34 17c-21 9 -51 18 -86 18c-125 0 -225 -100 -225 -225c0 -39 7 -67 15 -86c4 -11 9 -21 15 -29zM620 465l-315 -305c11 -7 22 -13 34 -18c21 -9 51 -17 86 -17c125 0 225 100 225 225c0 37 -8 67 -15 86c-5 11 -10 21 -15 29zM35 50
l85 85c-14 17 -27 37 -38 59c-19 37 -37 91 -37 156c0 200 164 365 380 365c71 0 126 -18 165 -35c23 -11 43 -22 60 -35l85 85l80 -80l-85 -85c13 -17 26 -37 37 -59c19 -39 38 -91 38 -156c0 -200 -164 -365 -380 -365c-71 0 -126 16 -165 35c-23 10 -43 22 -60 35
l-85 -85z" />
    <glyph glyph-name="Ugrave" unicode="&#xd9;" horiz-adv-x="780" 
d="M85 290v410h150v-410c0 -100 64 -165 155 -165s155 65 155 165v410h150v-410c0 -180 -125 -305 -305 -305s-305 125 -305 305zM330 785l-110 150h140l80 -150h-110z" />
    <glyph glyph-name="Uacute" unicode="&#xda;" horiz-adv-x="780" 
d="M85 290v410h150v-410c0 -100 64 -165 155 -165s155 65 155 165v410h150v-410c0 -180 -125 -305 -305 -305s-305 125 -305 305zM340 785l80 150h140l-110 -150h-110z" />
    <glyph glyph-name="Ucircumflex" unicode="&#xdb;" horiz-adv-x="780" 
d="M85 290v410h150v-410c0 -100 64 -165 155 -165s155 65 155 165v410h150v-410c0 -180 -125 -305 -305 -305s-305 125 -305 305zM210 785l120 150h120l120 -150h-120l-60 80l-60 -80h-120z" />
    <glyph glyph-name="Udieresis" unicode="&#xdc;" horiz-adv-x="780" 
d="M85 290v410h150v-410c0 -100 64 -165 155 -165s155 65 155 165v410h150v-410c0 -180 -125 -305 -305 -305s-305 125 -305 305zM205 855c0 40 35 75 75 75s75 -35 75 -75s-35 -75 -75 -75s-75 35 -75 75zM425 855c0 40 35 75 75 75s75 -35 75 -75s-35 -75 -75 -75
s-75 35 -75 75z" />
    <glyph glyph-name="Yacute" unicode="&#xdd;" horiz-adv-x="670" 
d="M260 0v250l-265 450h175l163 -300h4l163 300h175l-265 -450v-250h-150zM280 785l80 150h140l-110 -150h-110z" />
    <glyph glyph-name="Thorn" unicode="&#xde;" horiz-adv-x="740" 
d="M90 0v700h150v-115h215c150 0 245 -95 245 -225s-95 -225 -245 -225h-215v-135h-150zM240 275h210c60 0 95 34 95 85s-35 85 -95 85h-210v-170z" />
    <glyph glyph-name="germandbls" unicode="&#xdf;" horiz-adv-x="600" 
d="M65 0v485c0 130 95 225 230 225c136 0 225 -90 225 -190c0 -48 -20 -80 -40 -103c-12 -13 -25 -23 -40 -32c23 -10 44 -23 62 -39c31 -28 63 -71 63 -136c0 -116 -95 -210 -235 -210h-50v130h50c56 0 95 40 95 85s-39 85 -95 85h-50v130h15c51 0 85 35 85 75
s-34 75 -85 75c-56 0 -95 -39 -95 -95v-485h-135z" />
    <glyph glyph-name="agrave" unicode="&#xe0;" horiz-adv-x="540" 
d="M340 0v60h-5c-11 -13 -23 -25 -37 -35c-24 -19 -61 -35 -108 -35c-90 0 -150 60 -150 140s54 141 145 157l155 28c-5 35 -34 65 -85 65c-35 0 -62 -13 -81 -28c-11 -8 -21 -17 -29 -27l-80 80c14 17 31 33 51 47c35 24 84 48 149 48c125 0 210 -86 210 -195v-305h-135z
M340 210v10l-110 -20c-35 -7 -55 -25 -55 -50c0 -31 20 -50 60 -50c60 0 105 45 105 110zM230 555l-110 150h140l80 -150h-110z" />
    <glyph glyph-name="aacute" unicode="&#xe1;" horiz-adv-x="540" 
d="M340 0v60h-5c-11 -13 -23 -25 -37 -35c-24 -19 -61 -35 -108 -35c-90 0 -150 60 -150 140s54 141 145 157l155 28c-5 35 -34 65 -85 65c-35 0 -62 -13 -81 -28c-11 -8 -21 -17 -29 -27l-80 80c14 17 31 33 51 47c35 24 84 48 149 48c125 0 210 -86 210 -195v-305h-135z
M340 210v10l-110 -20c-35 -7 -55 -25 -55 -50c0 -31 20 -50 60 -50c60 0 105 45 105 110zM220 555l80 150h140l-110 -150h-110z" />
    <glyph glyph-name="acircumflex" unicode="&#xe2;" horiz-adv-x="540" 
d="M340 0v60h-5c-11 -13 -23 -25 -37 -35c-24 -19 -61 -35 -108 -35c-90 0 -150 60 -150 140s54 141 145 157l155 28c-5 35 -34 65 -85 65c-35 0 -62 -13 -81 -28c-11 -8 -21 -17 -29 -27l-80 80c14 17 31 33 51 47c35 24 84 48 149 48c125 0 210 -86 210 -195v-305h-135z
M340 210v10l-110 -20c-35 -7 -55 -25 -55 -50c0 -31 20 -50 60 -50c60 0 105 45 105 110zM100 555l120 150h120l120 -150h-120l-60 80l-60 -80h-120z" />
    <glyph glyph-name="atilde" unicode="&#xe3;" horiz-adv-x="540" 
d="M340 0v60h-5c-11 -13 -23 -25 -37 -35c-24 -19 -61 -35 -108 -35c-90 0 -150 60 -150 140s54 141 145 157l155 28c-5 35 -34 65 -85 65c-35 0 -62 -13 -81 -28c-11 -8 -21 -17 -29 -27l-80 80c14 17 31 33 51 47c35 24 84 48 149 48c125 0 210 -86 210 -195v-305h-135z
M340 210v10l-110 -20c-35 -7 -55 -25 -55 -50c0 -31 20 -50 60 -50c60 0 105 45 105 110zM190 560h-85c0 105 44 150 107 150c68 0 88 -55 128 -55c20 0 35 15 35 55h85c0 -105 -45 -150 -105 -150c-70 0 -85 50 -130 50c-20 0 -35 -15 -35 -50z" />
    <glyph glyph-name="adieresis" unicode="&#xe4;" horiz-adv-x="540" 
d="M340 0v60h-5c-11 -13 -23 -25 -37 -35c-24 -19 -61 -35 -108 -35c-90 0 -150 60 -150 140s54 141 145 157l155 28c-5 35 -34 65 -85 65c-35 0 -62 -13 -81 -28c-11 -8 -21 -17 -29 -27l-80 80c14 17 31 33 51 47c35 24 84 48 149 48c125 0 210 -86 210 -195v-305h-135z
M340 210v10l-110 -20c-35 -7 -55 -25 -55 -50c0 -31 20 -50 60 -50c60 0 105 45 105 110zM95 630c0 40 35 75 75 75s75 -35 75 -75s-35 -75 -75 -75s-75 35 -75 75zM315 630c0 40 35 75 75 75s75 -35 75 -75s-35 -75 -75 -75s-75 35 -75 75z" />
    <glyph glyph-name="aring" unicode="&#xe5;" horiz-adv-x="540" 
d="M340 0v60h-5c-11 -13 -23 -25 -37 -35c-24 -19 -61 -35 -108 -35c-90 0 -150 60 -150 140s54 141 145 157l155 28c-5 35 -34 65 -85 65c-35 0 -62 -13 -81 -28c-11 -8 -21 -17 -29 -27l-80 80c14 17 31 33 51 47c35 24 84 48 149 48c125 0 210 -86 210 -195v-305h-135z
M340 210v10l-110 -20c-35 -7 -55 -25 -55 -50c0 -31 20 -50 60 -50c60 0 105 45 105 110zM240 640c0 -25 20 -40 40 -40s40 15 40 40s-20 40 -40 40s-40 -15 -40 -40zM165 640c0 59 51 110 115 110s115 -51 115 -110c0 -61 -51 -110 -115 -110s-115 49 -115 110z" />
    <glyph glyph-name="ae" unicode="&#xe6;" horiz-adv-x="865" 
d="M145 325l-80 80c14 17 31 33 50 47c32 24 80 48 140 48c52 0 92 -20 119 -40c16 -12 30 -25 41 -40c13 15 29 28 46 40c31 20 73 40 129 40c131 0 240 -105 240 -245c0 -19 -2 -32 -3 -41l-2 -14h-345c15 -51 54 -90 125 -90c40 0 71 12 92 27c12 8 23 17 33 28l70 -95
c-15 -15 -33 -28 -54 -40c-35 -20 -86 -40 -151 -40c-64 0 -108 23 -139 47c-18 14 -33 30 -46 48c-13 -18 -28 -34 -46 -48c-31 -24 -79 -47 -144 -47c-115 0 -180 65 -180 145c0 90 70 160 200 160h100c-5 57 -34 85 -85 85c-35 0 -62 -13 -81 -28c-11 -8 -21 -17 -29 -27
zM480 295h210c-15 45 -54 85 -105 85c-49 0 -90 -40 -105 -85zM340 205h-100c-40 0 -65 -24 -65 -55s20 -50 60 -50c60 0 105 45 105 105z" />
    <glyph glyph-name="ccedilla" unicode="&#xe7;" horiz-adv-x="520" 
d="M165 -190l30 60c6 -5 13 -10 20 -13c12 -7 30 -12 50 -12c23 0 35 8 35 25s-12 25 -35 25c-8 0 -14 -2 -18 -3l-7 -2l-30 35l35 70c-109 19 -210 121 -210 250c0 140 115 255 260 255c71 0 120 -25 155 -50c20 -15 37 -31 50 -50l-85 -85c-9 11 -20 21 -32 30
c-21 15 -51 30 -88 30c-70 0 -125 -55 -125 -130s55 -130 125 -130c37 0 67 15 88 30c12 9 23 19 32 30l85 -85c-13 -17 -28 -32 -45 -46c-31 -24 -75 -49 -135 -54l-20 -35c16 -1 30 -6 42 -13c21 -12 43 -34 43 -77c0 -56 -39 -95 -110 -95c-35 0 -62 9 -81 20
c-11 6 -21 13 -29 20z" />
    <glyph glyph-name="egrave" unicode="&#xe8;" horiz-adv-x="570" 
d="M435 165l70 -95c-15 -15 -33 -28 -54 -40c-36 -20 -88 -40 -156 -40c-145 0 -260 115 -260 255s115 255 255 255c135 0 245 -110 245 -245c0 -19 -2 -32 -3 -43l-2 -17h-355c15 -45 55 -85 130 -85c43 0 74 12 97 27c13 8 24 17 33 28zM175 295h220
c-15 45 -54 85 -110 85s-95 -40 -110 -85zM235 555l-110 150h140l80 -150h-110z" />
    <glyph glyph-name="eacute" unicode="&#xe9;" horiz-adv-x="570" 
d="M435 165l70 -95c-15 -15 -33 -28 -54 -40c-36 -20 -88 -40 -156 -40c-145 0 -260 115 -260 255s115 255 255 255c135 0 245 -110 245 -245c0 -19 -2 -32 -3 -43l-2 -17h-355c15 -45 55 -85 130 -85c43 0 74 12 97 27c13 8 24 17 33 28zM175 295h220
c-15 45 -54 85 -110 85s-95 -40 -110 -85zM225 555l80 150h140l-110 -150h-110z" />
    <glyph glyph-name="ecircumflex" unicode="&#xea;" horiz-adv-x="570" 
d="M435 165l70 -95c-15 -15 -33 -28 -54 -40c-36 -20 -88 -40 -156 -40c-145 0 -260 115 -260 255s115 255 255 255c135 0 245 -110 245 -245c0 -19 -2 -32 -3 -43l-2 -17h-355c15 -45 55 -85 130 -85c43 0 74 12 97 27c13 8 24 17 33 28zM175 295h220
c-15 45 -54 85 -110 85s-95 -40 -110 -85zM105 555l120 150h120l120 -150h-120l-60 80l-60 -80h-120z" />
    <glyph glyph-name="edieresis" unicode="&#xeb;" horiz-adv-x="570" 
d="M435 165l70 -95c-15 -15 -33 -28 -54 -40c-36 -20 -88 -40 -156 -40c-145 0 -260 115 -260 255s115 255 255 255c135 0 245 -110 245 -245c0 -19 -2 -32 -3 -43l-2 -17h-355c15 -45 55 -85 130 -85c43 0 74 12 97 27c13 8 24 17 33 28zM175 295h220
c-15 45 -54 85 -110 85s-95 -40 -110 -85zM100 630c0 40 35 75 75 75s75 -35 75 -75s-35 -75 -75 -75s-75 35 -75 75zM320 630c0 40 35 75 75 75s75 -35 75 -75s-35 -75 -75 -75s-75 35 -75 75z" />
    <glyph glyph-name="igrave" unicode="&#xec;" horiz-adv-x="265" 
d="M65 0v490h135v-490h-135zM75 555l-110 150h140l80 -150h-110z" />
    <glyph glyph-name="iacute" unicode="&#xed;" horiz-adv-x="265" 
d="M65 0v490h135v-490h-135zM80 555l80 150h140l-110 -150h-110z" />
    <glyph glyph-name="icircumflex" unicode="&#xee;" horiz-adv-x="265" 
d="M65 0v490h135v-490h-135zM-50 555l120 150h120l120 -150h-120l-60 80l-60 -80h-120z" />
    <glyph glyph-name="idieresis" unicode="&#xef;" horiz-adv-x="265" 
d="M65 0v490h135v-490h-135zM-53 630c0 40 35 75 75 75s75 -35 75 -75s-35 -75 -75 -75s-75 35 -75 75zM167 630c0 40 35 75 75 75s75 -35 75 -75s-35 -75 -75 -75s-75 35 -75 75z" />
    <glyph glyph-name="eth" unicode="&#xf0;" horiz-adv-x="600" 
d="M180 530l-60 65l105 50c-9 8 -18 16 -29 24c-19 15 -44 31 -71 46l110 50c27 -18 50 -34 68 -48c10 -7 19 -15 27 -22l105 50l60 -65l-105 -50c31 -29 58 -62 82 -99c41 -64 83 -158 83 -275c0 -151 -115 -266 -260 -266c-150 0 -260 109 -260 240s110 240 250 240
c31 0 53 -6 72 -13c10 -3 19 -7 28 -12h5c-19 37 -43 72 -66 96c-13 14 -26 27 -39 39zM170 230c0 -65 49 -115 125 -115s125 50 125 115s-49 115 -125 115s-125 -50 -125 -115z" />
    <glyph glyph-name="ntilde" unicode="&#xf1;" horiz-adv-x="595" 
d="M65 0v490h135v-70h5c11 15 23 28 37 40c24 20 60 40 108 40c100 0 180 -80 180 -205v-295h-135v275c0 60 -34 95 -90 95c-60 0 -105 -45 -105 -110v-260h-135zM210 550h-85c0 105 44 150 107 150c68 0 88 -55 128 -55c20 0 35 15 35 55h85c0 -105 -45 -150 -105 -150
c-70 0 -85 50 -130 50c-20 0 -35 -15 -35 -50z" />
    <glyph glyph-name="ograve" unicode="&#xf2;" horiz-adv-x="590" 
d="M295 115c70 0 125 55 125 130s-55 130 -125 130s-125 -55 -125 -130s55 -130 125 -130zM35 245c0 140 115 255 260 255s260 -115 260 -255s-115 -255 -260 -255s-260 115 -260 255zM240 555l-110 150h140l80 -150h-110z" />
    <glyph glyph-name="oacute" unicode="&#xf3;" horiz-adv-x="590" 
d="M295 115c70 0 125 55 125 130s-55 130 -125 130s-125 -55 -125 -130s55 -130 125 -130zM35 245c0 140 115 255 260 255s260 -115 260 -255s-115 -255 -260 -255s-260 115 -260 255zM240 555l80 150h140l-110 -150h-110z" />
    <glyph glyph-name="ocircumflex" unicode="&#xf4;" horiz-adv-x="590" 
d="M295 115c70 0 125 55 125 130s-55 130 -125 130s-125 -55 -125 -130s55 -130 125 -130zM35 245c0 140 115 255 260 255s260 -115 260 -255s-115 -255 -260 -255s-260 115 -260 255zM115 555l120 150h120l120 -150h-120l-60 80l-60 -80h-120z" />
    <glyph glyph-name="otilde" unicode="&#xf5;" horiz-adv-x="590" 
d="M295 115c70 0 125 55 125 130s-55 130 -125 130s-125 -55 -125 -130s55 -130 125 -130zM35 245c0 140 115 255 260 255s260 -115 260 -255s-115 -255 -260 -255s-260 115 -260 255zM205 550h-85c0 105 44 150 107 150c68 0 88 -55 128 -55c20 0 35 15 35 55h85
c0 -105 -45 -150 -105 -150c-70 0 -85 50 -130 50c-20 0 -35 -15 -35 -50z" />
    <glyph glyph-name="odieresis" unicode="&#xf6;" horiz-adv-x="590" 
d="M295 115c70 0 125 55 125 130s-55 130 -125 130s-125 -55 -125 -130s55 -130 125 -130zM35 245c0 140 115 255 260 255s260 -115 260 -255s-115 -255 -260 -255s-260 115 -260 255zM110 630c0 40 35 75 75 75s75 -35 75 -75s-35 -75 -75 -75s-75 35 -75 75zM330 630
c0 40 35 75 75 75s75 -35 75 -75s-35 -75 -75 -75s-75 35 -75 75z" />
    <glyph glyph-name="divide" unicode="&#xf7;" horiz-adv-x="520" 
d="M35 235v115h450v-115h-450zM180 480c0 40 35 75 80 75s80 -35 80 -75s-35 -75 -80 -75s-80 35 -80 75zM180 105c0 40 35 75 80 75s80 -35 80 -75s-35 -75 -80 -75s-80 35 -80 75z" />
    <glyph glyph-name="oslash" unicode="&#xf8;" horiz-adv-x="600" 
d="M415 295l-165 -170c4 -2 9 -4 14 -5c10 -3 22 -5 36 -5c70 0 125 55 125 130c0 15 -2 27 -5 36zM185 195l165 170l-14 5c-9 3 -21 5 -36 5c-70 0 -125 -55 -125 -130c0 -14 2 -26 5 -36c1 -5 3 -10 5 -14zM35 35l55 60c-9 12 -18 26 -25 41c-13 27 -25 64 -25 109
c0 140 115 255 260 255c45 0 78 -9 101 -20c13 -6 24 -13 34 -20l60 65l70 -70l-55 -60c9 -12 18 -26 25 -41c12 -27 25 -64 25 -109c0 -140 -115 -255 -260 -255c-45 0 -78 9 -101 20c-13 6 -25 13 -34 20l-60 -65z" />
    <glyph glyph-name="ugrave" unicode="&#xf9;" horiz-adv-x="595" 
d="M65 195v295h135v-275c0 -60 34 -95 90 -95c60 0 105 45 105 110v260h135v-490h-135v70h-5c-11 -15 -23 -28 -37 -40c-24 -20 -61 -40 -108 -40c-100 0 -180 80 -180 205zM245 555l-110 150h140l80 -150h-110z" />
    <glyph glyph-name="uacute" unicode="&#xfa;" horiz-adv-x="595" 
d="M65 195v295h135v-275c0 -60 34 -95 90 -95c60 0 105 45 105 110v260h135v-490h-135v70h-5c-11 -15 -23 -28 -37 -40c-24 -20 -61 -40 -108 -40c-100 0 -180 80 -180 205zM240 555l80 150h140l-110 -150h-110z" />
    <glyph glyph-name="ucircumflex" unicode="&#xfb;" horiz-adv-x="595" 
d="M65 195v295h135v-275c0 -60 34 -95 90 -95c60 0 105 45 105 110v260h135v-490h-135v70h-5c-11 -15 -23 -28 -37 -40c-24 -20 -61 -40 -108 -40c-100 0 -180 80 -180 205zM115 555l120 150h120l120 -150h-120l-60 80l-60 -80h-120z" />
    <glyph glyph-name="udieresis" unicode="&#xfc;" horiz-adv-x="595" 
d="M65 195v295h135v-275c0 -60 34 -95 90 -95c60 0 105 45 105 110v260h135v-490h-135v70h-5c-11 -15 -23 -28 -37 -40c-24 -20 -61 -40 -108 -40c-100 0 -180 80 -180 205zM110 630c0 40 35 75 75 75s75 -35 75 -75s-35 -75 -75 -75s-75 35 -75 75zM330 630
c0 40 35 75 75 75s75 -35 75 -75s-35 -75 -75 -75s-75 35 -75 75z" />
    <glyph glyph-name="yacute" unicode="&#xfd;" horiz-adv-x="510" 
d="M35 -195v125c5 -2 10 -4 16 -5c11 -3 24 -5 39 -5c45 0 70 25 85 60l10 25l-190 485h145l115 -325h5l110 325h145l-200 -530c-41 -111 -99 -170 -190 -170c-25 0 -48 3 -64 7c-9 3 -18 5 -26 8zM195 555l80 150h140l-110 -150h-110z" />
    <glyph glyph-name="thorn" unicode="&#xfe;" horiz-adv-x="620" 
d="M70 -210v910h135v-280h5c10 15 23 28 38 40c27 20 64 40 117 40c116 0 220 -106 220 -255c0 -150 -104 -255 -220 -255c-53 0 -90 20 -117 40c-15 12 -28 25 -38 40h-5v-280h-135zM325 115c70 0 125 55 125 130s-55 130 -125 130s-125 -55 -125 -130s55 -130 125 -130z
" />
    <glyph glyph-name="ydieresis" unicode="&#xff;" horiz-adv-x="510" 
d="M35 -195v125c5 -2 10 -4 16 -5c11 -3 24 -5 39 -5c45 0 70 25 85 60l10 25l-190 485h145l115 -325h5l110 325h145l-200 -530c-41 -111 -99 -170 -190 -170c-25 0 -48 3 -64 7c-9 3 -18 5 -26 8zM70 630c0 40 35 75 75 75s75 -35 75 -75s-35 -75 -75 -75s-75 35 -75 75z
M290 630c0 40 35 75 75 75s75 -35 75 -75s-35 -75 -75 -75s-75 35 -75 75z" />
    <glyph glyph-name="Amacron" unicode="&#x100;" horiz-adv-x="720" 
d="M275 295h170l-83 230h-4zM5 0l270 700h170l270 -700h-160l-60 160h-270l-60 -160h-160zM200 810v100h320v-100h-320z" />
    <glyph glyph-name="amacron" unicode="&#x101;" horiz-adv-x="540" 
d="M340 0v60h-5c-11 -13 -23 -25 -37 -35c-24 -19 -61 -35 -108 -35c-90 0 -150 60 -150 140s54 141 145 157l155 28c-5 35 -34 65 -85 65c-35 0 -62 -13 -81 -28c-11 -8 -21 -17 -29 -27l-80 80c14 17 31 33 51 47c35 24 84 48 149 48c125 0 210 -86 210 -195v-305h-135z
M340 210v10l-110 -20c-35 -7 -55 -25 -55 -50c0 -31 20 -50 60 -50c60 0 105 45 105 110zM120 590v100h320v-100h-320z" />
    <glyph glyph-name="Abreve" unicode="&#x102;" horiz-adv-x="720" 
d="M275 295h170l-83 230h-4zM5 0l270 700h170l270 -700h-160l-60 160h-270l-60 -160h-160zM200 935h100c0 -35 25 -60 60 -60s60 25 60 60h100c0 -85 -64 -150 -160 -150s-160 65 -160 150z" />
    <glyph glyph-name="abreve" unicode="&#x103;" horiz-adv-x="540" 
d="M340 0v60h-5c-11 -13 -23 -25 -37 -35c-24 -19 -61 -35 -108 -35c-90 0 -150 60 -150 140s54 141 145 157l155 28c-5 35 -34 65 -85 65c-35 0 -62 -13 -81 -28c-11 -8 -21 -17 -29 -27l-80 80c14 17 31 33 51 47c35 24 84 48 149 48c125 0 210 -86 210 -195v-305h-135z
M340 210v10l-110 -20c-35 -7 -55 -25 -55 -50c0 -31 20 -50 60 -50c60 0 105 45 105 110zM120 705h100c0 -35 25 -60 60 -60s60 25 60 60h100c0 -85 -64 -150 -160 -150s-160 65 -160 150z" />
    <glyph glyph-name="Aogonek" unicode="&#x104;" horiz-adv-x="720" 
d="M5 0l270 700h170l270 -700h-90c-7 -11 -13 -22 -18 -34c-9 -20 -17 -46 -17 -71s16 -45 45 -45c14 0 26 2 36 5c5 1 10 3 14 5v-75l-21 -8c-13 -4 -31 -7 -54 -7c-71 0 -115 45 -115 102c0 36 15 68 30 91c9 13 19 26 30 37l-60 160h-270l-60 -160h-160zM275 295h170
l-83 230h-4z" />
    <glyph glyph-name="aogonek" unicode="&#x105;" horiz-adv-x="540" 
d="M470 -140v-75l-21 -8c-13 -4 -31 -7 -54 -7c-71 0 -115 45 -115 102c0 36 15 68 30 91c9 13 19 26 30 37v60h-5c-11 -13 -23 -25 -37 -35c-24 -19 -61 -35 -108 -35c-90 0 -150 60 -150 140s54 141 145 157l155 28c-5 35 -34 65 -85 65c-35 0 -62 -13 -81 -28
c-11 -8 -21 -17 -29 -27l-80 80c14 17 31 33 51 47c35 24 84 48 149 48c125 0 210 -86 210 -195v-305h-65c-7 -11 -13 -22 -18 -34c-9 -20 -17 -46 -17 -71s20 -45 45 -45c14 0 26 2 36 5c5 1 10 3 14 5zM340 210v10l-110 -20c-35 -7 -55 -25 -55 -50c0 -31 20 -50 60 -50
c60 0 105 45 105 110z" />
    <glyph glyph-name="Cacute" unicode="&#x106;" horiz-adv-x="745" 
d="M625 225l100 -100c-21 -26 -46 -49 -75 -70c-51 -35 -125 -70 -225 -70c-216 0 -380 165 -380 365s164 365 380 365c97 0 172 -35 221 -70c29 -21 53 -44 74 -70l-100 -100c-15 19 -32 35 -51 50c-33 25 -81 50 -144 50c-125 0 -225 -100 -225 -225s100 -225 225 -225
c65 0 114 25 149 50c20 15 37 31 51 50zM355 785l80 150h140l-110 -150h-110z" />
    <glyph glyph-name="cacute" unicode="&#x107;" horiz-adv-x="520" 
d="M415 175l85 -85c-13 -19 -30 -35 -50 -50c-35 -25 -84 -50 -155 -50c-145 0 -260 115 -260 255s115 255 260 255c71 0 120 -25 155 -50c20 -15 37 -31 50 -50l-85 -85c-9 11 -20 21 -32 30c-21 15 -51 30 -88 30c-70 0 -125 -55 -125 -130s55 -130 125 -130
c37 0 67 15 88 30c12 9 23 19 32 30zM230 555l80 150h140l-110 -150h-110z" />
    <glyph glyph-name="Ccircumflex" unicode="&#x108;" horiz-adv-x="745" 
d="M625 225l100 -100c-21 -26 -46 -49 -75 -70c-51 -35 -125 -70 -225 -70c-216 0 -380 165 -380 365s164 365 380 365c97 0 172 -35 221 -70c29 -21 53 -44 74 -70l-100 -100c-15 19 -32 35 -51 50c-33 25 -81 50 -144 50c-125 0 -225 -100 -225 -225s100 -225 225 -225
c65 0 114 25 149 50c20 15 37 31 51 50zM235 785l120 150h120l120 -150h-120l-60 80l-60 -80h-120z" />
    <glyph glyph-name="ccircumflex" unicode="&#x109;" horiz-adv-x="520" 
d="M415 175l85 -85c-13 -19 -30 -35 -50 -50c-35 -25 -84 -50 -155 -50c-145 0 -260 115 -260 255s115 255 260 255c71 0 120 -25 155 -50c20 -15 37 -31 50 -50l-85 -85c-9 11 -20 21 -32 30c-21 15 -51 30 -88 30c-70 0 -125 -55 -125 -130s55 -130 125 -130
c37 0 67 15 88 30c12 9 23 19 32 30zM110 555l120 150h120l120 -150h-120l-60 80l-60 -80h-120z" />
    <glyph glyph-name="Cdotaccent" unicode="&#x10a;" horiz-adv-x="745" 
d="M625 225l100 -100c-21 -26 -46 -49 -75 -70c-51 -35 -125 -70 -225 -70c-216 0 -380 165 -380 365s164 365 380 365c97 0 172 -35 221 -70c29 -21 53 -44 74 -70l-100 -100c-15 19 -32 35 -51 50c-33 25 -81 50 -144 50c-125 0 -225 -100 -225 -225s100 -225 225 -225
c65 0 114 25 149 50c20 15 37 31 51 50zM340 860c0 40 34 75 77 75s78 -35 78 -75s-35 -75 -78 -75s-77 35 -77 75z" />
    <glyph glyph-name="cdotaccent" unicode="&#x10b;" horiz-adv-x="520" 
d="M415 175l85 -85c-13 -19 -30 -35 -50 -50c-35 -25 -84 -50 -155 -50c-145 0 -260 115 -260 255s115 255 260 255c71 0 120 -25 155 -50c20 -15 37 -31 50 -50l-85 -85c-9 11 -20 21 -32 30c-21 15 -51 30 -88 30c-70 0 -125 -55 -125 -130s55 -130 125 -130
c37 0 67 15 88 30c12 9 23 19 32 30zM210 630c0 40 34 75 77 75s78 -35 78 -75s-35 -75 -78 -75s-77 35 -77 75z" />
    <glyph glyph-name="Ccaron" unicode="&#x10c;" horiz-adv-x="745" 
d="M625 225l100 -100c-21 -26 -46 -49 -75 -70c-51 -35 -125 -70 -225 -70c-216 0 -380 165 -380 365s164 365 380 365c97 0 172 -35 221 -70c29 -21 53 -44 74 -70l-100 -100c-15 19 -32 35 -51 50c-33 25 -81 50 -144 50c-125 0 -225 -100 -225 -225s100 -225 225 -225
c65 0 114 25 149 50c20 15 37 31 51 50zM355 785l-120 150h120l60 -80l60 80h120l-120 -150h-120z" />
    <glyph glyph-name="ccaron" unicode="&#x10d;" horiz-adv-x="520" 
d="M415 175l85 -85c-13 -19 -30 -35 -50 -50c-35 -25 -84 -50 -155 -50c-145 0 -260 115 -260 255s115 255 260 255c71 0 120 -25 155 -50c20 -15 37 -31 50 -50l-85 -85c-9 11 -20 21 -32 30c-21 15 -51 30 -88 30c-70 0 -125 -55 -125 -130s55 -130 125 -130
c37 0 67 15 88 30c12 9 23 19 32 30zM230 555l-120 150h120l60 -80l60 80h120l-120 -150h-120z" />
    <glyph glyph-name="Dcaron" unicode="&#x10e;" horiz-adv-x="760" 
d="M90 0v700h255c215 0 370 -155 370 -350s-155 -350 -370 -350h-255zM240 140h105c125 0 215 90 215 210s-90 210 -215 210h-105v-420zM315 785l-120 150h120l60 -80l60 80h120l-120 -150h-120z" />
    <glyph glyph-name="dcaron" unicode="&#x10f;" horiz-adv-x="680" 
d="M415 0v70h-5c-10 -15 -23 -28 -38 -40c-27 -20 -65 -40 -117 -40c-116 0 -220 105 -220 255c0 149 104 255 220 255c52 0 90 -20 117 -40c15 -12 28 -25 38 -40h5v280h135v-700h-135zM295 115c70 0 125 55 125 130s-55 130 -125 130s-125 -55 -125 -130s55 -130 125 -130
zM590 545l45 155h125l-70 -155h-100z" />
    <glyph glyph-name="Dcroat" unicode="&#x110;" horiz-adv-x="770" 
d="M100 0v290h-85v120h85v290h255c215 0 370 -155 370 -350s-155 -350 -370 -350h-255zM250 140h105c125 0 215 90 215 210s-90 210 -215 210h-105v-150h135v-120h-135v-150z" />
    <glyph glyph-name="dslash" unicode="&#x111;" horiz-adv-x="620" 
d="M405 0v70h-5c-10 -15 -22 -28 -36 -40c-24 -20 -62 -40 -114 -40c-115 0 -215 100 -215 240s100 240 215 240c52 0 90 -20 114 -40c14 -12 26 -25 36 -40h5v130h-115v120h115v60h135v-60h80v-120h-80v-520h-135zM170 230c0 -65 49 -115 120 -115s120 50 120 115
s-49 115 -120 115s-120 -50 -120 -115z" />
    <glyph glyph-name="Emacron" unicode="&#x112;" horiz-adv-x="665" 
d="M90 0v700h520v-140h-370v-135h290v-135h-290v-150h380v-140h-530zM195 810v100h320v-100h-320z" />
    <glyph glyph-name="emacron" unicode="&#x113;" horiz-adv-x="570" 
d="M435 165l70 -95c-15 -15 -33 -28 -54 -40c-36 -20 -88 -40 -156 -40c-145 0 -260 115 -260 255s115 255 255 255c135 0 245 -110 245 -245c0 -19 -2 -32 -3 -43l-2 -17h-355c15 -45 55 -85 130 -85c43 0 74 12 97 27c13 8 24 17 33 28zM175 295h220
c-15 45 -54 85 -110 85s-95 -40 -110 -85zM125 590v100h320v-100h-320z" />
    <glyph glyph-name="Ebreve" unicode="&#x114;" horiz-adv-x="665" 
d="M90 0v700h520v-140h-370v-135h290v-135h-290v-150h380v-140h-530zM195 935h100c0 -35 25 -60 60 -60s60 25 60 60h100c0 -85 -64 -150 -160 -150s-160 65 -160 150z" />
    <glyph glyph-name="ebreve" unicode="&#x115;" horiz-adv-x="570" 
d="M435 165l70 -95c-15 -15 -33 -28 -54 -40c-36 -20 -88 -40 -156 -40c-145 0 -260 115 -260 255s115 255 255 255c135 0 245 -110 245 -245c0 -19 -2 -32 -3 -43l-2 -17h-355c15 -45 55 -85 130 -85c43 0 74 12 97 27c13 8 24 17 33 28zM175 295h220
c-15 45 -54 85 -110 85s-95 -40 -110 -85zM125 705h100c0 -35 25 -60 60 -60s60 25 60 60h100c0 -85 -64 -150 -160 -150s-160 65 -160 150z" />
    <glyph glyph-name="Edotaccent" unicode="&#x116;" horiz-adv-x="665" 
d="M90 0v700h520v-140h-370v-135h290v-135h-290v-150h380v-140h-530zM280 860c0 40 34 75 77 75s78 -35 78 -75s-35 -75 -78 -75s-77 35 -77 75z" />
    <glyph glyph-name="edotaccent" unicode="&#x117;" horiz-adv-x="570" 
d="M435 165l70 -95c-15 -15 -33 -28 -54 -40c-36 -20 -88 -40 -156 -40c-145 0 -260 115 -260 255s115 255 255 255c135 0 245 -110 245 -245c0 -19 -2 -32 -3 -43l-2 -17h-355c15 -45 55 -85 130 -85c43 0 74 12 97 27c13 8 24 17 33 28zM175 295h220
c-15 45 -54 85 -110 85s-95 -40 -110 -85zM208 630c0 40 34 75 77 75s78 -35 78 -75s-35 -75 -78 -75s-77 35 -77 75z" />
    <glyph glyph-name="Eogonek" unicode="&#x118;" horiz-adv-x="665" 
d="M90 0v700h520v-140h-370v-135h290v-135h-290v-150h380v-140c-7 -11 -13 -22 -18 -34c-9 -20 -17 -46 -17 -71s16 -45 45 -45c14 0 26 2 36 5c5 1 10 3 14 5v-75l-21 -8c-13 -4 -31 -7 -54 -7c-71 0 -115 45 -115 102c0 36 15 68 30 91c9 13 19 26 30 37h-460z" />
    <glyph glyph-name="eogonek" unicode="&#x119;" horiz-adv-x="570" 
d="M400 -140v-75l-21 -8c-13 -4 -31 -7 -54 -7c-71 0 -115 45 -115 102c0 35 12 63 27 84c8 12 17 23 28 34c-124 16 -230 119 -230 255c0 140 115 255 255 255c135 0 245 -110 245 -245c0 -19 -2 -32 -3 -43l-2 -17h-355c15 -45 55 -85 130 -85c43 0 74 12 97 27
c13 8 24 17 33 28l70 -95c-12 -13 -27 -24 -44 -34c-29 -19 -70 -36 -126 -41c-6 -11 -11 -22 -15 -33c-8 -19 -15 -44 -15 -67c0 -25 20 -45 45 -45c14 0 26 2 36 5c5 1 10 3 14 5zM175 295h220c-15 45 -54 85 -110 85s-95 -40 -110 -85z" />
    <glyph glyph-name="Ecaron" unicode="&#x11a;" horiz-adv-x="665" 
d="M90 0v700h520v-140h-370v-135h290v-135h-290v-150h380v-140h-530zM295 785l-120 150h120l60 -80l60 80h120l-120 -150h-120z" />
    <glyph glyph-name="ecaron" unicode="&#x11b;" horiz-adv-x="570" 
d="M435 165l70 -95c-15 -15 -33 -28 -54 -40c-36 -20 -88 -40 -156 -40c-145 0 -260 115 -260 255s115 255 255 255c135 0 245 -110 245 -245c0 -19 -2 -32 -3 -43l-2 -17h-355c15 -45 55 -85 130 -85c43 0 74 12 97 27c13 8 24 17 33 28zM175 295h220
c-15 45 -54 85 -110 85s-95 -40 -110 -85zM225 555l-120 150h120l60 -80l60 80h120l-120 -150h-120z" />
    <glyph glyph-name="Gcircumflex" unicode="&#x11c;" horiz-adv-x="795" 
d="M450 265v120h280v-265c-22 -25 -48 -48 -78 -68c-51 -35 -127 -67 -227 -67c-216 0 -380 165 -380 365s164 365 380 365c97 0 172 -35 221 -70c29 -21 53 -44 74 -70l-100 -100c-15 19 -32 35 -51 50c-33 25 -81 50 -144 50c-125 0 -225 -100 -225 -225
s100 -225 225 -225c51 0 88 12 115 27c15 8 29 17 40 28v85h-130zM230 785l120 150h120l120 -150h-120l-60 80l-60 -80h-120z" />
    <glyph glyph-name="gcircumflex" unicode="&#x11d;" horiz-adv-x="600" 
d="M285 135c65 0 115 49 115 120s-50 120 -115 120s-115 -49 -115 -120s50 -120 115 -120zM55 -110l85 85c10 -11 22 -21 35 -30c23 -15 55 -30 95 -30c75 0 130 55 130 135v40h-5c-10 -15 -22 -28 -36 -40c-24 -20 -62 -40 -114 -40c-109 0 -210 100 -210 245
s101 245 210 245c52 0 90 -20 114 -40c14 -12 26 -25 36 -40h5v70h135v-440c0 -150 -110 -260 -265 -260c-73 0 -126 25 -162 50c-21 15 -39 31 -53 50zM115 555l120 150h120l120 -150h-120l-60 80l-60 -80h-120z" />
    <glyph glyph-name="Gbreve" unicode="&#x11e;" horiz-adv-x="795" 
d="M450 265v120h280v-265c-22 -25 -48 -48 -78 -68c-51 -35 -127 -67 -227 -67c-216 0 -380 165 -380 365s164 365 380 365c97 0 172 -35 221 -70c29 -21 53 -44 74 -70l-100 -100c-15 19 -32 35 -51 50c-33 25 -81 50 -144 50c-125 0 -225 -100 -225 -225
s100 -225 225 -225c51 0 88 12 115 27c15 8 29 17 40 28v85h-130zM250 935h100c0 -35 25 -60 60 -60s60 25 60 60h100c0 -85 -64 -150 -160 -150s-160 65 -160 150z" />
    <glyph glyph-name="gbreve" unicode="&#x11f;" horiz-adv-x="600" 
d="M285 135c65 0 115 49 115 120s-50 120 -115 120s-115 -49 -115 -120s50 -120 115 -120zM55 -110l85 85c10 -11 22 -21 35 -30c23 -15 55 -30 95 -30c75 0 130 55 130 135v40h-5c-10 -15 -22 -28 -36 -40c-24 -20 -62 -40 -114 -40c-109 0 -210 100 -210 245
s101 245 210 245c52 0 90 -20 114 -40c14 -12 26 -25 36 -40h5v70h135v-440c0 -150 -110 -260 -265 -260c-73 0 -126 25 -162 50c-21 15 -39 31 -53 50zM135 704h100c0 -35 25 -60 60 -60s60 25 60 60h100c0 -85 -64 -150 -160 -150s-160 65 -160 150z" />
    <glyph glyph-name="Gdotaccent" unicode="&#x120;" horiz-adv-x="795" 
d="M450 265v120h280v-265c-22 -25 -48 -48 -78 -68c-51 -35 -127 -67 -227 -67c-216 0 -380 165 -380 365s164 365 380 365c97 0 172 -35 221 -70c29 -21 53 -44 74 -70l-100 -100c-15 19 -32 35 -51 50c-33 25 -81 50 -144 50c-125 0 -225 -100 -225 -225
s100 -225 225 -225c51 0 88 12 115 27c15 8 29 17 40 28v85h-130zM335 860c0 40 34 75 77 75s78 -35 78 -75s-35 -75 -78 -75s-77 35 -77 75z" />
    <glyph glyph-name="gdotaccent" unicode="&#x121;" horiz-adv-x="600" 
d="M285 135c65 0 115 49 115 120s-50 120 -115 120s-115 -49 -115 -120s50 -120 115 -120zM55 -110l85 85c10 -11 22 -21 35 -30c23 -15 55 -30 95 -30c75 0 130 55 130 135v40h-5c-10 -15 -22 -28 -36 -40c-24 -20 -62 -40 -114 -40c-109 0 -210 100 -210 245
s101 245 210 245c52 0 90 -20 114 -40c14 -12 26 -25 36 -40h5v70h135v-440c0 -150 -110 -260 -265 -260c-73 0 -126 25 -162 50c-21 15 -39 31 -53 50zM218 630c0 40 34 75 77 75s78 -35 78 -75s-35 -75 -78 -75s-77 35 -77 75z" />
    <glyph glyph-name="Gcommaaccent" unicode="&#x122;" horiz-adv-x="795" 
d="M450 265v120h280v-265c-22 -25 -48 -48 -78 -68c-51 -35 -127 -67 -227 -67c-216 0 -380 165 -380 365s164 365 380 365c97 0 172 -35 221 -70c29 -21 53 -44 74 -70l-100 -100c-15 19 -32 35 -51 50c-33 25 -81 50 -144 50c-125 0 -225 -100 -225 -225
s100 -225 225 -225c51 0 88 12 115 27c15 8 29 17 40 28v85h-130zM310 -235l45 155h125l-70 -155h-100z" />
    <glyph glyph-name="gcommaaccent" unicode="&#x123;" horiz-adv-x="600" 
d="M230 555l70 150h100l-45 -150h-125zM285 135c65 0 115 49 115 120s-50 120 -115 120s-115 -49 -115 -120s50 -120 115 -120zM55 -110l85 85c10 -11 22 -21 35 -30c23 -15 55 -30 95 -30c75 0 130 55 130 135v40h-5c-10 -15 -22 -28 -36 -40c-24 -20 -62 -40 -114 -40
c-109 0 -210 100 -210 245s101 245 210 245c52 0 90 -20 114 -40c14 -12 26 -25 36 -40h5v70h135v-440c0 -150 -110 -260 -265 -260c-73 0 -126 25 -162 50c-21 15 -39 31 -53 50z" />
    <glyph glyph-name="Hcircumflex" unicode="&#x124;" horiz-adv-x="780" 
d="M90 0v700h150v-275h300v275h150v-700h-150v285h-300v-285h-150zM210 785l120 150h120l120 -150h-120l-60 80l-60 -80h-120z" />
    <glyph glyph-name="hcircumflex" unicode="&#x125;" horiz-adv-x="600" 
d="M70 0v700h135v-280h5c11 15 23 28 37 40c24 20 60 40 108 40c100 0 180 -80 180 -205v-295h-135v275c0 60 -34 95 -90 95c-60 0 -105 -45 -105 -110v-260h-135zM120 785l120 150h120l120 -150h-120l-60 80l-60 -80h-120z" />
    <glyph glyph-name="Hbar" unicode="&#x126;" horiz-adv-x="790" 
d="M110 0v490h-90v120h90v90h150v-90h270v90h150v-90h90v-120h-90v-490h-150v265h-270v-265h-150zM260 405h270v85h-270v-85z" />
    <glyph glyph-name="hbar" unicode="&#x127;" horiz-adv-x="615" 
d="M85 0v520h-85v125h85v55h135v-55h120v-125h-120v-130h5c11 15 23 28 37 40c24 20 60 40 108 40c100 0 180 -80 180 -205v-265h-135v245c0 60 -34 95 -90 95c-60 0 -105 -45 -105 -110v-230h-135z" />
    <glyph glyph-name="Imacron" unicode="&#x12a;" horiz-adv-x="330" 
d="M90 0v700h150v-700h-150zM5 810v100h320v-100h-320z" />
    <glyph glyph-name="imacron" unicode="&#x12b;" horiz-adv-x="265" 
d="M65 0v490h135v-490h-135zM-25 615v100h320v-100h-320z" />
    <glyph glyph-name="Ibreve" unicode="&#x12c;" horiz-adv-x="330" 
d="M90 0v700h150v-700h-150zM5 935h100c0 -35 25 -60 60 -60s60 25 60 60h100c0 -85 -64 -150 -160 -150s-160 65 -160 150z" />
    <glyph glyph-name="ibreve" unicode="&#x12d;" horiz-adv-x="265" 
d="M65 0v490h135v-490h-135zM-25 705h100c0 -35 25 -60 60 -60s60 25 60 60h100c0 -85 -64 -150 -160 -150s-160 65 -160 150z" />
    <glyph glyph-name="Iogonek" unicode="&#x12e;" horiz-adv-x="330" 
d="M220 -140v-75l-21 -8c-13 -4 -31 -7 -54 -7c-71 0 -115 45 -115 102c0 36 15 68 30 91c9 13 19 26 30 37v700h150v-700h-80c-7 -11 -13 -22 -18 -34c-9 -20 -17 -46 -17 -71s20 -45 45 -45c14 0 26 2 36 5c5 1 10 3 14 5z" />
    <glyph glyph-name="iogonek" unicode="&#x12f;" horiz-adv-x="265" 
d="M195 -140v-75l-21 -8c-13 -4 -31 -7 -54 -7c-71 0 -115 45 -115 102c0 36 15 68 30 91c9 13 19 26 30 37v490h135v-490h-65c-7 -11 -13 -22 -18 -34c-9 -20 -17 -46 -17 -71s20 -45 45 -45c14 0 26 2 36 5c5 1 10 3 14 5zM55 630c0 40 35 75 78 75s77 -35 77 -75
s-35 -75 -78 -75s-77 35 -77 75z" />
    <glyph glyph-name="Idot" unicode="&#x130;" horiz-adv-x="330" 
d="M90 0v700h150v-700h-150zM90 855c0 40 34 75 75 75s75 -35 75 -75s-34 -75 -75 -75s-75 35 -75 75z" />
    <glyph glyph-name="dotlessi" unicode="&#x131;" horiz-adv-x="265" 
d="M65 0v490h135v-490h-135z" />
    <glyph glyph-name="uni0132" unicode="&#x132;" horiz-adv-x="785" 
d="M90 0v700h150v-700h-150zM250 75l100 100c7 -9 16 -18 27 -25c17 -13 42 -25 73 -25c60 0 100 39 100 110v465h150v-465c0 -149 -100 -250 -245 -250c-73 0 -124 22 -157 45c-19 13 -35 28 -48 45z" />
    <glyph glyph-name="uni0133" unicode="&#x133;" horiz-adv-x="530" 
d="M70 0v490h135v-490h-135zM60 630c0 40 35 75 78 75s77 -35 77 -75s-35 -75 -78 -75s-77 35 -77 75zM205 -195v125c5 -2 10 -4 16 -5c11 -3 24 -5 39 -5c40 0 65 25 65 70v500h135v-520c0 -116 -65 -180 -165 -180c-25 0 -48 3 -64 7c-9 3 -18 5 -26 8zM315 630
c0 40 35 75 78 75s77 -35 77 -75s-35 -75 -78 -75s-77 35 -77 75z" />
    <glyph glyph-name="Jcircumflex" unicode="&#x134;" horiz-adv-x="525" 
d="M-10 75l100 100c7 -9 16 -18 27 -25c17 -13 42 -25 73 -25c60 0 100 39 100 110v465h150v-465c0 -149 -100 -250 -245 -250c-73 0 -124 22 -157 45c-19 13 -35 28 -48 45zM185 785l120 150h120l120 -150h-120l-60 80l-60 -80h-120z" />
    <glyph glyph-name="jcircumflex" unicode="&#x135;" horiz-adv-x="265" 
d="M-55 -195v125c5 -2 10 -4 16 -5c11 -3 24 -5 39 -5c40 0 65 25 65 70v500h135v-520c0 -116 -65 -180 -165 -180c-25 0 -48 3 -64 7c-9 3 -18 5 -26 8zM-50 555l120 150h120l120 -150h-120l-60 80l-60 -80h-120z" />
    <glyph glyph-name="Kcommaaccent" unicode="&#x136;" horiz-adv-x="700" 
d="M90 0v700h150v-300l270 300h180l-260 -290l280 -410h-175l-205 300l-90 -95v-205h-150zM270 -235l45 155h125l-70 -155h-100z" />
    <glyph glyph-name="kcommaaccent" unicode="&#x137;" horiz-adv-x="545" 
d="M70 0v700h135v-410l175 200h160l-180 -205l190 -285h-155l-125 190l-65 -75v-115h-135zM190 -235l45 155h125l-70 -155h-100z" />
    <glyph glyph-name="Lacute" unicode="&#x139;" horiz-adv-x="585" 
d="M90 0v700h150v-560h325v-140h-475zM110 785l80 150h140l-110 -150h-110z" />
    <glyph glyph-name="lacute" unicode="&#x13a;" horiz-adv-x="275" 
d="M70 0v700h135v-700h-135zM85 785l80 150h140l-110 -150h-110z" />
    <glyph glyph-name="Lcommaaccent" unicode="&#x13b;" horiz-adv-x="585" 
d="M90 0v700h150v-560h325v-140h-475zM230 -235l45 155h125l-70 -155h-100z" />
    <glyph glyph-name="lcommaaccent" unicode="&#x13c;" horiz-adv-x="275" 
d="M70 0v700h135v-700h-135zM30 -235l45 155h125l-70 -155h-100z" />
    <glyph glyph-name="Lcaron" unicode="&#x13d;" horiz-adv-x="585" 
d="M90 0v700h150v-560h325v-140h-475zM290 550l45 150h125l-70 -150h-100z" />
    <glyph glyph-name="lcaron" unicode="&#x13e;" horiz-adv-x="335" 
d="M70 0v700h135v-700h-135zM245 550l45 150h125l-70 -150h-100z" />
    <glyph glyph-name="Ldot" unicode="&#x13f;" horiz-adv-x="585" 
d="M90 0v700h150v-560h325v-140h-475zM320 375c0 40 35 75 79 75s81 -35 81 -75s-37 -75 -81 -75s-79 35 -79 75z" />
    <glyph glyph-name="ldot" unicode="&#x140;" horiz-adv-x="415" 
d="M70 0v700h135v-700h-135zM245 345c0 40 35 75 79 75s81 -35 81 -75s-37 -75 -81 -75s-79 35 -79 75z" />
    <glyph glyph-name="Lslash" unicode="&#x141;" 
d="M135 0v240l-90 -55l-65 110l155 90v315h150v-240l100 60l65 -110l-165 -95v-175h325v-140h-475z" />
    <glyph glyph-name="lslash" unicode="&#x142;" horiz-adv-x="395" 
d="M130 0v240l-90 -55l-60 100l150 95v320h135v-235l90 55l60 -100l-150 -95v-325h-135z" />
    <glyph glyph-name="Nacute" unicode="&#x143;" horiz-adv-x="805" 
d="M90 0v700h135l340 -435v435h150v-700h-135l-340 435v-435h-150zM345 785l80 150h140l-110 -150h-110z" />
    <glyph glyph-name="nacute" unicode="&#x144;" horiz-adv-x="595" 
d="M65 0v490h135v-70h5c11 15 23 28 37 40c24 20 60 40 108 40c100 0 180 -80 180 -205v-295h-135v275c0 60 -34 95 -90 95c-60 0 -105 -45 -105 -110v-260h-135zM245 555l80 150h140l-110 -150h-110z" />
    <glyph glyph-name="Ncommaaccent" unicode="&#x145;" horiz-adv-x="805" 
d="M90 0v700h135l340 -435v435h150v-700h-135l-340 435v-435h-150zM310 -235l45 155h125l-70 -155h-100z" />
    <glyph glyph-name="ncommaaccent" unicode="&#x146;" horiz-adv-x="595" 
d="M65 0v490h135v-70h5c11 15 23 28 37 40c24 20 60 40 108 40c100 0 180 -80 180 -205v-295h-135v275c0 60 -34 95 -90 95c-60 0 -105 -45 -105 -110v-260h-135zM195 -235l45 155h125l-70 -155h-100z" />
    <glyph glyph-name="Ncaron" unicode="&#x147;" horiz-adv-x="805" 
d="M90 0v700h135l340 -435v435h150v-700h-135l-340 435v-435h-150zM345 785l-120 150h120l60 -80l60 80h120l-120 -150h-120z" />
    <glyph glyph-name="ncaron" unicode="&#x148;" horiz-adv-x="595" 
d="M65 0v490h135v-70h5c11 15 23 28 37 40c24 20 60 40 108 40c100 0 180 -80 180 -205v-295h-135v275c0 60 -34 95 -90 95c-60 0 -105 -45 -105 -110v-260h-135zM240 555l-120 150h120l60 -80l60 80h120l-120 -150h-120z" />
    <glyph glyph-name="napostrophe" unicode="&#x149;" horiz-adv-x="595" 
d="M65 0v490h135v-70h5c11 15 23 28 37 40c24 20 60 40 108 40c100 0 180 -80 180 -205v-295h-135v275c0 60 -34 95 -90 95c-60 0 -105 -45 -105 -110v-260h-135zM-50 525l45 155h125l-70 -155h-100z" />
    <glyph glyph-name="Eng" unicode="&#x14a;" horiz-adv-x="805" 
d="M90 0v700h135l340 -435v435h150v-700c0 -145 -95 -240 -230 -240c-60 0 -108 20 -140 40c-19 12 -36 25 -50 40l95 100c7 -7 14 -14 22 -20c15 -11 35 -20 63 -20c56 0 90 29 90 100v20l-325 415v-435h-150z" />
    <glyph glyph-name="eng" unicode="&#x14b;" horiz-adv-x="595" 
d="M65 0v490h135v-70h5c11 15 23 28 37 40c24 20 60 40 108 40c101 0 180 -80 180 -205v-345c0 -111 -59 -170 -155 -170c-23 0 -42 3 -57 7c-8 3 -16 5 -23 8v125c4 -2 8 -4 13 -5c9 -3 19 -5 32 -5c37 0 55 20 55 60v305c0 60 -34 95 -90 95c-60 0 -105 -45 -105 -110
v-260h-135z" />
    <glyph glyph-name="Omacron" unicode="&#x14c;" horiz-adv-x="850" 
d="M200 350c0 -125 100 -225 225 -225s225 100 225 225s-100 225 -225 225s-225 -100 -225 -225zM45 350c0 200 164 365 380 365s380 -165 380 -365s-164 -365 -380 -365s-380 165 -380 365zM265 810v100h320v-100h-320z" />
    <glyph glyph-name="omacron" unicode="&#x14d;" horiz-adv-x="590" 
d="M295 115c70 0 125 55 125 130s-55 130 -125 130s-125 -55 -125 -130s55 -130 125 -130zM35 245c0 140 115 255 260 255s260 -115 260 -255s-115 -255 -260 -255s-260 115 -260 255zM135 590v100h320v-100h-320z" />
    <glyph glyph-name="Obreve" unicode="&#x14e;" horiz-adv-x="850" 
d="M200 350c0 -125 100 -225 225 -225s225 100 225 225s-100 225 -225 225s-225 -100 -225 -225zM45 350c0 200 164 365 380 365s380 -165 380 -365s-164 -365 -380 -365s-380 165 -380 365zM265 935h100c0 -35 25 -60 60 -60s60 25 60 60h100c0 -85 -64 -150 -160 -150
s-160 65 -160 150z" />
    <glyph glyph-name="obreve" unicode="&#x14f;" horiz-adv-x="590" 
d="M295 115c70 0 125 55 125 130s-55 130 -125 130s-125 -55 -125 -130s55 -130 125 -130zM35 245c0 140 115 255 260 255s260 -115 260 -255s-115 -255 -260 -255s-260 115 -260 255zM135 705h100c0 -35 25 -60 60 -60s60 25 60 60h100c0 -85 -64 -150 -160 -150
s-160 65 -160 150z" />
    <glyph glyph-name="Ohungarumlaut" unicode="&#x150;" horiz-adv-x="850" 
d="M200 350c0 -125 100 -225 225 -225s225 100 225 225s-100 225 -225 225s-225 -100 -225 -225zM45 350c0 200 164 365 380 365s380 -165 380 -365s-164 -365 -380 -365s-380 165 -380 365zM275 785l80 150h135l-115 -150h-100zM465 785l80 150h135l-115 -150h-100z" />
    <glyph glyph-name="ohungarumlaut" unicode="&#x151;" horiz-adv-x="590" 
d="M295 115c70 0 125 55 125 130s-55 130 -125 130s-125 -55 -125 -130s55 -130 125 -130zM35 245c0 140 115 255 260 255s260 -115 260 -255s-115 -255 -260 -255s-260 115 -260 255zM150 555l80 150h135l-115 -150h-100zM340 555l80 150h135l-115 -150h-100z" />
    <glyph glyph-name="OE" unicode="&#x152;" horiz-adv-x="1020" 
d="M635 140h340v-140h-560c-215 0 -370 155 -370 350s155 350 370 350h550v-140h-330v-135h250v-135h-250v-150zM415 140h70v420h-70c-125 0 -215 -90 -215 -210s90 -210 215 -210z" />
    <glyph glyph-name="oe" unicode="&#x153;" horiz-adv-x="930" 
d="M795 165l70 -95c-15 -15 -33 -28 -54 -40c-35 -20 -86 -40 -151 -40c-64 0 -108 23 -139 47c-18 14 -33 30 -46 48c-13 -18 -28 -34 -46 -48c-31 -24 -79 -47 -144 -47c-140 0 -250 110 -250 255s110 255 250 255c65 0 113 -22 144 -45c18 -13 33 -28 46 -45
c13 17 28 32 45 45c31 23 75 45 135 45c131 0 240 -105 240 -245c0 -19 -2 -32 -3 -41l-2 -14h-345c15 -51 54 -90 125 -90c40 0 71 12 92 27c12 8 23 17 33 28zM285 115c65 0 115 50 115 130s-50 130 -115 130s-115 -50 -115 -130s50 -130 115 -130zM545 295h210
c-15 45 -54 85 -105 85c-49 0 -90 -40 -105 -85z" />
    <glyph glyph-name="Racute" unicode="&#x154;" horiz-adv-x="705" 
d="M90 0v700h310c150 0 245 -95 245 -235c0 -80 -29 -132 -60 -163c-17 -18 -37 -32 -60 -42l145 -260h-165l-125 230h-140v-230h-150zM240 370h155c56 0 95 39 95 95s-39 95 -95 95h-155v-190zM295 785l80 150h140l-110 -150h-110z" />
    <glyph glyph-name="racute" unicode="&#x155;" horiz-adv-x="380" 
d="M65 0v490h135v-70h5c11 15 23 28 37 40c24 20 60 40 108 40h10v-145l-11 2c-8 1 -19 3 -34 3c-65 0 -115 -50 -115 -130v-230h-135zM155 555l80 150h140l-110 -150h-110z" />
    <glyph glyph-name="Rcommaaccent" unicode="&#x156;" horiz-adv-x="705" 
d="M90 0v700h310c150 0 245 -95 245 -235c0 -80 -29 -132 -60 -163c-17 -18 -37 -32 -60 -42l145 -260h-165l-125 230h-140v-230h-150zM240 370h155c56 0 95 39 95 95s-39 95 -95 95h-155v-190zM260 -235l45 155h125l-70 -155h-100z" />
    <glyph glyph-name="rcommaaccent" unicode="&#x157;" horiz-adv-x="380" 
d="M65 0v490h135v-70h5c11 15 23 28 37 40c24 20 60 40 108 40h10v-145l-11 2c-8 1 -19 3 -34 3c-65 0 -115 -50 -115 -130v-230h-135zM25 -235l45 155h125l-70 -155h-100z" />
    <glyph glyph-name="Rcaron" unicode="&#x158;" horiz-adv-x="705" 
d="M90 0v700h310c150 0 245 -95 245 -235c0 -80 -29 -132 -60 -163c-17 -18 -37 -32 -60 -42l145 -260h-165l-125 230h-140v-230h-150zM240 370h155c56 0 95 39 95 95s-39 95 -95 95h-155v-190zM300 785l-120 150h120l60 -80l60 80h120l-120 -150h-120z" />
    <glyph glyph-name="rcaron" unicode="&#x159;" horiz-adv-x="380" 
d="M65 0v490h135v-70h5c11 15 23 28 37 40c24 20 60 40 108 40h10v-145l-11 2c-8 1 -19 3 -34 3c-65 0 -115 -50 -115 -130v-230h-135zM150 555l-120 150h120l60 -80l60 80h120l-120 -150h-120z" />
    <glyph glyph-name="Sacute" unicode="&#x15a;" horiz-adv-x="585" 
d="M20 95l100 100c12 -14 26 -27 43 -38c28 -19 69 -37 122 -37c80 0 115 35 115 80c0 119 -350 66 -350 310c0 110 95 205 255 205c77 0 137 -24 176 -48c23 -14 42 -30 59 -47l-100 -100c-11 11 -22 21 -35 30c-23 15 -55 30 -95 30c-76 0 -105 -30 -105 -70
c0 -119 350 -66 350 -310c0 -115 -100 -215 -265 -215c-91 0 -158 27 -203 55c-27 16 -49 34 -67 55zM245 785l80 150h140l-110 -150h-110z" />
    <glyph glyph-name="sacute" unicode="&#x15b;" horiz-adv-x="455" 
d="M15 80l80 85c10 -11 22 -20 35 -28c23 -15 55 -27 95 -27c45 0 60 15 60 35c0 55 -250 45 -250 205c0 80 70 150 195 150c63 0 110 -19 142 -38c19 -11 35 -24 48 -37l-80 -85c-8 7 -18 14 -29 20c-19 11 -46 20 -81 20s-50 -15 -50 -30c0 -55 250 -45 250 -205
c0 -84 -70 -155 -205 -155c-68 0 -120 22 -156 45c-21 13 -39 28 -54 45zM170 555l80 150h140l-110 -150h-110z" />
    <glyph glyph-name="Scircumflex" unicode="&#x15c;" horiz-adv-x="585" 
d="M20 95l100 100c12 -14 26 -27 43 -38c28 -19 69 -37 122 -37c80 0 115 35 115 80c0 119 -350 66 -350 310c0 110 95 205 255 205c77 0 137 -24 176 -48c23 -14 42 -30 59 -47l-100 -100c-11 11 -22 21 -35 30c-23 15 -55 30 -95 30c-76 0 -105 -30 -105 -70
c0 -119 350 -66 350 -310c0 -115 -100 -215 -265 -215c-91 0 -158 27 -203 55c-27 16 -49 34 -67 55zM115 785l120 150h120l120 -150h-120l-60 80l-60 -80h-120z" />
    <glyph glyph-name="scircumflex" unicode="&#x15d;" horiz-adv-x="455" 
d="M15 80l80 85c10 -11 22 -20 35 -28c23 -15 55 -27 95 -27c45 0 60 15 60 35c0 55 -250 45 -250 205c0 80 70 150 195 150c63 0 110 -19 142 -38c19 -11 35 -24 48 -37l-80 -85c-8 7 -18 14 -29 20c-19 11 -46 20 -81 20s-50 -15 -50 -30c0 -55 250 -45 250 -205
c0 -84 -70 -155 -205 -155c-68 0 -120 22 -156 45c-21 13 -39 28 -54 45zM50 555l120 150h120l120 -150h-120l-60 80l-60 -80h-120z" />
    <glyph glyph-name="Scedilla" unicode="&#x15e;" horiz-adv-x="585" 
d="M180 -190l30 60c6 -5 13 -10 20 -13c12 -7 30 -12 50 -12c23 0 35 8 35 25s-12 25 -35 25c-8 0 -14 -2 -18 -3l-7 -2l-30 35l30 65c-79 5 -137 32 -176 57c-23 15 -42 31 -59 48l100 100c12 -14 26 -27 43 -38c28 -19 69 -37 122 -37c80 0 115 35 115 80
c0 119 -350 66 -350 310c0 110 95 205 255 205c77 0 137 -24 176 -48c23 -14 42 -30 59 -47l-100 -100c-11 11 -22 21 -35 30c-23 15 -55 30 -95 30c-76 0 -105 -30 -105 -70c0 -119 350 -66 350 -310c0 -110 -89 -199 -225 -210l-15 -35c16 -1 30 -6 42 -13
c21 -12 43 -34 43 -77c0 -56 -39 -95 -110 -95c-35 0 -62 9 -81 20c-11 6 -21 13 -29 20z" />
    <glyph glyph-name="scedilla" unicode="&#x15f;" horiz-adv-x="455" 
d="M110 -190l30 60c6 -5 13 -10 20 -13c12 -7 30 -12 50 -12c23 0 35 8 35 25s-12 25 -35 25c-8 0 -14 -2 -18 -3l-7 -2l-30 35l35 65c-59 7 -102 30 -131 51c-17 12 -32 25 -44 39l80 85c10 -11 22 -20 35 -28c23 -15 55 -27 95 -27c45 0 60 15 60 35
c0 55 -250 45 -250 205c0 80 70 150 195 150c63 0 110 -19 142 -38c19 -11 35 -24 48 -37l-80 -85c-8 7 -18 14 -29 20c-19 11 -46 20 -81 20s-50 -15 -50 -30c0 -55 250 -45 250 -205c0 -80 -65 -144 -165 -155l-20 -35c16 -1 30 -6 42 -13c21 -12 43 -34 43 -77
c0 -56 -39 -95 -110 -95c-35 0 -62 9 -81 20c-11 6 -21 13 -29 20z" />
    <glyph glyph-name="Scaron" unicode="&#x160;" horiz-adv-x="585" 
d="M20 95l100 100c12 -14 26 -27 43 -38c28 -19 69 -37 122 -37c80 0 115 35 115 80c0 119 -350 66 -350 310c0 110 95 205 255 205c77 0 137 -24 176 -48c23 -14 42 -30 59 -47l-100 -100c-11 11 -22 21 -35 30c-23 15 -55 30 -95 30c-76 0 -105 -30 -105 -70
c0 -119 350 -66 350 -310c0 -115 -100 -215 -265 -215c-91 0 -158 27 -203 55c-27 16 -49 34 -67 55zM235 785l-120 150h120l60 -80l60 80h120l-120 -150h-120z" />
    <glyph glyph-name="scaron" unicode="&#x161;" horiz-adv-x="455" 
d="M15 80l80 85c10 -11 22 -20 35 -28c23 -15 55 -27 95 -27c45 0 60 15 60 35c0 55 -250 45 -250 205c0 80 70 150 195 150c63 0 110 -19 142 -38c19 -11 35 -24 48 -37l-80 -85c-8 7 -18 14 -29 20c-19 11 -46 20 -81 20s-50 -15 -50 -30c0 -55 250 -45 250 -205
c0 -84 -70 -155 -205 -155c-68 0 -120 22 -156 45c-21 13 -39 28 -54 45zM170 555l-120 150h120l60 -80l60 80h120l-120 -150h-120z" />
    <glyph glyph-name="uni0162" unicode="&#x162;" horiz-adv-x="590" 
d="M180 -190l30 60c6 -5 13 -10 20 -13c12 -7 30 -12 50 -12c23 0 35 8 35 25s-12 25 -35 25c-8 0 -14 -2 -18 -3l-7 -2l-30 35l35 75h-40v560h-200v140h550v-140h-200v-560h-30l-25 -45c16 -1 30 -6 42 -13c21 -12 43 -34 43 -77c0 -56 -39 -95 -110 -95
c-35 0 -62 9 -81 20c-11 6 -21 13 -29 20z" />
    <glyph glyph-name="uni0163" unicode="&#x163;" horiz-adv-x="400" 
d="M125 -190l30 60c6 -5 13 -10 20 -13c12 -7 30 -12 50 -12c23 0 35 8 35 25s-12 25 -35 25c-8 0 -14 -2 -18 -3l-7 -2l-30 35l35 75c-55 18 -100 66 -100 170v185h-85v125h45c37 0 55 20 55 60v90h120v-150h110v-125h-110v-165c0 -45 25 -70 65 -70c15 0 28 2 39 5
c6 1 11 3 16 5v-125c-7 -3 -15 -5 -23 -8c-15 -4 -34 -7 -57 -7l-20 -35c16 -1 30 -6 42 -13c21 -12 43 -34 43 -77c0 -56 -39 -95 -110 -95c-35 0 -62 9 -81 20c-11 6 -21 13 -29 20z" />
    <glyph glyph-name="Tcaron" unicode="&#x164;" horiz-adv-x="590" 
d="M220 0v560h-200v140h550v-140h-200v-560h-150zM235 785l-120 150h120l60 -80l60 80h120l-120 -150h-120z" />
    <glyph glyph-name="tcaron" unicode="&#x165;" horiz-adv-x="445" 
d="M105 170v185h-85v125h45c37 0 55 20 55 60v90h120v-150h110v-125h-110v-165c0 -45 25 -70 65 -70c15 0 28 2 39 5c6 1 11 3 16 5v-125c-8 -3 -17 -5 -26 -8c-16 -4 -39 -7 -64 -7c-100 0 -165 64 -165 180zM325 550l45 150h125l-70 -150h-100z" />
    <glyph glyph-name="Tbar" unicode="&#x166;" horiz-adv-x="590" 
d="M220 0v320h-140v120h140v120h-200v140h550v-140h-200v-120h140v-120h-140v-320h-150z" />
    <glyph glyph-name="tbar" unicode="&#x167;" horiz-adv-x="400" 
d="M20 210v105h85v50h-85v115h45c37 0 55 20 55 60v90h120v-150h110v-115h-110v-50h110v-105h-110v-20c0 -45 25 -70 65 -70c15 0 28 2 39 5c6 1 11 3 16 5v-125c-8 -3 -17 -5 -26 -8c-16 -4 -39 -7 -64 -7c-100 0 -165 64 -165 180v40h-85z" />
    <glyph glyph-name="Umacron" unicode="&#x16a;" horiz-adv-x="780" 
d="M85 290v410h150v-410c0 -100 64 -165 155 -165s155 65 155 165v410h150v-410c0 -180 -125 -305 -305 -305s-305 125 -305 305zM230 810v100h320v-100h-320z" />
    <glyph glyph-name="umacron" unicode="&#x16b;" horiz-adv-x="595" 
d="M65 195v295h135v-275c0 -60 34 -95 90 -95c60 0 105 45 105 110v260h135v-490h-135v70h-5c-11 -15 -23 -28 -37 -40c-24 -20 -61 -40 -108 -40c-100 0 -180 80 -180 205zM135 590v100h320v-100h-320z" />
    <glyph glyph-name="Ubreve" unicode="&#x16c;" horiz-adv-x="780" 
d="M85 290v410h150v-410c0 -100 64 -165 155 -165s155 65 155 165v410h150v-410c0 -180 -125 -305 -305 -305s-305 125 -305 305zM230 935h100c0 -35 25 -60 60 -60s60 25 60 60h100c0 -85 -64 -150 -160 -150s-160 65 -160 150z" />
    <glyph glyph-name="ubreve" unicode="&#x16d;" horiz-adv-x="595" 
d="M65 195v295h135v-275c0 -60 34 -95 90 -95c60 0 105 45 105 110v260h135v-490h-135v70h-5c-11 -15 -23 -28 -37 -40c-24 -20 -61 -40 -108 -40c-100 0 -180 80 -180 205zM135 705h100c0 -35 25 -60 60 -60s60 25 60 60h100c0 -85 -64 -150 -160 -150s-160 65 -160 150z
" />
    <glyph glyph-name="Uring" unicode="&#x16e;" horiz-adv-x="780" 
d="M85 290v410h150v-410c0 -100 64 -165 155 -165s155 65 155 165v410h150v-410c0 -180 -125 -305 -305 -305s-305 125 -305 305zM350 870c0 -25 20 -40 40 -40s40 15 40 40s-20 40 -40 40s-40 -15 -40 -40zM275 870c0 59 51 110 115 110s115 -51 115 -110
c0 -61 -51 -110 -115 -110s-115 49 -115 110z" />
    <glyph glyph-name="uring" unicode="&#x16f;" horiz-adv-x="595" 
d="M65 195v295h135v-275c0 -60 34 -95 90 -95c60 0 105 45 105 110v260h135v-490h-135v70h-5c-11 -15 -23 -28 -37 -40c-24 -20 -61 -40 -108 -40c-100 0 -180 80 -180 205zM255 640c0 -25 20 -40 40 -40s40 15 40 40s-20 40 -40 40s-40 -15 -40 -40zM180 640
c0 59 51 110 115 110s115 -51 115 -110c0 -61 -51 -110 -115 -110s-115 49 -115 110z" />
    <glyph glyph-name="Uhungarumlaut" unicode="&#x170;" horiz-adv-x="780" 
d="M85 290v410h150v-410c0 -100 64 -165 155 -165s155 65 155 165v410h150v-410c0 -180 -125 -305 -305 -305s-305 125 -305 305zM240 785l80 150h135l-115 -150h-100zM430 785l80 150h135l-115 -150h-100z" />
    <glyph glyph-name="uhungarumlaut" unicode="&#x171;" horiz-adv-x="595" 
d="M65 195v295h135v-275c0 -60 34 -95 90 -95c60 0 105 45 105 110v260h135v-490h-135v70h-5c-11 -15 -23 -28 -37 -40c-24 -20 -61 -40 -108 -40c-100 0 -180 80 -180 205zM145 555l80 150h135l-115 -150h-100zM335 555l80 150h135l-115 -150h-100z" />
    <glyph glyph-name="Uogonek" unicode="&#x172;" horiz-adv-x="780" 
d="M505 -140v-75l-21 -8c-13 -4 -31 -7 -54 -7c-71 0 -115 45 -115 102c0 35 12 62 25 82c7 12 16 22 25 31c-161 11 -280 129 -280 305v410h150v-410c0 -100 64 -165 155 -165s155 65 155 165v410h150v-410c0 -176 -115 -289 -255 -300c-6 -9 -11 -19 -15 -29
c-8 -19 -15 -41 -15 -66s20 -45 45 -45c14 0 26 2 36 5c5 1 10 3 14 5z" />
    <glyph glyph-name="uogonek" unicode="&#x173;" horiz-adv-x="595" 
d="M65 195v295h135v-275c0 -60 34 -95 90 -95c60 0 105 45 105 110v260h135v-490h-65c-7 -11 -13 -22 -18 -34c-9 -20 -17 -46 -17 -71s20 -45 45 -45c14 0 26 2 36 5c5 1 10 3 14 5v-75l-21 -8c-13 -4 -31 -7 -54 -7c-71 0 -115 45 -115 102c0 36 15 68 30 91
c9 13 19 26 30 37v70h-5c-11 -15 -23 -28 -37 -40c-24 -20 -61 -40 -108 -40c-100 0 -180 80 -180 205z" />
    <glyph glyph-name="Wcircumflex" unicode="&#x174;" horiz-adv-x="1070" 
d="M245 0l-230 700h155l145 -470h5l145 470h140l145 -470h5l145 470h155l-230 -700h-145l-142 455h-6l-142 -455h-145zM355 785l120 150h120l120 -150h-120l-60 80l-60 -80h-120z" />
    <glyph glyph-name="wcircumflex" unicode="&#x175;" horiz-adv-x="770" 
d="M167 0l-172 490h145l90 -290h5l95 290h110l95 -290h5l90 290h145l-172 -490h-123l-93 285h-4l-93 -285h-123zM205 555l120 150h120l120 -150h-120l-60 80l-60 -80h-120z" />
    <glyph glyph-name="Ycircumflex" unicode="&#x176;" horiz-adv-x="670" 
d="M260 0v250l-265 450h175l163 -300h4l163 300h175l-265 -450v-250h-150zM155 785l120 150h120l120 -150h-120l-60 80l-60 -80h-120z" />
    <glyph glyph-name="ycircumflex" unicode="&#x177;" horiz-adv-x="510" 
d="M35 -195v125c5 -2 10 -4 16 -5c11 -3 24 -5 39 -5c45 0 70 25 85 60l10 25l-190 485h145l115 -325h5l110 325h145l-200 -530c-41 -111 -99 -170 -190 -170c-25 0 -48 3 -64 7c-9 3 -18 5 -26 8zM75 555l120 150h120l120 -150h-120l-60 80l-60 -80h-120z" />
    <glyph glyph-name="Ydieresis" unicode="&#x178;" horiz-adv-x="670" 
d="M260 0v250l-265 450h175l163 -300h4l163 300h175l-265 -450v-250h-150zM150 855c0 40 35 75 75 75s75 -35 75 -75s-35 -75 -75 -75s-75 35 -75 75zM370 855c0 40 35 75 75 75s75 -35 75 -75s-35 -75 -75 -75s-75 35 -75 75z" />
    <glyph glyph-name="Zacute" unicode="&#x179;" horiz-adv-x="645" 
d="M45 0v140l355 420h-340v140h530v-140l-355 -420h365v-140h-555zM265 785l80 150h140l-110 -150h-110z" />
    <glyph glyph-name="zacute" unicode="&#x17a;" horiz-adv-x="500" 
d="M35 0v125l240 240h-230v125h410v-125l-240 -240h250v-125h-430zM190 555l80 150h140l-110 -150h-110z" />
    <glyph glyph-name="Zdotaccent" unicode="&#x17b;" horiz-adv-x="645" 
d="M45 0v140l355 420h-340v140h530v-140l-355 -420h365v-140h-555zM245 855c0 40 34 75 77 75s78 -35 78 -75s-35 -75 -78 -75s-77 35 -77 75z" />
    <glyph glyph-name="zdotaccent" unicode="&#x17c;" horiz-adv-x="500" 
d="M35 0v125l240 240h-230v125h410v-125l-240 -240h250v-125h-430zM170 630c0 40 34 75 77 75s78 -35 78 -75s-35 -75 -78 -75s-77 35 -77 75z" />
    <glyph glyph-name="Zcaron" unicode="&#x17d;" horiz-adv-x="645" 
d="M45 0v140l355 420h-340v140h530v-140l-355 -420h365v-140h-555zM265 785l-120 150h120l60 -80l60 80h120l-120 -150h-120z" />
    <glyph glyph-name="zcaron" unicode="&#x17e;" horiz-adv-x="500" 
d="M35 0v125l240 240h-230v125h410v-125l-240 -240h250v-125h-430zM190 555l-120 150h120l60 -80l60 80h120l-120 -150h-120z" />
    <glyph glyph-name="uni018F" unicode="&#x18f;" horiz-adv-x="795" 
d="M43 410h547c-21 91 -95 165 -205 165c-64 0 -111 -20 -144 -40c-19 -12 -36 -25 -51 -40l-90 105c21 21 46 40 75 57c49 29 119 58 210 58c211 0 365 -155 365 -365c0 -211 -155 -365 -355 -365s-355 154 -355 365c0 15 0 30 1 41zM585 280h-380c16 -80 89 -155 190 -155
s174 75 190 155z" />
    <glyph glyph-name="florin" unicode="&#x192;" horiz-adv-x="420" 
d="M-60 -195v120c5 -2 10 -4 16 -5c11 -3 24 -5 39 -5c40 0 68 25 75 65l57 320h-72v120h93l22 120c20 111 80 170 185 170c20 0 37 -4 52 -8c8 -3 16 -5 23 -7v-120c-5 1 -10 3 -16 5c-11 3 -24 5 -39 5c-40 0 -68 -25 -75 -65l-18 -100h103v-120h-125l-60 -340
c-20 -111 -80 -170 -185 -170c-20 0 -38 3 -53 7z" />
    <glyph glyph-name="Aringacute" unicode="&#x1fa;" horiz-adv-x="720" 
d="M5 0l270 700h20c-7 5 -14 12 -20 19c-11 12 -20 31 -20 56c0 55 45 100 105 100s105 -45 105 -100c0 -25 -9 -44 -20 -56c-6 -7 -13 -14 -20 -19h20l270 -700h-160l-60 160h-270l-60 -160h-160zM275 295h170l-83 230h-4zM300 895l60 115h135l-80 -115h-115zM320 775
c0 -25 20 -40 40 -40s40 15 40 40s-20 40 -40 40s-40 -15 -40 -40z" />
    <glyph glyph-name="aringacute" unicode="&#x1fb;" horiz-adv-x="540" 
d="M235 710l60 115h135l-80 -115h-115zM255 590c0 -25 20 -40 40 -40s40 15 40 40s-20 40 -40 40s-40 -15 -40 -40zM340 0v60h-5c-11 -13 -23 -25 -37 -35c-24 -19 -61 -35 -108 -35c-90 0 -150 60 -150 140s54 141 145 157l155 28c-5 35 -34 65 -85 65
c-35 0 -62 -14 -81 -27c-11 -8 -21 -17 -29 -27l-80 79c14 17 30 33 49 46c32 23 77 46 136 49c-11 6 -21 13 -30 21c-15 15 -30 36 -30 69c0 55 45 100 105 100s105 -45 105 -100c0 -39 -19 -61 -38 -76c-11 -8 -24 -14 -37 -19c28 -7 53 -19 75 -35c37 -28 75 -75 75 -155
v-305h-135zM340 210v10l-110 -20c-35 -7 -55 -25 -55 -50c0 -31 20 -50 60 -50c60 0 105 45 105 110z" />
    <glyph glyph-name="AEacute" unicode="&#x1fc;" horiz-adv-x="995" 
d="M-40 0l390 700h590v-140h-330v-135h250v-135h-250v-150h340v-140h-490v170h-240l-95 -170h-165zM295 305h165v255h-25zM490 785l80 150h140l-110 -150h-110z" />
    <glyph glyph-name="aeacute" unicode="&#x1fd;" horiz-adv-x="865" 
d="M145 325l-80 80c14 17 31 33 50 47c32 24 80 48 140 48c52 0 92 -20 119 -40c16 -12 30 -25 41 -40c13 15 29 28 46 40c31 20 73 40 129 40c131 0 240 -105 240 -245c0 -19 -2 -32 -3 -41l-2 -14h-345c15 -51 54 -90 125 -90c40 0 71 12 92 27c12 8 23 17 33 28l70 -95
c-15 -15 -33 -28 -54 -40c-35 -20 -86 -40 -151 -40c-64 0 -108 23 -139 47c-18 14 -33 30 -46 48c-13 -18 -28 -34 -46 -48c-31 -24 -79 -47 -144 -47c-115 0 -180 65 -180 145c0 90 70 160 200 160h100c-5 57 -34 85 -85 85c-35 0 -62 -13 -81 -28c-11 -8 -21 -17 -29 -27
zM480 295h210c-15 45 -54 85 -105 85c-49 0 -90 -40 -105 -85zM340 205h-100c-40 0 -65 -24 -65 -55s20 -50 60 -50c60 0 105 45 105 105zM360 555l80 150h140l-110 -150h-110z" />
    <glyph glyph-name="Oslashacute" unicode="&#x1fe;" horiz-adv-x="850" 
d="M230 235l315 305c-11 6 -22 12 -34 17c-21 9 -51 18 -86 18c-125 0 -225 -100 -225 -225c0 -39 7 -67 15 -86c4 -11 9 -21 15 -29zM620 465l-315 -305c11 -7 22 -13 34 -18c21 -9 51 -17 86 -17c125 0 225 100 225 225c0 37 -8 67 -15 86c-5 11 -10 21 -15 29zM35 50
l85 85c-14 17 -27 37 -38 59c-19 37 -37 91 -37 156c0 200 164 365 380 365c71 0 126 -18 165 -35c23 -11 43 -22 60 -35l85 85l80 -80l-85 -85c13 -17 26 -37 37 -59c19 -39 38 -91 38 -156c0 -200 -164 -365 -380 -365c-71 0 -126 16 -165 35c-23 10 -43 22 -60 35
l-85 -85zM375 785l80 150h140l-110 -150h-110z" />
    <glyph glyph-name="oslashacute" unicode="&#x1ff;" horiz-adv-x="590" 
d="M410 295l-165 -170c4 -2 9 -4 14 -5c10 -3 22 -5 36 -5c70 0 125 55 125 130c0 15 -2 27 -5 36zM180 195l165 170l-14 5c-9 3 -21 5 -36 5c-70 0 -125 -55 -125 -130c0 -14 2 -26 5 -36c1 -5 3 -10 5 -14zM30 35l55 60c-9 12 -18 26 -25 41c-13 27 -25 64 -25 109
c0 140 115 255 260 255c45 0 78 -9 101 -20c13 -6 24 -13 34 -20l60 65l70 -70l-55 -60c9 -12 18 -26 25 -41c12 -27 25 -64 25 -109c0 -140 -115 -255 -260 -255c-45 0 -78 9 -101 20c-13 6 -25 13 -34 20l-60 -65zM240 555l80 150h140l-110 -150h-110z" />
    <glyph glyph-name="Scommaaccent" unicode="&#x218;" horiz-adv-x="585" 
d="M20 95l100 100c12 -14 26 -27 43 -38c28 -19 69 -37 122 -37c80 0 115 35 115 80c0 119 -350 66 -350 310c0 110 95 205 255 205c77 0 137 -24 176 -48c23 -14 42 -30 59 -47l-100 -100c-11 11 -22 21 -35 30c-23 15 -55 30 -95 30c-76 0 -105 -30 -105 -70
c0 -119 350 -66 350 -310c0 -115 -100 -215 -265 -215c-91 0 -158 27 -203 55c-27 16 -49 34 -67 55zM195 -235l45 155h125l-70 -155h-100z" />
    <glyph glyph-name="scommaaccent" unicode="&#x219;" horiz-adv-x="455" 
d="M15 80l80 85c10 -11 22 -20 35 -28c23 -15 55 -27 95 -27c45 0 60 15 60 35c0 55 -250 45 -250 205c0 80 70 150 195 150c63 0 110 -19 142 -38c19 -11 35 -24 48 -37l-80 -85c-8 7 -18 14 -29 20c-19 11 -46 20 -81 20s-50 -15 -50 -30c0 -55 250 -45 250 -205
c0 -84 -70 -155 -205 -155c-68 0 -120 22 -156 45c-21 13 -39 28 -54 45zM115 -235l45 155h125l-70 -155h-100z" />
    <glyph glyph-name="uni021A" unicode="&#x21a;" horiz-adv-x="590" 
d="M220 0v560h-200v140h550v-140h-200v-560h-150zM190 -235l45 155h125l-70 -155h-100z" />
    <glyph glyph-name="uni021B" unicode="&#x21b;" horiz-adv-x="400" 
d="M105 170v185h-85v125h45c37 0 55 20 55 60v90h120v-150h110v-125h-110v-165c0 -45 25 -70 65 -70c15 0 28 2 39 5c6 1 11 3 16 5v-125c-8 -3 -17 -5 -26 -8c-16 -4 -39 -7 -64 -7c-100 0 -165 64 -165 180zM130 -235l45 155h125l-70 -155h-100z" />
    <glyph glyph-name="uni0232" unicode="&#x232;" horiz-adv-x="670" 
d="M260 0v250l-265 450h175l163 -300h4l163 300h175l-265 -450v-250h-150zM175 810v100h320v-100h-320z" />
    <glyph glyph-name="uni0233" unicode="&#x233;" horiz-adv-x="510" 
d="M35 -195v125c5 -2 10 -4 16 -5c11 -3 24 -5 39 -5c45 0 70 25 85 60l10 25l-190 485h145l115 -325h5l110 325h145l-200 -530c-41 -111 -99 -170 -190 -170c-25 0 -48 3 -64 7c-9 3 -18 5 -26 8zM105 615v100h320v-100h-320z" />
    <glyph glyph-name="uni0244" unicode="&#x244;" horiz-adv-x="790" 
d="M10 360v120h90v220h150v-220h290v220h150v-220h90v-120h-90v-80c0 -175 -120 -295 -295 -295s-295 120 -295 295v80h-90zM250 360v-80c0 -96 60 -155 145 -155s145 59 145 155v80h-290z" />
    <glyph glyph-name="uni0259" unicode="&#x259;" horiz-adv-x="565" 
d="M35 295h355c-15 45 -55 85 -130 85c-43 0 -74 -13 -97 -28c-13 -8 -24 -17 -33 -27l-70 95c15 15 33 28 54 40c36 20 88 40 156 40c145 0 260 -115 260 -255s-115 -255 -255 -255c-135 0 -245 110 -245 245c0 17 1 32 2 43zM390 195h-220c15 -45 54 -85 110 -85
s95 40 110 85z" />
    <glyph glyph-name="uni0289" unicode="&#x289;" horiz-adv-x="625" 
d="M20 236v110h65v144h135v-144h185v144h135v-144h65v-110h-65v-236h-135v70h-5c-10 -15 -22 -28 -36 -40c-24 -20 -59 -40 -104 -40c-100 0 -175 80 -175 200v46h-65zM220 236v-26c0 -60 28 -90 85 -90c60 0 100 40 100 105v11h-185z" />
    <glyph glyph-name="uni02BC" unicode="&#x2bc;" horiz-adv-x="230" 
d="M30 555l45 150h125l-70 -150h-100z" />
    <glyph glyph-name="circumflex" unicode="&#x2c6;" horiz-adv-x="420" 
d="M30 555l120 150h120l120 -150h-120l-60 80l-60 -80h-120z" />
    <glyph glyph-name="caron" unicode="&#x2c7;" horiz-adv-x="420" 
d="M150 555l-120 150h120l60 -80l60 80h120l-120 -150h-120z" />
    <glyph glyph-name="breve" unicode="&#x2d8;" horiz-adv-x="380" 
d="M30 705h100c0 -35 25 -60 60 -60s60 25 60 60h100c0 -85 -64 -150 -160 -150s-160 65 -160 150z" />
    <glyph glyph-name="dotaccent" unicode="&#x2d9;" horiz-adv-x="215" 
d="M30 630c0 40 34 75 77 75s78 -35 78 -75s-35 -75 -78 -75s-77 35 -77 75z" />
    <glyph glyph-name="ring" unicode="&#x2da;" horiz-adv-x="290" 
d="M105 605c0 -25 20 -40 40 -40s40 15 40 40s-20 40 -40 40s-40 -15 -40 -40zM30 605c0 59 51 110 115 110s115 -51 115 -110c0 -61 -51 -110 -115 -110s-115 49 -115 110z" />
    <glyph glyph-name="ogonek" unicode="&#x2db;" horiz-adv-x="250" 
d="M220 -140v-75l-21 -8c-13 -4 -31 -7 -54 -7c-71 0 -115 45 -115 102c0 36 15 68 30 91c9 13 19 26 30 37h70c-7 -11 -13 -22 -18 -34c-9 -20 -17 -46 -17 -71s20 -45 45 -45c14 0 26 2 36 5c5 1 10 3 14 5z" />
    <glyph glyph-name="tilde" unicode="&#x2dc;" horiz-adv-x="415" 
d="M115 560h-85c0 105 44 150 107 150c68 0 88 -55 128 -55c20 0 35 15 35 55h85c0 -105 -45 -150 -105 -150c-70 0 -85 50 -130 50c-20 0 -35 -15 -35 -50z" />
    <glyph glyph-name="hungarumlaut" unicode="&#x2dd;" horiz-adv-x="465" 
d="M30 555l80 150h135l-115 -150h-100zM220 555l80 150h135l-115 -150h-100z" />
    <glyph glyph-name="acutecomb" unicode="&#x301;" horiz-adv-x="0" 
d="M-450 725l80 150h140l-110 -150h-110z" />
    <glyph glyph-name="uni0302" unicode="&#x302;" horiz-adv-x="0" 
d="M-575 725l120 150h120l120 -150h-120l-60 80l-60 -80h-120z" />
    <glyph glyph-name="uni0304" unicode="&#x304;" horiz-adv-x="0" 
d="M-550 750v100h320v-100h-320z" />
    <glyph glyph-name="uni0306" unicode="&#x306;" horiz-adv-x="0" 
d="M-550 865h100c0 -35 25 -60 60 -60s60 25 60 60h100c0 -85 -64 -150 -160 -150s-160 65 -160 150z" />
    <glyph glyph-name="uni0307" unicode="&#x307;" horiz-adv-x="0" 
d="M-465 795c0 40 34 75 77 75s78 -35 78 -75s-35 -75 -78 -75s-77 35 -77 75z" />
    <glyph glyph-name="uni0308" unicode="&#x308;" horiz-adv-x="0" 
d="M-580 795c0 40 35 75 75 75s75 -35 75 -75s-35 -75 -75 -75s-75 35 -75 75zM-360 795c0 40 35 75 75 75s75 -35 75 -75s-35 -75 -75 -75s-75 35 -75 75z" />
    <glyph glyph-name="uni030A" unicode="&#x30a;" horiz-adv-x="0" 
d="M-430 830c0 -25 20 -40 40 -40s40 15 40 40s-20 40 -40 40s-40 -15 -40 -40zM-505 830c0 59 51 110 115 110s115 -51 115 -110c0 -61 -51 -110 -115 -110s-115 49 -115 110z" />
    <glyph glyph-name="uni030C" unicode="&#x30c;" horiz-adv-x="0" 
d="M-450 725l-120 150h120l60 -80l60 80h120l-120 -150h-120z" />
    <glyph glyph-name="uni0326" unicode="&#x326;" horiz-adv-x="230" 
d="M30 -235l45 155h125l-70 -155h-100z" />
    <glyph glyph-name="Alphatonos" unicode="&#x386;" horiz-adv-x="740" 
d="M290 295h170l-83 230h-4zM20 0l270 700h170l270 -700h-160l-60 160h-270l-60 -160h-160zM15 550l80 150h140l-110 -150h-110z" />
    <glyph glyph-name="Epsilontonos" unicode="&#x388;" horiz-adv-x="715" 
d="M140 0v700h520v-140h-370v-135h290v-135h-290v-150h380v-140h-530zM-90 550l80 150h140l-110 -150h-110z" />
    <glyph glyph-name="Etatonos" unicode="&#x389;" horiz-adv-x="830" 
d="M140 0v700h150v-275h300v275h150v-700h-150v285h-300v-285h-150zM-90 550l80 150h140l-110 -150h-110z" />
    <glyph glyph-name="Iotatonos" unicode="&#x38a;" horiz-adv-x="380" 
d="M140 0v700h150v-700h-150zM-90 550l80 150h140l-110 -150h-110z" />
    <glyph glyph-name="Omicrontonos" unicode="&#x38c;" horiz-adv-x="870" 
d="M220 350c0 -125 100 -225 225 -225s225 100 225 225s-100 225 -225 225s-225 -100 -225 -225zM65 350c0 200 164 365 380 365s380 -165 380 -365s-164 -365 -380 -365s-380 165 -380 365zM-50 550l80 150h140l-110 -150h-110z" />
    <glyph glyph-name="Upsilontonos" unicode="&#x38e;" horiz-adv-x="805" 
d="M395 0v250l-265 450h175l163 -300h4l163 300h175l-265 -450v-250h-150zM-90 550l80 150h140l-110 -150h-110z" />
    <glyph glyph-name="Omegatonos" unicode="&#x38f;" horiz-adv-x="880" 
d="M85 0v130h124c-39 16 -134 109 -134 245c0 185 155 340 375 340s375 -155 375 -340c0 -136 -95 -229 -134 -245h124v-130h-305v130c84 29 165 111 165 220c0 125 -100 225 -225 225s-225 -100 -225 -225c0 -109 81 -191 165 -220v-130h-305zM-50 550l80 150h140
l-110 -150h-110z" />
    <glyph glyph-name="iotadieresistonos" unicode="&#x390;" horiz-adv-x="310" 
d="M60 555l75 150h90l-105 -150h-60zM-75 630c0 40 35 75 75 75s75 -35 75 -75s-35 -75 -75 -75s-75 35 -75 75zM205 630c0 40 35 75 75 75s75 -35 75 -75s-35 -75 -75 -75s-75 35 -75 75zM65 155v335h135v-310c0 -40 18 -60 55 -60c13 0 23 2 32 5c5 1 9 3 13 5v-120
c-7 -4 -15 -7 -24 -10c-15 -5 -36 -10 -61 -10c-91 0 -150 60 -150 165z" />
    <glyph glyph-name="Alpha" unicode="&#x391;" horiz-adv-x="720" 
d="M275 295h170l-83 230h-4zM5 0l270 700h170l270 -700h-160l-60 160h-270l-60 -160h-160z" />
    <glyph glyph-name="Beta" unicode="&#x392;" horiz-adv-x="690" 
d="M90 0v700h295c140 0 225 -85 225 -185c0 -56 -24 -91 -48 -114c-14 -13 -30 -24 -47 -31c24 -7 46 -19 65 -34c32 -27 65 -68 65 -136c0 -109 -91 -200 -240 -200h-315zM240 130h155c60 0 95 34 95 85s-35 85 -95 85h-155v-170zM240 430h135c51 0 80 30 80 70
s-29 70 -80 70h-135v-140z" />
    <glyph glyph-name="Gamma" unicode="&#x393;" horiz-adv-x="585" 
d="M90 0v700h475v-140h-325v-560h-150z" />
    <glyph glyph-name="uni0394" unicode="&#x394;" horiz-adv-x="705" 
d="M-10 0l280 700h165l280 -700h-725zM200 140h305l-150 390h-5z" />
    <glyph glyph-name="Epsilon" unicode="&#x395;" horiz-adv-x="665" 
d="M90 0v700h520v-140h-370v-135h290v-135h-290v-150h380v-140h-530z" />
    <glyph glyph-name="Zeta" unicode="&#x396;" horiz-adv-x="645" 
d="M45 0v140l355 420h-340v140h530v-140l-355 -420h365v-140h-555z" />
    <glyph glyph-name="Eta" unicode="&#x397;" horiz-adv-x="780" 
d="M90 0v700h150v-275h300v275h150v-700h-150v285h-300v-285h-150z" />
    <glyph glyph-name="Theta" unicode="&#x398;" horiz-adv-x="850" 
d="M270 295v110h310v-110h-310zM200 350c0 -125 100 -225 225 -225s225 100 225 225s-100 225 -225 225s-225 -100 -225 -225zM45 350c0 200 164 365 380 365s380 -165 380 -365s-164 -365 -380 -365s-380 165 -380 365z" />
    <glyph glyph-name="Iota" unicode="&#x399;" horiz-adv-x="330" 
d="M90 0v700h150v-700h-150z" />
    <glyph glyph-name="Kappa" unicode="&#x39a;" horiz-adv-x="700" 
d="M90 0v700h150v-300l270 300h180l-260 -290l280 -410h-175l-205 300l-90 -95v-205h-150z" />
    <glyph glyph-name="Lambda" unicode="&#x39b;" horiz-adv-x="720" 
d="M5 0l270 700h170l270 -700h-160l-193 525h-4l-193 -525h-160z" />
    <glyph glyph-name="Mu" unicode="&#x39c;" horiz-adv-x="930" 
d="M90 0v700h135l240 -300l240 300h135v-700h-150v460l-225 -280l-225 280v-460h-150z" />
    <glyph glyph-name="Nu" unicode="&#x39d;" horiz-adv-x="805" 
d="M90 0v700h135l340 -435v435h150v-700h-135l-340 435v-435h-150z" />
    <glyph glyph-name="Xi" unicode="&#x39e;" horiz-adv-x="680" 
d="M50 0v140h580v-140h-580zM60 560v140h560v-140h-560zM135 285v140h410v-140h-410z" />
    <glyph glyph-name="Omicron" unicode="&#x39f;" horiz-adv-x="850" 
d="M200 350c0 -125 100 -225 225 -225s225 100 225 225s-100 225 -225 225s-225 -100 -225 -225zM45 350c0 200 164 365 380 365s380 -165 380 -365s-164 -365 -380 -365s-380 165 -380 365z" />
    <glyph glyph-name="Pi" unicode="&#x3a0;" horiz-adv-x="775" 
d="M90 0v700h595v-700h-150v560h-295v-560h-150z" />
    <glyph glyph-name="Rho" unicode="&#x3a1;" horiz-adv-x="680" 
d="M90 0v700h295c149 0 250 -99 250 -235s-101 -235 -250 -235h-145v-230h-150zM240 370h140c60 0 100 39 100 95s-40 95 -100 95h-140v-190z" />
    <glyph glyph-name="Sigma" unicode="&#x3a3;" horiz-adv-x="610" 
d="M50 0v120l195 240l-195 220v120h520v-140h-325l180 -200l-180 -220h325v-140h-520z" />
    <glyph glyph-name="Tau" unicode="&#x3a4;" horiz-adv-x="590" 
d="M220 0v560h-200v140h550v-140h-200v-560h-150z" />
    <glyph glyph-name="Upsilon" unicode="&#x3a5;" horiz-adv-x="670" 
d="M260 0v250l-265 450h175l163 -300h4l163 300h175l-265 -450v-250h-150z" />
    <glyph glyph-name="Phi" unicode="&#x3a6;" horiz-adv-x="870" 
d="M510 545v-380c111 15 175 79 175 190s-64 175 -175 190zM360 -50v85c-195 16 -325 144 -325 320s130 304 325 320v81h150v-81c195 -16 325 -144 325 -320s-130 -304 -325 -320v-85h-150zM360 165v380c-111 -15 -175 -79 -175 -190s64 -175 175 -190z" />
    <glyph glyph-name="Chi" unicode="&#x3a7;" horiz-adv-x="680" 
d="M0 0l240 365l-220 335h175l143 -230h4l143 230h175l-220 -335l240 -365h-175l-163 260h-4l-163 -260h-175z" />
    <glyph glyph-name="Psi" unicode="&#x3a8;" horiz-adv-x="870" 
d="M360 0v185c-185 15 -295 125 -295 316v199h150v-195c0 -115 50 -165 145 -180v375h150v-375c95 15 145 65 145 180v195h150v-199c0 -191 -110 -301 -295 -316v-185h-150z" />
    <glyph glyph-name="uni03A9" unicode="&#x3a9;" horiz-adv-x="860" 
d="M65 0v130h124c-39 16 -134 109 -134 245c0 185 155 340 375 340s375 -155 375 -340c0 -136 -95 -229 -134 -245h124v-130h-305v130c84 29 165 111 165 220c0 125 -100 225 -225 225s-225 -100 -225 -225c0 -109 81 -191 165 -220v-130h-305z" />
    <glyph glyph-name="Iotadieresis" unicode="&#x3aa;" horiz-adv-x="330" 
d="M90 0v700h150v-700h-150zM-20 855c0 40 35 75 75 75s75 -35 75 -75s-35 -75 -75 -75s-75 35 -75 75zM200 855c0 40 35 75 75 75s75 -35 75 -75s-35 -75 -75 -75s-75 35 -75 75z" />
    <glyph glyph-name="Upsilondieresis" unicode="&#x3ab;" horiz-adv-x="670" 
d="M260 0v250l-265 450h175l163 -300h4l163 300h175l-265 -450v-250h-150zM150 855c0 40 35 75 75 75s75 -35 75 -75s-35 -75 -75 -75s-75 35 -75 75zM370 855c0 40 35 75 75 75s75 -35 75 -75s-35 -75 -75 -75s-75 35 -75 75z" />
    <glyph glyph-name="alphatonos" unicode="&#x3ac;" horiz-adv-x="625" 
d="M295 115c70 0 125 55 125 130s-55 130 -125 130s-125 -55 -125 -130s55 -130 125 -130zM430 70h-5c-11 -15 -24 -28 -40 -40c-28 -20 -70 -40 -130 -40c-116 0 -220 105 -220 255c0 149 104 255 220 255c52 0 90 -20 117 -40c15 -12 28 -25 38 -40h5v70h135v-335
c0 -20 15 -35 35 -35c4 0 9 1 14 2l6 3v-125c-5 -2 -10 -4 -16 -5c-11 -3 -24 -5 -39 -5c-48 0 -77 20 -96 40c-11 12 -19 25 -24 40zM240 555l80 150h140l-110 -150h-110z" />
    <glyph glyph-name="epsilontonos" unicode="&#x3ad;" horiz-adv-x="460" 
d="M315 195h-60c-56 0 -75 -20 -75 -44c0 -27 19 -46 75 -46c40 0 72 12 95 27c13 8 24 17 35 28l75 -80c-14 -17 -32 -32 -53 -45c-36 -23 -90 -45 -162 -45c-140 0 -210 70 -210 145c0 47 25 76 52 93c15 10 33 17 53 22c-18 5 -34 13 -48 23c-24 17 -47 44 -47 87
c0 70 70 140 200 140c60 0 107 -18 140 -35c19 -11 35 -22 50 -35l-75 -80c-10 6 -21 12 -32 17c-19 9 -46 18 -73 18c-45 0 -65 -20 -65 -40s20 -40 65 -40h60v-110zM175 555l80 150h140l-110 -150h-110z" />
    <glyph glyph-name="etatonos" unicode="&#x3ae;" horiz-adv-x="595" 
d="M65 0v490h135v-70h5c11 15 23 28 37 40c24 20 60 40 108 40c100 0 180 -80 180 -205v-295h-135v275c0 60 -34 95 -90 95c-60 0 -105 -45 -105 -110v-260h-135zM240 555l80 150h140l-110 -150h-110z" />
    <glyph glyph-name="iotatonos" unicode="&#x3af;" horiz-adv-x="310" 
d="M65 155v335h135v-310c0 -40 18 -60 55 -60c13 0 23 2 32 5c5 1 9 3 13 5v-120c-7 -4 -15 -7 -24 -10c-15 -5 -36 -10 -61 -10c-91 0 -150 60 -150 165zM80 555l80 150h140l-110 -150h-110z" />
    <glyph glyph-name="upsilondieresistonos" unicode="&#x3b0;" horiz-adv-x="600" 
d="M225 555l75 150h90l-105 -150h-60zM90 630c0 40 35 75 75 75s75 -35 75 -75s-35 -75 -75 -75s-75 35 -75 75zM370 630c0 40 35 75 75 75s75 -35 75 -75s-35 -75 -75 -75s-75 35 -75 75zM65 215v275h135v-275c0 -56 40 -95 100 -95s100 39 100 95v275h135v-275
c0 -130 -95 -225 -235 -225s-235 95 -235 225z" />
    <glyph glyph-name="alpha" unicode="&#x3b1;" horiz-adv-x="625" 
d="M295 115c70 0 125 55 125 130s-55 130 -125 130s-125 -55 -125 -130s55 -130 125 -130zM430 70h-5c-11 -15 -24 -28 -40 -40c-28 -20 -70 -40 -130 -40c-116 0 -220 105 -220 255c0 149 104 255 220 255c52 0 90 -20 117 -40c15 -12 28 -25 38 -40h5v70h135v-335
c0 -20 15 -35 35 -35c4 0 9 1 14 2l6 3v-125c-5 -2 -10 -4 -16 -5c-11 -3 -24 -5 -39 -5c-48 0 -77 20 -96 40c-11 12 -19 25 -24 40z" />
    <glyph glyph-name="beta" unicode="&#x3b2;" horiz-adv-x="590" 
d="M70 -210v695c0 136 89 225 220 225c130 0 215 -85 215 -190c0 -48 -19 -80 -38 -103c-11 -13 -24 -23 -37 -32c23 -10 44 -23 62 -39c31 -28 63 -71 63 -136c0 -120 -90 -210 -238 -210h-112v-210h-135zM205 125h115c65 0 100 39 100 90s-40 90 -100 90h-55v125h20
c51 0 85 35 85 75s-29 75 -80 75s-85 -35 -85 -95v-360z" />
    <glyph glyph-name="gamma" unicode="&#x3b3;" horiz-adv-x="515" 
d="M190 -210v200l-195 500h145l115 -330h5l115 330h145l-195 -500v-200h-135z" />
    <glyph glyph-name="delta" unicode="&#x3b4;" horiz-adv-x="585" 
d="M90 590v110h405v-120h-160v-5c109 -69 210 -186 210 -335c0 -140 -110 -250 -255 -250s-255 109 -255 240s99 229 230 240c-40 40 -83 70 -118 90c-20 12 -39 22 -57 30zM170 230c0 -65 50 -115 119 -115c71 0 121 51 121 115c0 65 -49 115 -120 115s-120 -50 -120 -115z
" />
    <glyph glyph-name="epsilon" unicode="&#x3b5;" horiz-adv-x="460" 
d="M315 195h-60c-56 0 -75 -20 -75 -44c0 -27 19 -46 75 -46c40 0 72 12 95 27c13 8 24 17 35 28l75 -80c-14 -17 -32 -32 -53 -45c-36 -23 -90 -45 -162 -45c-140 0 -210 70 -210 145c0 47 25 76 52 93c15 10 33 17 53 22c-18 5 -34 13 -48 23c-24 17 -47 44 -47 87
c0 70 70 140 200 140c60 0 107 -18 140 -35c19 -11 35 -22 50 -35l-75 -80c-10 6 -21 12 -32 17c-19 9 -46 18 -73 18c-45 0 -65 -20 -65 -40s20 -40 65 -40h60v-110z" />
    <glyph glyph-name="zeta" unicode="&#x3b6;" horiz-adv-x="505" 
d="M440 -140h-120c0 40 8 73 17 97c5 14 11 27 18 38c-7 -2 -14 -4 -21 -5c-15 -3 -33 -5 -55 -5c-144 0 -234 90 -234 215c0 99 52 191 105 255c31 38 66 73 105 105h-190v140h405v-110c-54 -37 -102 -76 -143 -116c-72 -69 -142 -156 -142 -239c0 -76 44 -120 135 -120
c32 0 60 5 79 10c11 3 22 6 31 10l70 -90c-11 -16 -21 -34 -30 -53c-15 -33 -30 -80 -30 -132z" />
    <glyph glyph-name="eta" unicode="&#x3b7;" horiz-adv-x="595" 
d="M65 0v490h135v-70h5c11 15 23 28 37 40c24 20 60 40 108 40c100 0 180 -80 180 -205v-295h-135v275c0 60 -34 95 -90 95c-60 0 -105 -45 -105 -110v-260h-135z" />
    <glyph glyph-name="theta" unicode="&#x3b8;" horiz-adv-x="650" 
d="M325 -15c-144 0 -270 125 -270 365s126 365 270 365s270 -125 270 -365s-126 -365 -270 -365zM195 405h260c-11 131 -65 185 -130 185s-119 -54 -130 -185zM455 295h-260c11 -131 65 -185 130 -185s119 54 130 185z" />
    <glyph glyph-name="iota" unicode="&#x3b9;" horiz-adv-x="310" 
d="M65 155v335h135v-310c0 -40 18 -60 55 -60c13 0 23 2 32 5c5 1 9 3 13 5v-120c-7 -4 -15 -7 -24 -10c-15 -5 -36 -10 -61 -10c-91 0 -150 60 -150 165z" />
    <glyph glyph-name="kappa" unicode="&#x3ba;" horiz-adv-x="540" 
d="M65 0v490h135v-200l175 200h160l-180 -205l190 -285h-155l-125 190l-65 -75v-115h-135z" />
    <glyph glyph-name="lambda" unicode="&#x3bb;" horiz-adv-x="530" 
d="M5 0l205 485l-15 34c-19 43 -40 61 -85 61c-15 0 -28 -2 -39 -5c-6 -2 -11 -4 -16 -5v125c8 2 17 4 26 7c16 4 39 8 64 8c89 0 147 -50 190 -170l190 -540h-145l-102 300h-5l-123 -300h-145z" />
    <glyph glyph-name="uni03BC" unicode="&#x3bc;" horiz-adv-x="595" 
d="M65 -210v700h135v-275c0 -60 34 -95 90 -95c60 0 105 45 105 110v260h135v-490h-135v70h-5c-9 -15 -19 -28 -31 -40c-21 -20 -51 -40 -94 -40c-19 0 -35 2 -48 7c-7 3 -12 5 -17 8v-215h-135z" />
    <glyph glyph-name="nu" unicode="&#x3bd;" horiz-adv-x="510" 
d="M180 0l-185 490h145l113 -330h4l113 330h145l-185 -490h-150z" />
    <glyph glyph-name="xi" unicode="&#x3be;" horiz-adv-x="510" 
d="M450 -140h-120c0 40 8 73 17 97c5 14 11 27 18 38c-5 -2 -12 -4 -19 -5c-15 -3 -34 -5 -57 -5c-155 0 -249 95 -249 205c0 72 32 119 67 147c20 17 43 29 68 38v5c-21 7 -41 17 -58 30c-29 23 -57 60 -57 120c0 95 91 185 235 185c60 0 103 -13 132 -28
c17 -8 32 -17 43 -27l-70 -105l-28 15c-19 7 -41 15 -72 15c-65 0 -100 -35 -100 -75s34 -75 110 -75h70v-130h-75c-85 0 -125 -39 -125 -95c0 -55 41 -95 150 -95c32 0 60 5 79 10c11 3 22 6 31 10l70 -90c-11 -16 -21 -34 -30 -53c-15 -33 -30 -80 -30 -132z" />
    <glyph glyph-name="omicron" unicode="&#x3bf;" horiz-adv-x="590" 
d="M295 115c70 0 125 55 125 130s-55 130 -125 130s-125 -55 -125 -130s55 -130 125 -130zM35 245c0 140 115 255 260 255s260 -115 260 -255s-115 -255 -260 -255s-260 115 -260 255z" />
    <glyph glyph-name="pi" unicode="&#x3c0;" horiz-adv-x="595" 
d="M65 0v490h465v-490h-135v365h-195v-365h-135z" />
    <glyph glyph-name="rho" unicode="&#x3c1;" horiz-adv-x="610" 
d="M60 -210v455c0 140 115 255 255 255c145 0 260 -115 260 -255s-115 -255 -260 -255c-40 0 -70 8 -90 17c-12 5 -22 11 -30 18v-235h-135zM315 115c70 0 125 55 125 130s-55 130 -125 130s-125 -55 -125 -130s55 -130 125 -130z" />
    <glyph glyph-name="sigma1" unicode="&#x3c2;" horiz-adv-x="515" 
d="M425 -140h-120c0 40 8 73 17 96c5 13 11 26 18 37l-10 -2c-7 -1 -17 -1 -30 -1c-155 0 -265 110 -265 255c0 140 116 255 265 255c60 0 107 -18 142 -35c20 -11 38 -22 53 -35l-80 -100c-10 8 -21 15 -33 22c-21 11 -50 23 -82 23c-76 0 -130 -54 -130 -130
c0 -69 50 -130 150 -130c31 0 54 5 70 10c9 3 18 6 25 10l70 -90c-11 -16 -21 -34 -30 -53c-15 -33 -30 -80 -30 -132z" />
    <glyph glyph-name="sigma" unicode="&#x3c3;" 
d="M295 490h320v-130h-95c6 -11 12 -22 17 -34c9 -21 18 -51 18 -86c0 -135 -115 -250 -260 -250s-260 115 -260 250s115 250 260 250zM295 115c70 0 125 55 125 125s-55 125 -125 125s-125 -55 -125 -125s55 -125 125 -125z" />
    <glyph glyph-name="tau" unicode="&#x3c4;" horiz-adv-x="475" 
d="M170 155v210h-155v125h445v-125h-155v-185c0 -40 18 -60 55 -60c13 0 23 2 32 5c5 1 9 3 13 5v-120c-7 -4 -15 -7 -24 -10c-15 -5 -36 -10 -61 -10c-91 0 -150 60 -150 165z" />
    <glyph glyph-name="upsilon" unicode="&#x3c5;" horiz-adv-x="600" 
d="M65 215v275h135v-275c0 -56 40 -95 100 -95s100 39 100 95v275h135v-275c0 -130 -95 -225 -235 -225s-235 95 -235 225z" />
    <glyph glyph-name="phi" unicode="&#x3c6;" horiz-adv-x="755" 
d="M310 -210v195c-160 5 -275 119 -275 255c0 119 84 205 175 240l55 -105c-45 -16 -90 -60 -90 -135c0 -80 50 -130 135 -135v390h125c164 0 285 -120 285 -255c0 -136 -115 -250 -275 -255v-195h-135zM445 375v-270c85 5 135 55 135 135s-50 130 -135 135z" />
    <glyph glyph-name="chi" unicode="&#x3c7;" horiz-adv-x="510" 
d="M-5 0l175 250l-165 240h155l93 -150h4l93 150h155l-165 -240l175 -250h-155l-103 160h-4l-103 -160h-155z" />
    <glyph glyph-name="psi" unicode="&#x3c8;" horiz-adv-x="765" 
d="M315 -210v195c-155 16 -255 114 -255 280v225h135v-230c0 -85 55 -140 120 -145v375h135v-375c65 5 120 60 120 145v230h135v-225c0 -166 -100 -264 -255 -280v-195h-135z" />
    <glyph glyph-name="omega" unicode="&#x3c9;" horiz-adv-x="825" 
d="M345 240v100h135v-100c0 -91 34 -125 85 -125c45 0 80 34 80 125c0 84 -35 121 -70 150l60 105c64 -35 150 -120 150 -255c0 -155 -100 -255 -215 -255c-60 0 -100 23 -124 47c-15 14 -26 30 -34 48c-9 -18 -20 -34 -34 -48c-24 -24 -63 -47 -123 -47
c-115 0 -215 100 -215 255c0 135 86 220 150 255l60 -105c-35 -29 -70 -66 -70 -150c0 -91 35 -125 80 -125c51 0 85 34 85 125z" />
    <glyph glyph-name="iotadieresis" unicode="&#x3ca;" horiz-adv-x="310" 
d="M65 155v335h135v-310c0 -40 18 -60 55 -60c13 0 23 2 32 5c5 1 9 3 13 5v-120c-7 -4 -15 -7 -24 -10c-15 -5 -36 -10 -61 -10c-91 0 -150 60 -150 165zM-50 630c0 40 35 75 75 75s75 -35 75 -75s-35 -75 -75 -75s-75 35 -75 75zM170 630c0 40 35 75 75 75s75 -35 75 -75
s-35 -75 -75 -75s-75 35 -75 75z" />
    <glyph glyph-name="upsilondieresis" unicode="&#x3cb;" horiz-adv-x="600" 
d="M65 215v275h135v-275c0 -56 40 -95 100 -95s100 39 100 95v275h135v-275c0 -130 -95 -225 -235 -225s-235 95 -235 225zM115 630c0 40 35 75 75 75s75 -35 75 -75s-35 -75 -75 -75s-75 35 -75 75zM335 630c0 40 35 75 75 75s75 -35 75 -75s-35 -75 -75 -75s-75 35 -75 75
z" />
    <glyph glyph-name="omicrontonos" unicode="&#x3cc;" horiz-adv-x="590" 
d="M295 115c70 0 125 55 125 130s-55 130 -125 130s-125 -55 -125 -130s55 -130 125 -130zM35 245c0 140 115 255 260 255s260 -115 260 -255s-115 -255 -260 -255s-260 115 -260 255zM235 555l80 150h140l-110 -150h-110z" />
    <glyph glyph-name="upsilontonos" unicode="&#x3cd;" horiz-adv-x="600" 
d="M65 215v275h135v-275c0 -56 40 -95 100 -95s100 39 100 95v275h135v-275c0 -130 -95 -225 -235 -225s-235 95 -235 225zM240 555l80 150h140l-110 -150h-110z" />
    <glyph glyph-name="omegatonos" unicode="&#x3ce;" horiz-adv-x="825" 
d="M345 240v100h135v-100c0 -91 34 -125 85 -125c45 0 80 34 80 125c0 84 -35 121 -70 150l60 105c64 -35 150 -120 150 -255c0 -155 -100 -255 -215 -255c-60 0 -100 23 -124 47c-15 14 -26 30 -34 48c-9 -18 -20 -34 -34 -48c-24 -24 -63 -47 -123 -47
c-115 0 -215 100 -215 255c0 135 86 220 150 255l60 -105c-35 -29 -70 -66 -70 -150c0 -91 35 -125 80 -125c51 0 85 34 85 125zM350 555l80 150h140l-110 -150h-110z" />
    <glyph glyph-name="uni0400" unicode="&#x400;" horiz-adv-x="665" 
d="M90 0v700h520v-140h-370v-135h290v-135h-290v-150h380v-140h-530zM305 785l-110 150h140l80 -150h-110z" />
    <glyph glyph-name="uni0401" unicode="&#x401;" horiz-adv-x="665" 
d="M90 0v700h520v-140h-370v-135h290v-135h-290v-150h380v-140h-530zM165 855c0 40 35 75 75 75s75 -35 75 -75s-35 -75 -75 -75s-75 35 -75 75zM385 855c0 40 35 75 75 75s75 -35 75 -75s-35 -75 -75 -75s-75 35 -75 75z" />
    <glyph glyph-name="uni0402" unicode="&#x402;" horiz-adv-x="740" 
d="M165 0v560h-165v140h475v-140h-160v-155c13 8 27 15 44 22c27 11 66 23 111 23c144 0 235 -91 235 -230c0 -140 -95 -235 -240 -235h-25v140c76 0 115 39 115 95s-34 90 -105 90c-40 0 -74 -13 -98 -25c-14 -7 -26 -16 -37 -25v-260h-150z" />
    <glyph glyph-name="uni0403" unicode="&#x403;" horiz-adv-x="585" 
d="M90 0v700h475v-140h-325v-560h-150zM270 785l80 150h140l-110 -150h-110z" />
    <glyph glyph-name="uni0404" unicode="&#x404;" horiz-adv-x="745" 
d="M210 420h305v-135h-305c24 -85 101 -160 215 -160c65 0 114 25 149 50c20 15 37 31 51 50l100 -100c-21 -26 -46 -49 -75 -70c-51 -35 -125 -70 -225 -70c-216 0 -380 165 -380 365s164 365 380 365c97 0 172 -35 221 -70c29 -21 53 -44 74 -70l-100 -100
c-15 19 -32 35 -51 50c-33 25 -81 50 -144 50c-114 0 -191 -75 -215 -155z" />
    <glyph glyph-name="uni0405" unicode="&#x405;" horiz-adv-x="585" 
d="M20 95l100 100c12 -14 26 -27 43 -38c28 -19 69 -37 122 -37c80 0 115 35 115 80c0 119 -350 66 -350 310c0 110 95 205 255 205c77 0 137 -24 176 -48c23 -14 42 -30 59 -47l-100 -100c-11 11 -22 21 -35 30c-23 15 -55 30 -95 30c-76 0 -105 -30 -105 -70
c0 -119 350 -66 350 -310c0 -115 -100 -215 -265 -215c-91 0 -158 27 -203 55c-27 16 -49 34 -67 55z" />
    <glyph glyph-name="uni0406" unicode="&#x406;" horiz-adv-x="330" 
d="M90 0v700h150v-700h-150z" />
    <glyph glyph-name="uni0407" unicode="&#x407;" horiz-adv-x="330" 
d="M90 0v700h150v-700h-150zM-20 855c0 40 35 75 75 75s75 -35 75 -75s-35 -75 -75 -75s-75 35 -75 75zM200 855c0 40 35 75 75 75s75 -35 75 -75s-35 -75 -75 -75s-75 35 -75 75z" />
    <glyph glyph-name="uni0408" unicode="&#x408;" horiz-adv-x="525" 
d="M-10 75l100 100c7 -9 16 -18 27 -25c17 -13 42 -25 73 -25c60 0 100 39 100 110v465h150v-465c0 -149 -100 -250 -245 -250c-73 0 -124 22 -157 45c-19 13 -35 28 -48 45z" />
    <glyph glyph-name="uni0409" unicode="&#x409;" horiz-adv-x="1090" 
d="M0 2v143c5 -2 11 -4 16 -5c10 -3 21 -5 34 -5c69 0 120 51 120 344v221h490v-230h140c149 0 250 -99 250 -235s-101 -235 -250 -235h-290v560h-190v-80c0 -395 -99 -495 -235 -495c-25 0 -46 4 -61 8zM660 140h135c60 0 100 39 100 95s-40 95 -100 95h-135v-190z" />
    <glyph glyph-name="uni040A" unicode="&#x40a;" horiz-adv-x="1100" 
d="M90 0v700h150v-230h280v230h150v-230h140c149 0 250 -99 250 -235s-101 -235 -250 -235h-290v330h-280v-330h-150zM670 140h135c60 0 100 39 100 95s-40 95 -100 95h-135v-190z" />
    <glyph glyph-name="uni040B" unicode="&#x40b;" horiz-adv-x="770" 
d="M165 0v560h-165v140h475v-140h-160v-155c13 8 27 15 44 22c27 11 66 23 111 23c140 0 235 -95 235 -250v-200h-150v200c0 71 -40 110 -105 110c-40 0 -74 -13 -98 -25c-14 -7 -26 -16 -37 -25v-260h-150z" />
    <glyph glyph-name="uni040C" unicode="&#x40c;" horiz-adv-x="700" 
d="M90 0v700h150v-300l270 300h180l-260 -290l280 -410h-175l-205 300l-90 -95v-205h-150zM310 785l80 150h140l-110 -150h-110z" />
    <glyph glyph-name="uni040D" unicode="&#x40d;" horiz-adv-x="805" 
d="M90 0v700h150v-450l340 450h135v-700h-150v450l-340 -450h-135zM350 785l-110 150h140l80 -150h-110z" />
    <glyph glyph-name="uni040E" unicode="&#x40e;" horiz-adv-x="645" 
d="M170 935h100c0 -35 25 -60 60 -60s60 25 60 60h100c0 -91 -64 -155 -160 -155s-160 64 -160 155zM75 5v135c5 -2 10 -4 17 -5c12 -3 28 -5 48 -5c56 0 90 35 110 75l10 20l-260 475h175l165 -331l140 331h175l-260 -545c-45 -95 -115 -165 -235 -165c-25 0 -46 3 -61 7
c-9 3 -17 5 -24 8z" />
    <glyph glyph-name="uni040F" unicode="&#x40f;" horiz-adv-x="780" 
d="M90 0v700h150v-560h300v560h150v-700h-225v-140h-150v140h-225z" />
    <glyph glyph-name="uni0410" unicode="&#x410;" horiz-adv-x="720" 
d="M275 295h170l-83 230h-4zM5 0l270 700h170l270 -700h-160l-60 160h-270l-60 -160h-160z" />
    <glyph glyph-name="uni0411" unicode="&#x411;" horiz-adv-x="675" 
d="M240 140h150c56 0 90 35 90 80s-34 80 -90 80h-150v-160zM90 0v700h485v-140h-335v-120h155c145 0 240 -96 240 -220s-95 -220 -240 -220h-305z" />
    <glyph glyph-name="uni0412" unicode="&#x412;" horiz-adv-x="690" 
d="M90 0v700h295c140 0 225 -85 225 -185c0 -56 -24 -91 -48 -114c-14 -13 -30 -24 -47 -31c24 -7 46 -19 65 -34c32 -27 65 -68 65 -136c0 -109 -91 -200 -240 -200h-315zM240 130h155c60 0 95 34 95 85s-35 85 -95 85h-155v-170zM240 430h135c51 0 80 30 80 70
s-29 70 -80 70h-135v-140z" />
    <glyph glyph-name="uni0413" unicode="&#x413;" horiz-adv-x="585" 
d="M90 0v700h475v-140h-325v-560h-150z" />
    <glyph glyph-name="uni0414" unicode="&#x414;" horiz-adv-x="740" 
d="M0 -140v280h40c20 21 38 48 55 80c27 56 55 140 55 261v219h485v-560h85v-280h-150v140h-420v-140h-150zM200 140h285v420h-185v-80c0 -121 -25 -204 -50 -260c-15 -32 -31 -59 -50 -80z" />
    <glyph glyph-name="uni0415" unicode="&#x415;" horiz-adv-x="665" 
d="M90 0v700h520v-140h-370v-135h290v-135h-290v-150h380v-140h-530z" />
    <glyph glyph-name="uni0416" unicode="&#x416;" horiz-adv-x="1020" 
d="M-10 0l280 410l-260 290h180l245 -275v275h150v-275l245 275h180l-260 -290l280 -410h-175l-205 300l-65 -70v-230h-150v230l-65 70l-205 -300h-175z" />
    <glyph glyph-name="uni0417" unicode="&#x417;" horiz-adv-x="615" 
d="M15 100l100 100c12 -15 26 -28 43 -40c28 -20 69 -40 122 -40c95 0 135 40 135 85s-40 85 -125 85h-95v130h85c76 0 110 35 110 80s-34 80 -110 80c-43 0 -78 -18 -102 -35c-14 -11 -27 -22 -38 -35l-100 100c17 19 38 37 63 52c43 27 103 53 187 53
c160 0 255 -95 255 -195c0 -60 -29 -97 -58 -120c-17 -13 -36 -23 -57 -30c26 -8 49 -20 70 -35c35 -27 70 -69 70 -140c0 -109 -100 -210 -280 -210c-93 0 -160 28 -207 57c-27 17 -49 37 -68 58z" />
    <glyph glyph-name="uni0418" unicode="&#x418;" horiz-adv-x="805" 
d="M90 0v700h150v-450l340 450h135v-700h-150v450l-340 -450h-135z" />
    <glyph glyph-name="uni0419" unicode="&#x419;" horiz-adv-x="805" 
d="M240 935h100c0 -35 25 -60 60 -60s60 25 60 60h100c0 -91 -64 -155 -160 -155s-160 64 -160 155zM90 0v700h150v-450l340 450h135v-700h-150v450l-340 -450h-135z" />
    <glyph glyph-name="uni041A" unicode="&#x41a;" horiz-adv-x="700" 
d="M90 0v700h150v-300l270 300h180l-260 -290l280 -410h-175l-205 300l-90 -95v-205h-150z" />
    <glyph glyph-name="uni041B" unicode="&#x41b;" horiz-adv-x="765" 
d="M0 0v145c5 -2 11 -4 16 -5c10 -3 21 -5 34 -5c69 0 120 50 120 345v220h505v-700h-150v560h-205v-80c0 -395 -99 -495 -235 -495c-25 0 -46 3 -61 7c-9 3 -17 5 -24 8z" />
    <glyph glyph-name="uni041C" unicode="&#x41c;" horiz-adv-x="930" 
d="M90 0v700h135l240 -300l240 300h135v-700h-150v460l-225 -280l-225 280v-460h-150z" />
    <glyph glyph-name="uni041D" unicode="&#x41d;" horiz-adv-x="780" 
d="M90 0v700h150v-275h300v275h150v-700h-150v285h-300v-285h-150z" />
    <glyph glyph-name="uni041E" unicode="&#x41e;" horiz-adv-x="850" 
d="M200 350c0 -125 100 -225 225 -225s225 100 225 225s-100 225 -225 225s-225 -100 -225 -225zM45 350c0 200 164 365 380 365s380 -165 380 -365s-164 -365 -380 -365s-380 165 -380 365z" />
    <glyph glyph-name="uni041F" unicode="&#x41f;" horiz-adv-x="775" 
d="M90 0v700h595v-700h-150v560h-295v-560h-150z" />
    <glyph glyph-name="uni0420" unicode="&#x420;" horiz-adv-x="680" 
d="M90 0v700h295c149 0 250 -99 250 -235s-101 -235 -250 -235h-145v-230h-150zM240 370h140c60 0 100 39 100 95s-40 95 -100 95h-140v-190z" />
    <glyph glyph-name="uni0421" unicode="&#x421;" horiz-adv-x="744" 
d="M625 225l100 -100c-21 -26 -46 -49 -75 -70c-51 -35 -125 -70 -225 -70c-216 0 -380 165 -380 365s164 365 380 365c97 0 172 -35 221 -70c29 -21 53 -44 74 -70l-100 -100c-15 19 -32 35 -51 50c-33 25 -81 50 -144 50c-125 0 -225 -100 -225 -225s100 -225 225 -225
c65 0 114 25 149 50c20 15 37 31 51 50z" />
    <glyph glyph-name="uni0422" unicode="&#x422;" horiz-adv-x="590" 
d="M220 0v560h-200v140h550v-140h-200v-560h-150z" />
    <glyph glyph-name="uni0423" unicode="&#x423;" horiz-adv-x="645" 
d="M75 5v135c5 -2 10 -4 17 -5c12 -3 28 -5 48 -5c56 0 90 35 110 75l10 20l-260 475h175l165 -331l140 331h175l-260 -545c-45 -95 -115 -165 -235 -165c-25 0 -46 3 -61 7c-9 3 -17 5 -24 8z" />
    <glyph glyph-name="uni0424" unicode="&#x424;" horiz-adv-x="880" 
d="M365 200v320c-111 -5 -175 -69 -175 -160s64 -155 175 -160zM365 -20v90c-211 11 -330 129 -330 290s119 279 330 290v75h150v-75c211 -11 330 -129 330 -290s-119 -279 -330 -290v-90h-150zM515 520v-320c111 5 175 69 175 160s-64 155 -175 160z" />
    <glyph glyph-name="uni0425" unicode="&#x425;" horiz-adv-x="680" 
d="M0 0l240 365l-220 335h175l143 -230h4l143 230h175l-220 -335l240 -365h-175l-163 260h-4l-163 -260h-175z" />
    <glyph glyph-name="uni0426" unicode="&#x426;" horiz-adv-x="780" 
d="M90 0v700h150v-560h285v560h150v-560h85v-280h-150v140h-520z" />
    <glyph glyph-name="uni0427" unicode="&#x427;" horiz-adv-x="735" 
d="M495 0v255c-13 -7 -28 -14 -45 -20c-29 -11 -69 -20 -120 -20c-149 0 -250 100 -250 275v210h150v-210c0 -90 43 -135 130 -135c40 0 74 11 98 22c14 7 26 14 37 23v300h150v-700h-150z" />
    <glyph glyph-name="uni0428" unicode="&#x428;" horiz-adv-x="1060" 
d="M90 0v700h150v-560h215v560h150v-560h215v560h150v-700h-880z" />
    <glyph glyph-name="uni0429" unicode="&#x429;" horiz-adv-x="1075" 
d="M90 0v700h150v-560h215v560h150v-560h215v560h150v-560h85v-280h-150v140h-815z" />
    <glyph glyph-name="uni042A" unicode="&#x42a;" horiz-adv-x="735" 
d="M160 0v560h-160v140h310v-230h135c149 0 250 -99 250 -235s-101 -235 -250 -235h-285zM310 140h130c60 0 100 39 100 95s-40 95 -100 95h-130v-190z" />
    <glyph glyph-name="uni042B" unicode="&#x42b;" horiz-adv-x="945" 
d="M705 0v700h150v-700h-150zM90 0v700h150v-230h135c149 0 250 -99 250 -235s-101 -235 -250 -235h-285zM240 140h130c60 0 100 39 100 95s-40 95 -100 95h-130v-190z" />
    <glyph glyph-name="uni042C" unicode="&#x42c;" horiz-adv-x="675" 
d="M90 0v700h150v-230h145c149 0 250 -99 250 -235s-101 -235 -250 -235h-295zM240 140h140c60 0 100 39 100 95s-40 95 -100 95h-140v-190z" />
    <glyph glyph-name="uni042D" unicode="&#x42d;" horiz-adv-x="745" 
d="M20 125l100 100c14 -19 31 -35 51 -50c35 -25 84 -50 149 -50c114 0 191 75 215 160h-305v135h305c-24 80 -101 155 -215 155c-64 0 -111 -25 -144 -50c-19 -15 -36 -31 -51 -50l-100 100c21 26 45 49 74 70c49 35 122 70 221 70c216 0 380 -165 380 -365
s-164 -365 -380 -365c-100 0 -174 35 -225 70c-29 21 -54 44 -75 70z" />
    <glyph glyph-name="uni042E" unicode="&#x42e;" horiz-adv-x="1090" 
d="M90 0v700h150v-275h95c29 155 165 290 355 290c200 0 360 -160 360 -365s-160 -365 -360 -365c-189 0 -331 140 -355 300h-95v-285h-150zM690 125c110 0 205 95 205 225s-95 225 -205 225s-205 -95 -205 -225s95 -225 205 -225z" />
    <glyph glyph-name="uni042F" unicode="&#x42f;" horiz-adv-x="700" 
d="M30 0l145 260c-23 10 -43 24 -60 42c-31 31 -60 83 -60 163c0 140 95 235 245 235h310v-700h-150v230h-140l-125 -230h-165zM305 370h155v190h-155c-56 0 -95 -39 -95 -95s39 -95 95 -95z" />
    <glyph glyph-name="uni0430" unicode="&#x430;" horiz-adv-x="540" 
d="M340 0v60h-5c-11 -13 -23 -25 -37 -35c-24 -19 -61 -35 -108 -35c-90 0 -150 60 -150 140s54 141 145 157l155 28c-5 35 -34 65 -85 65c-35 0 -62 -13 -81 -28c-11 -8 -21 -17 -29 -27l-80 80c14 17 31 33 51 47c35 24 84 48 149 48c125 0 210 -86 210 -195v-305h-135z
M340 210v10l-110 -20c-35 -7 -55 -25 -55 -50c0 -31 20 -50 60 -50c60 0 105 45 105 110z" />
    <glyph glyph-name="uni0431" unicode="&#x431;" horiz-adv-x="595" 
d="M465 740l70 -115c-15 -8 -33 -16 -52 -23c-33 -13 -81 -30 -138 -42c-94 -21 -136 -60 -155 -145c9 12 20 23 33 32c23 16 54 33 97 33c131 0 240 -110 240 -245s-110 -245 -250 -245c-149 0 -265 115 -265 320c0 235 110 346 245 375c43 9 86 24 119 35
c19 7 38 13 56 20zM310 115c65 0 115 49 115 120s-50 120 -115 120s-115 -49 -115 -120s50 -120 115 -120z" />
    <glyph glyph-name="uni0432" unicode="&#x432;" horiz-adv-x="535" 
d="M65 0v490h240c116 0 175 -60 175 -135c0 -39 -17 -62 -33 -78c-9 -9 -20 -17 -32 -22c16 -5 30 -13 42 -23c21 -17 43 -44 43 -87c0 -80 -65 -145 -185 -145h-250zM200 115h110c31 0 50 20 50 45s-19 45 -50 45h-110v-90zM200 305h100c25 0 40 15 40 35s-15 35 -40 35
h-100v-70z" />
    <glyph glyph-name="uni0433" unicode="&#x433;" horiz-adv-x="440" 
d="M65 0v490h360v-125h-225v-365h-135z" />
    <glyph glyph-name="uni0434" unicode="&#x434;" horiz-adv-x="570" 
d="M0 -110v235h30c15 13 28 31 40 52c20 36 40 93 40 173v140h375v-365h65v-235h-135v110h-280v-110h-135zM175 125h175v240h-105v-15c0 -80 -18 -137 -35 -173c-11 -21 -22 -39 -35 -52z" />
    <glyph glyph-name="uni0435" unicode="&#x435;" horiz-adv-x="570" 
d="M435 165l70 -95c-15 -15 -33 -28 -54 -40c-36 -20 -88 -40 -156 -40c-145 0 -260 115 -260 255s115 255 255 255c135 0 245 -110 245 -245c0 -19 -2 -32 -3 -43l-2 -17h-355c15 -45 55 -85 130 -85c43 0 74 12 97 27c13 8 24 17 33 28zM175 295h220
c-15 45 -54 85 -110 85s-95 -40 -110 -85z" />
    <glyph glyph-name="uni0436" unicode="&#x436;" horiz-adv-x="785" 
d="M-5 0l190 285l-180 205h160l160 -185v185h135v-185l160 185h160l-180 -205l190 -285h-155l-125 190l-50 -55v-135h-135v135l-50 55l-125 -190h-155z" />
    <glyph glyph-name="uni0437" unicode="&#x437;" horiz-adv-x="465" 
d="M10 80l75 80c11 -11 24 -20 37 -28c23 -15 54 -27 93 -27c51 0 70 20 70 45s-19 45 -70 45h-60v110h60c40 0 60 20 60 40s-20 40 -60 40c-33 0 -61 -9 -82 -20c-12 -6 -23 -13 -33 -20l-75 80c14 13 31 26 51 37c35 19 84 38 149 38c125 0 195 -70 195 -140
c0 -43 -24 -70 -48 -87c-14 -10 -30 -18 -47 -23c19 -5 37 -12 52 -22c27 -17 53 -46 53 -93c0 -75 -70 -145 -205 -145c-71 0 -124 22 -160 45c-21 13 -40 28 -55 45z" />
    <glyph glyph-name="uni0438" unicode="&#x438;" horiz-adv-x="595" 
d="M65 0v490h135v-280l210 280h120v-490h-135v280l-210 -280h-120z" />
    <glyph glyph-name="uni0439" unicode="&#x439;" horiz-adv-x="595" 
d="M140 705h100c0 -35 25 -60 60 -60s60 25 60 60h100c0 -85 -64 -150 -160 -150s-160 65 -160 150zM65 0v490h135v-280l210 280h120v-490h-135v280l-210 -280h-120z" />
    <glyph glyph-name="uni043A" unicode="&#x43a;" horiz-adv-x="540" 
d="M65 0v490h135v-200l175 200h160l-180 -205l190 -285h-155l-125 190l-65 -75v-115h-135z" />
    <glyph glyph-name="uni043B" unicode="&#x43b;" horiz-adv-x="580" 
d="M0 0v125l12 -3c7 -1 15 -2 23 -2c50 0 80 30 80 230v140h400v-490h-135v365h-130v-15c0 -285 -80 -365 -180 -365c-23 0 -40 3 -52 7c-7 3 -13 5 -18 8z" />
    <glyph glyph-name="uni043C" unicode="&#x43c;" horiz-adv-x="660" 
d="M65 0v490h120l145 -185l145 185h120v-490h-135v285l-130 -165l-130 165v-285h-135z" />
    <glyph glyph-name="uni043D" unicode="&#x43d;" horiz-adv-x="585" 
d="M65 0v490h135v-180h185v180h135v-490h-135v185h-185v-185h-135z" />
    <glyph glyph-name="uni043E" unicode="&#x43e;" horiz-adv-x="590" 
d="M295 115c70 0 125 55 125 130s-55 130 -125 130s-125 -55 -125 -130s55 -130 125 -130zM35 245c0 140 115 255 260 255s260 -115 260 -255s-115 -255 -260 -255s-260 115 -260 255z" />
    <glyph glyph-name="uni043F" unicode="&#x43f;" horiz-adv-x="585" 
d="M65 0v490h455v-490h-135v365h-185v-365h-135z" />
    <glyph glyph-name="uni0440" unicode="&#x440;" horiz-adv-x="615" 
d="M65 -210v700h135v-70h5c10 15 23 28 38 40c27 20 64 40 117 40c116 0 220 -106 220 -255c0 -150 -104 -255 -220 -255c-53 0 -90 20 -117 40c-15 12 -28 25 -38 40h-5v-280h-135zM320 115c70 0 125 55 125 130s-55 130 -125 130s-125 -55 -125 -130s55 -130 125 -130z
" />
    <glyph glyph-name="uni0441" unicode="&#x441;" horiz-adv-x="520" 
d="M415 175l85 -85c-13 -19 -30 -35 -50 -50c-35 -25 -84 -50 -155 -50c-145 0 -260 115 -260 255s115 255 260 255c71 0 120 -25 155 -50c20 -15 37 -31 50 -50l-85 -85c-9 11 -20 21 -32 30c-21 15 -51 30 -88 30c-70 0 -125 -55 -125 -130s55 -130 125 -130
c37 0 67 15 88 30c12 9 23 19 32 30z" />
    <glyph glyph-name="uni0442" unicode="&#x442;" horiz-adv-x="475" 
d="M170 0v365h-155v125h445v-125h-155v-365h-135z" />
    <glyph glyph-name="uni0443" unicode="&#x443;" horiz-adv-x="510" 
d="M35 -195v125c5 -2 10 -4 16 -5c11 -3 24 -5 39 -5c45 0 70 25 85 60l10 25l-190 485h145l115 -325h5l110 325h145l-200 -530c-41 -111 -99 -170 -190 -170c-25 0 -48 3 -64 7c-9 3 -18 5 -26 8z" />
    <glyph glyph-name="uni0444" unicode="&#x444;" horiz-adv-x="745" 
d="M440 375v-270c80 5 135 59 135 135s-55 130 -135 135zM305 -210v195c-165 11 -270 114 -270 255c0 140 105 244 270 255v205h135v-205c165 -11 270 -115 270 -255c0 -141 -105 -244 -270 -255v-195h-135zM305 105v270c-80 -5 -135 -59 -135 -135s55 -130 135 -135z" />
    <glyph glyph-name="uni0445" unicode="&#x445;" horiz-adv-x="510" 
d="M-5 0l175 250l-165 240h155l93 -150h4l93 150h155l-165 -240l175 -250h-155l-103 160h-4l-103 -160h-155z" />
    <glyph glyph-name="uni0446" unicode="&#x446;" horiz-adv-x="595" 
d="M65 0v490h135v-365h175v365h135v-365h65v-235h-135v110h-375z" />
    <glyph glyph-name="uni0447" unicode="&#x447;" horiz-adv-x="555" 
d="M355 0v160c-9 -6 -19 -11 -31 -15c-20 -8 -49 -15 -84 -15c-109 0 -185 75 -185 195v165h135v-155c0 -51 29 -80 80 -80c27 0 48 5 63 12c8 3 15 8 22 13v210h135v-490h-135z" />
    <glyph glyph-name="uni0448" unicode="&#x448;" horiz-adv-x="800" 
d="M65 0v490h135v-365h135v365h135v-365h135v365h135v-490h-675z" />
    <glyph glyph-name="uni0449" unicode="&#x449;" horiz-adv-x="825" 
d="M65 0v490h135v-365h135v365h135v-365h135v365h135v-365h65v-235h-135v110h-605z" />
    <glyph glyph-name="uni044A" unicode="&#x44a;" horiz-adv-x="550" 
d="M115 0v365h-115v125h250v-150h90c109 0 185 -74 185 -170s-76 -170 -185 -170h-225zM250 120h80c35 0 55 19 55 50s-20 50 -55 50h-80v-100z" />
    <glyph glyph-name="uni044B" unicode="&#x44b;" horiz-adv-x="735" 
d="M535 0v490h135v-490h-135zM200 120h80c35 0 55 19 55 50s-20 50 -55 50h-80v-100zM65 0v490h135v-150h90c109 0 185 -74 185 -170s-76 -170 -185 -170h-225z" />
    <glyph glyph-name="uni044C" unicode="&#x44c;" horiz-adv-x="510" 
d="M200 120h90c35 0 55 19 55 50s-20 50 -55 50h-90v-100zM65 0v490h135v-150h100c109 0 185 -74 185 -170s-76 -170 -185 -170h-235z" />
    <glyph glyph-name="uni044D" unicode="&#x44d;" horiz-adv-x="520" 
d="M20 90l80 80c9 -11 20 -21 32 -30c21 -15 53 -30 93 -30c45 0 72 20 91 40c10 12 18 25 24 40h-185v110h185c-6 15 -14 28 -24 40c-19 20 -46 40 -91 40c-40 0 -72 -15 -93 -30c-12 -9 -23 -19 -32 -30l-80 80c13 19 30 35 50 50c35 25 84 50 155 50
c145 0 260 -115 260 -255s-115 -255 -260 -255c-71 0 -120 25 -155 50c-20 15 -37 31 -50 50z" />
    <glyph glyph-name="uni044E" unicode="&#x44e;" horiz-adv-x="810" 
d="M65 0v490h135v-180h75c19 100 111 190 245 190c145 0 255 -110 255 -255s-110 -255 -255 -255c-134 0 -226 90 -245 195h-75v-185h-135zM520 115c71 0 120 50 120 130s-49 130 -120 130s-120 -50 -120 -130s49 -130 120 -130z" />
    <glyph glyph-name="uni044F" unicode="&#x44f;" horiz-adv-x="525" 
d="M20 0l105 175c-17 8 -31 19 -43 32c-21 23 -42 57 -42 108c0 95 80 175 195 175h225v-490h-135v145h-75l-80 -145h-150zM245 260h80v110h-80c-40 0 -65 -24 -65 -55s25 -55 65 -55z" />
    <glyph glyph-name="uni0450" unicode="&#x450;" horiz-adv-x="570" 
d="M435 165l70 -95c-15 -15 -33 -28 -54 -40c-36 -20 -88 -40 -156 -40c-145 0 -260 115 -260 255s115 255 255 255c135 0 245 -110 245 -245c0 -19 -2 -32 -3 -43l-2 -17h-355c15 -45 55 -85 130 -85c43 0 74 12 97 27c13 8 24 17 33 28zM175 295h220
c-15 45 -54 85 -110 85s-95 -40 -110 -85zM235 555l-110 150h140l80 -150h-110z" />
    <glyph glyph-name="uni0451" unicode="&#x451;" horiz-adv-x="570" 
d="M435 165l70 -95c-15 -15 -33 -28 -54 -40c-36 -20 -88 -40 -156 -40c-145 0 -260 115 -260 255s115 255 255 255c135 0 245 -110 245 -245c0 -19 -2 -32 -3 -43l-2 -17h-355c15 -45 55 -85 130 -85c43 0 74 12 97 27c13 8 24 17 33 28zM175 295h220
c-15 45 -54 85 -110 85s-95 -40 -110 -85zM100 630c0 40 35 75 75 75s75 -35 75 -75s-35 -75 -75 -75s-75 35 -75 75zM320 630c0 40 35 75 75 75s75 -35 75 -75s-35 -75 -75 -75s-75 35 -75 75z" />
    <glyph glyph-name="uni0452" unicode="&#x452;" horiz-adv-x="595" 
d="M85 0v520h-85v125h85v55h135v-55h120v-125h-120v-130h5c11 15 23 28 37 40c24 20 60 40 108 40c100 0 185 -85 185 -230c0 -171 -89 -260 -245 -260v125c65 0 110 45 110 125c0 71 -39 110 -95 110c-60 0 -105 -45 -105 -110v-230h-135z" />
    <glyph glyph-name="uni0453" unicode="&#x453;" horiz-adv-x="440" 
d="M65 0v490h360v-125h-225v-365h-135zM185 555l80 150h140l-110 -150h-110z" />
    <glyph glyph-name="uni0454" unicode="&#x454;" horiz-adv-x="520" 
d="M180 300h185v-110h-185c5 -15 13 -28 24 -40c17 -20 46 -40 91 -40c40 0 71 15 92 30c12 9 23 19 33 30l80 -80c-13 -19 -30 -35 -50 -50c-35 -25 -84 -50 -155 -50c-145 0 -260 115 -260 255s115 255 260 255c71 0 120 -25 155 -50c20 -15 37 -31 50 -50l-80 -80
c-10 11 -21 21 -33 30c-21 15 -52 30 -92 30c-45 0 -74 -20 -91 -40c-11 -12 -19 -25 -24 -40z" />
    <glyph glyph-name="uni0455" unicode="&#x455;" horiz-adv-x="455" 
d="M15 80l80 85c10 -11 22 -20 35 -28c23 -15 55 -27 95 -27c45 0 60 15 60 35c0 55 -250 45 -250 205c0 80 70 150 195 150c63 0 110 -19 142 -38c19 -11 35 -24 48 -37l-80 -85c-8 7 -18 14 -29 20c-19 11 -46 20 -81 20s-50 -15 -50 -30c0 -55 250 -45 250 -205
c0 -84 -70 -155 -205 -155c-68 0 -120 22 -156 45c-21 13 -39 28 -54 45z" />
    <glyph glyph-name="uni0456" unicode="&#x456;" horiz-adv-x="265" 
d="M65 0v490h135v-490h-135zM55 630c0 40 35 75 78 75s77 -35 77 -75s-35 -75 -78 -75s-77 35 -77 75z" />
    <glyph glyph-name="uni0457" unicode="&#x457;" horiz-adv-x="275" 
d="M-45 630c0 40 35 75 75 75s75 -35 75 -75s-35 -75 -75 -75s-75 35 -75 75zM175 630c0 40 35 75 75 75s75 -35 75 -75s-35 -75 -75 -75s-75 35 -75 75zM70 0v490h135v-490h-135z" />
    <glyph glyph-name="uni0458" unicode="&#x458;" horiz-adv-x="265" 
d="M-55 -195v125c5 -2 10 -4 16 -5c11 -3 24 -5 39 -5c40 0 65 25 65 70v500h135v-520c0 -116 -65 -180 -165 -180c-25 0 -48 3 -64 7c-9 3 -18 5 -26 8zM55 630c0 40 35 75 78 75s77 -35 77 -75s-35 -75 -78 -75s-77 35 -77 75z" />
    <glyph glyph-name="uni0459" unicode="&#x459;" horiz-adv-x="805" 
d="M0 0v125l12 -3c7 -1 15 -2 23 -2c50 0 80 30 80 230v140h385v-150h95c109 0 185 -74 185 -170s-76 -170 -185 -170h-230v365h-115v-15c0 -285 -80 -365 -180 -365c-23 0 -40 3 -52 7c-7 3 -13 5 -18 8zM500 120h85c35 0 55 19 55 50s-20 50 -55 50h-85v-100z" />
    <glyph glyph-name="uni045A" unicode="&#x45a;" horiz-adv-x="815" 
d="M65 0v490h135v-160h175v160h135v-160h100c104 0 180 -74 180 -165s-76 -165 -180 -165h-235v205h-175v-205h-135zM510 120h90c31 0 50 20 50 45s-19 45 -50 45h-90v-90z" />
    <glyph glyph-name="uni045B" unicode="&#x45b;" horiz-adv-x="615" 
d="M85 0v520h-85v125h85v55h135v-55h120v-125h-120v-130h5c11 15 23 28 37 40c24 20 60 40 108 40c100 0 180 -80 180 -205v-265h-135v245c0 60 -34 95 -90 95c-60 0 -105 -45 -105 -110v-230h-135z" />
    <glyph glyph-name="uni045C" unicode="&#x45c;" horiz-adv-x="540" 
d="M65 0v490h135v-200l175 200h160l-180 -205l190 -285h-155l-125 190l-65 -75v-115h-135zM230 555l80 150h140l-110 -150h-110z" />
    <glyph glyph-name="uni045D" unicode="&#x45d;" horiz-adv-x="595" 
d="M65 0v490h135v-280l210 280h120v-490h-135v280l-210 -280h-120zM250 555l-110 150h140l80 -150h-110z" />
    <glyph glyph-name="uni045E" unicode="&#x45e;" horiz-adv-x="510" 
d="M35 -195v125c5 -2 10 -4 16 -5c11 -3 24 -5 39 -5c45 0 70 25 85 60l10 25l-190 485h145l115 -325h5l110 325h145l-200 -530c-41 -111 -99 -170 -190 -170c-25 0 -48 3 -64 7c-9 3 -18 5 -26 8zM95 705h100c0 -35 25 -60 60 -60s60 25 60 60h100
c0 -85 -64 -150 -160 -150s-160 65 -160 150z" />
    <glyph glyph-name="uni045F" unicode="&#x45f;" horiz-adv-x="585" 
d="M65 0v490h135v-365h185v365h135v-490h-160v-110h-135v110h-160z" />
    <glyph glyph-name="uni0462" unicode="&#x462;" horiz-adv-x="720" 
d="M135 0v530h-135v120h135v50h150v-50h190v-120h-190v-60h145c149 0 250 -99 250 -235s-101 -235 -250 -235h-295zM285 140h140c60 0 100 39 100 95s-40 95 -100 95h-140v-190z" />
    <glyph glyph-name="uni0463" unicode="&#x463;" horiz-adv-x="560" 
d="M110 0v395h-110v110h110v195h135v-195h145v-110h-145v-55h100c109 0 185 -74 185 -170s-76 -170 -185 -170h-235zM245 120h90c35 0 55 19 55 50s-20 50 -55 50h-90v-100z" />
    <glyph glyph-name="uni046A" unicode="&#x46a;" horiz-adv-x="860" 
d="M50 0v107c0 172 90 263 215 298l-200 195v100h730v-100l-200 -195c125 -35 215 -126 215 -298v-107h-150v107c0 119 -55 173 -155 178v-285h-150v285c-100 -5 -155 -59 -155 -178v-107h-150zM430 430l150 150h-300z" />
    <glyph glyph-name="uni046B" unicode="&#x46b;" horiz-adv-x="685" 
d="M25 0v20c0 140 76 216 180 245l-145 140v85h565v-85l-145 -140c104 -29 180 -105 180 -245v-20h-135v20c0 91 -50 140 -115 145v-165h-135v165c-65 -5 -115 -54 -115 -145v-20h-135zM343 285l92 95h-185z" />
    <glyph glyph-name="uni0472" unicode="&#x472;" horiz-adv-x="850" 
d="M210 280c29 -91 115 -155 215 -155c108 0 196 74 220 175c-8 -6 -18 -11 -29 -15c-19 -8 -49 -15 -86 -15c-75 0 -145 40 -210 40c-39 0 -64 -8 -83 -15c-11 -5 -20 -10 -27 -15zM45 350c0 200 164 365 380 365s380 -165 380 -365s-164 -365 -380 -365s-380 165 -380 365
zM640 420c-29 91 -115 155 -215 155c-109 0 -196 -75 -220 -175c8 5 18 10 29 15c19 7 47 15 86 15c74 0 146 -40 210 -40c37 0 64 7 83 15c11 4 20 9 27 15z" />
    <glyph glyph-name="uni0473" unicode="&#x473;" horiz-adv-x="590" 
d="M410 200l-21 -8c-12 -4 -28 -7 -44 -7c-40 0 -60 20 -100 20c-15 0 -30 -4 -41 -8l-19 -7c5 -14 12 -27 21 -38c16 -19 44 -37 89 -37c47 0 76 21 93 42c10 12 17 26 22 43zM35 245c0 140 115 255 260 255s260 -115 260 -255s-115 -255 -260 -255s-260 115 -260 255z
M180 290c6 2 13 4 20 7c12 4 29 8 45 8c40 0 60 -20 100 -20c15 0 28 2 41 7l19 8c-5 13 -12 26 -21 37c-16 19 -44 38 -89 38c-48 0 -76 -22 -93 -43c-10 -12 -17 -26 -22 -42z" />
    <glyph glyph-name="uni0474" unicode="&#x474;" horiz-adv-x="725" 
d="M275 0l-260 700h160l183 -515h4l118 360c39 120 90 170 190 170c25 0 48 -5 64 -10c9 -3 18 -6 26 -10l-35 -139l-10 4c-7 3 -14 5 -25 5c-35 0 -55 -20 -70 -60l-175 -505h-170z" />
    <glyph glyph-name="uni0475" unicode="&#x475;" horiz-adv-x="540" 
d="M180 0l-185 490h145l113 -330h4l63 200c28 91 75 140 160 140c27 0 48 -5 63 -10c8 -3 15 -6 22 -10l-35 -115c-3 1 -5 3 -8 5c-5 3 -11 5 -22 5c-25 0 -36 -10 -45 -35l-125 -340h-150z" />
    <glyph glyph-name="uni048A" unicode="&#x48a;" horiz-adv-x="810" 
d="M90 0v700h150v-450l340 450h135v-560h105v-20l-105 -260h-110l40 140h-80v450l-340 -450h-135zM240 940h100c0 -35 25 -60 60 -60s60 25 60 60h100c0 -91 -64 -155 -160 -155s-160 64 -160 155z" />
    <glyph glyph-name="uni048B" unicode="&#x48b;" horiz-adv-x="600" 
d="M65 0v490h135v-280l210 280h120v-360h80v-20l-90 -220h-100l30 110h-55v280l-210 -280h-120zM145 708h100c0 -35 25 -60 60 -60s60 25 60 60h100c0 -85 -64 -150 -160 -150s-160 65 -160 150z" />
    <glyph glyph-name="uni048C" unicode="&#x48c;" horiz-adv-x="720" 
d="M135 0v530h-135v120h135v50h150v-50h190v-120h-190v-60h145c149 0 250 -99 250 -235s-101 -235 -250 -235h-295zM285 140h140c60 0 100 39 100 95s-40 95 -100 95h-140v-190z" />
    <glyph glyph-name="uni048D" unicode="&#x48d;" horiz-adv-x="560" 
d="M110 0v395h-110v110h110v195h135v-195h145v-110h-145v-55h100c109 0 185 -74 185 -170s-76 -170 -185 -170h-235zM245 120h90c35 0 55 19 55 50s-20 50 -55 50h-90v-100z" />
    <glyph glyph-name="uni048E" unicode="&#x48e;" horiz-adv-x="680" 
d="M90 0v700h295c149 0 250 -99 250 -235c0 -60 -20 -104 -40 -135c-12 -17 -25 -32 -40 -45l50 -75l-100 -70l-65 95l-16 -3c-11 -1 -24 -2 -39 -2h-145v-230h-150zM240 370h106l-26 40l100 70l45 -65l7 14c4 9 8 21 8 36c0 56 -40 95 -100 95h-140v-190z" />
    <glyph glyph-name="uni048F" unicode="&#x48f;" horiz-adv-x="615" 
d="M65 -210v700h135v-70h5c10 15 23 28 38 40c27 20 64 40 117 40c116 0 220 -106 220 -255c0 -64 -19 -110 -38 -142c-11 -19 -24 -35 -37 -48l55 -80l-85 -55l-55 80c-4 -2 -9 -4 -15 -5c-11 -3 -26 -5 -45 -5c-53 0 -90 20 -117 40c-15 12 -28 25 -38 40h-5v-280h-135z
M340 115l-45 65l85 55l40 -60c5 5 9 11 12 18c7 12 13 29 13 52c0 75 -55 130 -125 130s-125 -55 -125 -130s55 -130 125 -130h20z" />
    <glyph glyph-name="uni0490" unicode="&#x490;" horiz-adv-x="585" 
d="M90 0v700h325v130h150v-270h-325v-560h-150z" />
    <glyph glyph-name="uni0491" unicode="&#x491;" horiz-adv-x="440" 
d="M65 0v490h225v100h135v-225h-225v-365h-135z" />
    <glyph glyph-name="uni0492" unicode="&#x492;" horiz-adv-x="600" 
d="M105 0v270h-95v140h95v290h475v-140h-325v-150h180v-140h-180v-270h-150z" />
    <glyph glyph-name="uni0493" unicode="&#x493;" horiz-adv-x="455" 
d="M80 0v165h-70v115h70v210h360v-125h-225v-85h125v-115h-125v-165h-135z" />
    <glyph glyph-name="uni0494" unicode="&#x494;" horiz-adv-x="675" 
d="M90 0v700h475v-140h-325v-195c11 7 24 14 39 20c25 11 61 20 106 20c155 0 260 -104 260 -275c0 -180 -110 -290 -295 -290v145c85 0 140 54 140 145c0 80 -55 135 -125 135c-40 0 -72 -12 -93 -23c-12 -7 -23 -14 -32 -22v-220h-150z" />
    <glyph glyph-name="uni0495" unicode="&#x495;" horiz-adv-x="535" 
d="M265 -220v130c65 0 110 44 110 120c0 65 -39 105 -95 105c-25 0 -44 -8 -59 -15c-8 -5 -15 -10 -21 -15v-105h-135v490h360v-125h-225v-125c9 5 19 9 30 12c19 7 44 13 75 13c120 0 210 -91 210 -235c0 -161 -89 -250 -250 -250z" />
    <glyph glyph-name="uni0496" unicode="&#x496;" horiz-adv-x="1035" 
d="M-10 0l280 410l-260 290h180l245 -275v275h150v-275l245 275h180l-260 -290l185 -270h110v-280h-150v140h-40l-205 300l-65 -70v-230h-150v230l-65 70l-205 -300h-175z" />
    <glyph glyph-name="uni0497" unicode="&#x497;" horiz-adv-x="800" 
d="M-5 0l190 285l-180 205h160l160 -185v185h135v-185l160 185h160l-180 -205l105 -160h100v-235h-135v110h-35l-125 190l-50 -55v-135h-135v135l-50 55l-125 -190h-155z" />
    <glyph glyph-name="uni0498" unicode="&#x498;" horiz-adv-x="615" 
d="M215 -140v130c-68 12 -118 40 -151 64c-19 14 -36 29 -49 46l100 100c12 -15 26 -28 43 -40c28 -20 69 -40 122 -40c95 0 135 40 135 85s-40 85 -125 85h-95v130h85c76 0 110 35 110 80s-34 80 -110 80c-43 0 -78 -18 -102 -35c-14 -11 -27 -22 -38 -35l-100 100
c17 19 38 37 63 52c43 27 103 53 187 53c160 0 255 -95 255 -195c0 -60 -29 -97 -58 -120c-17 -13 -36 -23 -57 -30c26 -8 49 -20 70 -35c35 -27 70 -69 70 -140c0 -99 -85 -186 -205 -205v-130h-150z" />
    <glyph glyph-name="uni0499" unicode="&#x499;" horiz-adv-x="465" 
d="M160 -110v105c-48 11 -84 31 -111 50c-15 11 -28 23 -39 35l75 80c11 -11 24 -20 37 -28c23 -15 54 -27 93 -27c51 0 70 20 70 45s-19 45 -70 45h-60v110h60c40 0 60 20 60 40s-20 40 -60 40c-33 0 -61 -9 -82 -20c-12 -6 -23 -13 -33 -20l-75 80c14 13 31 26 51 37
c35 19 84 38 149 38c125 0 195 -70 195 -140c0 -43 -24 -70 -48 -87c-14 -10 -30 -18 -47 -23c19 -5 37 -12 52 -22c27 -17 53 -46 53 -93c0 -71 -50 -120 -135 -140v-105h-135z" />
    <glyph glyph-name="uni049A" unicode="&#x49a;" horiz-adv-x="710" 
d="M90 0v700h150v-300l270 300h180l-260 -290l185 -270h105v-280h-150v140h-35l-205 300l-90 -95v-205h-150z" />
    <glyph glyph-name="uni049B" unicode="&#x49b;" horiz-adv-x="550" 
d="M65 0v490h135v-200l175 200h160l-180 -205l105 -160h95v-235h-135v110h-30l-125 190l-65 -75v-115h-135z" />
    <glyph glyph-name="uni049C" unicode="&#x49c;" horiz-adv-x="725" 
d="M90 0v700h150v-275h30v115h110v-115h5l175 275h165l-215 -340l235 -360h-165l-190 290h-10v-120h-110v120h-30v-290h-150z" />
    <glyph glyph-name="uni049D" unicode="&#x49d;" horiz-adv-x="585" 
d="M65 0v490h135v-185h25v95h90v-95h5l110 185h150l-149 -245l164 -245h-150l-120 185h-10v-95h-90v95h-25v-185h-135z" />
    <glyph glyph-name="uni049E" unicode="&#x49e;" horiz-adv-x="720" 
d="M110 0v550h-110v100h110v50h150v-50h105v-100h-105v-150l270 300h180l-260 -290l280 -410h-175l-205 300l-90 -95v-205h-150z" />
    <glyph glyph-name="uni049F" unicode="&#x49f;" horiz-adv-x="560" 
d="M85 0v520h-85v120h85v60h135v-60h115v-120h-115v-230l175 200h160l-180 -205l190 -285h-155l-125 190l-65 -75v-115h-135z" />
    <glyph glyph-name="uni04A0" unicode="&#x4a0;" horiz-adv-x="775" 
d="M165 0v560h-165v140h315v-300l270 300h180l-260 -290l280 -410h-175l-205 300l-90 -95v-205h-150z" />
    <glyph glyph-name="uni04A1" unicode="&#x4a1;" horiz-adv-x="575" 
d="M100 0v360h-100v130h235v-200l175 200h160l-180 -205l190 -285h-155l-125 190l-65 -75v-115h-135z" />
    <glyph glyph-name="uni04A2" unicode="&#x4a2;" horiz-adv-x="785" 
d="M90 0v700h150v-275h300v275h150v-560h85v-280h-150v140h-85v285h-300v-285h-150z" />
    <glyph glyph-name="uni04A3" unicode="&#x4a3;" horiz-adv-x="595" 
d="M65 0v490h135v-180h185v180h135v-365h65v-235h-135v110h-65v185h-185v-185h-135z" />
    <glyph glyph-name="uni04A4" unicode="&#x4a4;" horiz-adv-x="985" 
d="M90 0v700h150v-275h280v275h445v-140h-295v-560h-150v285h-280v-285h-150z" />
    <glyph glyph-name="uni04A5" unicode="&#x4a5;" horiz-adv-x="740" 
d="M65 0v490h135v-180h175v180h350v-125h-215v-365h-135v185h-175v-185h-135z" />
    <glyph glyph-name="uni04A6" unicode="&#x4a6;" horiz-adv-x="1110" 
d="M90 0v700h585v-335c11 7 24 14 39 20c25 11 61 20 106 20c155 0 260 -104 260 -275c0 -180 -110 -290 -295 -290v145c85 0 140 54 140 145c0 80 -55 135 -125 135c-40 0 -72 -12 -93 -23c-12 -7 -23 -14 -32 -22v-220h-150v560h-285v-560h-150z" />
    <glyph glyph-name="uni04A7" unicode="&#x4a7;" horiz-adv-x="855" 
d="M65 0v490h455v-250c9 5 19 9 30 12c19 7 44 13 75 13c120 0 210 -91 210 -235c0 -161 -89 -250 -250 -250v130c65 0 110 44 110 120c0 65 -39 105 -95 105c-25 0 -44 -8 -59 -15c-8 -5 -15 -10 -21 -15v-105h-135v365h-185v-365h-135z" />
    <glyph glyph-name="uni04A8" unicode="&#x4a8;" horiz-adv-x="910" 
d="M430 110l5 5c-21 19 -39 41 -55 67c-28 44 -55 110 -55 198c0 180 105 285 255 285c140 0 255 -105 255 -285c0 -88 -29 -154 -58 -198c-17 -26 -36 -48 -57 -67l5 -5c35 3 67 16 91 29c14 7 27 16 39 26l75 -115c-14 -13 -31 -24 -50 -33c-33 -16 -83 -32 -150 -32
c-51 0 -88 8 -113 17c-15 5 -27 11 -37 18c-14 -7 -30 -13 -47 -18c-29 -9 -71 -17 -118 -17c-211 0 -365 155 -365 370c0 205 140 344 320 360v-125c-85 -11 -170 -95 -170 -235s106 -234 230 -245zM580 155c19 12 37 28 52 49c27 35 53 91 53 176c0 100 -49 150 -105 150
s-105 -50 -105 -150c0 -85 25 -141 52 -176c15 -21 33 -37 53 -49z" />
    <glyph glyph-name="uni04A9" unicode="&#x4a9;" horiz-adv-x="710" 
d="M300 90l5 5c-11 11 -20 24 -28 41c-15 27 -27 68 -27 124c0 120 80 200 190 200s190 -80 190 -200c0 -56 -13 -97 -28 -124c-8 -17 -17 -30 -27 -41l5 -5c32 5 57 18 74 29c10 7 19 14 26 21l70 -85c-11 -13 -25 -25 -42 -35c-28 -19 -71 -35 -128 -35
c-45 0 -80 7 -104 15c-14 4 -26 9 -36 15c-11 -6 -22 -11 -35 -15c-23 -8 -55 -15 -95 -15c-160 0 -275 116 -275 265c0 132 105 234 225 247v-107c-40 -11 -90 -60 -90 -140c0 -91 54 -145 130 -160zM440 130c10 10 19 22 27 35c15 23 28 55 28 95c0 51 -24 75 -55 75
s-55 -24 -55 -75c0 -40 12 -72 27 -95c8 -13 17 -25 28 -35z" />
    <glyph glyph-name="uni04AA" unicode="&#x4aa;" horiz-adv-x="745" 
d="M335 -140v135c-170 40 -290 186 -290 355c0 200 164 365 380 365c97 0 172 -35 221 -70c29 -21 53 -44 74 -70l-100 -100c-15 19 -32 35 -51 50c-33 25 -81 50 -144 50c-125 0 -225 -100 -225 -225s100 -225 225 -225c65 0 114 25 149 50c20 15 37 31 51 50l100 -100
c-17 -21 -37 -40 -60 -58c-40 -31 -100 -65 -180 -77v-130h-150z" />
    <glyph glyph-name="uni04AB" unicode="&#x4ab;" horiz-adv-x="520" 
d="M220 -110v110c-95 24 -185 116 -185 245c0 140 115 255 260 255c71 0 120 -25 155 -50c20 -15 37 -31 50 -50l-85 -85c-9 11 -20 21 -32 30c-21 15 -51 30 -88 30c-70 0 -125 -55 -125 -130s55 -130 125 -130c37 0 67 15 88 30c12 9 23 19 32 30l85 -85
c-11 -15 -23 -28 -37 -40c-24 -21 -61 -44 -108 -55v-105h-135z" />
    <glyph glyph-name="uni04AC" unicode="&#x4ac;" horiz-adv-x="590" 
d="M305 -140v140h-85v560h-200v140h550v-140h-200v-420h85v-280h-150z" />
    <glyph glyph-name="uni04AD" unicode="&#x4ad;" horiz-adv-x="475" 
d="M235 -110v110h-65v365h-155v125h445v-125h-155v-240h65v-235h-135z" />
    <glyph glyph-name="uni04AE" unicode="&#x4ae;" horiz-adv-x="670" 
d="M260 0v250l-265 450h175l163 -300h4l163 300h175l-265 -450v-250h-150z" />
    <glyph glyph-name="uni04AF" unicode="&#x4af;" horiz-adv-x="515" 
d="M190 -210v200l-195 500h145l115 -330h5l115 330h145l-195 -500v-200h-135z" />
    <glyph glyph-name="uni04B0" unicode="&#x4b0;" horiz-adv-x="670" 
d="M260 0v160h-155v120h140l-250 420h175l163 -300h4l163 300h175l-250 -420h140v-120h-155v-160h-150z" />
    <glyph glyph-name="uni04B1" unicode="&#x4b1;" horiz-adv-x="515" 
d="M80 -110v110h105l-190 490h145l115 -330h5l115 330h145l-190 -490h105v-110h-110v-100h-135v100h-110z" />
    <glyph glyph-name="uni04B2" unicode="&#x4b2;" horiz-adv-x="680" 
d="M0 0l240 365l-220 335h175l143 -230h4l143 230h175l-220 -335l145 -225h105v-280h-150v140h-35l-163 260h-4l-163 -260h-175z" />
    <glyph glyph-name="uni04B3" unicode="&#x4b3;" horiz-adv-x="520" 
d="M-5 0l175 250l-165 240h155l93 -150h4l93 150h155l-165 -240l90 -125h95v-235h-135v110h-30l-103 160h-4l-103 -160h-155z" />
    <glyph glyph-name="uni04B4" unicode="&#x4b4;" horiz-adv-x="910" 
d="M220 0v560h-200v140h520v-140h-170v-420h285v560h150v-560h85v-280h-150v140h-520z" />
    <glyph glyph-name="uni04B5" unicode="&#x4b5;" horiz-adv-x="710" 
d="M170 0v365h-155v125h395v-125h-105v-240h185v365h135v-365h65v-235h-135v110h-385z" />
    <glyph glyph-name="uni04B6" unicode="&#x4b6;" horiz-adv-x="740" 
d="M580 -140v140h-85v255c-13 -7 -28 -14 -45 -20c-29 -11 -69 -20 -120 -20c-149 0 -250 100 -250 275v210h150v-210c0 -90 43 -135 130 -135c40 0 74 11 98 22c14 7 26 14 37 23v300h150v-560h85v-280h-150z" />
    <glyph glyph-name="uni04B7" unicode="&#x4b7;" horiz-adv-x="575" 
d="M420 -110v110h-65v160c-9 -6 -19 -11 -31 -15c-20 -8 -49 -15 -84 -15c-109 0 -185 75 -185 195v165h135v-155c0 -51 29 -80 80 -80c27 0 48 5 63 12c8 3 15 8 22 13v210h135v-365h65v-235h-135z" />
    <glyph glyph-name="uni04B8" unicode="&#x4b8;" horiz-adv-x="735" 
d="M300 110v106c0 -1 -220 8 -220 274v210h150v-210c0 -53 16 -83 35 -102c10 -11 22 -18 35 -23v115h120v-115c23 5 41 13 54 21c7 4 14 9 21 14v300h150v-700h-150v255c-7 -4 -14 -8 -21 -11c-13 -7 -31 -15 -54 -20v-114h-120z" />
    <glyph glyph-name="uni04B9" unicode="&#x4b9;" horiz-adv-x="555" 
d="M230 60v70c-105 5 -175 74 -175 195v165h135v-155c0 -31 9 -49 20 -60c6 -7 13 -12 20 -15v70h90v-70c11 3 18 8 25 12l10 8v210h135v-490h-135v160l-10 -6c-7 -3 -14 -6 -25 -9v-85h-90z" />
    <glyph glyph-name="uni04BA" unicode="&#x4ba;" horiz-adv-x="725" 
d="M90 0v700h150v-255c13 7 28 14 45 20c29 11 69 20 120 20c149 0 250 -100 250 -275v-210h-150v210c0 90 -43 135 -130 135c-41 0 -74 -12 -98 -23c-14 -7 -26 -14 -37 -22v-300h-150z" />
    <glyph glyph-name="uni04BB" unicode="&#x4bb;" horiz-adv-x="600" 
d="M70 0v700h135v-280h5c11 15 23 28 37 40c24 20 60 40 108 40c100 0 180 -80 180 -205v-295h-135v275c0 60 -34 95 -90 95c-60 0 -105 -45 -105 -110v-260h-135z" />
    <glyph glyph-name="uni04BC" unicode="&#x4bc;" horiz-adv-x="925" 
d="M180 300h-10c-115 0 -180 65 -180 150c0 19 2 34 5 45c1 6 3 11 5 15h115l-3 -13c-1 -8 -2 -16 -2 -27c0 -31 20 -50 60 -50h10c29 175 175 295 350 295c200 0 355 -155 355 -365c0 -15 -1 -30 -2 -41c-1 -7 -1 -13 -1 -19h-547c19 -91 96 -165 205 -165
c63 0 111 20 144 40c19 12 36 25 51 40l90 -105c-21 -21 -46 -41 -75 -58c-49 -29 -119 -57 -210 -57c-196 0 -344 135 -360 315zM340 420h380c-16 80 -89 155 -190 155s-174 -75 -190 -155z" />
    <glyph glyph-name="uni04BD" unicode="&#x4bd;" horiz-adv-x="665" 
d="M5 350h85v-20c0 -25 10 -35 45 -35c24 115 125 205 250 205c135 0 245 -110 245 -245c0 -19 -2 -32 -3 -43l-2 -17h-355c15 -45 55 -85 130 -85c43 0 74 12 97 27c13 8 24 17 33 28l70 -95c-15 -15 -33 -28 -54 -40c-36 -20 -88 -40 -156 -40c-130 0 -236 90 -255 210
c-91 0 -135 44 -135 115c0 11 1 19 2 26zM270 295h220c-15 45 -54 85 -110 85s-95 -40 -110 -85z" />
    <glyph glyph-name="uni04BE" unicode="&#x4be;" horiz-adv-x="925" 
d="M455 -140v135c-161 35 -259 155 -275 305h-10c-115 0 -180 65 -180 150c0 19 2 34 5 45c1 6 3 11 5 15h115l-3 -13c-1 -8 -2 -16 -2 -27c0 -31 20 -50 60 -50h10c29 175 175 295 350 295c200 0 355 -155 355 -365c0 -15 -1 -30 -2 -41c-1 -7 -1 -13 -1 -19h-547
c19 -91 96 -165 205 -165c63 0 111 20 144 40c19 12 36 25 51 40l90 -105c-17 -17 -37 -33 -59 -48c-39 -25 -93 -51 -161 -62v-130h-150zM340 420h380c-16 80 -89 155 -190 155s-174 -75 -190 -155z" />
    <glyph glyph-name="uni04BF" unicode="&#x4bf;" horiz-adv-x="665" 
d="M315 -110v110c-96 24 -164 105 -180 200c-91 0 -135 44 -135 115c0 11 1 19 2 26l3 9h85v-20c0 -25 10 -35 45 -35c24 115 125 205 250 205c135 0 245 -110 245 -245c0 -19 -2 -32 -3 -43l-2 -17h-355c15 -45 55 -85 130 -85c43 0 74 12 97 27c13 8 24 17 33 28l70 -95
c-11 -11 -24 -21 -39 -30c-27 -16 -64 -34 -111 -45v-105h-135zM270 295h220c-15 45 -54 85 -110 85s-95 -40 -110 -85z" />
    <glyph glyph-name="uni04C0" unicode="&#x4c0;" horiz-adv-x="330" 
d="M90 0v700h150v-700h-150z" />
    <glyph glyph-name="uni04C1" unicode="&#x4c1;" horiz-adv-x="1020" 
d="M-10 0l280 410l-260 290h180l245 -275v275h150v-275l245 275h180l-260 -290l280 -410h-175l-205 300l-65 -70v-230h-150v230l-65 70l-205 -300h-175zM350 940h100c0 -35 25 -60 60 -60s60 25 60 60h100c0 -91 -64 -155 -160 -155s-160 64 -160 155z" />
    <glyph glyph-name="uni04C2" unicode="&#x4c2;" horiz-adv-x="785" 
d="M-5 0l190 285l-180 205h160l160 -185v185h135v-185l160 185h160l-180 -205l190 -285h-155l-125 190l-50 -55v-135h-135v135l-50 55l-125 -190h-155zM235 705h100c0 -35 25 -60 60 -60s60 25 60 60h100c0 -85 -64 -150 -160 -150s-160 65 -160 150z" />
    <glyph glyph-name="uni04C3" unicode="&#x4c3;" horiz-adv-x="730" 
d="M90 0v700h150v-300l270 300h180l-265 -295c160 0 275 -116 275 -305s-130 -320 -315 -320v145c91 0 155 64 155 175s-60 170 -140 170c-56 0 -94 -20 -121 -40c-15 -12 -28 -25 -39 -40v-190h-150z" />
    <glyph glyph-name="uni04C4" unicode="&#x4c4;" horiz-adv-x="570" 
d="M65 0v490h135v-200l175 200h160l-190 -215c120 -15 200 -95 200 -240c0 -161 -94 -255 -250 -255v130c65 0 110 45 110 125s-45 125 -110 125c-31 0 -54 -9 -70 -20c-9 -6 -18 -13 -25 -20v-120h-135z" />
    <glyph glyph-name="uni04C5" unicode="&#x4c5;" horiz-adv-x="770" 
d="M0 0v145c5 -2 11 -4 16 -5c10 -3 21 -5 34 -5c69 0 120 50 120 345v220h505v-560h105v-20l-105 -260h-110l40 140h-80v560h-205v-80c0 -395 -99 -495 -235 -495c-25 0 -46 3 -61 7c-9 3 -17 5 -24 8z" />
    <glyph glyph-name="uni04C6" unicode="&#x4c6;" horiz-adv-x="585" 
d="M0 0v125l12 -3c7 -1 15 -2 23 -2c50 0 80 30 80 230v140h400v-360h80v-20l-90 -220h-100l30 110h-55v365h-130v-15c0 -285 -80 -365 -180 -365c-23 0 -40 3 -52 7c-7 3 -13 5 -18 8z" />
    <glyph glyph-name="uni04C7" unicode="&#x4c7;" horiz-adv-x="780" 
d="M90 0v700h150v-275h300v275h150v-740c0 -116 -64 -180 -165 -180c-31 0 -56 3 -73 7c-11 3 -20 5 -27 8v135c5 -2 11 -4 16 -5c10 -3 21 -5 34 -5c40 0 65 25 65 70v295h-300v-285h-150z" />
    <glyph glyph-name="uni04C8" unicode="&#x4c8;" horiz-adv-x="585" 
d="M65 0v490h135v-180h185v180h135v-540c0 -111 -59 -170 -155 -170c-23 0 -42 3 -57 7c-8 3 -16 5 -23 8v125c4 -2 8 -4 13 -5c9 -3 19 -5 32 -5c37 0 55 20 55 60v215h-185v-185h-135z" />
    <glyph glyph-name="uni04C9" unicode="&#x4c9;" horiz-adv-x="785" 
d="M90 0v700h150v-275h300v275h150v-560h105v-20l-105 -260h-110l40 140h-80v285h-300v-285h-150z" />
    <glyph glyph-name="uni04CA" unicode="&#x4ca;" horiz-adv-x="590" 
d="M65 0v490h135v-180h185v180h135v-360h80v-20l-90 -220h-100l30 110h-55v185h-185v-185h-135z" />
    <glyph glyph-name="uni04CB" unicode="&#x4cb;" horiz-adv-x="735" 
d="M410 -140v280h85v115c-13 -7 -28 -14 -45 -20c-29 -11 -69 -20 -120 -20c-149 0 -250 100 -250 275v210h150v-210c0 -90 43 -135 130 -135c40 0 74 11 98 22c14 7 26 14 37 23v300h150v-700h-85v-140h-150z" />
    <glyph glyph-name="uni04CC" unicode="&#x4cc;" horiz-adv-x="555" 
d="M290 -110v190h65v80c-9 -6 -19 -11 -31 -15c-20 -8 -49 -15 -84 -15c-109 0 -185 75 -185 195v165h135v-155c0 -51 29 -80 80 -80c27 0 48 5 63 12c8 3 15 8 22 13v210h135v-490h-65v-110h-135z" />
    <glyph glyph-name="uni04CD" unicode="&#x4cd;" horiz-adv-x="935" 
d="M90 0v700h135l240 -300l240 300h135v-560h105v-20l-105 -260h-110l40 140h-80v460l-225 -280l-225 280v-460h-150z" />
    <glyph glyph-name="uni04CE" unicode="&#x4ce;" horiz-adv-x="665" 
d="M65 0v490h120l145 -185l145 185h120v-360h80v-20l-90 -220h-100l30 110h-55v285l-130 -165l-130 165v-285h-135z" />
    <glyph glyph-name="uni04CF" unicode="&#x4cf;" horiz-adv-x="275" 
d="M70 0v700h135v-700h-135z" />
    <glyph glyph-name="uni04D0" unicode="&#x4d0;" horiz-adv-x="720" 
d="M275 295h170l-83 230h-4zM5 0l270 700h170l270 -700h-160l-60 160h-270l-60 -160h-160zM200 940h100c0 -35 25 -60 60 -60s60 25 60 60h100c0 -91 -64 -155 -160 -155s-160 64 -160 155z" />
    <glyph glyph-name="uni04D1" unicode="&#x4d1;" horiz-adv-x="540" 
d="M340 0v60h-5c-11 -13 -23 -25 -37 -35c-24 -19 -61 -35 -108 -35c-90 0 -150 60 -150 140s54 141 145 157l155 28c-5 35 -34 65 -85 65c-35 0 -62 -13 -81 -28c-11 -8 -21 -17 -29 -27l-80 80c14 17 31 33 51 47c35 24 84 48 149 48c125 0 210 -86 210 -195v-305h-135z
M340 210v10l-110 -20c-35 -7 -55 -25 -55 -50c0 -31 20 -50 60 -50c60 0 105 45 105 110zM120 705h100c0 -35 25 -60 60 -60s60 25 60 60h100c0 -85 -64 -150 -160 -150s-160 65 -160 150z" />
    <glyph glyph-name="uni04D2" unicode="&#x4d2;" horiz-adv-x="720" 
d="M275 295h170l-83 230h-4zM5 0l270 700h170l270 -700h-160l-60 160h-270l-60 -160h-160zM175 855c0 40 35 75 75 75s75 -35 75 -75s-35 -75 -75 -75s-75 35 -75 75zM395 855c0 40 35 75 75 75s75 -35 75 -75s-35 -75 -75 -75s-75 35 -75 75z" />
    <glyph glyph-name="uni04D3" unicode="&#x4d3;" horiz-adv-x="540" 
d="M340 0v60h-5c-11 -13 -23 -25 -37 -35c-24 -19 -61 -35 -108 -35c-90 0 -150 60 -150 140s54 141 145 157l155 28c-5 35 -34 65 -85 65c-35 0 -62 -13 -81 -28c-11 -8 -21 -17 -29 -27l-80 80c14 17 31 33 51 47c35 24 84 48 149 48c125 0 210 -86 210 -195v-305h-135z
M340 210v10l-110 -20c-35 -7 -55 -25 -55 -50c0 -31 20 -50 60 -50c60 0 105 45 105 110zM95 630c0 40 35 75 75 75s75 -35 75 -75s-35 -75 -75 -75s-75 35 -75 75zM315 630c0 40 35 75 75 75s75 -35 75 -75s-35 -75 -75 -75s-75 35 -75 75z" />
    <glyph glyph-name="uni04D6" unicode="&#x4d6;" horiz-adv-x="665" 
d="M195 935h100c0 -35 25 -60 60 -60s60 25 60 60h100c0 -91 -64 -155 -160 -155s-160 64 -160 155zM90 0v700h520v-140h-370v-135h290v-135h-290v-150h380v-140h-530z" />
    <glyph glyph-name="uni04D7" unicode="&#x4d7;" horiz-adv-x="570" 
d="M435 165l70 -95c-15 -15 -33 -28 -54 -40c-36 -20 -88 -40 -156 -40c-145 0 -260 115 -260 255s115 255 255 255c135 0 245 -110 245 -245c0 -19 -2 -32 -3 -43l-2 -17h-355c15 -45 55 -85 130 -85c43 0 74 12 97 27c13 8 24 17 33 28zM175 295h220
c-15 45 -54 85 -110 85s-95 -40 -110 -85zM125 705h100c0 -35 25 -60 60 -60s60 25 60 60h100c0 -85 -64 -150 -160 -150s-160 65 -160 150z" />
    <glyph glyph-name="uni04D8" unicode="&#x4d8;" horiz-adv-x="795" 
d="M43 410h547c-21 91 -95 165 -205 165c-64 0 -111 -20 -144 -40c-19 -12 -36 -25 -51 -40l-90 105c21 21 46 40 75 57c49 29 119 58 210 58c211 0 365 -155 365 -365c0 -211 -155 -365 -355 -365s-355 154 -355 365c0 15 0 30 1 41zM585 280h-380c16 -80 89 -155 190 -155
s174 75 190 155z" />
    <glyph glyph-name="uni04D9" unicode="&#x4d9;" horiz-adv-x="565" 
d="M35 295h355c-15 45 -55 85 -130 85c-43 0 -74 -13 -97 -28c-13 -8 -24 -17 -33 -27l-70 95c15 15 33 28 54 40c36 20 88 40 156 40c145 0 260 -115 260 -255s-115 -255 -255 -255c-135 0 -245 110 -245 245c0 17 1 32 2 43zM390 195h-220c15 -45 54 -85 110 -85
s95 40 110 85z" />
    <glyph glyph-name="uni04DA" unicode="&#x4da;" horiz-adv-x="795" 
d="M43 410h547c-21 91 -95 165 -205 165c-64 0 -111 -20 -144 -40c-19 -12 -36 -25 -51 -40l-90 105c21 21 46 40 75 57c49 29 119 58 210 58c211 0 365 -155 365 -365c0 -211 -155 -365 -355 -365s-355 154 -355 365c0 15 0 30 1 41zM585 280h-380c16 -80 89 -155 190 -155
s174 75 190 155zM220 855c0 40 35 75 75 75s75 -35 75 -75s-35 -75 -75 -75s-75 35 -75 75zM440 855c0 40 35 75 75 75s75 -35 75 -75s-35 -75 -75 -75s-75 35 -75 75z" />
    <glyph glyph-name="uni04DB" unicode="&#x4db;" horiz-adv-x="565" 
d="M35 295h355c-15 45 -55 85 -130 85c-43 0 -74 -13 -97 -28c-13 -8 -24 -17 -33 -27l-70 95c15 15 33 28 54 40c36 20 88 40 156 40c145 0 260 -115 260 -255s-115 -255 -255 -255c-135 0 -245 110 -245 245c0 17 1 32 2 43zM390 195h-220c15 -45 54 -85 110 -85
s95 40 110 85zM95 630c0 40 35 75 75 75s75 -35 75 -75s-35 -75 -75 -75s-75 35 -75 75zM315 630c0 40 35 75 75 75s75 -35 75 -75s-35 -75 -75 -75s-75 35 -75 75z" />
    <glyph glyph-name="uni04DC" unicode="&#x4dc;" horiz-adv-x="1020" 
d="M-10 0l280 410l-260 290h180l245 -275v275h150v-275l245 275h180l-260 -290l280 -410h-175l-205 300l-65 -70v-230h-150v230l-65 70l-205 -300h-175zM325 855c0 40 35 75 75 75s75 -35 75 -75s-35 -75 -75 -75s-75 35 -75 75zM545 855c0 40 35 75 75 75s75 -35 75 -75
s-35 -75 -75 -75s-75 35 -75 75z" />
    <glyph glyph-name="uni04DD" unicode="&#x4dd;" horiz-adv-x="785" 
d="M-5 0l190 285l-180 205h160l160 -185v185h135v-185l160 185h160l-180 -205l190 -285h-155l-125 190l-50 -55v-135h-135v135l-50 55l-125 -190h-155zM210 630c0 40 35 75 75 75s75 -35 75 -75s-35 -75 -75 -75s-75 35 -75 75zM430 630c0 40 35 75 75 75s75 -35 75 -75
s-35 -75 -75 -75s-75 35 -75 75z" />
    <glyph glyph-name="uni04DE" unicode="&#x4de;" horiz-adv-x="615" 
d="M15 100l100 100c12 -15 26 -28 43 -40c28 -20 69 -40 122 -40c95 0 135 40 135 85s-40 85 -125 85h-95v130h85c76 0 110 35 110 80s-34 80 -110 80c-43 0 -78 -18 -102 -35c-14 -11 -27 -22 -38 -35l-100 100c17 19 38 37 63 52c43 27 103 53 187 53
c160 0 255 -95 255 -195c0 -60 -29 -97 -58 -120c-17 -13 -36 -23 -57 -30c26 -8 49 -20 70 -35c35 -27 70 -69 70 -140c0 -109 -100 -210 -280 -210c-93 0 -160 28 -207 57c-27 17 -49 37 -68 58zM115 855c0 40 35 75 75 75s75 -35 75 -75s-35 -75 -75 -75s-75 35 -75 75z
M335 855c0 40 35 75 75 75s75 -35 75 -75s-35 -75 -75 -75s-75 35 -75 75z" />
    <glyph glyph-name="uni04DF" unicode="&#x4df;" horiz-adv-x="465" 
d="M10 80l75 80c11 -11 24 -20 37 -28c23 -15 54 -27 93 -27c51 0 70 20 70 45s-19 45 -70 45h-60v110h60c40 0 60 20 60 40s-20 40 -60 40c-33 0 -61 -9 -82 -20c-12 -6 -23 -13 -33 -20l-75 80c14 13 31 26 51 37c35 19 84 38 149 38c125 0 195 -70 195 -140
c0 -43 -24 -70 -48 -87c-14 -10 -30 -18 -47 -23c19 -5 37 -12 52 -22c27 -17 53 -46 53 -93c0 -75 -70 -145 -205 -145c-71 0 -124 22 -160 45c-21 13 -40 28 -55 45zM50 630c0 40 35 75 75 75s75 -35 75 -75s-35 -75 -75 -75s-75 35 -75 75zM270 630c0 40 35 75 75 75
s75 -35 75 -75s-35 -75 -75 -75s-75 35 -75 75z" />
    <glyph glyph-name="uni04E0" unicode="&#x4e0;" horiz-adv-x="610" 
d="M15 100l100 100c12 -15 26 -28 43 -40c28 -20 69 -40 122 -40c95 0 135 40 135 95s-40 95 -135 95h-115v95l190 155h-300v140h490v-135l-170 -140c115 -16 195 -94 195 -215c0 -125 -100 -225 -280 -225c-93 0 -160 28 -207 57c-27 17 -49 37 -68 58z" />
    <glyph glyph-name="uni04E1" unicode="&#x4e1;" horiz-adv-x="510" 
d="M5 -120l85 90c11 -11 23 -20 36 -28c23 -15 56 -27 99 -27c71 0 110 39 110 95s-39 95 -110 95h-105v85l165 170h-245v130h405v-119l-155 -156c111 -20 185 -94 185 -205c0 -124 -95 -220 -250 -220c-76 0 -130 22 -166 45c-21 13 -39 28 -54 45z" />
    <glyph glyph-name="uni04E2" unicode="&#x4e2;" horiz-adv-x="805" 
d="M90 0v700h150v-450l340 450h135v-700h-150v450l-340 -450h-135zM240 810v100h320v-100h-320z" />
    <glyph glyph-name="uni04E3" unicode="&#x4e3;" horiz-adv-x="595" 
d="M65 0v490h135v-280l210 280h120v-490h-135v280l-210 -280h-120zM140 590v100h320v-100h-320z" />
    <glyph glyph-name="uni04E4" unicode="&#x4e4;" horiz-adv-x="805" 
d="M90 0v700h150v-450l340 450h135v-700h-150v450l-340 -450h-135zM215 855c0 40 35 75 75 75s75 -35 75 -75s-35 -75 -75 -75s-75 35 -75 75zM435 855c0 40 35 75 75 75s75 -35 75 -75s-35 -75 -75 -75s-75 35 -75 75z" />
    <glyph glyph-name="uni04E5" unicode="&#x4e5;" horiz-adv-x="595" 
d="M65 0v490h135v-280l210 280h120v-490h-135v280l-210 -280h-120zM115 630c0 40 35 75 75 75s75 -35 75 -75s-35 -75 -75 -75s-75 35 -75 75zM335 630c0 40 35 75 75 75s75 -35 75 -75s-35 -75 -75 -75s-75 35 -75 75z" />
    <glyph glyph-name="uni04E6" unicode="&#x4e6;" horiz-adv-x="850" 
d="M200 350c0 -125 100 -225 225 -225s225 100 225 225s-100 225 -225 225s-225 -100 -225 -225zM45 350c0 200 164 365 380 365s380 -165 380 -365s-164 -365 -380 -365s-380 165 -380 365zM240 855c0 40 35 75 75 75s75 -35 75 -75s-35 -75 -75 -75s-75 35 -75 75z
M460 855c0 40 35 75 75 75s75 -35 75 -75s-35 -75 -75 -75s-75 35 -75 75z" />
    <glyph glyph-name="uni04E7" unicode="&#x4e7;" horiz-adv-x="590" 
d="M295 115c70 0 125 55 125 130s-55 130 -125 130s-125 -55 -125 -130s55 -130 125 -130zM35 245c0 140 115 255 260 255s260 -115 260 -255s-115 -255 -260 -255s-260 115 -260 255zM110 630c0 40 35 75 75 75s75 -35 75 -75s-35 -75 -75 -75s-75 35 -75 75zM330 630
c0 40 35 75 75 75s75 -35 75 -75s-35 -75 -75 -75s-75 35 -75 75z" />
    <glyph glyph-name="uni04E8" unicode="&#x4e8;" horiz-adv-x="850" 
d="M640 290h-430c24 -95 111 -165 215 -165s191 70 215 165zM45 350c0 200 164 365 380 365s380 -165 380 -365s-164 -365 -380 -365s-380 165 -380 365zM210 410h430c-24 95 -111 165 -215 165s-191 -70 -215 -165z" />
    <glyph glyph-name="uni04E9" unicode="&#x4e9;" horiz-adv-x="590" 
d="M411 200h-232c1 -1 20 -84 116 -85c94 1 115 84 116 85zM35 245c0 140 115 255 260 255s260 -115 260 -255s-115 -255 -260 -255s-260 115 -260 255zM179 290h232c-1 1 -22 84 -116 85c-96 -1 -115 -84 -116 -85z" />
    <glyph glyph-name="uni04EA" unicode="&#x4ea;" horiz-adv-x="850" 
d="M640 290h-430c24 -95 111 -165 215 -165s191 70 215 165zM45 350c0 200 164 365 380 365s380 -165 380 -365s-164 -365 -380 -365s-380 165 -380 365zM210 410h430c-24 95 -111 165 -215 165s-191 -70 -215 -165zM240 855c0 40 35 75 75 75s75 -35 75 -75
s-35 -75 -75 -75s-75 35 -75 75zM460 855c0 40 35 75 75 75s75 -35 75 -75s-35 -75 -75 -75s-75 35 -75 75z" />
    <glyph glyph-name="uni04EB" unicode="&#x4eb;" horiz-adv-x="590" 
d="M411 200h-232c1 -1 20 -84 116 -85c94 1 115 84 116 85zM35 245c0 140 115 255 260 255s260 -115 260 -255s-115 -255 -260 -255s-260 115 -260 255zM179 290h232c-1 1 -22 84 -116 85c-96 -1 -115 -84 -116 -85zM110 630c0 40 35 75 75 75s75 -35 75 -75
s-35 -75 -75 -75s-75 35 -75 75zM330 630c0 40 35 75 75 75s75 -35 75 -75s-35 -75 -75 -75s-75 35 -75 75z" />
    <glyph glyph-name="uni04EC" unicode="&#x4ec;" horiz-adv-x="745" 
d="M20 125l100 100c14 -19 31 -35 51 -50c35 -25 84 -50 149 -50c114 0 191 75 215 160h-305v135h305c-24 80 -101 155 -215 155c-64 0 -111 -25 -144 -50c-19 -15 -36 -31 -51 -50l-100 100c21 26 45 49 74 70c49 35 122 70 221 70c216 0 380 -165 380 -365
s-164 -365 -380 -365c-100 0 -174 35 -225 70c-29 21 -54 44 -75 70zM175 855c0 40 35 75 75 75s75 -35 75 -75s-35 -75 -75 -75s-75 35 -75 75zM395 855c0 40 35 75 75 75s75 -35 75 -75s-35 -75 -75 -75s-75 35 -75 75z" />
    <glyph glyph-name="uni04ED" unicode="&#x4ed;" horiz-adv-x="520" 
d="M20 90l80 80c9 -11 20 -21 32 -30c21 -15 53 -30 93 -30c45 0 72 20 91 40c10 12 18 25 24 40h-185v110h185c-6 15 -14 28 -24 40c-19 20 -46 40 -91 40c-40 0 -72 -15 -93 -30c-12 -9 -23 -19 -32 -30l-80 80c13 19 30 35 50 50c35 25 84 50 155 50
c145 0 260 -115 260 -255s-115 -255 -260 -255c-71 0 -120 25 -155 50c-20 15 -37 31 -50 50zM65 630c0 40 35 75 75 75s75 -35 75 -75s-35 -75 -75 -75s-75 35 -75 75zM285 630c0 40 35 75 75 75s75 -35 75 -75s-35 -75 -75 -75s-75 35 -75 75z" />
    <glyph glyph-name="uni04EE" unicode="&#x4ee;" horiz-adv-x="645" 
d="M75 5v135c5 -2 10 -4 17 -5c12 -3 28 -5 48 -5c56 0 90 35 110 75l10 20l-260 475h175l165 -331l140 331h175l-260 -545c-45 -95 -115 -165 -235 -165c-25 0 -46 3 -61 7c-9 3 -17 5 -24 8zM170 810v100h320v-100h-320z" />
    <glyph glyph-name="uni04EF" unicode="&#x4ef;" horiz-adv-x="510" 
d="M35 -195v125c5 -2 10 -4 16 -5c11 -3 24 -5 39 -5c45 0 70 25 85 60l10 25l-190 485h145l115 -325h5l110 325h145l-200 -530c-41 -111 -99 -170 -190 -170c-25 0 -48 3 -64 7c-9 3 -18 5 -26 8zM95 590v100h320v-100h-320z" />
    <glyph glyph-name="uni04F0" unicode="&#x4f0;" horiz-adv-x="645" 
d="M75 5v135c5 -2 10 -4 17 -5c12 -3 28 -5 48 -5c56 0 90 35 110 75l10 20l-260 475h175l165 -331l140 331h175l-260 -545c-45 -95 -115 -165 -235 -165c-25 0 -46 3 -61 7c-9 3 -17 5 -24 8zM145 855c0 40 35 75 75 75s75 -35 75 -75s-35 -75 -75 -75s-75 35 -75 75z
M365 855c0 40 35 75 75 75s75 -35 75 -75s-35 -75 -75 -75s-75 35 -75 75z" />
    <glyph glyph-name="uni04F1" unicode="&#x4f1;" horiz-adv-x="510" 
d="M35 -195v125c5 -2 10 -4 16 -5c11 -3 24 -5 39 -5c45 0 70 25 85 60l10 25l-190 485h145l115 -325h5l110 325h145l-200 -530c-41 -111 -99 -170 -190 -170c-25 0 -48 3 -64 7c-9 3 -18 5 -26 8zM70 630c0 40 35 75 75 75s75 -35 75 -75s-35 -75 -75 -75s-75 35 -75 75z
M290 630c0 40 35 75 75 75s75 -35 75 -75s-35 -75 -75 -75s-75 35 -75 75z" />
    <glyph glyph-name="uni04F2" unicode="&#x4f2;" horiz-adv-x="645" 
d="M75 5v135c5 -2 10 -4 17 -5c12 -3 28 -5 48 -5c56 0 90 35 110 75l10 20l-260 475h175l165 -331l140 331h175l-260 -545c-45 -95 -115 -165 -235 -165c-25 0 -46 3 -61 7c-9 3 -17 5 -24 8zM180 785l80 150h135l-115 -150h-100zM370 785l80 150h135l-115 -150h-100z" />
    <glyph glyph-name="uni04F3" unicode="&#x4f3;" horiz-adv-x="510" 
d="M35 -195v125c5 -2 10 -4 16 -5c11 -3 24 -5 39 -5c45 0 70 25 85 60l10 25l-190 485h145l115 -325h5l110 325h145l-200 -530c-41 -111 -99 -170 -190 -170c-25 0 -48 3 -64 7c-9 3 -18 5 -26 8zM110 555l80 150h135l-115 -150h-100zM300 555l80 150h135l-115 -150h-100z
" />
    <glyph glyph-name="uni04F4" unicode="&#x4f4;" horiz-adv-x="735" 
d="M495 0v255c-13 -7 -28 -14 -45 -20c-29 -11 -69 -20 -120 -20c-149 0 -250 100 -250 275v210h150v-210c0 -90 43 -135 130 -135c40 0 74 11 98 22c14 7 26 14 37 23v300h150v-700h-150zM180 855c0 40 35 75 75 75s75 -35 75 -75s-35 -75 -75 -75s-75 35 -75 75zM400 855
c0 40 35 75 75 75s75 -35 75 -75s-35 -75 -75 -75s-75 35 -75 75z" />
    <glyph glyph-name="uni04F5" unicode="&#x4f5;" horiz-adv-x="555" 
d="M355 0v160c-9 -6 -19 -11 -31 -15c-20 -8 -49 -15 -84 -15c-109 0 -185 75 -185 195v165h135v-155c0 -51 29 -80 80 -80c27 0 48 5 63 12c8 3 15 8 22 13v210h135v-490h-135zM90 630c0 40 35 75 75 75s75 -35 75 -75s-35 -75 -75 -75s-75 35 -75 75zM310 630
c0 40 35 75 75 75s75 -35 75 -75s-35 -75 -75 -75s-75 35 -75 75z" />
    <glyph glyph-name="uni04F6" unicode="&#x4f6;" horiz-adv-x="585" 
d="M175 -140v140h-85v700h475v-140h-325v-420h85v-280h-150z" />
    <glyph glyph-name="uni04F7" unicode="&#x4f7;" horiz-adv-x="440" 
d="M130 -110v110h-65v490h360v-125h-225v-240h65v-235h-135z" />
    <glyph glyph-name="uni04F8" unicode="&#x4f8;" horiz-adv-x="945" 
d="M705 0v700h150v-700h-150zM90 0v700h150v-230h135c149 0 250 -99 250 -235s-101 -235 -250 -235h-285zM240 140h130c60 0 100 39 100 95s-40 95 -100 95h-130v-190zM290 855c0 40 35 75 75 75s75 -35 75 -75s-35 -75 -75 -75s-75 35 -75 75zM510 855c0 40 35 75 75 75
s75 -35 75 -75s-35 -75 -75 -75s-75 35 -75 75z" />
    <glyph glyph-name="uni04F9" unicode="&#x4f9;" horiz-adv-x="735" 
d="M535 0v490h135v-490h-135zM200 120h80c35 0 55 19 55 50s-20 50 -55 50h-80v-100zM65 0v490h135v-150h90c109 0 185 -74 185 -170s-76 -170 -185 -170h-225zM180 630c0 40 35 75 75 75s75 -35 75 -75s-35 -75 -75 -75s-75 35 -75 75zM400 630c0 40 35 75 75 75
s75 -35 75 -75s-35 -75 -75 -75s-75 35 -75 75z" />
    <glyph glyph-name="uni04FA" unicode="&#x4fa;" horiz-adv-x="600" 
d="M95 -215v125c3 -2 6 -4 11 -5c8 -3 19 -5 34 -5c31 0 50 20 50 55v45h-85v270h-95v140h95v290h475v-140h-325v-150h180v-140h-180v-130h85v-200c0 -111 -59 -170 -155 -170c-25 0 -48 3 -64 7c-9 3 -18 5 -26 8z" />
    <glyph glyph-name="uni04FB" unicode="&#x4fb;" horiz-adv-x="455" 
d="M75 -205v110l8 -3c7 -1 14 -2 22 -2c27 0 40 15 40 45v55h-65v165h-70v115h70v210h360v-125h-225v-85h125v-115h-125v-50h65v-185c0 -100 -50 -150 -135 -150c-20 0 -38 3 -50 7c-7 3 -14 5 -20 8z" />
    <glyph glyph-name="uni04FC" unicode="&#x4fc;" horiz-adv-x="680" 
d="M0 0l240 365l-220 335h175l143 -230h4l143 230h175l-220 -335l145 -220c16 -23 30 -46 42 -69c21 -40 43 -91 43 -136c0 -100 -60 -160 -160 -160c-33 0 -58 3 -77 7c-11 3 -20 5 -28 8v135c5 -2 10 -4 16 -5c11 -3 24 -5 39 -5c40 0 55 15 55 40c0 15 -12 39 -23 59
c-7 12 -14 24 -22 36l-128 205h-4l-163 -260h-175z" />
    <glyph glyph-name="uni04FD" unicode="&#x4fd;" horiz-adv-x="515" 
d="M-5 0l175 250l-165 240h155l93 -150h4l93 150h155l-165 -240l120 -170c8 -12 15 -25 22 -40c11 -25 23 -60 23 -100c0 -96 -64 -160 -155 -160c-24 0 -43 3 -58 7l-22 8v125c4 -2 8 -4 13 -5c9 -3 19 -5 32 -5c35 0 55 19 55 50c0 15 -8 31 -15 46l-15 24l-83 130h-4
l-103 -160h-155z" />
    <glyph glyph-name="uni04FE" unicode="&#x4fe;" horiz-adv-x="680" 
d="M0 0l205 305h-125v120h125l-185 275h175l143 -230h4l143 230h175l-185 -275h125v-120h-125l205 -305h-175l-163 260h-4l-163 -260h-175z" />
    <glyph glyph-name="uni04FF" unicode="&#x4ff;" horiz-adv-x="510" 
d="M-5 0l140 190h-90v120h90l-130 180h155l93 -150h4l93 150h155l-130 -180h90v-120h-90l140 -190h-155l-103 160h-4l-103 -160h-155z" />
    <glyph glyph-name="uni0510" unicode="&#x510;" horiz-adv-x="585" 
d="M485 195l100 -100c-18 -21 -40 -39 -66 -55c-44 -28 -109 -55 -194 -55c-180 0 -280 101 -280 210c0 71 35 113 70 140c21 15 44 27 70 35c-21 7 -41 17 -58 30c-29 23 -57 60 -57 120c0 100 95 195 255 195c77 0 134 -22 171 -43c22 -12 40 -26 54 -42l-100 -100
c-9 9 -19 18 -31 25c-21 12 -51 25 -94 25c-65 0 -100 -35 -100 -80s34 -80 110 -80h85v-130h-95c-85 0 -125 -40 -125 -85s40 -85 125 -85c51 0 89 18 117 37c16 11 30 24 43 38z" />
    <glyph glyph-name="uni0511" unicode="&#x511;" horiz-adv-x="440" 
d="M310 195h-60c-51 0 -70 -20 -70 -45s19 -45 70 -45c35 0 64 12 84 27c12 8 22 17 31 28l75 -80c-13 -17 -30 -32 -49 -45c-33 -23 -83 -45 -151 -45c-135 0 -205 70 -205 145c0 47 25 76 52 93c15 10 33 17 53 22c-18 5 -34 13 -48 23c-24 17 -47 44 -47 87
c0 70 70 140 195 140c60 0 106 -18 137 -35c18 -11 34 -22 48 -35l-75 -80c-9 6 -18 12 -29 17c-19 9 -44 18 -71 18c-40 0 -60 -20 -60 -40s20 -40 60 -40h60v-110z" />
    <glyph glyph-name="uni0512" unicode="&#x512;" horiz-adv-x="765" 
d="M0 0v145c5 -2 11 -4 16 -5c10 -3 21 -5 34 -5c69 0 120 50 120 345v220h505v-740c0 -116 -64 -180 -165 -180c-31 0 -56 3 -73 7c-11 3 -20 5 -27 8v135c5 -2 11 -4 16 -5c10 -3 21 -5 34 -5c40 0 65 25 65 70v570h-205v-80c0 -395 -99 -495 -235 -495c-25 0 -46 3 -61 7
c-9 3 -17 5 -24 8z" />
    <glyph glyph-name="uni0513" unicode="&#x513;" horiz-adv-x="580" 
d="M0 0v125l12 -3c7 -1 15 -2 23 -2c50 0 80 30 80 230v140h400v-540c0 -111 -59 -170 -155 -170c-23 0 -42 3 -57 7c-8 3 -16 5 -23 8v125c4 -2 8 -4 13 -5c9 -3 19 -5 32 -5c37 0 55 20 55 60v395h-130v-15c0 -285 -80 -365 -180 -365c-23 0 -40 3 -52 7c-7 3 -13 5 -18 8
z" />
    <glyph glyph-name="Wgrave" unicode="&#x1e80;" horiz-adv-x="1070" 
d="M245 0l-230 700h155l145 -470h5l145 470h140l145 -470h5l145 470h155l-230 -700h-145l-142 455h-6l-142 -455h-145zM480 785l-110 150h140l80 -150h-110z" />
    <glyph glyph-name="wgrave" unicode="&#x1e81;" horiz-adv-x="770" 
d="M167 0l-172 490h145l90 -290h5l95 290h110l95 -290h5l90 290h145l-172 -490h-123l-93 285h-4l-93 -285h-123zM330 555l-110 150h140l80 -150h-110z" />
    <glyph glyph-name="Wacute" unicode="&#x1e82;" horiz-adv-x="1070" 
d="M245 0l-230 700h155l145 -470h5l145 470h140l145 -470h5l145 470h155l-230 -700h-145l-142 455h-6l-142 -455h-145zM480 785l80 150h140l-110 -150h-110z" />
    <glyph glyph-name="wacute" unicode="&#x1e83;" horiz-adv-x="770" 
d="M167 0l-172 490h145l90 -290h5l95 290h110l95 -290h5l90 290h145l-172 -490h-123l-93 285h-4l-93 -285h-123zM330 555l80 150h140l-110 -150h-110z" />
    <glyph glyph-name="Wdieresis" unicode="&#x1e84;" horiz-adv-x="1070" 
d="M245 0l-230 700h155l145 -470h5l145 470h140l145 -470h5l145 470h155l-230 -700h-145l-142 455h-6l-142 -455h-145zM350 855c0 40 35 75 75 75s75 -35 75 -75s-35 -75 -75 -75s-75 35 -75 75zM570 855c0 40 35 75 75 75s75 -35 75 -75s-35 -75 -75 -75s-75 35 -75 75z
" />
    <glyph glyph-name="wdieresis" unicode="&#x1e85;" horiz-adv-x="770" 
d="M167 0l-172 490h145l90 -290h5l95 290h110l95 -290h5l90 290h145l-172 -490h-123l-93 285h-4l-93 -285h-123zM200 630c0 40 35 75 75 75s75 -35 75 -75s-35 -75 -75 -75s-75 35 -75 75zM420 630c0 40 35 75 75 75s75 -35 75 -75s-35 -75 -75 -75s-75 35 -75 75z" />
    <glyph glyph-name="uni1E9E" unicode="&#x1e9e;" horiz-adv-x="735" 
d="M80 0v460c0 140 100 240 245 240h325v-140l-130 -145v-5c31 -7 60 -19 85 -36c42 -29 85 -77 85 -159c0 -120 -95 -215 -245 -215h-85v140h85c60 0 90 30 90 75s-30 75 -90 75h-85v130l125 140h-155c-60 0 -100 -40 -100 -100v-460h-150z" />
    <glyph glyph-name="Ygrave" unicode="&#x1ef2;" horiz-adv-x="670" 
d="M260 0v250l-265 450h175l163 -300h4l163 300h175l-265 -450v-250h-150zM280 785l-110 150h140l80 -150h-110z" />
    <glyph glyph-name="ygrave" unicode="&#x1ef3;" horiz-adv-x="510" 
d="M35 -195v125c5 -2 10 -4 16 -5c11 -3 24 -5 39 -5c45 0 70 25 85 60l10 25l-190 485h145l115 -325h5l110 325h145l-200 -530c-41 -111 -99 -170 -190 -170c-25 0 -48 3 -64 7c-9 3 -18 5 -26 8zM205 555l-110 150h140l80 -150h-110z" />
    <glyph glyph-name="endash" unicode="&#x2013;" horiz-adv-x="525" 
d="M40 235v115h445v-115h-445z" />
    <glyph glyph-name="emdash" unicode="&#x2014;" horiz-adv-x="765" 
d="M40 235v115h685v-115h-685z" />
    <glyph glyph-name="quoteleft" unicode="&#x2018;" horiz-adv-x="260" 
d="M20 505l140 215l80 -45l-105 -235z" />
    <glyph glyph-name="quoteright" unicode="&#x2019;" horiz-adv-x="260" 
d="M20 485l105 235l115 -65l-140 -215z" />
    <glyph glyph-name="quotesinglbase" unicode="&#x201a;" horiz-adv-x="240" 
d="M-15 -85l105 235l115 -65l-140 -215z" />
    <glyph glyph-name="quotedblleft" unicode="&#x201c;" horiz-adv-x="460" 
d="M220 505l140 215l80 -45l-105 -235zM20 505l140 215l80 -45l-105 -235z" />
    <glyph glyph-name="quotedblright" unicode="&#x201d;" horiz-adv-x="460" 
d="M20 485l105 235l115 -65l-140 -215zM220 485l105 235l115 -65l-140 -215z" />
    <glyph glyph-name="quotedblbase" unicode="&#x201e;" horiz-adv-x="440" 
d="M-15 -85l105 235l115 -65l-140 -215zM185 -85l105 235l115 -65l-140 -215z" />
    <glyph glyph-name="dagger" unicode="&#x2020;" horiz-adv-x="450" 
d="M165 145v310h-125v115h125v130h120v-130h125v-115h-125v-310h-120z" />
    <glyph glyph-name="daggerdbl" unicode="&#x2021;" horiz-adv-x="450" 
d="M40 250v115h125v115h-125v115h125v105h120v-105h125v-115h-125v-115h125v-115h-125v-105h-120v105h-125z" />
    <glyph glyph-name="bullet" unicode="&#x2022;" horiz-adv-x="490" 
d="M120 255c0 70 55 125 125 125s125 -55 125 -125s-55 -125 -125 -125s-125 55 -125 125z" />
    <glyph glyph-name="ellipsis" unicode="&#x2026;" horiz-adv-x="780" 
d="M40 70c0 45 35 80 80 80s80 -35 80 -80s-35 -80 -80 -80s-80 35 -80 80zM310 70c0 45 35 80 80 80s80 -35 80 -80s-35 -80 -80 -80s-80 35 -80 80zM580 70c0 45 35 80 80 80s80 -35 80 -80s-35 -80 -80 -80s-80 35 -80 80z" />
    <glyph glyph-name="perthousand" unicode="&#x2030;" horiz-adv-x="1190" 
d="M125 0l440 700h125l-440 -700h-125zM130 550c0 -40 30 -70 70 -70s70 30 70 70s-30 70 -70 70s-70 -30 -70 -70zM30 550c0 91 74 165 170 165s170 -74 170 -165s-74 -165 -170 -165s-170 74 -170 165zM545 150c0 -40 30 -70 70 -70s70 30 70 70s-30 70 -70 70
s-70 -30 -70 -70zM445 150c0 91 74 165 170 165s170 -74 170 -165s-74 -165 -170 -165s-170 74 -170 165zM920 150c0 -40 30 -70 70 -70s70 30 70 70s-30 70 -70 70s-70 -30 -70 -70zM820 150c0 91 74 165 170 165s170 -74 170 -165s-74 -165 -170 -165s-170 74 -170 165z
" />
    <glyph glyph-name="guilsinglleft" unicode="&#x2039;" horiz-adv-x="340" 
d="M160 60l-125 180l125 180h145l-125 -180l125 -180h-145z" />
    <glyph glyph-name="guilsinglright" unicode="&#x203a;" horiz-adv-x="340" 
d="M35 60l125 180l-125 180h145l125 -180l-125 -180h-145z" />
    <glyph glyph-name="uni203D" unicode="&#x203d;" horiz-adv-x="545" 
d="M180 260l-10 265c-11 -8 -18 -18 -23 -26l-7 -14l-130 60c12 31 29 58 52 82c41 41 102 83 203 83c155 0 250 -95 250 -205c0 -170 -195 -170 -195 -290h-130c-2 4 -4 8 -5 13c-3 9 -5 19 -5 32zM170 70c0 45 35 80 80 80s80 -35 80 -80s-35 -80 -80 -80s-80 35 -80 80z
M295 560l-5 -150c25 25 65 45 65 85c0 35 -25 60 -60 65z" />
    <glyph glyph-name="fraction" unicode="&#x2044;" horiz-adv-x="160" 
d="M-200 0l435 700h125l-435 -700h-125z" />
    <glyph glyph-name="uni2070" unicode="&#x2070;" horiz-adv-x="360" 
d="M180 525c35 0 65 30 65 95c0 71 -30 100 -65 100s-65 -29 -65 -100c0 -65 30 -95 65 -95zM180 440c-90 0 -160 70 -160 180c0 116 70 185 160 185s160 -69 160 -185c0 -110 -70 -180 -160 -180z" />
    <glyph glyph-name="uni2074" unicode="&#x2074;" horiz-adv-x="320" 
d="M5 510v85l155 205h100v-205h40v-85h-40v-65h-95v65h-160zM100 595h65v85z" />
    <glyph glyph-name="uni2075" unicode="&#x2075;" horiz-adv-x="320" 
d="M10 495l55 60c7 -7 14 -13 22 -18c15 -9 33 -17 53 -17c35 0 55 20 55 45s-19 45 -50 45c-15 0 -27 -5 -36 -10c-5 -3 -10 -6 -14 -10h-60l20 210h220v-80h-140l-5 -50c4 1 8 3 13 5c8 3 19 5 32 5c71 0 120 -49 120 -120c0 -65 -55 -120 -145 -120c-45 0 -80 12 -104 27
c-14 8 -26 17 -36 28z" />
    <glyph glyph-name="uni2076" unicode="&#x2076;" horiz-adv-x="315" 
d="M50 664l100 136h95l-75 -105c80 -11 130 -60 130 -125c0 -69 -59 -130 -143 -130c-83 0 -142 61 -142 130c0 25 8 49 17 66c5 10 11 19 18 28zM105 570c0 -31 20 -50 52 -50c33 0 53 19 53 50s-20 50 -53 50c-32 0 -52 -19 -52 -50z" />
    <glyph glyph-name="uni2077" unicode="&#x2077;" horiz-adv-x="300" 
d="M65 445l125 265h-160v90h260v-90l-125 -265h-100z" />
    <glyph glyph-name="uni2078" unicode="&#x2078;" horiz-adv-x="330" 
d="M115 555c0 -20 15 -35 50 -35s50 15 50 35s-15 35 -50 35s-50 -15 -50 -35zM125 695c0 -15 15 -30 40 -30s40 15 40 30s-15 30 -40 30s-40 -15 -40 -30zM20 545c0 32 16 54 32 67c9 7 20 13 33 18c-11 4 -20 10 -28 17c-15 12 -27 30 -27 58c0 56 44 100 135 100
s135 -44 135 -100c0 -28 -13 -46 -28 -58c-8 -7 -17 -13 -27 -17c12 -5 23 -11 32 -18c16 -13 33 -35 33 -67c0 -56 -50 -105 -145 -105s-145 49 -145 105z" />
    <glyph glyph-name="uni2079" unicode="&#x2079;" horiz-adv-x="315" 
d="M70 445l75 105c-80 11 -130 60 -130 125c0 69 59 130 143 130c83 0 142 -61 142 -130c0 -25 -9 -49 -18 -66c-5 -10 -11 -19 -17 -28l-100 -136h-95zM105 675c0 -31 20 -50 53 -50c32 0 52 19 52 50s-20 50 -52 50c-33 0 -53 -19 -53 -50z" />
    <glyph glyph-name="uni2080" unicode="&#x2080;" horiz-adv-x="360" 
d="M180 -20c35 0 65 30 65 95c0 71 -30 100 -65 100s-65 -29 -65 -100c0 -65 30 -95 65 -95zM180 -105c-90 0 -160 70 -160 180c0 116 70 185 160 185s160 -69 160 -185c0 -110 -70 -180 -160 -180z" />
    <glyph glyph-name="uni2081" unicode="&#x2081;" horiz-adv-x="270" 
d="M115 -100v235h-65v75c51 5 75 30 80 45h80v-355h-95z" />
    <glyph glyph-name="uni2082" unicode="&#x2082;" horiz-adv-x="330" 
d="M160 -10h130v-90h-260c0 164 170 185 170 240c0 20 -20 35 -45 35c-19 0 -32 -9 -41 -18c-5 -5 -10 -11 -14 -17l-70 30c7 17 16 32 28 45c21 23 54 45 107 45c80 0 130 -50 130 -115c0 -91 -95 -104 -135 -155z" />
    <glyph glyph-name="uni2083" unicode="&#x2083;" horiz-adv-x="325" 
d="M15 -50l55 60c6 -7 13 -13 21 -18c15 -9 34 -17 59 -17c35 0 50 15 50 35s-15 35 -50 35h-45v75h45c25 0 40 15 40 30s-15 30 -40 30c-20 0 -38 -9 -50 -18c-7 -5 -14 -11 -20 -17l-55 60c9 10 20 19 33 27c23 15 54 28 97 28c85 0 130 -44 130 -100
c0 -28 -13 -46 -25 -58c-7 -7 -16 -13 -25 -17c11 -5 21 -11 30 -18c15 -13 30 -31 30 -62c0 -60 -50 -110 -135 -110c-51 0 -86 12 -110 27c-14 8 -26 17 -35 28z" />
    <glyph glyph-name="uni2084" unicode="&#x2084;" horiz-adv-x="320" 
d="M5 -35v85l155 205h100v-205h40v-85h-40v-65h-95v65h-160zM100 50h65v85z" />
    <glyph glyph-name="uni2085" unicode="&#x2085;" horiz-adv-x="320" 
d="M10 -50l55 60c7 -7 14 -13 22 -18c15 -9 33 -17 53 -17c35 0 55 20 55 45s-19 45 -50 45c-15 0 -27 -5 -36 -10c-5 -3 -10 -6 -14 -10h-60l20 210h220v-80h-140l-5 -50c4 1 8 3 13 5c8 3 19 5 32 5c71 0 120 -49 120 -120c0 -65 -55 -120 -145 -120c-45 0 -80 12 -104 27
c-14 8 -26 17 -36 28z" />
    <glyph glyph-name="uni2086" unicode="&#x2086;" horiz-adv-x="315" 
d="M50 119l100 136h95l-75 -105c80 -11 130 -60 130 -125c0 -69 -59 -130 -143 -130c-83 0 -142 61 -142 130c0 25 8 49 17 66c5 10 11 19 18 28zM105 25c0 -31 20 -50 52 -50c33 0 53 19 53 50s-20 50 -53 50c-32 0 -52 -19 -52 -50z" />
    <glyph glyph-name="uni2087" unicode="&#x2087;" horiz-adv-x="300" 
d="M65 -100l125 265h-160v90h260v-90l-125 -265h-100z" />
    <glyph glyph-name="uni2088" unicode="&#x2088;" horiz-adv-x="330" 
d="M115 10c0 -20 15 -35 50 -35s50 15 50 35s-15 35 -50 35s-50 -15 -50 -35zM125 150c0 -15 15 -30 40 -30s40 15 40 30s-15 30 -40 30s-40 -15 -40 -30zM20 0c0 32 16 54 32 67c9 7 20 13 33 18c-11 4 -20 10 -28 17c-15 12 -27 30 -27 58c0 56 44 100 135 100
s135 -44 135 -100c0 -28 -13 -46 -28 -58c-8 -7 -17 -13 -27 -17c12 -5 23 -11 32 -18c16 -13 33 -35 33 -67c0 -56 -50 -105 -145 -105s-145 49 -145 105z" />
    <glyph glyph-name="uni2089" unicode="&#x2089;" horiz-adv-x="315" 
d="M70 -100l75 105c-80 11 -130 60 -130 125c0 69 59 130 143 130c83 0 142 -61 142 -130c0 -25 -9 -49 -18 -66c-5 -10 -11 -19 -17 -28l-100 -136h-95zM105 130c0 -31 20 -50 53 -50c32 0 52 19 52 50s-20 50 -52 50c-33 0 -53 -19 -53 -50z" />
    <glyph glyph-name="uni20A9" unicode="&#x20a9;" horiz-adv-x="1025" 
d="M20 220v90h145l-25 80h-120v90h95l-70 220h160l70 -220h110l65 220h125l65 -220h110l70 220h160l-70 -220h95v-90h-120l-25 -80h145v-90h-170l-70 -220h-135l-65 220h-105l-65 -220h-135l-70 220h-170zM695 310h5l25 80h-55zM325 310h5l25 80h-55zM485 310h55l-25 85h-5z
" />
    <glyph glyph-name="Euro" unicode="&#x20ac;" horiz-adv-x="730" 
d="M20 225v90h85c-1 3 -1 7 -1 10c-1 7 -1 14 -1 25s0 18 1 25c0 3 0 7 1 10h-85v90h105c17 45 40 85 69 120c51 59 129 120 256 120c92 0 156 -29 199 -58c25 -17 45 -36 61 -57l-100 -100c-11 13 -25 26 -40 37c-27 19 -64 38 -115 38c-60 0 -101 -25 -128 -50
c-15 -15 -28 -31 -37 -50h180v-90h-210c-1 -3 -1 -7 -1 -10c-1 -7 -1 -14 -1 -25s0 -18 1 -25c0 -3 0 -7 1 -10h210v-90h-180c9 -19 22 -35 37 -50c27 -25 68 -50 128 -50c51 0 88 18 115 37c15 11 29 24 40 38l100 -100c-16 -21 -36 -41 -61 -58c-43 -29 -107 -57 -199 -57
c-126 0 -206 59 -256 120c-29 35 -52 75 -69 120h-105z" />
    <glyph glyph-name="uni20B4" unicode="&#x20b4;" horiz-adv-x="650" 
d="M40 380v100h350l5 7c3 5 5 12 5 23c0 35 -35 70 -100 70c-39 0 -68 -15 -91 -30c-13 -9 -24 -19 -34 -30l-95 100c16 17 35 33 57 47c39 24 94 48 173 48c164 0 250 -85 250 -185c0 -15 -2 -27 -5 -36l-5 -14h60v-100h-570zM40 220v100h570v-100h-350c-2 -3 -4 -5 -5 -8
c-3 -5 -5 -13 -5 -22c0 -35 35 -70 100 -70c37 0 68 15 91 30c13 9 24 19 34 30l95 -100c-16 -18 -35 -34 -57 -48c-39 -24 -96 -47 -173 -47c-164 0 -250 85 -250 185c0 14 2 26 5 36c1 5 3 10 5 14h-60z" />
    <glyph glyph-name="uni20B8" unicode="&#x20b8;" horiz-adv-x="610" 
d="M230 0v395h-200v120h550v-120h-200v-395h-150zM30 580v120h550v-120h-550z" />
    <glyph glyph-name="uni20B9" unicode="&#x20b9;" horiz-adv-x="585" 
d="M50 260v110h175c51 0 79 30 90 50h-265v105h265c-11 31 -39 60 -90 60h-175v115h500v-115h-96c3 -5 5 -10 8 -17c4 -11 8 -26 11 -43h77v-105h-77c-19 -85 -92 -159 -218 -170c107 -85 202 -165 310 -250h-195z" />
    <glyph glyph-name="uni20BA" unicode="&#x20ba;" horiz-adv-x="580" 
d="M100 -10v243l-70 -23v110l70 23v50l-70 -23v110l70 23v197h150v-148l175 58v-110l-175 -58v-50l175 58v-110l-175 -58v-156c125 15 170 58 170 109c0 12 -2 24 -5 32c-2 5 -4 9 -5 13l125 50c5 -9 9 -19 12 -30c7 -19 13 -44 13 -75c0 -116 -110 -224 -460 -235z" />
    <glyph glyph-name="uni20BD" unicode="&#x20bd;" horiz-adv-x="675" 
d="M260 390h140c56 0 95 39 95 90s-39 90 -95 90h-140v-180zM110 0v100h-80v110h80v60h-80v120h80v310h295c145 0 240 -95 240 -215s-95 -215 -240 -215h-145v-60h215v-110h-215v-100h-150z" />
    <glyph glyph-name="uni20BF" unicode="&#x20bf;" horiz-adv-x="690" 
d="M205 -120v120h-115v700h115v120h90v-120h60v120h90v-125c31 -7 58 -19 82 -34c41 -27 83 -71 83 -146c0 -56 -24 -91 -48 -114c-14 -13 -30 -24 -47 -31c24 -7 46 -19 65 -34c32 -27 65 -68 65 -136c0 -90 -50 -138 -100 -165c-29 -15 -63 -25 -100 -30v-125h-90v120h-60
v-120h-90zM240 130h155c60 0 95 34 95 85s-35 85 -95 85h-155v-170zM240 430h135c51 0 80 30 80 70s-29 70 -80 70h-135v-140z" />
    <glyph glyph-name="uni2113" unicode="&#x2113;" horiz-adv-x="385" 
d="M10 205v80c23 0 45 3 62 7l28 8v265c0 96 49 145 125 145s125 -50 125 -155c0 -159 -90 -266 -170 -309v-111c0 -51 20 -70 65 -70c16 0 30 2 43 7c7 3 12 5 17 8v-72l-21 -9c-13 -5 -31 -9 -54 -9c-80 0 -130 49 -130 145v85c-8 -3 -17 -5 -26 -8c-16 -4 -39 -7 -64 -7z
M180 567v-227c50 40 95 101 95 215c0 60 -19 80 -50 80c-25 0 -45 -20 -45 -68z" />
    <glyph glyph-name="uni2116" unicode="&#x2116;" horiz-adv-x="1185" 
d="M800 0v120h330v-120h-330zM965 295c35 0 65 30 65 65s-30 65 -65 65s-65 -30 -65 -65s30 -65 65 -65zM795 360c0 91 74 165 170 165s170 -74 170 -165s-74 -165 -170 -165s-170 74 -170 165zM90 0v700h135l340 -435v435h150v-700h-135l-340 435v-435h-150z" />
    <glyph glyph-name="uni2117" unicode="&#x2117;" horiz-adv-x="850" 
d="M295 160v380h155c85 0 145 -60 145 -135s-60 -135 -145 -135h-60v-110h-95zM390 355h55c31 0 50 19 50 50s-19 50 -50 50h-55v-100zM425 60c156 0 285 130 285 290s-129 290 -285 290s-285 -130 -285 -290s129 -290 285 -290zM50 350c0 205 164 370 375 370
s375 -165 375 -370s-164 -370 -375 -370s-375 165 -375 370z" />
    <glyph glyph-name="trademark" unicode="&#x2122;" horiz-adv-x="695" 
d="M90 380v235h-90v85h270v-85h-90v-235h-90zM305 380v320h80l95 -125l95 125h80v-320h-90v173l-85 -108l-85 108v-173h-90z" />
    <glyph glyph-name="uni2126" unicode="&#x2126;" horiz-adv-x="860" 
d="M110 0v80h130c-29 21 -55 45 -78 74c-39 49 -77 120 -77 216c0 189 150 340 345 340s345 -151 345 -340c0 -96 -39 -167 -78 -216c-23 -29 -48 -53 -77 -74h130v-80h-255v80c36 17 68 38 97 65c49 46 98 117 98 225c0 145 -115 260 -260 260s-260 -115 -260 -260
c0 -107 49 -179 97 -225c29 -27 61 -48 98 -65v-80h-255z" />
    <glyph glyph-name="estimated" unicode="&#x212e;" horiz-adv-x="870" 
d="M225 380h420v215c-56 51 -130 80 -210 80s-154 -29 -210 -80v-215zM225 345v-238c16 -15 35 -29 57 -41c37 -21 92 -41 163 -41c92 0 162 36 209 75c27 22 51 47 71 75l30 -25c-23 -30 -49 -57 -80 -80c-53 -40 -130 -80 -230 -80c-210 0 -370 160 -370 360
s160 360 360 360s360 -160 360 -360v-5h-570z" />
    <glyph glyph-name="uni2150" unicode="&#x2150;" horiz-adv-x="750" 
d="M95 345v235h-65v75c51 5 75 30 80 45h80v-355h-95zM505 0l125 265h-160v90h260v-90l-125 -265h-100zM65 0l435 700h125l-435 -700h-125z" />
    <glyph glyph-name="uni2151" unicode="&#x2151;" horiz-adv-x="760" 
d="M65 0l435 700h125l-435 -700h-125zM95 345v235h-65v75c51 5 75 30 80 45h80v-355h-95zM500 0l75 105c-80 11 -130 60 -130 125c0 69 59 130 143 130c83 0 142 -61 142 -130c0 -25 -9 -49 -18 -66c-5 -10 -11 -19 -17 -28l-100 -136h-95zM535 230c0 -31 20 -50 53 -50
c32 0 52 19 52 50s-20 50 -52 50c-33 0 -53 -19 -53 -50z" />
    <glyph glyph-name="uni2152" unicode="&#x2152;" horiz-adv-x="1035" 
d="M65 0l435 700h125l-435 -700h-125zM95 345v235h-65v75c51 5 75 30 80 45h80v-355h-95zM535 0v235h-65v75c51 5 75 30 80 45h80v-355h-95zM845 80c35 0 65 30 65 95c0 71 -30 100 -65 100s-65 -29 -65 -100c0 -65 30 -95 65 -95zM845 -5c-90 0 -160 70 -160 180
c0 116 70 185 160 185s160 -69 160 -185c0 -110 -70 -180 -160 -180z" />
    <glyph glyph-name="onethird" unicode="&#x2153;" horiz-adv-x="755" 
d="M435 50l55 60c6 -7 13 -13 21 -18c15 -9 34 -17 59 -17c35 0 50 15 50 35s-15 35 -50 35h-45v75h45c25 0 40 15 40 30s-15 30 -40 30c-20 0 -38 -9 -50 -18c-7 -5 -14 -11 -20 -17l-55 60c9 10 20 19 33 27c23 15 54 28 97 28c85 0 130 -44 130 -100
c0 -28 -13 -46 -25 -58c-7 -7 -16 -13 -25 -17c11 -5 21 -11 30 -18c15 -13 30 -31 30 -62c0 -60 -50 -110 -135 -110c-51 0 -86 12 -110 27c-14 8 -26 17 -35 28zM95 345v235h-65v75c51 5 75 30 80 45h80v-355h-95zM65 0l435 700h125l-435 -700h-125z" />
    <glyph glyph-name="twothirds" unicode="&#x2154;" horiz-adv-x="840" 
d="M170 435h130v-90h-260c0 164 170 185 170 240c0 20 -20 35 -45 35c-19 0 -32 -9 -41 -18c-5 -5 -10 -11 -14 -17l-70 30c7 17 16 32 28 45c21 23 54 45 107 45c80 0 130 -50 130 -115c0 -91 -95 -104 -135 -155zM520 50l55 60c6 -7 13 -13 21 -18c15 -9 34 -17 59 -17
c35 0 50 15 50 35s-15 35 -50 35h-45v75h45c25 0 40 15 40 30s-15 30 -40 30c-20 0 -38 -9 -50 -18c-7 -5 -14 -11 -20 -17l-55 60c9 10 20 19 33 27c23 15 54 28 97 28c85 0 130 -44 130 -100c0 -28 -13 -46 -25 -58c-7 -7 -16 -13 -25 -17c11 -5 21 -11 30 -18
c15 -13 30 -31 30 -62c0 -60 -50 -110 -135 -110c-51 0 -86 12 -110 27c-14 8 -26 17 -35 28zM150 0l435 700h125l-435 -700h-125z" />
    <glyph glyph-name="uni2155" unicode="&#x2155;" horiz-adv-x="755" 
d="M95 345v235h-65v75c51 5 75 30 80 45h80v-355h-95zM430 50l55 60c7 -7 14 -13 22 -18c15 -9 33 -17 53 -17c35 0 55 20 55 45s-19 45 -50 45c-15 0 -27 -5 -36 -10c-5 -3 -10 -6 -14 -10h-60l20 210h220v-80h-140l-5 -50c4 1 8 3 13 5c8 3 19 5 32 5
c71 0 120 -49 120 -120c0 -65 -55 -120 -145 -120c-45 0 -80 12 -104 27c-14 8 -26 17 -36 28zM65 0l435 700h125l-435 -700h-125z" />
    <glyph glyph-name="uni2156" unicode="&#x2156;" horiz-adv-x="840" 
d="M170 435h130v-90h-260c0 164 170 185 170 240c0 20 -20 35 -45 35c-19 0 -32 -9 -41 -18c-5 -5 -10 -11 -14 -17l-70 30c7 17 16 32 28 45c21 23 54 45 107 45c80 0 130 -50 130 -115c0 -91 -95 -104 -135 -155zM515 50l55 60c7 -7 14 -13 22 -18c15 -9 33 -17 53 -17
c35 0 55 20 55 45s-19 45 -50 45c-15 0 -27 -5 -36 -10c-5 -3 -10 -6 -14 -10h-60l20 210h220v-80h-140l-5 -50c4 1 8 3 13 5c8 3 19 5 32 5c71 0 120 -49 120 -120c0 -65 -55 -120 -145 -120c-45 0 -80 12 -104 27c-14 8 -26 17 -36 28zM150 0l435 700h125l-435 -700h-125z
" />
    <glyph glyph-name="uni2157" unicode="&#x2157;" horiz-adv-x="825" 
d="M30 395l55 60c6 -7 13 -13 21 -18c15 -9 34 -17 59 -17c35 0 50 15 50 35s-15 35 -50 35h-45v75h45c25 0 40 15 40 30s-15 30 -40 30c-20 0 -38 -9 -50 -18c-7 -5 -14 -11 -20 -17l-55 60c9 10 20 19 33 27c23 15 54 28 97 28c85 0 130 -44 130 -100
c0 -28 -13 -46 -25 -58c-7 -7 -16 -13 -25 -17c11 -5 21 -11 30 -18c15 -13 30 -31 30 -62c0 -60 -50 -110 -135 -110c-51 0 -86 12 -110 27c-14 8 -26 17 -35 28zM500 50l55 60c7 -7 14 -13 22 -18c15 -9 33 -17 53 -17c35 0 55 20 55 45s-19 45 -50 45
c-15 0 -27 -5 -36 -10c-5 -3 -10 -6 -14 -10h-60l20 210h220v-80h-140l-5 -50c4 1 8 3 13 5c8 3 19 5 32 5c71 0 120 -49 120 -120c0 -65 -55 -120 -145 -120c-45 0 -80 12 -104 27c-14 8 -26 17 -36 28zM135 0l435 700h125l-435 -700h-125z" />
    <glyph glyph-name="uni2158" unicode="&#x2158;" horiz-adv-x="840" 
d="M20 410v85l155 205h100v-205h40v-85h-40v-65h-95v65h-160zM115 495h65v85zM515 50l55 60c7 -7 14 -13 22 -18c15 -9 33 -17 53 -17c35 0 55 20 55 45s-19 45 -50 45c-15 0 -27 -5 -36 -10c-5 -3 -10 -6 -14 -10h-60l20 210h220v-80h-140l-5 -50c4 1 8 3 13 5
c8 3 19 5 32 5c71 0 120 -49 120 -120c0 -65 -55 -120 -145 -120c-45 0 -80 12 -104 27c-14 8 -26 17 -36 28zM150 0l435 700h125l-435 -700h-125z" />
    <glyph glyph-name="uni2159" unicode="&#x2159;" horiz-adv-x="740" 
d="M95 345v235h-65v75c51 5 75 30 80 45h80v-355h-95zM450 219l100 136h95l-75 -105c80 -11 130 -60 130 -125c0 -69 -59 -130 -143 -130c-83 0 -142 61 -142 130c0 25 8 49 17 66c5 10 11 19 18 28zM505 125c0 -31 20 -50 52 -50c33 0 53 19 53 50s-20 50 -53 50
c-32 0 -52 -19 -52 -50zM65 0l435 700h125l-435 -700h-125z" />
    <glyph glyph-name="uni215A" unicode="&#x215a;" horiz-adv-x="815" 
d="M30 395l55 60c7 -7 14 -13 22 -18c15 -9 33 -17 53 -17c35 0 55 20 55 45s-19 45 -50 45c-15 0 -27 -5 -36 -10c-5 -3 -10 -6 -14 -10h-60l20 210h220v-80h-140l-5 -50c4 1 8 3 13 5c8 3 19 5 32 5c71 0 120 -49 120 -120c0 -65 -55 -120 -145 -120c-45 0 -80 12 -104 27
c-14 8 -26 17 -36 28zM525 219l100 136h95l-75 -105c80 -11 130 -60 130 -125c0 -69 -59 -130 -143 -130c-83 0 -142 61 -142 130c0 25 8 49 17 66c5 10 11 19 18 28zM580 125c0 -31 20 -50 52 -50c33 0 53 19 53 50s-20 50 -53 50c-32 0 -52 -19 -52 -50zM140 0l435 700
h125l-435 -700h-125z" />
    <glyph glyph-name="oneeighth" unicode="&#x215b;" horiz-adv-x="775" 
d="M95 345v235h-65v75c51 5 75 30 80 45h80v-355h-95zM540 110c0 -20 15 -35 50 -35s50 15 50 35s-15 35 -50 35s-50 -15 -50 -35zM550 250c0 -15 15 -30 40 -30s40 15 40 30s-15 30 -40 30s-40 -15 -40 -30zM445 100c0 32 16 54 32 67c9 7 20 13 33 18c-11 4 -20 10 -28 17
c-15 12 -27 30 -27 58c0 56 44 100 135 100s135 -44 135 -100c0 -28 -13 -46 -28 -58c-8 -7 -17 -13 -27 -17c12 -5 23 -11 32 -18c16 -13 33 -35 33 -67c0 -56 -50 -105 -145 -105s-145 49 -145 105zM65 0l435 700h125l-435 -700h-125z" />
    </font>
</defs>
</svg>
