<?xml version="1.0" encoding="utf-8"?>
<svg width="172" height="125" viewBox="42.589 42.589 78.133 32.836" fill="none" xmlns="http://www.w3.org/2000/svg">
  <path d="M49.2599 72.3613V59.5406H60.5724V54.0917H49.2599V48.6407H58.9974V43.1514H42.9995V72.3613H49.2599Z" fill="#4DC6BC"/>
  <path d="M66.6318 49.0718C68.5714 49.0718 70.0652 47.6221 70.0652 45.8975C70.0652 44.2901 68.5714 42.8384 66.6318 42.8384C64.8548 42.8384 63.3193 44.3285 63.3193 45.8975C63.3193 47.6221 64.8548 49.0718 66.6318 49.0718ZM69.5402 52.5615H63.8048V72.3617H69.5402V52.5615Z" fill="#4DC6BC"/>
  <path d="M94.1436 62.4808C94.1436 56.7569 90.2644 52.1309 84.6894 52.1309C82.8311 52.1309 80.4477 52.6788 79.3165 53.9344V52.5615H73.5811V72.3617H79.3165V62.4808C79.3165 59.3065 81.6602 57.6991 84.2061 57.6991C86.5477 57.6991 88.4477 59.3065 88.4477 62.4808V72.3617H94.1436V62.4808Z" fill="#4DC6BC"/>
  <path d="M103.148 64.4036C104.441 64.5977 104.966 65.1476 104.966 65.9321C104.966 66.6762 104.481 67.2645 103.431 67.2645C102.544 67.2645 101.816 67.03 101.21 66.4012L96.3623 69.8141C98.1394 71.7733 100.36 72.7923 103.391 72.7923C107.796 72.7923 111.229 70.0487 111.229 66.011C111.229 61.9329 108.36 60.0505 104.604 59.5794C102.906 59.3833 102.421 58.9911 102.421 58.3259C102.421 57.7375 102.866 57.3068 103.633 57.3068C104.402 57.3068 104.966 57.6586 105.491 58.1297L109.612 55.2284C108.158 53.1903 106.137 52.1309 103.512 52.1309C100.483 52.1309 96.8061 54.6784 96.8061 58.1297C96.8061 61.5022 99.4311 63.8921 103.148 64.4036Z" fill="white"/>
  <path d="M116.96 49.0718C118.9 49.0718 120.393 47.6221 120.393 45.8975C120.393 44.2901 118.9 42.8384 116.96 42.8384C115.183 42.8384 113.647 44.3285 113.647 45.8975C113.647 47.6221 115.183 49.0718 116.96 49.0718ZM119.868 52.5615H114.133V72.3617H119.868V52.5615Z" fill="#4DC6BC"/>
  <path d="M100.665 49.8611L104.252 49.6084L104.687 55.4132L101.098 55.6659L100.665 49.8611Z" fill="white"/>
  <path d="M101.938 69.4554L105.527 69.2026L105.96 75.0074L102.373 75.2602L101.938 69.4554Z" fill="white"/>
</svg>