<?xml version="1.0" standalone="no"?>
<!DOCTYPE svg PUBLIC "-//W3C//DTD SVG 1.1//EN" "http://www.w3.org/Graphics/SVG/1.1/DTD/svg11.dtd" >
<svg xmlns="http://www.w3.org/2000/svg" xmlns:xlink="http://www.w3.org/1999/xlink" version="1.1">
<metadata>
Created by FontForge 20200511 at Tue Mar  5 23:39:37 2019
 By convertio
Designed for Typetype in 2016-2019 by Ivan Gladkikh and Pavel Emelyanov. TT Norms Pro is one of series of fontfamilies which were designed for use in web and mobile applications, print and multimedia environments. |DCNT
</metadata>
<defs>
<font id="TTNormsPro-Regular" horiz-adv-x="600" >
  <font-face 
    font-family="TT Norms Pro"
    font-weight="400"
    font-stretch="normal"
    units-per-em="1000"
    panose-1="2 0 5 3 3 0 0 2 0 3"
    ascent="700"
    descent="-300"
    x-height="480"
    cap-height="700"
    bbox="-520 -220 1438 990"
    underline-thickness="50"
    underline-position="-100"
    stemh="70"
    stemv="75"
    unicode-range="U+000D-FB06"
  />
<missing-glyph horiz-adv-x="0" 
 />
    <glyph glyph-name="f_f" unicode="ff" horiz-adv-x="605" 
d="M105 0v415h-75v65h75v70c0 91 50 140 130 140c20 0 37 -4 50 -8c7 -3 14 -5 20 -7v-65l-19 7c-12 4 -29 8 -46 8c-40 0 -65 -24 -65 -75v-70h215v90c0 91 50 140 130 140c20 0 37 -4 50 -8c7 -3 14 -5 20 -7v-65l-19 7c-12 4 -29 8 -46 8c-40 0 -65 -24 -65 -75v-90h115
v-65h-115v-415h-70v415h-215v-415h-70z" />
    <glyph glyph-name="uniFB01" unicode="fi" horiz-adv-x="540" 
d="M105 0v415h-75v65h75v90c0 91 50 140 130 140c20 0 37 -4 50 -8c7 -3 14 -5 20 -7v-65l-19 7c-12 4 -29 8 -46 8c-40 0 -65 -24 -65 -75v-90h285v-480h-70v415h-215v-415h-70zM380 640c0 25 20 45 45 45s45 -20 45 -45s-20 -45 -45 -45s-45 20 -45 45z" />
    <glyph glyph-name="f_f_i" unicode="ffi" horiz-adv-x="825" 
d="M105 0v415h-75v65h75v70c0 91 50 140 130 140c20 0 37 -4 50 -8c7 -3 14 -5 20 -7v-65l-19 7c-12 4 -29 8 -46 8c-40 0 -65 -24 -65 -75v-70h215v90c0 91 50 140 130 140c20 0 37 -4 50 -8c7 -3 14 -5 20 -7v-65l-19 7c-12 4 -29 8 -46 8c-40 0 -65 -24 -65 -75v-90h285
v-480h-70v415h-215v-415h-70v415h-215v-415h-70zM665 640c0 25 20 45 45 45s45 -20 45 -45s-20 -45 -45 -45s-45 20 -45 45z" />
    <glyph glyph-name=".notdef" horiz-adv-x="0" 
 />
    <glyph glyph-name="NULL" horiz-adv-x="0" 
 />
    <glyph glyph-name="NULL" horiz-adv-x="0" 
 />
    <glyph glyph-name="CR" unicode="&#xd;" horiz-adv-x="0" 
 />
    <glyph glyph-name="space" unicode=" " horiz-adv-x="210" 
 />
    <glyph glyph-name="exclam" unicode="!" horiz-adv-x="310" 
d="M125 170l-15 530h90l-15 -530h-60zM105 40c0 31 19 50 50 50s50 -19 50 -50s-19 -50 -50 -50s-50 19 -50 50z" />
    <glyph glyph-name="quotedbl" unicode="&#x22;" horiz-adv-x="350" 
d="M65 490v210h65v-210h-65zM220 490v210h65v-210h-65z" />
    <glyph glyph-name="numbersign" unicode="#" horiz-adv-x="725" 
d="M135 0l40 205h-155l10 65h157l31 160h-148l10 65h150l40 205h65l-40 -205h190l40 205h65l-40 -205h155l-10 -65h-157l-31 -160h148l-10 -65h-150l-40 -205h-65l40 205h-190l-40 -205h-65zM252 270h190l31 160h-190z" />
    <glyph glyph-name="dollar" unicode="$" horiz-adv-x="565" 
d="M45 95l45 51c13 -17 28 -31 46 -43c31 -23 79 -43 144 -43c105 0 160 54 160 130c0 179 -380 81 -380 330c0 92 71 175 190 188v102h70v-102c56 -7 98 -29 127 -49c17 -12 32 -25 43 -39l-50 -50c-11 13 -24 24 -39 35c-27 17 -64 35 -116 35c-96 0 -150 -57 -150 -120
c0 -180 380 -81 380 -330c0 -105 -70 -183 -195 -198v-102h-70v101c-71 7 -120 31 -155 56c-20 14 -37 30 -50 48z" />
    <glyph glyph-name="percent" unicode="%" horiz-adv-x="760" 
d="M40 555c0 84 71 155 155 155s155 -71 155 -155s-71 -155 -155 -155s-155 71 -155 155zM125 0l440 700h70l-440 -700h-70zM195 460c51 0 90 39 90 95s-39 95 -90 95s-90 -39 -90 -95s39 -95 90 -95zM410 145c0 84 71 155 155 155s155 -71 155 -155s-71 -155 -155 -155
s-155 71 -155 155zM565 50c51 0 90 39 90 95s-39 95 -90 95s-90 -39 -90 -95s39 -95 90 -95z" />
    <glyph glyph-name="ampersand" unicode="&#x26;" horiz-adv-x="625" 
d="M290 365l160 -195c8 13 15 29 22 46c11 29 23 71 23 124h65c0 -68 -17 -124 -33 -163c-9 -23 -20 -43 -32 -62c7 -11 15 -21 24 -30c15 -15 33 -30 56 -30c7 0 13 1 20 2l10 3v-65l-11 -3c-7 -1 -16 -2 -24 -2c-35 0 -64 20 -84 40c-12 12 -22 25 -31 40
c-14 -15 -30 -28 -48 -40c-31 -20 -77 -40 -137 -40c-120 0 -200 80 -200 170c0 63 32 113 67 149c20 21 43 40 68 56c-20 20 -38 41 -53 63c-27 37 -52 84 -52 127c0 84 70 155 160 155s160 -70 160 -150c0 -53 -33 -101 -65 -137c-19 -21 -41 -41 -65 -58zM255 410
c19 14 35 29 50 46c25 27 50 64 50 99c0 51 -39 90 -95 90s-95 -39 -95 -90c0 -31 22 -66 45 -95c13 -17 28 -34 45 -50zM410 115l-165 210c-21 -16 -39 -33 -55 -51c-28 -31 -55 -71 -55 -114c0 -64 50 -105 135 -105c45 0 80 15 104 30c14 9 26 19 36 30z" />
    <glyph glyph-name="quotesingle" unicode="'" horiz-adv-x="195" 
d="M65 490v210h65v-210h-65z" />
    <glyph glyph-name="parenleft" unicode="(" horiz-adv-x="335" 
d="M300 -190l-55 -30c-31 37 -59 79 -83 126c-41 81 -82 199 -82 344s41 263 82 344c24 47 52 89 83 126l55 -30c-29 -35 -55 -76 -78 -121c-39 -77 -77 -186 -77 -319s38 -242 77 -319c23 -45 49 -86 78 -121z" />
    <glyph glyph-name="parenright" unicode=")" horiz-adv-x="335" 
d="M90 -220l-55 30c29 35 54 76 77 121c39 77 78 186 78 319c0 132 -38 242 -78 319c-23 45 -48 86 -77 121l55 30c31 -37 58 -79 82 -126c41 -81 83 -199 83 -344s-42 -263 -83 -344c-24 -47 -51 -89 -82 -126z" />
    <glyph glyph-name="asterisk" unicode="*" horiz-adv-x="390" 
d="M75 420l85 105l-125 30l20 55l120 -40l-10 130h60l-10 -130l120 40l20 -55l-125 -30l85 -105l-45 -35l-75 110l-75 -110z" />
    <glyph glyph-name="plus" unicode="+" horiz-adv-x="515" 
d="M225 70v190h-185v65h185v190h65v-190h185v-65h-185v-190h-65z" />
    <glyph glyph-name="comma" unicode="," horiz-adv-x="220" 
d="M0 -105l90 195l70 -40l-115 -180z" />
    <glyph glyph-name="hyphen" unicode="-" horiz-adv-x="395" 
d="M45 265v65h305v-65h-305z" />
    <glyph glyph-name="period" unicode="." horiz-adv-x="210" 
d="M55 40c0 31 19 50 50 50s50 -19 50 -50s-19 -50 -50 -50s-50 19 -50 50z" />
    <glyph glyph-name="slash" unicode="/" horiz-adv-x="365" 
d="M0 -210l300 920h65l-300 -920h-65z" />
    <glyph glyph-name="zero" unicode="0" horiz-adv-x="680" 
d="M341 -10c-146 0 -281 135 -281 360s136 360 280 360s280 -135 280 -360s-135 -360 -279 -360zM341 60c103 0 204 100 204 290s-101 290 -205 290s-205 -100 -205 -290s100 -290 206 -290z" />
    <glyph glyph-name="one" unicode="1" horiz-adv-x="350" 
d="M170 0v560h-130v45c60 3 97 26 120 49c13 13 23 29 30 46h55v-700h-75z" />
    <glyph glyph-name="two" unicode="2" horiz-adv-x="550" 
d="M125 70h365v-70h-450c0 295 375 304 375 505c0 80 -54 135 -150 135c-64 0 -99 -29 -122 -60c-13 -17 -22 -37 -28 -60l-65 30c9 30 22 57 40 80c32 40 84 80 175 80c136 0 225 -90 225 -205c0 -215 -305 -250 -365 -435z" />
    <glyph glyph-name="three" unicode="3" horiz-adv-x="560" 
d="M30 95l50 50c13 -17 28 -31 46 -43c31 -21 75 -42 139 -42c105 0 165 60 165 135c0 71 -64 135 -165 135h-70v70h70c85 0 135 49 135 125c0 65 -50 115 -135 115c-53 0 -92 -20 -119 -40c-16 -12 -30 -25 -41 -40l-50 55c14 17 31 33 52 47c35 24 87 48 158 48
c125 0 210 -85 210 -185c0 -60 -26 -99 -53 -123c-15 -14 -33 -25 -52 -32c24 -7 46 -18 65 -33c32 -27 65 -70 65 -142c0 -104 -91 -205 -235 -205c-80 0 -139 25 -178 52c-23 15 -42 33 -57 53z" />
    <glyph glyph-name="four" unicode="4" horiz-adv-x="585" 
d="M30 150v85l335 465h95v-480h90v-70h-90v-150h-75v150h-355zM100 220h285v395z" />
    <glyph glyph-name="five" unicode="5" horiz-adv-x="605" 
d="M75 95l50 50c13 -17 28 -31 45 -43c31 -21 75 -42 135 -42c100 0 165 64 165 160s-64 160 -160 160c-53 0 -92 -19 -117 -38c-15 -11 -28 -24 -38 -37h-55l25 395h375v-70h-310l-15 -220c11 7 23 14 36 20c23 11 56 20 99 20c136 0 235 -99 235 -230
c0 -135 -95 -230 -240 -230c-79 0 -134 25 -173 52c-22 15 -41 33 -57 53z" />
    <glyph glyph-name="six" unicode="6" horiz-adv-x="590" 
d="M105 370l210 330h75l-165 -260l20 5c13 3 32 5 55 5c136 0 235 -99 235 -230s-100 -230 -240 -230s-240 99 -240 230c0 43 12 80 25 107c7 16 16 30 25 43zM130 220c0 -96 65 -160 165 -160s165 64 165 160s-65 160 -165 160s-165 -64 -165 -160z" />
    <glyph glyph-name="seven" unicode="7" horiz-adv-x="495" 
d="M80 0l310 630h-360v70h440v-70l-310 -630h-80z" />
    <glyph glyph-name="eight" unicode="8" horiz-adv-x="590" 
d="M60 205c0 65 29 108 60 136c17 16 37 29 60 39c-17 9 -32 20 -45 33c-23 23 -45 59 -45 112c0 95 90 185 205 185s205 -90 205 -185c0 -53 -22 -89 -45 -112c-13 -13 -28 -24 -45 -33c23 -10 43 -23 60 -39c31 -28 60 -71 60 -136c0 -115 -99 -215 -235 -215
s-235 100 -235 215zM165 525c0 -65 50 -115 130 -115s130 50 130 115s-50 115 -130 115s-130 -50 -130 -115zM135 205c0 -75 60 -145 160 -145s160 70 160 145s-70 145 -160 145s-160 -70 -160 -145z" />
    <glyph glyph-name="nine" unicode="9" horiz-adv-x="590" 
d="M200 0l165 260c-6 -2 -13 -4 -20 -5c-15 -3 -33 -5 -55 -5c-136 0 -235 99 -235 230s100 230 240 230s240 -99 240 -230c0 -43 -13 -80 -25 -107c-7 -16 -16 -30 -25 -43l-210 -330h-75zM130 480c0 -96 65 -160 165 -160s165 64 165 160s-65 160 -165 160
s-165 -64 -165 -160z" />
    <glyph glyph-name="colon" unicode=":" horiz-adv-x="210" 
d="M55 40c0 31 19 50 50 50s50 -19 50 -50s-19 -50 -50 -50s-50 19 -50 50zM55 440c0 31 19 50 50 50s50 -19 50 -50s-19 -50 -50 -50s-50 19 -50 50z" />
    <glyph glyph-name="semicolon" unicode=";" horiz-adv-x="220" 
d="M0 -105l90 195l70 -40l-115 -180zM65 440c0 31 19 50 50 50s50 -19 50 -50s-19 -50 -50 -50s-50 19 -50 50z" />
    <glyph glyph-name="less" unicode="&#x3c;" horiz-adv-x="495" 
d="M45 225v40l405 215v-70l-315 -165l315 -165v-70z" />
    <glyph glyph-name="equal" unicode="=" horiz-adv-x="495" 
d="M45 350v65h405v-65h-405zM45 175v65h405v-65h-405z" />
    <glyph glyph-name="greater" unicode="&#x3e;" horiz-adv-x="495" 
d="M45 10v70l315 165l-315 165v70l405 -215v-40z" />
    <glyph glyph-name="question" unicode="?" horiz-adv-x="525" 
d="M285 170h-70l-3 14c-1 8 -2 19 -2 31c0 161 195 170 195 305c0 65 -55 120 -145 120c-65 0 -103 -28 -126 -55c-13 -17 -23 -35 -29 -55l-65 20c9 30 23 57 42 80c32 40 87 80 178 80c131 0 220 -90 220 -190c0 -190 -195 -165 -195 -330v-20zM200 40c0 31 19 50 50 50
s50 -19 50 -50s-19 -50 -50 -50s-50 19 -50 50z" />
    <glyph glyph-name="at" unicode="@" horiz-adv-x="900" 
d="M640 -5l35 -45c-17 -15 -36 -28 -58 -40c-39 -20 -95 -40 -167 -40c-205 0 -380 175 -380 380s175 380 380 380c213 0 380 -165 380 -360c0 -144 -71 -210 -155 -210c-41 0 -68 16 -85 35c-10 10 -18 22 -25 35c-7 -13 -17 -25 -29 -35c-21 -19 -54 -35 -101 -35
c-90 0 -170 80 -170 185s80 185 170 185c43 0 73 -13 92 -28c11 -8 21 -17 28 -27v50h60v-228c0 -55 23 -77 60 -77c47 0 90 39 90 150c0 169 -132 300 -315 300c-175 0 -315 -140 -315 -320s140 -320 315 -320c60 0 107 16 140 32c19 9 35 20 50 33zM440 120
c65 0 115 49 115 125s-50 125 -115 125c-61 0 -110 -50 -110 -125s49 -125 110 -125z" />
    <glyph glyph-name="A" unicode="A" horiz-adv-x="690" 
d="M20 0l290 700h70l290 -700h-80l-80 195h-330l-80 -195h-80zM210 265h270l-135 330z" />
    <glyph glyph-name="B" unicode="B" horiz-adv-x="665" 
d="M105 0v700h270c115 0 195 -80 195 -180c0 -56 -20 -91 -40 -114c-12 -13 -25 -24 -40 -31c21 -10 40 -23 57 -39c29 -28 58 -71 58 -136c0 -115 -85 -200 -215 -200h-285zM180 406h195c76 0 120 43 120 114c0 65 -44 110 -120 110h-195v-224zM180 70h210
c85 0 140 54 140 130c0 75 -55 140 -140 140h-210v-270z" />
    <glyph glyph-name="C" unicode="C" horiz-adv-x="750" 
d="M660 180l50 -45c-21 -27 -45 -52 -74 -73c-49 -36 -120 -72 -216 -72c-200 0 -360 160 -360 360s160 360 360 360c96 0 166 -37 214 -73c27 -21 51 -45 71 -72l-50 -45c-16 23 -35 43 -58 60c-39 31 -97 60 -177 60c-160 0 -285 -125 -285 -290s125 -290 285 -290
c80 0 140 29 180 60c23 17 43 37 60 60z" />
    <glyph glyph-name="D" unicode="D" horiz-adv-x="750" 
d="M105 0v700h220c205 0 365 -161 365 -350s-160 -350 -365 -350h-220zM180 70h145c165 0 290 125 290 280s-125 280 -290 280h-145v-560z" />
    <glyph glyph-name="E" unicode="E" horiz-adv-x="640" 
d="M105 0v700h480v-70h-405v-230h325v-70h-325v-260h415v-70h-490z" />
    <glyph glyph-name="F" unicode="F" horiz-adv-x="615" 
d="M105 0v700h475v-70h-400v-240h320v-70h-320v-320h-75z" />
    <glyph glyph-name="G" unicode="G" horiz-adv-x="795" 
d="M480 290v70h235v-225c-21 -27 -47 -52 -76 -73c-51 -36 -123 -72 -219 -72c-200 0 -360 160 -360 360s160 360 360 360c96 0 166 -37 214 -73c27 -21 51 -45 71 -72l-50 -45c-16 23 -35 43 -58 60c-39 31 -97 60 -177 60c-160 0 -285 -125 -285 -290s125 -290 285 -290
c76 0 130 23 166 47c21 14 39 30 54 48v135h-160z" />
    <glyph glyph-name="H" unicode="H" horiz-adv-x="750" 
d="M105 0v700h75v-310h390v310h75v-700h-75v320h-390v-320h-75z" />
    <glyph glyph-name="I" unicode="I" horiz-adv-x="285" 
d="M105 0v700h75v-700h-75z" />
    <glyph glyph-name="J" unicode="J" horiz-adv-x="495" 
d="M10 70l50 50c8 -11 18 -21 30 -30c20 -15 50 -30 90 -30c85 0 140 54 140 145v495h75v-495c0 -125 -90 -215 -215 -215c-56 0 -97 20 -126 40c-17 12 -32 25 -44 40z" />
    <glyph glyph-name="K" unicode="K" horiz-adv-x="670" 
d="M105 0v700h75v-395l360 395h95l-265 -290l290 -410h-90l-250 355l-140 -150v-205h-75z" />
    <glyph glyph-name="L" unicode="L" horiz-adv-x="560" 
d="M105 0v700h75v-630h360v-70h-435z" />
    <glyph glyph-name="M" unicode="M" horiz-adv-x="920" 
d="M105 0v700h65l290 -380l290 380h65v-700h-75v570l-280 -370l-280 370v-570h-75z" />
    <glyph glyph-name="N" unicode="N" horiz-adv-x="780" 
d="M105 0v700h65l430 -565v565h75v-700h-65l-430 565v-565h-75z" />
    <glyph glyph-name="O" unicode="O" horiz-adv-x="840" 
d="M60 350c0 200 160 360 360 360s360 -160 360 -360s-160 -360 -360 -360s-360 160 -360 360zM420 60c160 0 285 125 285 290s-125 290 -285 290s-285 -125 -285 -290s125 -290 285 -290z" />
    <glyph glyph-name="P" unicode="P" horiz-adv-x="650" 
d="M105 0v700h265c130 0 225 -96 225 -220s-95 -220 -225 -220h-190v-260h-75zM180 330h190c91 0 150 59 150 150s-59 150 -150 150h-190v-300z" />
    <glyph glyph-name="Q" unicode="Q" horiz-adv-x="840" 
d="M810 -70v-65l-11 -3c-8 -1 -19 -2 -34 -2c-96 0 -160 35 -201 70c-24 21 -44 44 -59 70c-7 -2 -15 -4 -24 -5c-17 -3 -37 -5 -61 -5c-200 0 -360 160 -360 360s160 360 360 360s360 -160 360 -360c0 -120 -52 -202 -103 -253c-30 -30 -64 -54 -102 -72
c11 -19 26 -35 44 -50c31 -25 78 -50 146 -50c15 0 26 1 34 2zM420 60c160 0 285 125 285 290s-125 290 -285 290s-285 -125 -285 -290s125 -290 285 -290z" />
    <glyph glyph-name="R" unicode="R" horiz-adv-x="675" 
d="M105 0v700h280c125 0 215 -90 215 -210c0 -80 -37 -129 -73 -160c-21 -17 -45 -31 -72 -40l165 -290h-85l-155 280h-200v-280h-75zM180 350h205c85 0 140 55 140 140s-55 140 -140 140h-205v-280z" />
    <glyph glyph-name="S" unicode="S" horiz-adv-x="565" 
d="M45 95l45 51c13 -17 28 -31 46 -43c31 -23 79 -43 144 -43c105 0 160 54 160 130c0 179 -380 81 -380 330c0 101 86 190 225 190c68 0 118 -22 153 -45c20 -13 37 -28 52 -45l-50 -50c-11 13 -24 24 -39 35c-27 17 -64 35 -116 35c-96 0 -150 -57 -150 -120
c0 -180 380 -81 380 -330c0 -115 -85 -200 -235 -200c-80 0 -139 25 -178 52c-23 15 -42 33 -57 53z" />
    <glyph glyph-name="T" unicode="T" horiz-adv-x="555" 
d="M240 0v630h-220v70h515v-70h-220v-630h-75z" />
    <glyph glyph-name="U" unicode="U" horiz-adv-x="760" 
d="M95 275v425h75v-425c0 -125 90 -215 210 -215s210 90 210 215v425h75v-425c0 -160 -125 -285 -285 -285s-285 125 -285 285z" />
    <glyph glyph-name="V" unicode="V" horiz-adv-x="680" 
d="M305 0l-275 700h80l230 -595l230 595h80l-275 -700h-70z" />
    <glyph glyph-name="W" unicode="W" horiz-adv-x="1040" 
d="M260 0l-230 700h80l185 -585l190 585h70l190 -585l185 585h80l-230 -700h-75l-185 585l-185 -585h-75z" />
    <glyph glyph-name="X" unicode="X" horiz-adv-x="650" 
d="M20 0l260 365l-240 335h90l195 -275l195 275h90l-240 -335l260 -365h-90l-215 305l-215 -305h-90z" />
    <glyph glyph-name="Y" unicode="Y" horiz-adv-x="635" 
d="M280 0v245l-260 455h85l210 -375h5l210 375h85l-260 -455v-245h-75z" />
    <glyph glyph-name="Z" unicode="Z" 
d="M45 0v70l410 560h-395v70h485v-70l-410 -560h420v-70h-510z" />
    <glyph glyph-name="bracketleft" unicode="[" horiz-adv-x="335" 
d="M90 -210v920h205v-65h-135v-790h135v-65h-205z" />
    <glyph glyph-name="backslash" unicode="\" horiz-adv-x="365" 
d="M300 -210l-300 920h65l300 -920h-65z" />
    <glyph glyph-name="bracketright" unicode="]" horiz-adv-x="335" 
d="M40 -210v65h135v790h-135v65h205v-920h-205z" />
    <glyph glyph-name="asciicircum" unicode="^" horiz-adv-x="400" 
d="M45 420l130 280h50l130 -280h-65l-90 200l-90 -200h-65z" />
    <glyph glyph-name="underscore" unicode="_" horiz-adv-x="330" 
d="M-10 -170v65h350v-65h-350z" />
    <glyph glyph-name="grave" unicode="`" horiz-adv-x="210" 
d="M125 565l-95 135h75l75 -135h-55z" />
    <glyph glyph-name="a" unicode="a" horiz-adv-x="520" 
d="M370 0v65c-10 -14 -23 -27 -38 -38c-27 -19 -65 -37 -117 -37c-100 0 -170 70 -170 140c0 80 49 130 140 145l185 30c0 71 -49 120 -120 120c-43 0 -76 -18 -99 -35c-13 -11 -25 -22 -36 -35l-45 45c13 17 29 32 47 45c31 23 74 45 133 45c110 0 190 -80 190 -185v-305
h-70zM370 215v30l-165 -30c-60 -11 -90 -40 -90 -85c0 -40 35 -75 100 -75c91 0 155 64 155 160z" />
    <glyph glyph-name="b" unicode="b" 
d="M85 0v700h70v-290c11 15 24 28 41 40c27 20 68 40 124 40c130 0 235 -105 235 -250s-105 -250 -235 -250c-56 0 -97 20 -124 40c-17 12 -30 25 -41 40v-70h-70zM320 55c91 0 165 76 165 185s-74 185 -165 185c-84 0 -165 -80 -165 -185s81 -185 165 -185z" />
    <glyph glyph-name="c" unicode="c" horiz-adv-x="515" 
d="M435 135l50 -45c-15 -19 -33 -35 -53 -50c-35 -25 -84 -50 -147 -50c-131 0 -240 110 -240 250s109 250 240 250c63 0 111 -24 144 -48c19 -14 36 -30 51 -47l-50 -50c-11 15 -23 28 -37 40c-24 20 -61 40 -108 40c-90 0 -170 -80 -170 -185s80 -185 170 -185
c47 0 84 20 111 40c15 12 28 25 39 40z" />
    <glyph glyph-name="d" unicode="d" 
d="M445 0v70c-11 -15 -25 -28 -41 -40c-28 -20 -68 -40 -124 -40c-130 0 -235 105 -235 250s105 250 235 250c56 0 96 -20 124 -40c16 -12 30 -25 41 -40v290h70v-700h-70zM280 55c84 0 165 80 165 185s-81 185 -165 185c-91 0 -165 -76 -165 -185s74 -185 165 -185z" />
    <glyph glyph-name="e" unicode="e" horiz-adv-x="555" 
d="M440 135l45 -45c-14 -19 -31 -35 -51 -50c-35 -25 -84 -50 -149 -50c-131 0 -240 110 -240 250s110 250 235 250c131 0 230 -100 230 -240c0 -11 -2 -19 -3 -26l-2 -10l-390 1c5 -85 79 -160 170 -160c51 0 88 20 115 40c15 12 29 25 40 40zM115 275h325
c-11 85 -75 150 -160 150c-86 0 -154 -70 -165 -150z" />
    <glyph glyph-name="f" unicode="f" horiz-adv-x="320" 
d="M105 0v415h-75v65h75v90c0 91 50 140 130 140c20 0 37 -4 50 -8c7 -3 14 -5 20 -7v-65l-19 7c-12 4 -29 8 -46 8c-40 0 -65 -24 -65 -75v-90h115v-65h-115v-415h-70z" />
    <glyph glyph-name="g" unicode="g" horiz-adv-x="580" 
d="M65 -110l45 45c11 -15 25 -28 40 -40c27 -20 64 -40 115 -40c91 0 165 75 165 175v55c-9 -14 -22 -27 -37 -38c-27 -19 -66 -37 -123 -37c-125 0 -225 105 -225 240s100 240 225 240c57 0 96 -19 123 -38c15 -11 28 -24 37 -37v65h70v-450c0 -135 -105 -240 -235 -240
c-68 0 -118 25 -151 50c-19 15 -36 31 -49 50zM270 75c90 0 160 75 160 175s-70 175 -160 175c-84 0 -155 -75 -155 -175s71 -175 155 -175z" />
    <glyph glyph-name="h" unicode="h" horiz-adv-x="585" 
d="M85 0v700h70v-290c10 15 23 28 38 40c27 20 64 40 117 40c115 0 195 -80 195 -205v-285h-70v285c0 85 -54 140 -130 140c-85 0 -150 -64 -150 -160v-265h-70z" />
    <glyph glyph-name="i" unicode="i" horiz-adv-x="230" 
d="M70 640c0 25 20 45 45 45s45 -20 45 -45s-20 -45 -45 -45s-45 20 -45 45zM80 0v480h70v-480h-70z" />
    <glyph glyph-name="j" unicode="j" horiz-adv-x="230" 
d="M70 640c0 25 20 45 45 45s45 -20 45 -45s-20 -45 -45 -45s-45 20 -45 45zM-40 -195v65l16 -8c11 -5 24 -7 39 -7c40 0 65 24 65 75v550h70v-550c0 -93 -43 -140 -130 -140c-19 0 -32 3 -43 7c-7 3 -12 5 -17 8z" />
    <glyph glyph-name="k" unicode="k" horiz-adv-x="510" 
d="M85 0v700h70v-475l240 255h85l-185 -195l205 -285h-80l-170 235l-95 -100v-135h-70z" />
    <glyph glyph-name="l" unicode="l" horiz-adv-x="240" 
d="M85 0v700h70v-700h-70z" />
    <glyph glyph-name="m" unicode="m" horiz-adv-x="870" 
d="M80 0v480h70v-60c9 13 19 24 32 35c23 17 55 35 103 35c57 0 97 -22 121 -43c14 -12 25 -26 34 -42c9 16 22 30 37 42c27 21 68 43 128 43c105 0 185 -71 185 -205v-285h-70v285c0 92 -49 140 -120 140c-69 0 -130 -60 -130 -160v-265h-70v285c0 91 -49 140 -120 140
c-69 0 -130 -60 -130 -160v-265h-70z" />
    <glyph glyph-name="n" unicode="n" horiz-adv-x="580" 
d="M80 0v480h70v-70c10 15 23 28 38 40c27 20 64 40 117 40c115 0 195 -80 195 -205v-285h-70v285c0 85 -54 140 -130 140c-85 0 -150 -64 -150 -160v-265h-70z" />
    <glyph glyph-name="o" unicode="o" horiz-adv-x="580" 
d="M290 -10c-135 0 -245 110 -245 250s110 250 245 250s245 -110 245 -250s-110 -250 -245 -250zM290 55c95 0 175 80 175 185s-80 185 -175 185s-175 -80 -175 -185c0 -104 80 -185 175 -185z" />
    <glyph glyph-name="p" unicode="p" horiz-adv-x="595" 
d="M80 -210v690h70v-70c11 15 24 28 41 40c27 20 68 40 124 40c130 0 235 -105 235 -250s-105 -250 -235 -250c-56 0 -97 20 -124 40c-17 12 -30 25 -41 40v-280h-70zM315 55c91 0 165 76 165 185s-74 185 -165 185c-84 0 -165 -80 -165 -185s81 -185 165 -185z" />
    <glyph glyph-name="q" unicode="q" horiz-adv-x="595" 
d="M445 -210v280c-11 -15 -25 -28 -41 -40c-28 -20 -68 -40 -124 -40c-130 0 -235 105 -235 250s105 250 235 250c56 0 96 -20 124 -40c16 -12 30 -25 41 -40v70h70v-690h-70zM280 55c84 0 165 80 165 185s-81 185 -165 185c-91 0 -165 -76 -165 -185s74 -185 165 -185z" />
    <glyph glyph-name="r" unicode="r" horiz-adv-x="345" 
d="M80 0v480h70v-65c11 13 24 26 39 37c27 19 65 38 121 38h20v-70h-30c-80 0 -150 -60 -150 -155v-265h-70z" />
    <glyph glyph-name="s" unicode="s" horiz-adv-x="430" 
d="M35 75l50 50c9 -13 20 -25 32 -35c21 -19 53 -35 93 -35c71 0 105 35 105 80c0 110 -260 55 -260 220c0 69 64 135 160 135c51 0 88 -17 115 -33c15 -9 29 -20 40 -32l-50 -50c-7 9 -16 18 -26 25c-19 12 -44 25 -79 25c-55 0 -90 -35 -90 -70c0 -105 260 -50 260 -220
c0 -80 -66 -145 -175 -145c-60 0 -104 21 -133 42c-17 12 -31 26 -42 43z" />
    <glyph glyph-name="t" unicode="t" horiz-adv-x="360" 
d="M120 130v285h-90v65h55c27 0 40 17 40 50v110h65v-160h105v-65h-105v-285c0 -51 25 -75 65 -75c17 0 34 3 46 7c7 3 14 5 19 8v-65c-6 -3 -13 -5 -20 -8c-12 -4 -29 -7 -48 -7c-83 0 -132 49 -132 140z" />
    <glyph glyph-name="u" unicode="u" horiz-adv-x="585" 
d="M80 200v280h70v-280c0 -85 60 -145 135 -145c80 0 145 64 145 160v265h70v-480h-70v65c-10 -14 -23 -27 -38 -38c-27 -19 -65 -37 -117 -37c-110 0 -195 85 -195 210z" />
    <glyph glyph-name="v" unicode="v" horiz-adv-x="490" 
d="M210 0l-195 480h75l155 -385l155 385h75l-195 -480h-70z" />
    <glyph glyph-name="w" unicode="w" horiz-adv-x="730" 
d="M180 0l-165 480h75l125 -370l120 370h60l120 -370l125 370h75l-165 -480h-65l-120 365l-120 -365h-65z" />
    <glyph glyph-name="x" unicode="x" horiz-adv-x="480" 
d="M15 0l180 250l-165 230h85l125 -175l125 175h85l-165 -230l180 -250h-85l-140 195l-140 -195h-85z" />
    <glyph glyph-name="y" unicode="y" horiz-adv-x="490" 
d="M45 -200v65c5 -2 11 -4 16 -5c10 -3 21 -5 34 -5c45 0 71 24 90 75l25 70l-195 480h75l155 -390l155 390h75l-220 -550c-40 -100 -81 -140 -150 -140c-17 0 -31 2 -43 5c-7 1 -12 3 -17 5z" />
    <glyph glyph-name="z" unicode="z" horiz-adv-x="465" 
d="M40 0v65l290 350h-280v65h365v-65l-290 -350h300v-65h-385z" />
    <glyph glyph-name="braceleft" unicode="{" horiz-adv-x="355" 
d="M130 -75v225c0 47 -23 70 -70 70v60c47 0 70 23 70 70v225c0 80 54 135 150 135h40v-60h-40c-56 0 -85 -30 -85 -75v-225c0 -43 -15 -67 -30 -82c-9 -8 -19 -14 -30 -18c11 -4 21 -10 30 -18c15 -15 30 -39 30 -82v-225c0 -45 29 -75 85 -75h40v-60h-40
c-96 0 -150 55 -150 135z" />
    <glyph glyph-name="bar" unicode="|" horiz-adv-x="305" 
d="M120 -210v920h65v-920h-65z" />
    <glyph glyph-name="braceright" unicode="}" horiz-adv-x="355" 
d="M35 -210v60h40c56 0 85 30 85 75v225c0 43 15 67 30 82c9 8 19 14 30 18c-11 4 -21 10 -30 18c-15 15 -30 39 -30 82v225c0 45 -29 75 -85 75h-40v60h40c96 0 150 -55 150 -135v-225c0 -47 23 -70 70 -70v-60c-47 0 -70 -23 -70 -70v-225c0 -80 -54 -135 -150 -135h-40z
" />
    <glyph glyph-name="asciitilde" unicode="~" horiz-adv-x="530" 
d="M80 240l-45 35c9 16 21 30 34 42c23 21 56 43 101 43c99 0 116 -70 190 -70c32 0 54 15 69 30c8 9 15 19 21 30l45 -35c-10 -17 -21 -31 -34 -43c-23 -21 -56 -42 -101 -42c-100 0 -115 70 -190 70c-33 0 -54 -15 -69 -30c-8 -9 -15 -19 -21 -30z" />
    <glyph glyph-name="nbspace" unicode="&#xa0;" horiz-adv-x="210" 
 />
    <glyph glyph-name="exclamdown" unicode="&#xa1;" horiz-adv-x="280" 
d="M90 440c0 31 19 50 50 50s50 -19 50 -50s-19 -50 -50 -50s-50 19 -50 50zM95 -210l15 520h60l15 -520h-90z" />
    <glyph glyph-name="cent" unicode="&#xa2;" horiz-adv-x="500" 
d="M250 -110v103c-110 16 -205 112 -205 247c0 129 95 231 205 247v103h65v-104c51 -8 88 -30 115 -49c15 -12 29 -24 40 -37l-45 -45c-10 13 -22 24 -36 35c-24 17 -59 35 -104 35c-90 0 -170 -80 -170 -185s80 -185 170 -185c45 0 80 16 104 35c14 10 26 22 36 35l45 -45
c-11 -14 -25 -27 -40 -39c-27 -20 -64 -42 -115 -47v-104h-65z" />
    <glyph glyph-name="sterling" unicode="&#xa3;" horiz-adv-x="560" 
d="M65 0v70c40 0 70 30 70 65v155h-65v70h65v130c0 131 90 220 215 220c60 0 104 -22 135 -43c17 -12 32 -26 45 -42l-50 -50c-9 12 -20 23 -33 32c-23 16 -54 33 -97 33c-80 0 -145 -65 -145 -150v-130h205v-70h-205v-155c0 -23 -6 -38 -13 -49c-3 -7 -7 -12 -12 -16h350
v-70h-465z" />
    <glyph glyph-name="currency" unicode="&#xa4;" horiz-adv-x="610" 
d="M100 180l58 58c-5 7 -10 16 -14 26c-7 17 -14 40 -14 71s7 54 14 71c4 10 9 19 14 26l-58 58l50 50l58 -58c7 5 16 10 26 14c17 7 40 14 71 14s54 -7 71 -14c10 -4 19 -9 26 -14l58 58l50 -50l-58 -58c5 -7 10 -16 14 -26c7 -17 14 -40 14 -71s-7 -54 -14 -71
c-4 -10 -9 -19 -14 -26l58 -58l-50 -50l-58 58c-7 -5 -16 -10 -26 -14c-17 -7 -40 -14 -71 -14s-54 7 -71 14c-10 4 -19 9 -26 14l-58 -58zM305 220c65 0 110 44 110 115s-45 115 -110 115s-110 -44 -110 -115s45 -115 110 -115z" />
    <glyph glyph-name="yen" unicode="&#xa5;" horiz-adv-x="635" 
d="M120 115v65h160v65l-6 10h-154v65h117l-217 380h85l210 -375h5l210 375h85l-218 -380h118v-65h-155l-5 -10v-65h160v-65h-160v-115h-75v115h-160z" />
    <glyph glyph-name="brokenbar" unicode="&#xa6;" horiz-adv-x="305" 
d="M120 330v380h65v-380h-65zM120 -210v380h65v-380h-65z" />
    <glyph glyph-name="section" unicode="&#xa7;" horiz-adv-x="540" 
d="M75 -20l50 50c9 -14 20 -27 33 -38c23 -19 54 -37 97 -37c80 0 125 44 125 95c0 119 -315 80 -315 270c0 47 25 80 50 103c15 13 31 23 50 32c-13 6 -25 14 -35 24c-19 17 -35 42 -35 81c0 80 70 150 180 150c51 0 91 -18 118 -35c16 -11 30 -22 42 -35l-50 -46
c-9 9 -19 18 -30 25c-19 13 -47 26 -80 26c-71 0 -110 -40 -110 -85c0 -120 310 -80 310 -270c0 -48 -25 -80 -50 -101c-15 -12 -31 -22 -50 -29c13 -7 26 -16 37 -27c19 -19 38 -46 38 -83c0 -85 -75 -160 -195 -160c-60 0 -104 22 -135 45c-17 13 -32 28 -45 45zM315 195
c17 4 32 10 45 18c23 15 45 38 45 77c0 89 -144 114 -180 130c-17 -5 -32 -11 -45 -20c-23 -15 -45 -40 -45 -80c0 -90 145 -109 180 -125z" />
    <glyph glyph-name="dieresis" unicode="&#xa8;" horiz-adv-x="340" 
d="M30 635c0 25 20 45 45 45s45 -20 45 -45s-20 -45 -45 -45s-45 20 -45 45zM220 635c0 25 20 45 45 45s45 -20 45 -45s-20 -45 -45 -45s-45 20 -45 45z" />
    <glyph glyph-name="copyright" unicode="&#xa9;" horiz-adv-x="880" 
d="M75 350c0 200 161 360 365 360s365 -160 365 -360s-161 -360 -365 -360s-365 160 -365 360zM140 350c0 -170 130 -300 300 -300s300 130 300 300s-130 300 -300 300s-300 -130 -300 -300zM555 275l40 -40c-11 -14 -23 -27 -38 -38c-25 -19 -61 -37 -112 -37
c-110 0 -190 80 -190 190s80 190 190 190c51 0 87 -19 112 -38c15 -11 27 -24 38 -37l-40 -40c-7 10 -16 19 -27 27c-19 15 -46 28 -83 28c-76 0 -130 -54 -130 -130s54 -130 130 -130c37 0 64 12 83 27c11 8 20 17 27 28z" />
    <glyph glyph-name="ordfeminine" unicode="&#xaa;" horiz-adv-x="330" 
d="M230 415v40c-5 -9 -13 -18 -22 -25c-16 -13 -41 -25 -78 -25c-55 0 -95 40 -95 80c0 49 30 79 90 90l105 20c0 40 -25 65 -65 65c-25 0 -44 -9 -56 -20c-7 -6 -14 -13 -19 -20l-35 30c7 11 16 21 27 30c19 15 44 30 83 30c76 0 115 -39 115 -110v-185h-50zM230 540v10
l-95 -20c-30 -6 -45 -19 -45 -40c0 -27 17 -40 50 -40c51 0 90 38 90 90z" />
    <glyph glyph-name="guillemotleft" unicode="&#xab;" horiz-adv-x="465" 
d="M160 75l-115 165l115 165h75l-115 -165l115 -165h-75zM345 75l-115 165l115 165h75l-115 -165l115 -165h-75z" />
    <glyph glyph-name="logicalnot" unicode="&#xac;" horiz-adv-x="460" 
d="M45 325v65h375v-205h-70v140h-305z" />
    <glyph glyph-name="uni00AD" unicode="&#xad;" horiz-adv-x="395" 
d="M45 265v65h305v-65h-305z" />
    <glyph glyph-name="registered" unicode="&#xae;" horiz-adv-x="880" 
d="M75 350c0 200 161 360 365 360s365 -160 365 -360s-161 -360 -365 -360s-365 160 -365 360zM140 350c0 -170 130 -300 300 -300s300 130 300 300s-130 300 -300 300s-300 -130 -300 -300zM315 165v370h141c75 0 124 -50 124 -115c0 -39 -18 -62 -35 -78
c-11 -9 -22 -17 -35 -22l90 -155h-64l-76 140h-85v-140h-60zM375 365h85c43 0 65 18 65 55s-22 55 -65 55h-85v-110z" />
    <glyph glyph-name="overscore" unicode="&#xaf;" horiz-adv-x="350" 
d="M30 635v55h290v-55h-290z" />
    <glyph glyph-name="degree" unicode="&#xb0;" horiz-adv-x="360" 
d="M40 575c0 75 60 135 140 135s140 -60 140 -135s-60 -135 -140 -135s-140 60 -140 135zM100 575c0 -45 35 -80 80 -80s80 35 80 80s-35 80 -80 80s-80 -35 -80 -80z" />
    <glyph glyph-name="plusminus" unicode="&#xb1;" horiz-adv-x="515" 
d="M225 155v190h-185v65h185v190h65v-190h185v-65h-185v-190h-65zM45 25v65h425v-65h-425z" />
    <glyph glyph-name="uni00B2" unicode="&#xb2;" horiz-adv-x="300" 
d="M95 500h170v-50h-235c0 150 180 170 180 250c0 31 -25 55 -60 55c-25 0 -43 -13 -54 -28c-7 -8 -12 -17 -16 -27l-45 15c5 17 12 32 22 45c17 23 45 45 93 45c71 0 115 -45 115 -105c0 -110 -134 -120 -170 -200z" />
    <glyph glyph-name="uni00B3" unicode="&#xb3;" horiz-adv-x="310" 
d="M25 505l35 40c7 -9 16 -18 25 -25c16 -13 39 -25 70 -25c43 0 65 18 65 55c0 35 -25 60 -70 60h-40v50h40c35 0 55 19 55 50c0 25 -20 45 -60 45c-24 0 -43 -11 -55 -22c-7 -7 -14 -14 -19 -22l-36 37c8 11 17 20 28 28c19 15 45 29 82 29c71 0 115 -44 115 -95
c0 -31 -9 -49 -20 -60c-6 -7 -13 -12 -20 -15c10 -3 19 -9 27 -16c15 -13 28 -34 28 -69c0 -60 -44 -105 -120 -105c-45 0 -78 15 -99 30c-12 9 -22 19 -31 30z" />
    <glyph glyph-name="acute" unicode="&#xb4;" horiz-adv-x="210" 
d="M30 565l75 135h75l-95 -135h-55z" />
    <glyph glyph-name="uni00B5" unicode="&#xb5;" horiz-adv-x="580" 
d="M75 -210v690h70v-285c0 -85 54 -140 130 -140c80 0 140 60 140 155v270h70v-380c0 -25 20 -45 45 -45c7 0 13 1 18 2l7 3v-65l-8 -3c-5 -1 -11 -2 -22 -2c-51 0 -75 20 -90 40c-8 12 -13 25 -15 40c-10 -15 -22 -28 -36 -40c-24 -20 -62 -40 -114 -40c-43 0 -73 9 -94 20
c-12 6 -22 13 -31 20v-240h-70z" />
    <glyph glyph-name="paragraph" unicode="&#xb6;" horiz-adv-x="540" 
d="M210 -100v470c-91 0 -165 74 -165 165s74 165 165 165h235v-800h-65v735h-105v-735h-65z" />
    <glyph glyph-name="middot" unicode="&#xb7;" horiz-adv-x="210" 
d="M55 250c0 31 19 50 50 50s50 -19 50 -50s-19 -50 -50 -50s-50 19 -50 50z" />
    <glyph glyph-name="cedilla" unicode="&#xb8;" horiz-adv-x="240" 
d="M30 -173l20 33c5 -5 10 -10 17 -13c11 -7 28 -12 48 -12c31 0 50 20 50 40s-15 35 -40 35c-9 0 -17 -2 -22 -5c-3 -2 -5 -4 -8 -5l-25 25l45 95h45l-35 -75h5c51 0 80 -29 80 -72s-35 -78 -95 -78c-25 0 -46 8 -61 16c-9 5 -17 10 -24 16z" />
    <glyph glyph-name="uni00B9" unicode="&#xb9;" horiz-adv-x="220" 
d="M95 450v265h-65v40c31 0 49 11 60 22c7 7 12 14 15 23h45v-350h-55z" />
    <glyph glyph-name="ordmasculine" unicode="&#xba;" horiz-adv-x="360" 
d="M180 400c-85 0 -150 64 -150 155s65 155 150 155s150 -64 150 -155s-65 -155 -150 -155zM180 450c56 0 95 40 95 105s-39 105 -95 105s-95 -40 -95 -105s39 -105 95 -105z" />
    <glyph glyph-name="guillemotright" unicode="&#xbb;" horiz-adv-x="465" 
d="M45 75l115 165l-115 165h75l115 -165l-115 -165h-75zM230 75l115 165l-115 165h75l115 -165l-115 -165h-75z" />
    <glyph glyph-name="onequarter" unicode="&#xbc;" horiz-adv-x="655" 
d="M105 350v265h-65v40c31 0 49 11 60 22c7 7 12 14 15 23h45v-350h-55zM65 0l430 700h65l-430 -700h-65zM365 80v50l155 220h65v-220h40v-50h-40v-80h-55v80h-165zM420 130h110v155z" />
    <glyph glyph-name="onehalf" unicode="&#xbd;" horiz-adv-x="690" 
d="M105 350v265h-65v40c31 0 49 11 60 22c7 7 12 14 15 23h45v-350h-55zM65 0l430 700h65l-430 -700h-65zM480 50h170v-50h-235c0 150 180 170 180 250c0 31 -25 55 -60 55c-25 0 -43 -13 -54 -28c-7 -8 -12 -17 -16 -27l-45 15c5 17 12 32 22 45c17 23 45 45 93 45
c71 0 115 -45 115 -105c0 -110 -134 -120 -170 -200z" />
    <glyph glyph-name="threequarters" unicode="&#xbe;" horiz-adv-x="720" 
d="M30 405l35 40c7 -9 16 -18 25 -25c16 -13 39 -25 70 -25c43 0 65 18 65 55c0 35 -25 60 -70 60h-40v50h40c35 0 55 19 55 50c0 25 -20 45 -60 45c-24 0 -43 -11 -55 -22c-7 -7 -14 -14 -19 -22l-36 37c8 11 17 20 28 28c19 15 45 29 82 29c71 0 115 -44 115 -95
c0 -31 -9 -49 -20 -60c-6 -7 -13 -12 -20 -15c10 -3 19 -9 27 -16c15 -13 28 -34 28 -69c0 -60 -44 -105 -120 -105c-45 0 -78 15 -99 30c-12 9 -22 19 -31 30zM130 0l430 700h65l-430 -700h-65zM430 80v50l155 220h65v-220h40v-50h-40v-80h-55v80h-165zM485 130h110v155z
" />
    <glyph glyph-name="questiondown" unicode="&#xbf;" horiz-adv-x="465" 
d="M210 440c0 31 19 50 50 50s50 -19 50 -50s-19 -50 -50 -50s-50 19 -50 50zM400 -40l65 -20c-9 -30 -22 -57 -40 -80c-31 -40 -86 -80 -175 -80c-131 0 -220 90 -220 190c0 190 195 156 195 320v20h70l2 -14c1 -8 3 -20 3 -31c0 -160 -195 -161 -195 -295
c0 -65 54 -120 145 -120c65 0 103 27 124 55c12 16 21 34 26 55z" />
    <glyph glyph-name="Agrave" unicode="&#xc0;" horiz-adv-x="690" 
d="M20 0l290 700h70l290 -700h-80l-80 195h-330l-80 -195h-80zM210 265h270l-135 330zM315 795l-95 135h75l75 -135h-55z" />
    <glyph glyph-name="Aacute" unicode="&#xc1;" horiz-adv-x="690" 
d="M20 0l290 700h70l290 -700h-80l-80 195h-330l-80 -195h-80zM210 265h270l-135 330zM320 795l75 135h75l-95 -135h-55z" />
    <glyph glyph-name="Acircumflex" unicode="&#xc2;" horiz-adv-x="690" 
d="M20 0l290 700h70l290 -700h-80l-80 195h-330l-80 -195h-80zM210 265h270l-135 330zM200 795l110 135h70l110 -135h-65l-80 95l-80 -95h-65z" />
    <glyph glyph-name="Atilde" unicode="&#xc3;" horiz-adv-x="690" 
d="M20 0l290 700h70l290 -700h-80l-80 195h-330l-80 -195h-80zM210 265h270l-135 330zM240 795h-50c0 80 39 120 90 120c70 0 85 -65 130 -65c20 0 40 20 40 65h50c0 -80 -39 -120 -90 -120c-70 0 -85 65 -130 65c-20 0 -40 -20 -40 -65z" />
    <glyph glyph-name="Adieresis" unicode="&#xc4;" horiz-adv-x="690" 
d="M20 0l290 700h70l290 -700h-80l-80 195h-330l-80 -195h-80zM210 265h270l-135 330zM205 855c0 25 20 45 45 45s45 -20 45 -45s-20 -45 -45 -45s-45 20 -45 45zM395 855c0 25 20 45 45 45s45 -20 45 -45s-20 -45 -45 -45s-45 20 -45 45z" />
    <glyph glyph-name="Aring" unicode="&#xc5;" horiz-adv-x="690" 
d="M20 0l290 700h70l290 -700h-80l-80 195h-330l-80 -195h-80zM210 265h270l-135 330zM250 860c0 51 43 90 95 90s95 -39 95 -90s-43 -90 -95 -90s-95 39 -95 90zM345 815c25 0 45 20 45 45s-20 45 -45 45s-45 -20 -45 -45s20 -45 45 -45z" />
    <glyph glyph-name="AE" unicode="&#xc6;" horiz-adv-x="950" 
d="M-30 0l390 700h535v-70h-360v-230h280v-70h-280v-260h370v-70h-445v205h-295l-115 -205h-80zM200 275h260v355h-60z" />
    <glyph glyph-name="Ccedilla" unicode="&#xc7;" horiz-adv-x="750" 
d="M315 -173l20 33c5 -5 10 -10 17 -13c11 -7 28 -12 48 -12c31 0 50 20 50 40s-15 35 -40 35c-9 0 -17 -2 -22 -5c-3 -2 -5 -4 -8 -5l-25 25l31 67c-184 16 -326 169 -326 358c0 200 160 360 360 360c96 0 166 -37 214 -73c27 -21 51 -45 71 -72l-50 -45
c-16 23 -35 43 -58 60c-39 31 -97 60 -177 60c-160 0 -285 -125 -285 -290s125 -290 285 -290c80 0 140 29 180 60c23 17 43 37 60 60l50 -45c-20 -26 -44 -49 -71 -70c-48 -35 -117 -71 -208 -74l-21 -46h5c51 0 80 -29 80 -72s-35 -78 -95 -78c-25 0 -46 8 -61 16
c-9 5 -17 10 -24 16z" />
    <glyph glyph-name="Egrave" unicode="&#xc8;" horiz-adv-x="640" 
d="M105 0v700h480v-70h-405v-230h325v-70h-325v-260h415v-70h-490zM335 795l-95 135h75l75 -135h-55z" />
    <glyph glyph-name="Eacute" unicode="&#xc9;" horiz-adv-x="640" 
d="M105 0v700h480v-70h-405v-230h325v-70h-325v-260h415v-70h-490zM315 795l75 135h75l-95 -135h-55z" />
    <glyph glyph-name="Ecircumflex" unicode="&#xca;" horiz-adv-x="640" 
d="M105 0v700h480v-70h-405v-230h325v-70h-325v-260h415v-70h-490zM205 795l110 135h70l110 -135h-65l-80 95l-80 -95h-65z" />
    <glyph glyph-name="Edieresis" unicode="&#xcb;" horiz-adv-x="640" 
d="M105 0v700h480v-70h-405v-230h325v-70h-325v-260h415v-70h-490zM210 855c0 25 20 45 45 45s45 -20 45 -45s-20 -45 -45 -45s-45 20 -45 45zM400 855c0 25 20 45 45 45s45 -20 45 -45s-20 -45 -45 -45s-45 20 -45 45z" />
    <glyph glyph-name="Igrave" unicode="&#xcc;" horiz-adv-x="285" 
d="M105 0v700h75v-700h-75zM115 795l-95 135h75l75 -135h-55z" />
    <glyph glyph-name="Iacute" unicode="&#xcd;" horiz-adv-x="285" 
d="M105 0v700h75v-700h-75zM120 795l75 135h75l-95 -135h-55z" />
    <glyph glyph-name="Icircumflex" unicode="&#xce;" horiz-adv-x="285" 
d="M105 0v700h75v-700h-75zM0 795l110 135h70l110 -135h-65l-80 95l-80 -95h-65z" />
    <glyph glyph-name="Idieresis" unicode="&#xcf;" horiz-adv-x="285" 
d="M105 0v700h75v-700h-75zM5 855c0 25 20 45 45 45s45 -20 45 -45s-20 -45 -45 -45s-45 20 -45 45zM195 855c0 25 20 45 45 45s45 -20 45 -45s-20 -45 -45 -45s-45 20 -45 45z" />
    <glyph glyph-name="Eth" unicode="&#xd0;" horiz-adv-x="765" 
d="M120 0v315h-95v70h95v315h220c205 0 365 -161 365 -350s-160 -350 -365 -350h-220zM195 70h145c165 0 290 125 290 280s-125 280 -290 280h-145v-245h170v-70h-170v-245z" />
    <glyph glyph-name="Ntilde" unicode="&#xd1;" horiz-adv-x="780" 
d="M105 0v700h65l430 -565v565h75v-700h-65l-430 565v-565h-75zM285 795h-50c0 80 39 120 90 120c70 0 85 -65 130 -65c20 0 40 20 40 65h50c0 -80 -39 -120 -90 -120c-70 0 -85 65 -130 65c-20 0 -40 -20 -40 -65z" />
    <glyph glyph-name="Ograve" unicode="&#xd2;" horiz-adv-x="840" 
d="M60 350c0 200 160 360 360 360s360 -160 360 -360s-160 -360 -360 -360s-360 160 -360 360zM420 60c160 0 285 125 285 290s-125 290 -285 290s-285 -125 -285 -290s125 -290 285 -290zM390 795l-95 135h75l75 -135h-55z" />
    <glyph glyph-name="Oacute" unicode="&#xd3;" horiz-adv-x="840" 
d="M60 350c0 200 160 360 360 360s360 -160 360 -360s-160 -360 -360 -360s-360 160 -360 360zM420 60c160 0 285 125 285 290s-125 290 -285 290s-285 -125 -285 -290s125 -290 285 -290zM395 795l75 135h75l-95 -135h-55z" />
    <glyph glyph-name="Ocircumflex" unicode="&#xd4;" horiz-adv-x="840" 
d="M60 350c0 200 160 360 360 360s360 -160 360 -360s-160 -360 -360 -360s-360 160 -360 360zM420 60c160 0 285 125 285 290s-125 290 -285 290s-285 -125 -285 -290s125 -290 285 -290zM275 795l110 135h70l110 -135h-65l-80 95l-80 -95h-65z" />
    <glyph glyph-name="Otilde" unicode="&#xd5;" horiz-adv-x="840" 
d="M60 350c0 200 160 360 360 360s360 -160 360 -360s-160 -360 -360 -360s-360 160 -360 360zM420 60c160 0 285 125 285 290s-125 290 -285 290s-285 -125 -285 -290s125 -290 285 -290zM315 795h-50c0 80 39 120 90 120c70 0 85 -65 130 -65c20 0 40 20 40 65h50
c0 -80 -39 -120 -90 -120c-70 0 -85 65 -130 65c-20 0 -40 -20 -40 -65z" />
    <glyph glyph-name="Odieresis" unicode="&#xd6;" horiz-adv-x="840" 
d="M60 350c0 200 160 360 360 360s360 -160 360 -360s-160 -360 -360 -360s-360 160 -360 360zM420 60c160 0 285 125 285 290s-125 290 -285 290s-285 -125 -285 -290s125 -290 285 -290zM280 855c0 25 20 45 45 45s45 -20 45 -45s-20 -45 -45 -45s-45 20 -45 45zM470 855
c0 25 20 45 45 45s45 -20 45 -45s-20 -45 -45 -45s-45 20 -45 45z" />
    <glyph glyph-name="multiply" unicode="&#xd7;" horiz-adv-x="490" 
d="M60 170l140 140l-140 140l45 45l140 -140l140 140l45 -45l-140 -140l140 -140l-45 -45l-140 140l-140 -140z" />
    <glyph glyph-name="Oslash" unicode="&#xd8;" horiz-adv-x="840" 
d="M50 30l90 90c-15 18 -28 39 -40 62c-20 40 -40 97 -40 168c0 200 160 360 360 360c71 0 127 -20 167 -40c23 -12 44 -25 63 -40l90 90l50 -50l-90 -90c15 -19 28 -40 40 -63c20 -40 40 -96 40 -167c0 -200 -160 -360 -360 -360c-71 0 -128 20 -168 40
c-23 12 -44 25 -62 40l-90 -90zM190 170l410 410c-15 11 -31 21 -49 30c-31 15 -75 30 -131 30c-160 0 -285 -125 -285 -290c0 -56 12 -100 27 -131c8 -18 17 -34 28 -49zM650 530l-410 -410c15 -11 31 -21 49 -30c31 -15 75 -30 131 -30c160 0 285 125 285 290
c0 56 -13 100 -28 131c-8 18 -17 34 -27 49z" />
    <glyph glyph-name="Ugrave" unicode="&#xd9;" horiz-adv-x="760" 
d="M95 275v425h75v-425c0 -125 90 -215 210 -215s210 90 210 215v425h75v-425c0 -160 -125 -285 -285 -285s-285 125 -285 285zM355 795l-95 135h75l75 -135h-55z" />
    <glyph glyph-name="Uacute" unicode="&#xda;" horiz-adv-x="760" 
d="M95 275v425h75v-425c0 -125 90 -215 210 -215s210 90 210 215v425h75v-425c0 -160 -125 -285 -285 -285s-285 125 -285 285zM350 795l75 135h75l-95 -135h-55z" />
    <glyph glyph-name="Ucircumflex" unicode="&#xdb;" horiz-adv-x="760" 
d="M95 275v425h75v-425c0 -125 90 -215 210 -215s210 90 210 215v425h75v-425c0 -160 -125 -285 -285 -285s-285 125 -285 285zM235 795l110 135h70l110 -135h-65l-80 95l-80 -95h-65z" />
    <glyph glyph-name="Udieresis" unicode="&#xdc;" horiz-adv-x="760" 
d="M95 275v425h75v-425c0 -125 90 -215 210 -215s210 90 210 215v425h75v-425c0 -160 -125 -285 -285 -285s-285 125 -285 285zM240 855c0 25 20 45 45 45s45 -20 45 -45s-20 -45 -45 -45s-45 20 -45 45zM430 855c0 25 20 45 45 45s45 -20 45 -45s-20 -45 -45 -45
s-45 20 -45 45z" />
    <glyph glyph-name="Yacute" unicode="&#xdd;" horiz-adv-x="635" 
d="M280 0v245l-260 455h85l210 -375h5l210 375h85l-260 -455v-245h-75zM290 795l75 135h75l-95 -135h-55z" />
    <glyph glyph-name="Thorn" unicode="&#xde;" horiz-adv-x="710" 
d="M105 0v700h75v-140h245c145 0 225 -80 225 -200s-80 -200 -225 -200h-245v-160h-75zM180 230h245c100 0 150 50 150 130s-50 130 -150 130h-245v-260z" />
    <glyph glyph-name="germandbls" unicode="&#xdf;" horiz-adv-x="585" 
d="M85 0v520c0 105 85 190 200 190s200 -85 200 -185c0 -49 -22 -84 -43 -107c-12 -13 -26 -24 -42 -33c25 -9 47 -22 67 -38c35 -28 68 -71 68 -142c0 -115 -90 -205 -215 -205h-45v70h45c85 0 145 60 145 135s-60 135 -145 135h-45v70h10c69 0 130 51 130 115
c0 65 -55 120 -130 120s-130 -55 -130 -125v-520h-70z" />
    <glyph glyph-name="agrave" unicode="&#xe0;" horiz-adv-x="520" 
d="M370 0v65c-10 -14 -23 -27 -38 -38c-27 -19 -65 -37 -117 -37c-100 0 -170 70 -170 140c0 80 49 130 140 145l185 30c0 71 -49 120 -120 120c-43 0 -76 -18 -99 -35c-13 -11 -25 -22 -36 -35l-45 45c13 17 29 32 47 45c31 23 74 45 133 45c110 0 190 -80 190 -185v-305
h-70zM370 215v30l-165 -30c-60 -11 -90 -40 -90 -85c0 -40 35 -75 100 -75c91 0 155 64 155 160zM240 565l-95 135h75l75 -135h-55z" />
    <glyph glyph-name="aacute" unicode="&#xe1;" horiz-adv-x="520" 
d="M370 0v65c-10 -14 -23 -27 -38 -38c-27 -19 -65 -37 -117 -37c-100 0 -170 70 -170 140c0 80 49 130 140 145l185 30c0 71 -49 120 -120 120c-43 0 -76 -18 -99 -35c-13 -11 -25 -22 -36 -35l-45 45c13 17 29 32 47 45c31 23 74 45 133 45c110 0 190 -80 190 -185v-305
h-70zM370 215v30l-165 -30c-60 -11 -90 -40 -90 -85c0 -40 35 -75 100 -75c91 0 155 64 155 160zM235 565l75 135h75l-95 -135h-55z" />
    <glyph glyph-name="acircumflex" unicode="&#xe2;" horiz-adv-x="520" 
d="M370 0v65c-10 -14 -23 -27 -38 -38c-27 -19 -65 -37 -117 -37c-100 0 -170 70 -170 140c0 80 49 130 140 145l185 30c0 71 -49 120 -120 120c-43 0 -76 -18 -99 -35c-13 -11 -25 -22 -36 -35l-45 45c13 17 29 32 47 45c31 23 74 45 133 45c110 0 190 -80 190 -185v-305
h-70zM370 215v30l-165 -30c-60 -11 -90 -40 -90 -85c0 -40 35 -75 100 -75c91 0 155 64 155 160zM120 565l110 135h70l110 -135h-65l-80 95l-80 -95h-65z" />
    <glyph glyph-name="atilde" unicode="&#xe3;" horiz-adv-x="520" 
d="M370 0v65c-10 -14 -23 -27 -38 -38c-27 -19 -65 -37 -117 -37c-100 0 -170 70 -170 140c0 80 49 130 140 145l185 30c0 71 -49 120 -120 120c-43 0 -76 -18 -99 -35c-13 -11 -25 -22 -36 -35l-45 45c13 17 29 32 47 45c31 23 74 45 133 45c110 0 190 -80 190 -185v-305
h-70zM370 215v30l-165 -30c-60 -11 -90 -40 -90 -85c0 -40 35 -75 100 -75c91 0 155 64 155 160zM160 565h-50c0 80 39 120 90 120c70 0 85 -65 130 -65c20 0 40 20 40 65h50c0 -80 -39 -120 -90 -120c-70 0 -85 65 -130 65c-20 0 -40 -20 -40 -65z" />
    <glyph glyph-name="adieresis" unicode="&#xe4;" horiz-adv-x="520" 
d="M370 0v65c-10 -14 -23 -27 -38 -38c-27 -19 -65 -37 -117 -37c-100 0 -170 70 -170 140c0 80 49 130 140 145l185 30c0 71 -49 120 -120 120c-43 0 -76 -18 -99 -35c-13 -11 -25 -22 -36 -35l-45 45c13 17 29 32 47 45c31 23 74 45 133 45c110 0 190 -80 190 -185v-305
h-70zM370 215v30l-165 -30c-60 -11 -90 -40 -90 -85c0 -40 35 -75 100 -75c91 0 155 64 155 160zM125 630c0 25 20 45 45 45s45 -20 45 -45s-20 -45 -45 -45s-45 20 -45 45zM315 630c0 25 20 45 45 45s45 -20 45 -45s-20 -45 -45 -45s-45 20 -45 45z" />
    <glyph glyph-name="aring" unicode="&#xe5;" horiz-adv-x="520" 
d="M370 0v65c-10 -14 -23 -27 -38 -38c-27 -19 -65 -37 -117 -37c-100 0 -170 70 -170 140c0 80 49 130 140 145l185 30c0 71 -49 120 -120 120c-43 0 -76 -18 -99 -35c-13 -11 -25 -22 -36 -35l-45 45c13 17 29 32 47 45c31 23 74 45 133 45c110 0 190 -80 190 -185v-305
h-70zM370 215v30l-165 -30c-60 -11 -90 -40 -90 -85c0 -40 35 -75 100 -75c91 0 155 64 155 160zM170 640c0 51 43 90 95 90s95 -39 95 -90s-43 -90 -95 -90s-95 39 -95 90zM265 595c25 0 45 20 45 45s-20 45 -45 45s-45 -20 -45 -45s20 -45 45 -45z" />
    <glyph glyph-name="ae" unicode="&#xe6;" horiz-adv-x="870" 
d="M125 355l-45 45c12 17 27 32 44 45c29 23 73 45 130 45c60 0 101 -25 128 -50c15 -15 28 -31 38 -50c13 19 29 35 47 50c31 25 78 50 138 50c120 0 220 -100 220 -245c0 -8 -2 -14 -3 -21l-2 -9h-375c5 -85 81 -160 167 -160c51 0 87 20 112 40c15 12 27 25 38 40l46 -45
c-14 -19 -31 -35 -50 -50c-33 -25 -82 -50 -146 -50c-68 0 -119 29 -152 60c-20 17 -37 37 -50 60c-11 -23 -25 -43 -43 -60c-31 -31 -80 -60 -152 -60c-104 0 -170 65 -170 140c0 80 70 150 165 150h165v15c0 77 -49 130 -120 130c-43 0 -74 -18 -97 -35
c-13 -11 -24 -22 -33 -35zM445 280h315c-15 85 -75 145 -155 145c-81 0 -149 -70 -160 -145zM375 215h-165c-60 0 -95 -34 -95 -85c0 -40 35 -75 100 -75c96 0 160 75 160 160z" />
    <glyph glyph-name="ccedilla" unicode="&#xe7;" horiz-adv-x="515" 
d="M185 -173l20 33c5 -5 10 -10 17 -13c11 -7 28 -12 48 -12c31 0 50 20 50 40s-15 35 -40 35c-9 0 -17 -2 -22 -5c-3 -2 -5 -4 -8 -5l-25 25l31 67c-117 13 -211 117 -211 248c0 140 109 250 240 250c63 0 111 -24 144 -48c19 -14 36 -30 51 -47l-50 -50
c-11 15 -23 28 -37 40c-24 20 -61 40 -108 40c-90 0 -170 -80 -170 -185s80 -185 170 -185c47 0 84 20 111 40c15 12 28 25 39 40l50 -45c-14 -17 -30 -33 -49 -47c-32 -24 -78 -48 -135 -52l-21 -46h5c51 0 80 -29 80 -72s-35 -78 -95 -78c-25 0 -46 8 -61 16
c-9 5 -17 10 -24 16z" />
    <glyph glyph-name="egrave" unicode="&#xe8;" horiz-adv-x="555" 
d="M440 135l45 -45c-14 -19 -31 -35 -51 -50c-35 -25 -84 -50 -149 -50c-131 0 -240 110 -240 250s110 250 235 250c131 0 230 -100 230 -240c0 -11 -2 -19 -3 -26l-2 -10l-390 1c5 -85 79 -160 170 -160c51 0 88 20 115 40c15 12 29 25 40 40zM115 275h325
c-11 85 -75 150 -160 150c-86 0 -154 -70 -165 -150zM250 565l-95 135h75l75 -135h-55z" />
    <glyph glyph-name="eacute" unicode="&#xe9;" horiz-adv-x="555" 
d="M440 135l45 -45c-14 -19 -31 -35 -51 -50c-35 -25 -84 -50 -149 -50c-131 0 -240 110 -240 250s110 250 235 250c131 0 230 -100 230 -240c0 -11 -2 -19 -3 -26l-2 -10l-390 1c5 -85 79 -160 170 -160c51 0 88 20 115 40c15 12 29 25 40 40zM115 275h325
c-11 85 -75 150 -160 150c-86 0 -154 -70 -165 -150zM255 565l75 135h75l-95 -135h-55z" />
    <glyph glyph-name="ecircumflex" unicode="&#xea;" horiz-adv-x="555" 
d="M440 135l45 -45c-14 -19 -31 -35 -51 -50c-35 -25 -84 -50 -149 -50c-131 0 -240 110 -240 250s110 250 235 250c131 0 230 -100 230 -240c0 -11 -2 -19 -3 -26l-2 -10l-390 1c5 -85 79 -160 170 -160c51 0 88 20 115 40c15 12 29 25 40 40zM115 275h325
c-11 85 -75 150 -160 150c-86 0 -154 -70 -165 -150zM135 565l110 135h70l110 -135h-65l-80 95l-80 -95h-65z" />
    <glyph glyph-name="edieresis" unicode="&#xeb;" horiz-adv-x="555" 
d="M440 135l45 -45c-14 -19 -31 -35 -51 -50c-35 -25 -84 -50 -149 -50c-131 0 -240 110 -240 250s110 250 235 250c131 0 230 -100 230 -240c0 -11 -2 -19 -3 -26l-2 -10l-390 1c5 -85 79 -160 170 -160c51 0 88 20 115 40c15 12 29 25 40 40zM115 275h325
c-11 85 -75 150 -160 150c-86 0 -154 -70 -165 -150zM140 630c0 25 20 45 45 45s45 -20 45 -45s-20 -45 -45 -45s-45 20 -45 45zM330 630c0 25 20 45 45 45s45 -20 45 -45s-20 -45 -45 -45s-45 20 -45 45z" />
    <glyph glyph-name="igrave" unicode="&#xec;" horiz-adv-x="230" 
d="M80 0v480h70v-480h-70zM85 565l-95 135h75l75 -135h-55z" />
    <glyph glyph-name="iacute" unicode="&#xed;" horiz-adv-x="230" 
d="M80 0v480h70v-480h-70zM85 565l75 135h75l-95 -135h-55z" />
    <glyph glyph-name="icircumflex" unicode="&#xee;" horiz-adv-x="230" 
d="M80 0v480h70v-480h-70zM-30 565l110 135h70l110 -135h-65l-80 95l-80 -95h-65z" />
    <glyph glyph-name="idieresis" unicode="&#xef;" horiz-adv-x="230" 
d="M80 0v480h70v-480h-70zM-25 630c0 25 20 45 45 45s45 -20 45 -45s-20 -45 -45 -45s-45 20 -45 45zM165 630c0 25 20 45 45 45s45 -20 45 -45s-20 -45 -45 -45s-45 20 -45 45z" />
    <glyph glyph-name="eth" unicode="&#xf0;" horiz-adv-x="595" 
d="M150 605l105 60c-11 10 -22 20 -34 29c-21 16 -49 36 -76 51l65 30c31 -20 56 -40 75 -55l30 -25l100 55l35 -35l-100 -55c33 -33 63 -70 90 -112c45 -72 90 -176 90 -303c0 -146 -108 -255 -245 -255c-135 0 -240 105 -240 240s105 240 240 240c45 0 80 -12 104 -23
c14 -7 26 -14 36 -22h5c-20 56 -54 105 -85 144c-17 22 -36 42 -55 61l-105 -60zM285 55c96 0 170 75 170 175s-74 175 -170 175s-170 -75 -170 -175s74 -175 170 -175z" />
    <glyph glyph-name="ntilde" unicode="&#xf1;" horiz-adv-x="580" 
d="M80 0v480h70v-70c10 15 23 28 38 40c27 20 64 40 117 40c115 0 195 -80 195 -205v-285h-70v285c0 85 -54 140 -130 140c-85 0 -150 -64 -150 -160v-265h-70zM185 565h-50c0 80 39 120 90 120c70 0 85 -65 130 -65c20 0 40 20 40 65h50c0 -80 -39 -120 -90 -120
c-70 0 -85 65 -130 65c-20 0 -40 -20 -40 -65z" />
    <glyph glyph-name="ograve" unicode="&#xf2;" horiz-adv-x="580" 
d="M290 -10c-135 0 -245 110 -245 250s110 250 245 250s245 -110 245 -250s-110 -250 -245 -250zM290 55c95 0 175 80 175 185s-80 185 -175 185s-175 -80 -175 -185c0 -104 80 -185 175 -185zM260 565l-95 135h75l75 -135h-55z" />
    <glyph glyph-name="oacute" unicode="&#xf3;" horiz-adv-x="580" 
d="M290 -10c-135 0 -245 110 -245 250s110 250 245 250s245 -110 245 -250s-110 -250 -245 -250zM290 55c95 0 175 80 175 185s-80 185 -175 185s-175 -80 -175 -185c0 -104 80 -185 175 -185zM265 565l75 135h75l-95 -135h-55z" />
    <glyph glyph-name="ocircumflex" unicode="&#xf4;" horiz-adv-x="580" 
d="M290 -10c-135 0 -245 110 -245 250s110 250 245 250s245 -110 245 -250s-110 -250 -245 -250zM290 55c95 0 175 80 175 185s-80 185 -175 185s-175 -80 -175 -185c0 -104 80 -185 175 -185zM145 565l110 135h70l110 -135h-65l-80 95l-80 -95h-65z" />
    <glyph glyph-name="otilde" unicode="&#xf5;" horiz-adv-x="580" 
d="M290 -10c-135 0 -245 110 -245 250s110 250 245 250s245 -110 245 -250s-110 -250 -245 -250zM290 55c95 0 175 80 175 185s-80 185 -175 185s-175 -80 -175 -185c0 -104 80 -185 175 -185zM185 565h-50c0 80 39 120 90 120c70 0 85 -65 130 -65c20 0 40 20 40 65h50
c0 -80 -39 -120 -90 -120c-70 0 -85 65 -130 65c-20 0 -40 -20 -40 -65z" />
    <glyph glyph-name="odieresis" unicode="&#xf6;" horiz-adv-x="580" 
d="M290 -10c-135 0 -245 110 -245 250s110 250 245 250s245 -110 245 -250s-110 -250 -245 -250zM290 55c95 0 175 80 175 185s-80 185 -175 185s-175 -80 -175 -185c0 -104 80 -185 175 -185zM150 630c0 25 20 45 45 45s45 -20 45 -45s-20 -45 -45 -45s-45 20 -45 45z
M340 630c0 25 20 45 45 45s45 -20 45 -45s-20 -45 -45 -45s-45 20 -45 45z" />
    <glyph glyph-name="divide" unicode="&#xf7;" horiz-adv-x="510" 
d="M205 470c0 31 19 50 50 50s50 -19 50 -50s-19 -50 -50 -50s-50 19 -50 50zM45 260v65h420v-65h-420zM205 115c0 31 19 50 50 50s50 -19 50 -50s-19 -50 -50 -50s-50 19 -50 50z" />
    <glyph glyph-name="oslash" unicode="&#xf8;" horiz-adv-x="580" 
d="M35 20l65 65c-11 11 -20 25 -28 40c-15 27 -27 64 -27 115c0 140 110 250 245 250c45 0 81 -13 106 -25c15 -7 28 -16 39 -25l65 65l45 -45l-65 -65c10 -11 19 -25 27 -40c15 -27 28 -64 28 -115c0 -140 -110 -250 -245 -250c-45 0 -81 12 -106 25c-15 7 -28 16 -39 25
l-65 -65zM145 135l245 255c-9 6 -18 12 -28 17c-19 9 -41 18 -72 18c-95 0 -175 -80 -175 -185c0 -33 7 -58 15 -77c4 -11 9 -20 15 -28zM435 345l-245 -255c7 -7 16 -13 27 -18c17 -9 42 -17 73 -17c95 0 175 80 175 185c0 32 -8 58 -15 77c-5 11 -10 20 -15 28z" />
    <glyph glyph-name="ugrave" unicode="&#xf9;" horiz-adv-x="585" 
d="M80 200v280h70v-280c0 -85 60 -145 135 -145c80 0 145 64 145 160v265h70v-480h-70v65c-10 -14 -23 -27 -38 -38c-27 -19 -65 -37 -117 -37c-110 0 -195 85 -195 210zM260 565l-95 135h75l75 -135h-55z" />
    <glyph glyph-name="uacute" unicode="&#xfa;" horiz-adv-x="585" 
d="M80 200v280h70v-280c0 -85 60 -145 135 -145c80 0 145 64 145 160v265h70v-480h-70v65c-10 -14 -23 -27 -38 -38c-27 -19 -65 -37 -117 -37c-110 0 -195 85 -195 210zM265 565l75 135h75l-95 -135h-55z" />
    <glyph glyph-name="ucircumflex" unicode="&#xfb;" horiz-adv-x="585" 
d="M80 200v280h70v-280c0 -85 60 -145 135 -145c80 0 145 64 145 160v265h70v-480h-70v65c-10 -14 -23 -27 -38 -38c-27 -19 -65 -37 -117 -37c-110 0 -195 85 -195 210zM145 565l110 135h70l110 -135h-65l-80 95l-80 -95h-65z" />
    <glyph glyph-name="udieresis" unicode="&#xfc;" horiz-adv-x="585" 
d="M80 200v280h70v-280c0 -85 60 -145 135 -145c80 0 145 64 145 160v265h70v-480h-70v65c-10 -14 -23 -27 -38 -38c-27 -19 -65 -37 -117 -37c-110 0 -195 85 -195 210zM149 630c0 25 20 45 45 45s45 -20 45 -45s-20 -45 -45 -45s-45 20 -45 45zM339 630c0 25 20 45 45 45
s45 -20 45 -45s-20 -45 -45 -45s-45 20 -45 45z" />
    <glyph glyph-name="yacute" unicode="&#xfd;" horiz-adv-x="490" 
d="M45 -200v65c5 -2 11 -4 16 -5c10 -3 21 -5 34 -5c45 0 71 24 90 75l25 70l-195 480h75l155 -390l155 390h75l-220 -550c-40 -100 -81 -140 -150 -140c-17 0 -31 2 -43 5c-7 1 -12 3 -17 5zM220 565l75 135h75l-95 -135h-55z" />
    <glyph glyph-name="thorn" unicode="&#xfe;" 
d="M85 -210v910h70v-290c11 15 24 28 41 40c27 20 68 40 124 40c130 0 235 -105 235 -250s-105 -250 -235 -250c-56 0 -97 20 -124 40c-17 12 -30 25 -41 40v-280h-70zM320 55c91 0 165 76 165 185s-74 185 -165 185c-84 0 -165 -80 -165 -185s81 -185 165 -185z" />
    <glyph glyph-name="ydieresis" unicode="&#xff;" horiz-adv-x="490" 
d="M45 -200v65c5 -2 11 -4 16 -5c10 -3 21 -5 34 -5c45 0 71 24 90 75l25 70l-195 480h75l155 -390l155 390h75l-220 -550c-40 -100 -81 -140 -150 -140c-17 0 -31 2 -43 5c-7 1 -12 3 -17 5zM105 630c0 25 20 45 45 45s45 -20 45 -45s-20 -45 -45 -45s-45 20 -45 45z
M295 630c0 25 20 45 45 45s45 -20 45 -45s-20 -45 -45 -45s-45 20 -45 45z" />
    <glyph glyph-name="Amacron" unicode="&#x100;" horiz-adv-x="690" 
d="M20 0l290 700h70l290 -700h-80l-80 195h-330l-80 -195h-80zM210 265h270l-135 330zM200 830v55h290v-55h-290z" />
    <glyph glyph-name="amacron" unicode="&#x101;" horiz-adv-x="520" 
d="M370 0v65c-10 -14 -23 -27 -38 -38c-27 -19 -65 -37 -117 -37c-100 0 -170 70 -170 140c0 80 49 130 140 145l185 30c0 71 -49 120 -120 120c-43 0 -76 -18 -99 -35c-13 -11 -25 -22 -36 -35l-45 45c13 17 29 32 47 45c31 23 74 45 133 45c110 0 190 -80 190 -185v-305
h-70zM370 215v30l-165 -30c-60 -11 -90 -40 -90 -85c0 -40 35 -75 100 -75c91 0 155 64 155 160zM120 610v55h290v-55h-290z" />
    <glyph glyph-name="Abreve" unicode="&#x102;" horiz-adv-x="690" 
d="M20 0l290 700h70l290 -700h-80l-80 195h-330l-80 -195h-80zM210 265h270l-135 330zM210 930h55c0 -56 29 -85 80 -85s80 29 80 85h55c0 -80 -55 -135 -135 -135s-135 55 -135 135z" />
    <glyph glyph-name="abreve" unicode="&#x103;" horiz-adv-x="520" 
d="M370 0v65c-10 -14 -23 -27 -38 -38c-27 -19 -65 -37 -117 -37c-100 0 -170 70 -170 140c0 80 49 130 140 145l185 30c0 71 -49 120 -120 120c-43 0 -76 -18 -99 -35c-13 -11 -25 -22 -36 -35l-45 45c13 17 29 32 47 45c31 23 74 45 133 45c110 0 190 -80 190 -185v-305
h-70zM370 215v30l-165 -30c-60 -11 -90 -40 -90 -85c0 -40 35 -75 100 -75c91 0 155 64 155 160zM130 700h55c0 -56 29 -85 80 -85s80 29 80 85h55c0 -80 -55 -135 -135 -135s-135 55 -135 135z" />
    <glyph glyph-name="Aogonek" unicode="&#x104;" horiz-adv-x="690" 
d="M20 0l290 700h70l290 -700h-30c-11 -12 -20 -24 -28 -36c-15 -21 -27 -49 -27 -74c0 -30 17 -45 50 -45c15 0 28 2 41 7l19 8v-50c-6 -3 -13 -5 -20 -8c-12 -4 -27 -7 -46 -7c-60 0 -94 34 -94 90c0 32 12 61 27 82c8 12 17 23 28 33l-80 195h-330l-80 -195h-80zM210 265
h270l-135 330z" />
    <glyph glyph-name="aogonek" unicode="&#x105;" horiz-adv-x="520" 
d="M475 -140v-50c-6 -3 -13 -5 -20 -8c-12 -4 -27 -7 -46 -7c-60 0 -94 34 -94 90c0 32 12 61 27 82c8 12 17 23 28 33v65c-10 -14 -23 -27 -38 -38c-27 -19 -65 -37 -117 -37c-100 0 -170 70 -170 140c0 80 49 130 140 145l185 30c0 71 -49 120 -120 120
c-43 0 -76 -18 -99 -35c-13 -11 -25 -22 -36 -35l-45 45c13 17 29 32 47 45c31 23 74 45 133 45c110 0 190 -80 190 -185v-305h-20c-11 -12 -20 -24 -28 -36c-15 -21 -27 -49 -27 -74c0 -30 17 -45 50 -45c15 0 28 2 41 7zM370 215v30l-165 -30c-60 -11 -90 -40 -90 -85
c0 -40 35 -75 100 -75c91 0 155 64 155 160z" />
    <glyph glyph-name="Cacute" unicode="&#x106;" horiz-adv-x="750" 
d="M660 180l50 -45c-21 -27 -45 -52 -74 -73c-49 -36 -120 -72 -216 -72c-200 0 -360 160 -360 360s160 360 360 360c96 0 166 -37 214 -73c27 -21 51 -45 71 -72l-50 -45c-16 23 -35 43 -58 60c-39 31 -97 60 -177 60c-160 0 -285 -125 -285 -290s125 -290 285 -290
c80 0 140 29 180 60c23 17 43 37 60 60zM380 795l75 135h75l-95 -135h-55z" />
    <glyph glyph-name="cacute" unicode="&#x107;" horiz-adv-x="515" 
d="M435 135l50 -45c-15 -19 -33 -35 -53 -50c-35 -25 -84 -50 -147 -50c-131 0 -240 110 -240 250s109 250 240 250c63 0 111 -24 144 -48c19 -14 36 -30 51 -47l-50 -50c-11 15 -23 28 -37 40c-24 20 -61 40 -108 40c-90 0 -170 -80 -170 -185s80 -185 170 -185
c47 0 84 20 111 40c15 12 28 25 39 40zM255 565l75 135h75l-95 -135h-55z" />
    <glyph glyph-name="Ccircumflex" unicode="&#x108;" horiz-adv-x="750" 
d="M660 180l50 -45c-21 -27 -45 -52 -74 -73c-49 -36 -120 -72 -216 -72c-200 0 -360 160 -360 360s160 360 360 360c96 0 166 -37 214 -73c27 -21 51 -45 71 -72l-50 -45c-16 23 -35 43 -58 60c-39 31 -97 60 -177 60c-160 0 -285 -125 -285 -290s125 -290 285 -290
c80 0 140 29 180 60c23 17 43 37 60 60zM265 795l110 135h70l110 -135h-65l-80 95l-80 -95h-65z" />
    <glyph glyph-name="ccircumflex" unicode="&#x109;" horiz-adv-x="515" 
d="M435 135l50 -45c-15 -19 -33 -35 -53 -50c-35 -25 -84 -50 -147 -50c-131 0 -240 110 -240 250s109 250 240 250c63 0 111 -24 144 -48c19 -14 36 -30 51 -47l-50 -50c-11 15 -23 28 -37 40c-24 20 -61 40 -108 40c-90 0 -170 -80 -170 -185s80 -185 170 -185
c47 0 84 20 111 40c15 12 28 25 39 40zM135 565l110 135h70l110 -135h-65l-80 95l-80 -95h-65z" />
    <glyph glyph-name="Cdotaccent" unicode="&#x10a;" horiz-adv-x="750" 
d="M660 180l50 -45c-21 -27 -45 -52 -74 -73c-49 -36 -120 -72 -216 -72c-200 0 -360 160 -360 360s160 360 360 360c96 0 166 -37 214 -73c27 -21 51 -45 71 -72l-50 -45c-16 23 -35 43 -58 60c-39 31 -97 60 -177 60c-160 0 -285 -125 -285 -290s125 -290 285 -290
c80 0 140 29 180 60c23 17 43 37 60 60zM365 855c0 25 20 45 45 45s45 -20 45 -45s-20 -45 -45 -45s-45 20 -45 45z" />
    <glyph glyph-name="cdotaccent" unicode="&#x10b;" horiz-adv-x="515" 
d="M435 135l50 -45c-15 -19 -33 -35 -53 -50c-35 -25 -84 -50 -147 -50c-131 0 -240 110 -240 250s109 250 240 250c63 0 111 -24 144 -48c19 -14 36 -30 51 -47l-50 -50c-11 15 -23 28 -37 40c-24 20 -61 40 -108 40c-90 0 -170 -80 -170 -185s80 -185 170 -185
c47 0 84 20 111 40c15 12 28 25 39 40zM235 630c0 25 20 45 45 45s45 -20 45 -45s-20 -45 -45 -45s-45 20 -45 45z" />
    <glyph glyph-name="Ccaron" unicode="&#x10c;" horiz-adv-x="750" 
d="M660 180l50 -45c-21 -27 -45 -52 -74 -73c-49 -36 -120 -72 -216 -72c-200 0 -360 160 -360 360s160 360 360 360c96 0 166 -37 214 -73c27 -21 51 -45 71 -72l-50 -45c-16 23 -35 43 -58 60c-39 31 -97 60 -177 60c-160 0 -285 -125 -285 -290s125 -290 285 -290
c80 0 140 29 180 60c23 17 43 37 60 60zM375 795l-110 135h65l80 -95l80 95h65l-110 -135h-70z" />
    <glyph glyph-name="ccaron" unicode="&#x10d;" horiz-adv-x="515" 
d="M435 135l50 -45c-15 -19 -33 -35 -53 -50c-35 -25 -84 -50 -147 -50c-131 0 -240 110 -240 250s109 250 240 250c63 0 111 -24 144 -48c19 -14 36 -30 51 -47l-50 -50c-11 15 -23 28 -37 40c-24 20 -61 40 -108 40c-90 0 -170 -80 -170 -185s80 -185 170 -185
c47 0 84 20 111 40c15 12 28 25 39 40zM245 565l-110 135h65l80 -95l80 95h65l-110 -135h-70z" />
    <glyph glyph-name="Dcaron" unicode="&#x10e;" horiz-adv-x="750" 
d="M105 0v700h220c205 0 365 -161 365 -350s-160 -350 -365 -350h-220zM180 70h145c165 0 290 125 290 280s-125 280 -290 280h-145v-560zM335 795l-110 135h65l80 -95l80 95h65l-110 -135h-70z" />
    <glyph glyph-name="dcaron" unicode="&#x10f;" horiz-adv-x="640" 
d="M445 0v70c-11 -15 -25 -28 -41 -40c-28 -20 -68 -40 -124 -40c-130 0 -235 105 -235 250s105 250 235 250c56 0 96 -20 124 -40c16 -12 30 -25 41 -40v290h70v-700h-70zM280 55c84 0 165 80 165 185s-81 185 -165 185c-91 0 -165 -76 -165 -185s74 -185 165 -185z
M580 565l45 135h65l-60 -135h-50z" />
    <glyph glyph-name="Dcroat" unicode="&#x110;" horiz-adv-x="765" 
d="M120 0v315h-95v70h95v315h220c205 0 365 -161 365 -350s-160 -350 -365 -350h-220zM195 70h145c165 0 290 125 290 280s-125 280 -290 280h-145v-245h170v-70h-170v-245z" />
    <glyph glyph-name="dslash" unicode="&#x111;" 
d="M440 0v70c-10 -15 -23 -28 -39 -40c-27 -20 -69 -40 -126 -40c-124 0 -230 105 -230 240s106 240 230 240c57 0 99 -20 126 -40c16 -12 29 -25 39 -40v155h-130v65h130v90h70v-90h80v-65h-80v-545h-70zM275 55c91 0 165 75 165 175s-74 175 -165 175
c-85 0 -160 -75 -160 -175s75 -175 160 -175z" />
    <glyph glyph-name="Emacron" unicode="&#x112;" horiz-adv-x="640" 
d="M105 0v700h480v-70h-405v-230h325v-70h-325v-260h415v-70h-490zM205 830v55h290v-55h-290z" />
    <glyph glyph-name="emacron" unicode="&#x113;" horiz-adv-x="555" 
d="M440 135l45 -45c-14 -19 -31 -35 -51 -50c-35 -25 -84 -50 -149 -50c-131 0 -240 110 -240 250s110 250 235 250c131 0 230 -100 230 -240c0 -11 -2 -19 -3 -26l-2 -10l-390 1c5 -85 79 -160 170 -160c51 0 88 20 115 40c15 12 29 25 40 40zM115 275h325
c-11 85 -75 150 -160 150c-86 0 -154 -70 -165 -150zM135 610v55h290v-55h-290z" />
    <glyph glyph-name="Ebreve" unicode="&#x114;" horiz-adv-x="640" 
d="M105 0v700h480v-70h-405v-230h325v-70h-325v-260h415v-70h-490zM210 930h55c0 -56 29 -85 80 -85s80 29 80 85h55c0 -80 -55 -135 -135 -135s-135 55 -135 135z" />
    <glyph glyph-name="ebreve" unicode="&#x115;" horiz-adv-x="555" 
d="M440 135l45 -45c-14 -19 -31 -35 -51 -50c-35 -25 -84 -50 -149 -50c-131 0 -240 110 -240 250s110 250 235 250c131 0 230 -100 230 -240c0 -11 -2 -19 -3 -26l-2 -10l-390 1c5 -85 79 -160 170 -160c51 0 88 20 115 40c15 12 29 25 40 40zM115 275h325
c-11 85 -75 150 -160 150c-86 0 -154 -70 -165 -150zM145 700h55c0 -56 29 -85 80 -85s80 29 80 85h55c0 -80 -55 -135 -135 -135s-135 55 -135 135z" />
    <glyph glyph-name="Edotaccent" unicode="&#x116;" horiz-adv-x="640" 
d="M105 0v700h480v-70h-405v-230h325v-70h-325v-260h415v-70h-490zM305 855c0 25 20 45 45 45s45 -20 45 -45s-20 -45 -45 -45s-45 20 -45 45z" />
    <glyph glyph-name="edotaccent" unicode="&#x117;" horiz-adv-x="555" 
d="M440 135l45 -45c-14 -19 -31 -35 -51 -50c-35 -25 -84 -50 -149 -50c-131 0 -240 110 -240 250s110 250 235 250c131 0 230 -100 230 -240c0 -11 -2 -19 -3 -26l-2 -10l-390 1c5 -85 79 -160 170 -160c51 0 88 20 115 40c15 12 29 25 40 40zM115 275h325
c-11 85 -75 150 -160 150c-86 0 -154 -70 -165 -150zM235 630c0 25 20 45 45 45s45 -20 45 -45s-20 -45 -45 -45s-45 20 -45 45z" />
    <glyph glyph-name="Eogonek" unicode="&#x118;" horiz-adv-x="640" 
d="M105 0v700h480v-70h-405v-230h325v-70h-325v-260h415v-70c-11 -12 -20 -24 -28 -36c-15 -21 -27 -49 -27 -74c0 -30 17 -45 50 -45c15 0 28 2 41 7l19 8v-50c-6 -3 -13 -5 -20 -8c-12 -4 -27 -7 -46 -7c-60 0 -94 34 -94 90c0 32 12 61 27 82c8 12 17 23 28 33h-440z" />
    <glyph glyph-name="eogonek" unicode="&#x119;" horiz-adv-x="555" 
d="M380 -140v-50c-6 -3 -13 -5 -20 -8c-12 -4 -27 -7 -46 -7c-60 0 -94 34 -94 90c0 49 30 89 46 106c-122 11 -221 116 -221 249c0 140 110 250 235 250c131 0 230 -100 230 -240c0 -11 -2 -19 -3 -26l-2 -10l-390 1c5 -85 79 -160 170 -160c51 0 88 20 115 40
c15 12 29 25 40 40l45 -45c-12 -16 -26 -30 -43 -43c-28 -23 -69 -47 -124 -54c-14 -17 -48 -62 -48 -103c0 -30 17 -45 50 -45c15 0 28 2 41 7zM115 275h325c-11 85 -75 150 -160 150c-86 0 -154 -70 -165 -150z" />
    <glyph glyph-name="Ecaron" unicode="&#x11a;" horiz-adv-x="640" 
d="M105 0v700h480v-70h-405v-230h325v-70h-325v-260h415v-70h-490zM320 795l-110 135h65l80 -95l80 95h65l-110 -135h-70z" />
    <glyph glyph-name="ecaron" unicode="&#x11b;" horiz-adv-x="555" 
d="M440 135l45 -45c-14 -19 -31 -35 -51 -50c-35 -25 -84 -50 -149 -50c-131 0 -240 110 -240 250s110 250 235 250c131 0 230 -100 230 -240c0 -11 -2 -19 -3 -26l-2 -10l-390 1c5 -85 79 -160 170 -160c51 0 88 20 115 40c15 12 29 25 40 40zM115 275h325
c-11 85 -75 150 -160 150c-86 0 -154 -70 -165 -150zM245 565l-110 135h65l80 -95l80 95h65l-110 -135h-70z" />
    <glyph glyph-name="Gcircumflex" unicode="&#x11c;" horiz-adv-x="795" 
d="M480 290v70h235v-225c-21 -27 -47 -52 -76 -73c-51 -36 -123 -72 -219 -72c-200 0 -360 160 -360 360s160 360 360 360c96 0 166 -37 214 -73c27 -21 51 -45 71 -72l-50 -45c-16 23 -35 43 -58 60c-39 31 -97 60 -177 60c-160 0 -285 -125 -285 -290s125 -290 285 -290
c76 0 130 23 166 47c21 14 39 30 54 48v135h-160zM265 795l110 135h70l110 -135h-65l-80 95l-80 -95h-65z" />
    <glyph glyph-name="gcircumflex" unicode="&#x11d;" horiz-adv-x="580" 
d="M65 -110l45 45c11 -15 25 -28 40 -40c27 -20 64 -40 115 -40c91 0 165 75 165 175v55c-9 -14 -22 -27 -37 -38c-27 -19 -66 -37 -123 -37c-125 0 -225 105 -225 240s100 240 225 240c57 0 96 -19 123 -38c15 -11 28 -24 37 -37v65h70v-450c0 -135 -105 -240 -235 -240
c-68 0 -118 25 -151 50c-19 15 -36 31 -49 50zM270 75c90 0 160 75 160 175s-70 175 -160 175c-84 0 -155 -75 -155 -175s71 -175 155 -175zM140 565l110 135h70l110 -135h-65l-80 95l-80 -95h-65z" />
    <glyph glyph-name="Gbreve" unicode="&#x11e;" horiz-adv-x="795" 
d="M480 290v70h235v-225c-21 -27 -47 -52 -76 -73c-51 -36 -123 -72 -219 -72c-200 0 -360 160 -360 360s160 360 360 360c96 0 166 -37 214 -73c27 -21 51 -45 71 -72l-50 -45c-16 23 -35 43 -58 60c-39 31 -97 60 -177 60c-160 0 -285 -125 -285 -290s125 -290 285 -290
c76 0 130 23 166 47c21 14 39 30 54 48v135h-160zM275 930h55c0 -56 29 -85 80 -85s80 29 80 85h55c0 -80 -55 -135 -135 -135s-135 55 -135 135z" />
    <glyph glyph-name="gbreve" unicode="&#x11f;" horiz-adv-x="580" 
d="M65 -110l45 45c11 -15 25 -28 40 -40c27 -20 64 -40 115 -40c91 0 165 75 165 175v55c-9 -14 -22 -27 -37 -38c-27 -19 -66 -37 -123 -37c-125 0 -225 105 -225 240s100 240 225 240c57 0 96 -19 123 -38c15 -11 28 -24 37 -37v65h70v-450c0 -135 -105 -240 -235 -240
c-68 0 -118 25 -151 50c-19 15 -36 31 -49 50zM270 75c90 0 160 75 160 175s-70 175 -160 175c-84 0 -155 -75 -155 -175s71 -175 155 -175zM150 700h55c0 -56 29 -85 80 -85s80 29 80 85h55c0 -80 -55 -135 -135 -135s-135 55 -135 135z" />
    <glyph glyph-name="Gdotaccent" unicode="&#x120;" horiz-adv-x="795" 
d="M480 290v70h235v-225c-21 -27 -47 -52 -76 -73c-51 -36 -123 -72 -219 -72c-200 0 -360 160 -360 360s160 360 360 360c96 0 166 -37 214 -73c27 -21 51 -45 71 -72l-50 -45c-16 23 -35 43 -58 60c-39 31 -97 60 -177 60c-160 0 -285 -125 -285 -290s125 -290 285 -290
c76 0 130 23 166 47c21 14 39 30 54 48v135h-160zM365 855c0 25 20 45 45 45s45 -20 45 -45s-20 -45 -45 -45s-45 20 -45 45z" />
    <glyph glyph-name="gdotaccent" unicode="&#x121;" horiz-adv-x="580" 
d="M65 -110l45 45c11 -15 25 -28 40 -40c27 -20 64 -40 115 -40c91 0 165 75 165 175v55c-9 -14 -22 -27 -37 -38c-27 -19 -66 -37 -123 -37c-125 0 -225 105 -225 240s100 240 225 240c57 0 96 -19 123 -38c15 -11 28 -24 37 -37v65h70v-450c0 -135 -105 -240 -235 -240
c-68 0 -118 25 -151 50c-19 15 -36 31 -49 50zM270 75c90 0 160 75 160 175s-70 175 -160 175c-84 0 -155 -75 -155 -175s71 -175 155 -175zM240 630c0 25 20 45 45 45s45 -20 45 -45s-20 -45 -45 -45s-45 20 -45 45z" />
    <glyph glyph-name="Gcommaaccent" unicode="&#x122;" horiz-adv-x="795" 
d="M480 290v70h235v-225c-21 -27 -47 -52 -76 -73c-51 -36 -123 -72 -219 -72c-200 0 -360 160 -360 360s160 360 360 360c96 0 166 -37 214 -73c27 -21 51 -45 71 -72l-50 -45c-16 23 -35 43 -58 60c-39 31 -97 60 -177 60c-160 0 -285 -125 -285 -290s125 -290 285 -290
c76 0 130 23 166 47c21 14 39 30 54 48v135h-160zM340 -215l45 135h65l-60 -135h-50z" />
    <glyph glyph-name="gcommaaccent" unicode="&#x123;" horiz-adv-x="580" 
d="M245 565l60 135h50l-45 -135h-65zM65 -110l45 45c11 -15 25 -28 40 -40c27 -20 64 -40 115 -40c91 0 165 75 165 175v55c-9 -14 -22 -27 -37 -38c-27 -19 -66 -37 -123 -37c-125 0 -225 105 -225 240s100 240 225 240c57 0 96 -19 123 -38c15 -11 28 -24 37 -37v65h70
v-450c0 -135 -105 -240 -235 -240c-68 0 -118 25 -151 50c-19 15 -36 31 -49 50zM270 75c90 0 160 75 160 175s-70 175 -160 175c-84 0 -155 -75 -155 -175s71 -175 155 -175z" />
    <glyph glyph-name="Hcircumflex" unicode="&#x124;" horiz-adv-x="750" 
d="M105 0v700h75v-310h390v310h75v-700h-75v320h-390v-320h-75zM230 795l110 135h70l110 -135h-65l-80 95l-80 -95h-65z" />
    <glyph glyph-name="hcircumflex" unicode="&#x125;" horiz-adv-x="585" 
d="M85 0v700h70v-290c10 15 23 28 38 40c27 20 64 40 117 40c115 0 195 -80 195 -205v-285h-70v285c0 85 -54 140 -130 140c-85 0 -150 -64 -150 -160v-265h-70zM150 795l110 135h70l110 -135h-65l-80 95l-80 -95h-65z" />
    <glyph glyph-name="Hbar" unicode="&#x126;" horiz-adv-x="760" 
d="M120 0v490h-100v70h100v140h75v-140h370v140h75v-140h100v-70h-100v-490h-75v290h-370v-290h-75zM195 360h370v130h-370v-130z" />
    <glyph glyph-name="hbar" unicode="&#x127;" horiz-adv-x="595" 
d="M95 0v545h-85v65h85v90h70v-90h140v-65h-140v-165c10 15 23 28 38 40c27 20 64 40 117 40c115 0 195 -80 195 -205v-255h-70v255c0 85 -54 140 -130 140c-85 0 -150 -64 -150 -160v-235h-70z" />
    <glyph glyph-name="Imacron" unicode="&#x12a;" horiz-adv-x="285" 
d="M105 0v700h75v-700h-75zM0 830v55h290v-55h-290z" />
    <glyph glyph-name="imacron" unicode="&#x12b;" horiz-adv-x="230" 
d="M80 0v480h70v-480h-70zM-30 610v55h290v-55h-290z" />
    <glyph glyph-name="Ibreve" unicode="&#x12c;" horiz-adv-x="285" 
d="M105 0v700h75v-700h-75zM10 930h55c0 -56 29 -85 80 -85s80 29 80 85h55c0 -80 -55 -135 -135 -135s-135 55 -135 135z" />
    <glyph glyph-name="ibreve" unicode="&#x12d;" horiz-adv-x="230" 
d="M80 0v480h70v-480h-70zM-20 700h55c0 -56 29 -85 80 -85s80 29 80 85h55c0 -80 -55 -135 -135 -135s-135 55 -135 135z" />
    <glyph glyph-name="Iogonek" unicode="&#x12e;" horiz-adv-x="285" 
d="M210 -140v-50c-6 -3 -13 -5 -20 -8c-12 -4 -27 -7 -46 -7c-60 0 -94 34 -94 90c0 32 12 61 27 82c8 12 17 23 28 33v700h75v-700h-25c-11 -12 -20 -24 -28 -36c-15 -21 -27 -49 -27 -74c0 -30 17 -45 50 -45c15 0 28 2 41 7z" />
    <glyph glyph-name="iogonek" unicode="&#x12f;" horiz-adv-x="230" 
d="M70 640c0 25 20 45 45 45s45 -20 45 -45s-20 -45 -45 -45s-45 20 -45 45zM185 -140v-50c-6 -3 -13 -5 -20 -8c-12 -4 -27 -7 -46 -7c-60 0 -94 34 -94 90c0 32 12 61 27 82c8 12 17 23 28 33v480h70v-480h-20c-11 -12 -20 -24 -28 -36c-15 -21 -27 -49 -27 -74
c0 -30 17 -45 50 -45c15 0 28 2 41 7z" />
    <glyph glyph-name="Idot" unicode="&#x130;" horiz-adv-x="285" 
d="M105 0v700h75v-700h-75zM100 855c0 25 20 45 45 45s45 -20 45 -45s-20 -45 -45 -45s-45 20 -45 45z" />
    <glyph glyph-name="dotlessi" unicode="&#x131;" horiz-adv-x="230" 
d="M80 0v480h70v-480h-70z" />
    <glyph glyph-name="uni0132" unicode="&#x132;" horiz-adv-x="705" 
d="M245 60l50 50c8 -9 18 -18 29 -25c19 -13 47 -25 86 -25c76 0 120 45 120 145v495h75v-495c0 -135 -80 -215 -195 -215c-56 0 -97 16 -124 35c-17 10 -30 22 -41 35zM105 0v700h75v-700h-75z" />
    <glyph glyph-name="uni0133" unicode="&#x133;" horiz-adv-x="455" 
d="M70 640c0 25 20 45 45 45s45 -20 45 -45s-20 -45 -45 -45s-45 20 -45 45zM80 0v480h70v-480h-70zM295 640c0 25 20 45 45 45s45 -20 45 -45s-20 -45 -45 -45s-45 20 -45 45zM185 -195v65l16 -8c11 -5 24 -7 39 -7c40 0 65 24 65 75v550h70v-550c0 -93 -43 -140 -130 -140
c-19 0 -32 3 -43 7c-7 3 -12 5 -17 8z" />
    <glyph glyph-name="Jcircumflex" unicode="&#x134;" horiz-adv-x="495" 
d="M10 70l50 50c8 -11 18 -21 30 -30c20 -15 50 -30 90 -30c85 0 140 54 140 145v495h75v-495c0 -125 -90 -215 -215 -215c-56 0 -97 20 -126 40c-17 12 -32 25 -44 40zM210 795l110 135h70l110 -135h-65l-80 95l-80 -95h-65z" />
    <glyph glyph-name="jcircumflex" unicode="&#x135;" horiz-adv-x="230" 
d="M-40 -195v65l16 -8c11 -5 24 -7 39 -7c40 0 65 24 65 75v550h70v-550c0 -93 -43 -140 -130 -140c-19 0 -32 3 -43 7c-7 3 -12 5 -17 8zM-30 565l110 135h70l110 -135h-65l-80 95l-80 -95h-65z" />
    <glyph glyph-name="Kcommaaccent" unicode="&#x136;" horiz-adv-x="670" 
d="M105 0v700h75v-395l360 395h95l-265 -290l290 -410h-90l-250 355l-140 -150v-205h-75zM280 -215l45 135h65l-60 -135h-50z" />
    <glyph glyph-name="kcommaaccent" unicode="&#x137;" horiz-adv-x="510" 
d="M85 0v700h70v-475l240 255h85l-185 -195l205 -285h-80l-170 235l-95 -100v-135h-70zM205 -215l45 135h65l-60 -135h-50z" />
    <glyph glyph-name="Lacute" unicode="&#x139;" horiz-adv-x="560" 
d="M105 0v700h75v-630h360v-70h-435zM120 795l75 135h75l-95 -135h-55z" />
    <glyph glyph-name="lacute" unicode="&#x13a;" horiz-adv-x="240" 
d="M85 0v700h70v-700h-70zM95 795l75 135h75l-95 -135h-55z" />
    <glyph glyph-name="Lcommaaccent" unicode="&#x13b;" horiz-adv-x="560" 
d="M105 0v700h75v-630h360v-70h-435zM255 -215l45 135h65l-60 -135h-50z" />
    <glyph glyph-name="lcommaaccent" unicode="&#x13c;" horiz-adv-x="240" 
d="M85 0v700h70v-700h-70zM40 -215l45 135h65l-60 -135h-50z" />
    <glyph glyph-name="Lcaron" unicode="&#x13d;" horiz-adv-x="560" 
d="M105 0v700h75v-630h360v-70h-435zM265 565l45 135h65l-60 -135h-50z" />
    <glyph glyph-name="lcaron" unicode="&#x13e;" horiz-adv-x="275" 
d="M85 0v700h70v-700h-70zM215 565l45 135h65l-60 -135h-50z" />
    <glyph glyph-name="Ldot" unicode="&#x13f;" horiz-adv-x="560" 
d="M105 0v700h75v-630h360v-70h-435zM300 370c0 25 20 45 45 45s45 -20 45 -45s-20 -45 -45 -45s-45 20 -45 45z" />
    <glyph glyph-name="ldot" unicode="&#x140;" horiz-adv-x="360" 
d="M85 0v700h70v-700h-70zM235 350c0 25 20 45 45 45s45 -20 45 -45s-20 -45 -45 -45s-45 20 -45 45z" />
    <glyph glyph-name="Lslash" unicode="&#x141;" horiz-adv-x="615" 
d="M160 0v285l-120 -70l-35 60l155 85v340h75v-295l140 85l35 -60l-175 -100v-260h360v-70h-435z" />
    <glyph glyph-name="lslash" unicode="&#x142;" horiz-adv-x="350" 
d="M140 0v310l-125 -75l-30 50l155 95v320h70v-285l125 80l30 -50l-155 -100v-345h-70z" />
    <glyph glyph-name="Nacute" unicode="&#x143;" horiz-adv-x="780" 
d="M105 0v700h65l430 -565v565h75v-700h-65l-430 565v-565h-75zM360 795l75 135h75l-95 -135h-55z" />
    <glyph glyph-name="nacute" unicode="&#x144;" horiz-adv-x="580" 
d="M80 0v480h70v-70c10 15 23 28 38 40c27 20 64 40 117 40c115 0 195 -80 195 -205v-285h-70v285c0 85 -54 140 -130 140c-85 0 -150 -64 -150 -160v-265h-70zM270 565l75 135h75l-95 -135h-55z" />
    <glyph glyph-name="Ncommaaccent" unicode="&#x145;" horiz-adv-x="780" 
d="M105 0v700h65l430 -565v565h75v-700h-65l-430 565v-565h-75zM330 -215l45 135h65l-60 -135h-50z" />
    <glyph glyph-name="ncommaaccent" unicode="&#x146;" horiz-adv-x="580" 
d="M80 0v480h70v-70c10 15 23 28 38 40c27 20 64 40 117 40c115 0 195 -80 195 -205v-285h-70v285c0 85 -54 140 -130 140c-85 0 -150 -64 -150 -160v-265h-70zM215 -215l45 135h65l-60 -135h-50z" />
    <glyph glyph-name="Ncaron" unicode="&#x147;" horiz-adv-x="780" 
d="M105 0v700h65l430 -565v565h75v-700h-65l-430 565v-565h-75zM355 795l-110 135h65l80 -95l80 95h65l-110 -135h-70z" />
    <glyph glyph-name="ncaron" unicode="&#x148;" horiz-adv-x="580" 
d="M80 0v480h70v-70c10 15 23 28 38 40c27 20 64 40 117 40c115 0 195 -80 195 -205v-285h-70v285c0 85 -54 140 -130 140c-85 0 -150 -64 -150 -160v-265h-70zM260 565l-110 135h65l80 -95l80 95h65l-110 -135h-70z" />
    <glyph glyph-name="napostrophe" unicode="&#x149;" horiz-adv-x="580" 
d="M80 0v480h70v-70c10 15 23 28 38 40c27 20 64 40 117 40c115 0 195 -80 195 -205v-285h-70v285c0 85 -54 140 -130 140c-85 0 -150 -64 -150 -160v-265h-70zM15 545l45 135h65l-60 -135h-50z" />
    <glyph glyph-name="Eng" unicode="&#x14a;" horiz-adv-x="780" 
d="M105 0v700h65l430 -565v565h75v-700c0 -131 -80 -210 -190 -210c-53 0 -90 15 -117 30c-15 9 -28 19 -38 30l50 50c8 -7 17 -14 28 -20c19 -11 44 -20 77 -20c71 0 115 44 115 140v15l-420 550v-565h-75z" />
    <glyph glyph-name="eng" unicode="&#x14b;" horiz-adv-x="580" 
d="M80 0v480h70v-70c10 15 23 28 38 40c27 20 64 40 117 40c115 0 195 -80 195 -205v-355c0 -93 -43 -140 -130 -140c-19 0 -32 3 -43 7c-7 3 -12 5 -17 8v65l16 -8c11 -5 24 -7 39 -7c40 0 65 24 65 75v355c0 85 -54 140 -130 140c-85 0 -150 -64 -150 -160v-265h-70z" />
    <glyph glyph-name="Omacron" unicode="&#x14c;" horiz-adv-x="840" 
d="M60 350c0 200 160 360 360 360s360 -160 360 -360s-160 -360 -360 -360s-360 160 -360 360zM420 60c160 0 285 125 285 290s-125 290 -285 290s-285 -125 -285 -290s125 -290 285 -290zM275 830v55h290v-55h-290z" />
    <glyph glyph-name="omacron" unicode="&#x14d;" horiz-adv-x="580" 
d="M290 -10c-135 0 -245 110 -245 250s110 250 245 250s245 -110 245 -250s-110 -250 -245 -250zM290 55c95 0 175 80 175 185s-80 185 -175 185s-175 -80 -175 -185c0 -104 80 -185 175 -185zM145 610v55h290v-55h-290z" />
    <glyph glyph-name="Obreve" unicode="&#x14e;" horiz-adv-x="840" 
d="M60 350c0 200 160 360 360 360s360 -160 360 -360s-160 -360 -360 -360s-360 160 -360 360zM420 60c160 0 285 125 285 290s-125 290 -285 290s-285 -125 -285 -290s125 -290 285 -290zM285 930h55c0 -56 29 -85 80 -85s80 29 80 85h55c0 -80 -55 -135 -135 -135
s-135 55 -135 135z" />
    <glyph glyph-name="obreve" unicode="&#x14f;" horiz-adv-x="580" 
d="M290 -10c-135 0 -245 110 -245 250s110 250 245 250s245 -110 245 -250s-110 -250 -245 -250zM290 55c95 0 175 80 175 185s-80 185 -175 185s-175 -80 -175 -185c0 -104 80 -185 175 -185zM155 700h55c0 -56 29 -85 80 -85s80 29 80 85h55c0 -80 -55 -135 -135 -135
s-135 55 -135 135z" />
    <glyph glyph-name="Ohungarumlaut" unicode="&#x150;" horiz-adv-x="840" 
d="M60 350c0 200 160 360 360 360s360 -160 360 -360s-160 -360 -360 -360s-360 160 -360 360zM420 60c160 0 285 125 285 290s-125 290 -285 290s-285 -125 -285 -290s125 -290 285 -290zM315 795l75 135h75l-96 -135h-54zM470 795l74 135h76l-95 -135h-55z" />
    <glyph glyph-name="ohungarumlaut" unicode="&#x151;" horiz-adv-x="580" 
d="M290 -10c-135 0 -245 110 -245 250s110 250 245 250s245 -110 245 -250s-110 -250 -245 -250zM290 55c95 0 175 80 175 185s-80 185 -175 185s-175 -80 -175 -185c0 -104 80 -185 175 -185zM180 565l75 135h75l-96 -135h-54zM335 565l74 135h76l-95 -135h-55z" />
    <glyph glyph-name="OE" unicode="&#x152;" horiz-adv-x="1005" 
d="M590 70h370v-70h-545c-200 0 -355 155 -355 350s155 350 355 350h535v-70h-360v-230h280v-70h-280v-260zM415 70h100v560h-100c-161 0 -280 -121 -280 -280c0 -161 119 -280 280 -280z" />
    <glyph glyph-name="oe" unicode="&#x153;" horiz-adv-x="940" 
d="M830 135l45 -45c-14 -19 -30 -35 -49 -50c-33 -25 -81 -50 -146 -50c-71 0 -121 31 -153 62c-19 18 -35 39 -47 63c-13 -24 -30 -45 -49 -63c-33 -31 -83 -62 -151 -62c-125 0 -235 110 -235 250s110 250 235 250c68 0 118 -32 151 -63c19 -18 36 -39 49 -62
c12 23 27 44 46 62c32 31 81 63 149 63c120 0 220 -100 220 -245c0 -9 -2 -17 -3 -24l-2 -11h-375c11 -84 79 -155 165 -155c51 0 87 20 112 40c15 12 27 25 38 40zM280 55c84 0 165 80 165 185s-81 185 -165 185s-165 -80 -165 -185s81 -185 165 -185zM515 275h310
c-11 90 -69 150 -150 150s-149 -70 -160 -150z" />
    <glyph glyph-name="Racute" unicode="&#x154;" horiz-adv-x="675" 
d="M105 0v700h280c125 0 215 -90 215 -210c0 -80 -37 -129 -73 -160c-21 -17 -45 -31 -72 -40l165 -290h-85l-155 280h-200v-280h-75zM180 350h205c85 0 140 55 140 140s-55 140 -140 140h-205v-280zM310 795l75 135h75l-95 -135h-55z" />
    <glyph glyph-name="racute" unicode="&#x155;" horiz-adv-x="345" 
d="M80 0v480h70v-65c11 13 24 26 39 37c27 19 65 38 121 38h20v-70h-30c-80 0 -150 -60 -150 -155v-265h-70zM175 565l75 135h75l-95 -135h-55z" />
    <glyph glyph-name="Rcommaaccent" unicode="&#x156;" horiz-adv-x="675" 
d="M105 0v700h280c125 0 215 -90 215 -210c0 -80 -37 -129 -73 -160c-21 -17 -45 -31 -72 -40l165 -290h-85l-155 280h-200v-280h-75zM180 350h205c85 0 140 55 140 140s-55 140 -140 140h-205v-280zM275 -215l45 135h65l-60 -135h-50z" />
    <glyph glyph-name="rcommaaccent" unicode="&#x157;" horiz-adv-x="345" 
d="M80 0v480h70v-65c11 13 24 26 39 37c27 19 65 38 121 38h20v-70h-30c-80 0 -150 -60 -150 -155v-265h-70zM40 -215l45 135h65l-60 -135h-50z" />
    <glyph glyph-name="Rcaron" unicode="&#x158;" horiz-adv-x="675" 
d="M105 0v700h280c125 0 215 -90 215 -210c0 -80 -37 -129 -73 -160c-21 -17 -45 -31 -72 -40l165 -290h-85l-155 280h-200v-280h-75zM180 350h205c85 0 140 55 140 140s-55 140 -140 140h-205v-280zM310 795l-110 135h65l80 -95l80 95h65l-110 -135h-70z" />
    <glyph glyph-name="rcaron" unicode="&#x159;" horiz-adv-x="345" 
d="M80 0v480h70v-65c11 13 24 26 39 37c27 19 65 38 121 38h20v-70h-30c-80 0 -150 -60 -150 -155v-265h-70zM170 565l-110 135h65l80 -95l80 95h65l-110 -135h-70z" />
    <glyph glyph-name="Sacute" unicode="&#x15a;" horiz-adv-x="565" 
d="M45 95l45 51c13 -17 28 -31 46 -43c31 -23 79 -43 144 -43c105 0 160 54 160 130c0 179 -380 81 -380 330c0 101 86 190 225 190c68 0 118 -22 153 -45c20 -13 37 -28 52 -45l-50 -50c-11 13 -24 24 -39 35c-27 17 -64 35 -116 35c-96 0 -150 -57 -150 -120
c0 -180 380 -81 380 -330c0 -115 -85 -200 -235 -200c-80 0 -139 25 -178 52c-23 15 -42 33 -57 53zM250 795l75 135h75l-95 -135h-55z" />
    <glyph glyph-name="sacute" unicode="&#x15b;" horiz-adv-x="430" 
d="M35 75l50 50c9 -13 20 -25 32 -35c21 -19 53 -35 93 -35c71 0 105 35 105 80c0 110 -260 55 -260 220c0 69 64 135 160 135c51 0 88 -17 115 -33c15 -9 29 -20 40 -32l-50 -50c-7 9 -16 18 -26 25c-19 12 -44 25 -79 25c-55 0 -90 -35 -90 -70c0 -105 260 -50 260 -220
c0 -80 -66 -145 -175 -145c-60 0 -104 21 -133 42c-17 12 -31 26 -42 43zM185 565l75 135h75l-95 -135h-55z" />
    <glyph glyph-name="Scircumflex" unicode="&#x15c;" horiz-adv-x="565" 
d="M45 95l45 51c13 -17 28 -31 46 -43c31 -23 79 -43 144 -43c105 0 160 54 160 130c0 179 -380 81 -380 330c0 101 86 190 225 190c68 0 118 -22 153 -45c20 -13 37 -28 52 -45l-50 -50c-11 13 -24 24 -39 35c-27 17 -64 35 -116 35c-96 0 -150 -57 -150 -120
c0 -180 380 -81 380 -330c0 -115 -85 -200 -235 -200c-80 0 -139 25 -178 52c-23 15 -42 33 -57 53zM135 795l110 135h70l110 -135h-65l-80 95l-80 -95h-65z" />
    <glyph glyph-name="scircumflex" unicode="&#x15d;" horiz-adv-x="430" 
d="M35 75l50 50c9 -13 20 -25 32 -35c21 -19 53 -35 93 -35c71 0 105 35 105 80c0 110 -260 55 -260 220c0 69 64 135 160 135c51 0 88 -17 115 -33c15 -9 29 -20 40 -32l-50 -50c-7 9 -16 18 -26 25c-19 12 -44 25 -79 25c-55 0 -90 -35 -90 -70c0 -105 260 -50 260 -220
c0 -80 -66 -145 -175 -145c-60 0 -104 21 -133 42c-17 12 -31 26 -42 43zM70 565l110 135h70l110 -135h-65l-80 95l-80 -95h-65z" />
    <glyph glyph-name="Scedilla" unicode="&#x15e;" horiz-adv-x="565" 
d="M185 -173l20 33c5 -5 10 -10 17 -13c11 -7 28 -12 48 -12c31 0 50 20 50 40s-15 35 -40 35c-9 0 -17 -2 -22 -5c-3 -2 -5 -4 -8 -5l-25 25l31 66c-72 5 -125 31 -160 56c-21 15 -38 31 -51 48l45 51c13 -17 28 -31 46 -43c31 -23 79 -43 144 -43c105 0 160 54 160 130
c0 179 -380 81 -380 330c0 101 86 190 225 190c68 0 118 -22 153 -45c20 -13 37 -28 52 -45l-50 -50c-11 13 -24 24 -39 35c-27 17 -64 35 -116 35c-96 0 -150 -57 -150 -120c0 -180 380 -81 380 -330c0 -110 -77 -191 -214 -199l-21 -46h5c51 0 80 -29 80 -72
s-35 -78 -95 -78c-25 0 -46 8 -61 16c-9 5 -17 10 -24 16z" />
    <glyph glyph-name="scedilla" unicode="&#x15f;" horiz-adv-x="430" 
d="M115 -173l20 33c5 -5 10 -10 17 -13c11 -7 28 -12 48 -12c31 0 50 20 50 40s-15 35 -40 35c-9 0 -17 -2 -22 -5c-3 -2 -5 -4 -8 -5l-25 25l31 66c-52 5 -89 26 -114 46c-15 12 -27 25 -37 38l50 50c9 -13 20 -25 32 -35c21 -19 53 -35 93 -35c71 0 105 35 105 80
c0 110 -260 55 -260 220c0 69 64 135 160 135c51 0 88 -17 115 -33c15 -9 29 -20 40 -32l-50 -50c-7 9 -16 18 -26 25c-19 12 -44 25 -79 25c-55 0 -90 -35 -90 -70c0 -105 260 -50 260 -220c0 -75 -57 -136 -154 -144l-21 -46h5c51 0 80 -29 80 -72s-35 -78 -95 -78
c-25 0 -46 8 -61 16c-9 5 -17 10 -24 16z" />
    <glyph glyph-name="Scaron" unicode="&#x160;" horiz-adv-x="565" 
d="M45 95l45 51c13 -17 28 -31 46 -43c31 -23 79 -43 144 -43c105 0 160 54 160 130c0 179 -380 81 -380 330c0 101 86 190 225 190c68 0 118 -22 153 -45c20 -13 37 -28 52 -45l-50 -50c-11 13 -24 24 -39 35c-27 17 -64 35 -116 35c-96 0 -150 -57 -150 -120
c0 -180 380 -81 380 -330c0 -115 -85 -200 -235 -200c-80 0 -139 25 -178 52c-23 15 -42 33 -57 53zM245 795l-110 135h65l80 -95l80 95h65l-110 -135h-70z" />
    <glyph glyph-name="scaron" unicode="&#x161;" horiz-adv-x="430" 
d="M35 75l50 50c9 -13 20 -25 32 -35c21 -19 53 -35 93 -35c71 0 105 35 105 80c0 110 -260 55 -260 220c0 69 64 135 160 135c51 0 88 -17 115 -33c15 -9 29 -20 40 -32l-50 -50c-7 9 -16 18 -26 25c-19 12 -44 25 -79 25c-55 0 -90 -35 -90 -70c0 -105 260 -50 260 -220
c0 -80 -66 -145 -175 -145c-60 0 -104 21 -133 42c-17 12 -31 26 -42 43zM180 565l-110 135h65l80 -95l80 95h65l-110 -135h-70z" />
    <glyph glyph-name="uni0162" unicode="&#x162;" horiz-adv-x="555" 
d="M194 -173l20 33c5 -5 10 -10 17 -13c11 -7 28 -12 48 -12c31 0 50 20 50 40s-15 35 -40 35c-9 0 -17 -2 -22 -5c-3 -2 -5 -4 -8 -5l-25 25l36 75h-30v630h-220v70h515v-70h-220v-630l-26 -55h5c51 0 80 -29 80 -72s-35 -78 -95 -78c-25 0 -46 8 -61 16
c-9 5 -17 10 -24 16z" />
    <glyph glyph-name="uni0163" unicode="&#x163;" horiz-adv-x="360" 
d="M135 -173l20 33c5 -5 10 -10 17 -13c11 -7 28 -12 48 -12c31 0 50 20 50 40s-15 35 -40 35c-9 0 -17 -2 -22 -5c-3 -2 -5 -4 -8 -5l-25 25l33 70c-53 15 -88 59 -88 135v285h-90v65h55c27 0 40 17 40 50v110h65v-160h105v-65h-105v-285c0 -51 25 -75 65 -75
c17 0 34 3 46 7c7 3 14 5 19 8v-65c-6 -3 -13 -5 -20 -8c-13 -4 -30 -7 -50 -7l-20 -45h5c51 0 80 -29 80 -72s-35 -78 -95 -78c-25 0 -46 8 -61 16c-9 5 -17 10 -24 16z" />
    <glyph glyph-name="Tcaron" unicode="&#x164;" horiz-adv-x="555" 
d="M240 0v630h-220v70h515v-70h-220v-630h-75zM245 795l-110 135h65l80 -95l80 95h65l-110 -135h-70z" />
    <glyph glyph-name="tcaron" unicode="&#x165;" horiz-adv-x="365" 
d="M120 130v285h-90v65h55c27 0 40 17 40 50v110h65v-160h105v-65h-105v-285c0 -51 25 -75 65 -75c17 0 34 3 46 7c7 3 14 5 19 8v-65c-6 -3 -13 -5 -20 -8c-12 -4 -29 -7 -48 -7c-83 0 -132 49 -132 140zM305 565l45 135h65l-60 -135h-50z" />
    <glyph glyph-name="Tbar" unicode="&#x166;" horiz-adv-x="555" 
d="M240 0v370h-155v70h155v190h-220v70h515v-70h-220v-190h155v-70h-155v-370h-75z" />
    <glyph glyph-name="tbar" unicode="&#x167;" horiz-adv-x="370" 
d="M125 130v95h-90v65h90v125h-90v65h55c27 0 40 17 40 50v110h65v-160h105v-65h-105v-125h105v-65h-105v-95c0 -51 25 -75 65 -75c17 0 34 3 46 7c7 3 14 5 19 8v-65c-6 -3 -13 -5 -20 -8c-12 -4 -29 -7 -48 -7c-83 0 -132 49 -132 140z" />
    <glyph glyph-name="Umacron" unicode="&#x16a;" horiz-adv-x="760" 
d="M95 275v425h75v-425c0 -125 90 -215 210 -215s210 90 210 215v425h75v-425c0 -160 -125 -285 -285 -285s-285 125 -285 285zM235 830v55h290v-55h-290z" />
    <glyph glyph-name="umacron" unicode="&#x16b;" horiz-adv-x="585" 
d="M80 200v280h70v-280c0 -85 60 -145 135 -145c80 0 145 64 145 160v265h70v-480h-70v65c-10 -14 -23 -27 -38 -38c-27 -19 -65 -37 -117 -37c-110 0 -195 85 -195 210zM145 610v55h290v-55h-290z" />
    <glyph glyph-name="Ubreve" unicode="&#x16c;" horiz-adv-x="760" 
d="M95 275v425h75v-425c0 -125 90 -215 210 -215s210 90 210 215v425h75v-425c0 -160 -125 -285 -285 -285s-285 125 -285 285zM245 930h55c0 -56 29 -85 80 -85s80 29 80 85h55c0 -80 -55 -135 -135 -135s-135 55 -135 135z" />
    <glyph glyph-name="ubreve" unicode="&#x16d;" horiz-adv-x="585" 
d="M80 200v280h70v-280c0 -85 60 -145 135 -145c80 0 145 64 145 160v265h70v-480h-70v65c-10 -14 -23 -27 -38 -38c-27 -19 -65 -37 -117 -37c-110 0 -195 85 -195 210zM155 700h55c0 -56 29 -85 80 -85s80 29 80 85h55c0 -80 -55 -135 -135 -135s-135 55 -135 135z" />
    <glyph glyph-name="Uring" unicode="&#x16e;" horiz-adv-x="760" 
d="M95 275v425h75v-425c0 -125 90 -215 210 -215s210 90 210 215v425h75v-425c0 -160 -125 -285 -285 -285s-285 125 -285 285zM285 860c0 51 43 90 95 90s95 -39 95 -90s-43 -90 -95 -90s-95 39 -95 90zM380 815c25 0 45 20 45 45s-20 45 -45 45s-45 -20 -45 -45
s20 -45 45 -45z" />
    <glyph glyph-name="uring" unicode="&#x16f;" horiz-adv-x="585" 
d="M80 200v280h70v-280c0 -85 60 -145 135 -145c80 0 145 64 145 160v265h70v-480h-70v65c-10 -14 -23 -27 -38 -38c-27 -19 -65 -37 -117 -37c-110 0 -195 85 -195 210zM195 640c0 51 43 90 95 90s95 -39 95 -90s-43 -90 -95 -90s-95 39 -95 90zM290 595c25 0 45 20 45 45
s-20 45 -45 45s-45 -20 -45 -45s20 -45 45 -45z" />
    <glyph glyph-name="Uhungarumlaut" unicode="&#x170;" horiz-adv-x="760" 
d="M95 275v425h75v-425c0 -125 90 -215 210 -215s210 90 210 215v425h75v-425c0 -160 -125 -285 -285 -285s-285 125 -285 285zM265 795l75 135h75l-96 -135h-54zM420 795l74 135h76l-95 -135h-55z" />
    <glyph glyph-name="uhungarumlaut" unicode="&#x171;" horiz-adv-x="585" 
d="M80 200v280h70v-280c0 -85 60 -145 135 -145c80 0 145 64 145 160v265h70v-480h-70v65c-10 -14 -23 -27 -38 -38c-27 -19 -65 -37 -117 -37c-110 0 -195 85 -195 210zM180 565l75 135h75l-96 -135h-54zM335 565l74 135h76l-95 -135h-55z" />
    <glyph glyph-name="Uogonek" unicode="&#x172;" horiz-adv-x="760" 
d="M480 -140v-50c-6 -3 -13 -5 -20 -8c-12 -4 -27 -7 -46 -7c-60 0 -94 34 -94 90c0 48 30 90 45 105c-153 8 -270 130 -270 285v425h75v-425c0 -125 90 -215 210 -215s210 90 210 215v425h75v-425c0 -146 -107 -266 -247 -282c-14 -17 -48 -62 -48 -103
c0 -30 17 -45 50 -45c15 0 28 2 41 7z" />
    <glyph glyph-name="uogonek" unicode="&#x173;" horiz-adv-x="585" 
d="M80 200v280h70v-280c0 -85 60 -145 135 -145c80 0 145 64 145 160v265h70v-480h-20c-11 -12 -20 -24 -28 -36c-15 -21 -27 -49 -27 -74c0 -30 17 -45 50 -45c15 0 28 2 41 7l19 8v-50c-6 -3 -13 -5 -20 -8c-12 -4 -27 -7 -46 -7c-60 0 -94 34 -94 90c0 32 12 61 27 82
c8 12 17 23 28 33v65c-10 -14 -23 -27 -38 -38c-27 -19 -65 -37 -117 -37c-110 0 -195 85 -195 210z" />
    <glyph glyph-name="Wcircumflex" unicode="&#x174;" horiz-adv-x="1040" 
d="M260 0l-230 700h80l185 -585l190 585h70l190 -585l185 585h80l-230 -700h-75l-185 585l-185 -585h-75zM375 795l110 135h70l110 -135h-65l-80 95l-80 -95h-65z" />
    <glyph glyph-name="wcircumflex" unicode="&#x175;" horiz-adv-x="730" 
d="M180 0l-165 480h75l125 -370l120 370h60l120 -370l125 370h75l-165 -480h-65l-120 365l-120 -365h-65zM220 565l110 135h70l110 -135h-65l-80 95l-80 -95h-65z" />
    <glyph glyph-name="Ycircumflex" unicode="&#x176;" horiz-adv-x="635" 
d="M280 0v245l-260 455h85l210 -375h5l210 375h85l-260 -455v-245h-75zM175 795l110 135h70l110 -135h-65l-80 95l-80 -95h-65z" />
    <glyph glyph-name="ycircumflex" unicode="&#x177;" horiz-adv-x="490" 
d="M45 -200v65c5 -2 11 -4 16 -5c10 -3 21 -5 34 -5c45 0 71 24 90 75l25 70l-195 480h75l155 -390l155 390h75l-220 -550c-40 -100 -81 -140 -150 -140c-17 0 -31 2 -43 5c-7 1 -12 3 -17 5zM100 565l110 135h70l110 -135h-65l-80 95l-80 -95h-65z" />
    <glyph glyph-name="Ydieresis" unicode="&#x178;" horiz-adv-x="635" 
d="M280 0v245l-260 455h85l210 -375h5l210 375h85l-260 -455v-245h-75zM180 855c0 25 20 45 45 45s45 -20 45 -45s-20 -45 -45 -45s-45 20 -45 45zM370 855c0 25 20 45 45 45s45 -20 45 -45s-20 -45 -45 -45s-45 20 -45 45z" />
    <glyph glyph-name="Zacute" unicode="&#x179;" 
d="M45 0v70l410 560h-395v70h485v-70l-410 -560h420v-70h-510zM270 795l75 135h75l-95 -135h-55z" />
    <glyph glyph-name="zacute" unicode="&#x17a;" horiz-adv-x="465" 
d="M40 0v65l290 350h-280v65h365v-65l-290 -350h300v-65h-385zM205 565l75 135h75l-95 -135h-55z" />
    <glyph glyph-name="Zdotaccent" unicode="&#x17b;" 
d="M45 0v70l410 560h-395v70h485v-70l-410 -560h420v-70h-510zM255 855c0 25 20 45 45 45s45 -20 45 -45s-20 -45 -45 -45s-45 20 -45 45z" />
    <glyph glyph-name="zdotaccent" unicode="&#x17c;" horiz-adv-x="465" 
d="M40 0v65l290 350h-280v65h365v-65l-290 -350h300v-65h-385zM185 630c0 25 20 45 45 45s45 -20 45 -45s-20 -45 -45 -45s-45 20 -45 45z" />
    <glyph glyph-name="Zcaron" unicode="&#x17d;" 
d="M45 0v70l410 560h-395v70h485v-70l-410 -560h420v-70h-510zM265 795l-110 135h65l80 -95l80 95h65l-110 -135h-70z" />
    <glyph glyph-name="zcaron" unicode="&#x17e;" horiz-adv-x="465" 
d="M40 0v65l290 350h-280v65h365v-65l-290 -350h300v-65h-385zM195 565l-110 135h65l80 -95l80 95h65l-110 -135h-70z" />
    <glyph glyph-name="uni018F" unicode="&#x18f;" horiz-adv-x="785" 
d="M60 350h590c0 176 -115 290 -270 290c-79 0 -134 -25 -171 -50c-22 -15 -40 -31 -54 -50l-50 45c19 23 41 44 68 62c47 31 114 63 207 63c195 0 345 -149 345 -360c0 -215 -145 -360 -330 -360c-190 0 -335 145 -335 360zM644 280h-503c24 -139 123 -220 254 -220
c125 0 225 80 249 220z" />
    <glyph glyph-name="florin" unicode="&#x192;" horiz-adv-x="350" 
d="M-80 -200v65c5 -3 10 -5 17 -8c11 -4 24 -7 43 -7c44 0 71 25 80 75l75 410h-80v65h90l35 170c19 96 65 140 150 140c17 0 32 -4 43 -8l17 -7v-65l-17 7c-11 4 -26 8 -43 8c-43 0 -70 -25 -80 -75l-35 -170h115v-65h-125l-75 -410c-17 -93 -67 -140 -150 -140
c-19 0 -32 3 -43 7c-7 3 -12 5 -17 8z" />
    <glyph glyph-name="Aringacute" unicode="&#x1fa;" horiz-adv-x="690" 
d="M325 855l75 135h75l-95 -135h-55zM20 0l279 670c-29 15 -49 44 -49 75c0 51 39 90 95 90s95 -39 95 -90c0 -31 -20 -60 -49 -75l279 -670h-80l-80 195h-330l-80 -195h-80zM210 265h270l-135 335zM300 745c0 -25 20 -45 45 -45s45 20 45 45s-20 45 -45 45s-45 -20 -45 -45
z" />
    <glyph glyph-name="aringacute" unicode="&#x1fb;" horiz-adv-x="520" 
d="M170 600c0 51 42 90 95 90s95 -39 95 -90s-42 -90 -95 -90s-95 39 -95 90zM235 710l75 125h75l-95 -125h-55zM220 600c0 -25 20 -45 45 -45s45 20 45 45s-20 45 -45 45s-45 -20 -45 -45zM370 0v65c-10 -14 -23 -27 -38 -38c-27 -19 -65 -37 -117 -37
c-100 0 -170 70 -170 140c0 80 49 130 140 145l185 30c0 71 -49 120 -120 120c-43 0 -76 -18 -99 -35c-13 -11 -25 -22 -36 -35l-45 45c13 17 29 32 47 45c31 23 74 45 133 45c110 0 190 -80 190 -185v-305h-70zM370 215v30l-165 -30c-60 -11 -90 -40 -90 -85
c0 -40 35 -75 100 -75c91 0 155 64 155 160z" />
    <glyph glyph-name="AEacute" unicode="&#x1fc;" horiz-adv-x="950" 
d="M-30 0l390 700h535v-70h-360v-230h280v-70h-280v-260h370v-70h-445v205h-295l-115 -205h-80zM200 275h260v355h-60zM535 795l75 135h75l-95 -135h-55z" />
    <glyph glyph-name="aeacute" unicode="&#x1fd;" horiz-adv-x="870" 
d="M125 355l-45 45c12 17 27 32 44 45c29 23 73 45 130 45c60 0 101 -25 128 -50c15 -15 28 -31 38 -50c13 19 29 35 47 50c31 25 78 50 138 50c120 0 220 -100 220 -245c0 -8 -2 -14 -3 -21l-2 -9h-375c5 -85 81 -160 167 -160c51 0 87 20 112 40c15 12 27 25 38 40l46 -45
c-14 -19 -31 -35 -50 -50c-33 -25 -82 -50 -146 -50c-68 0 -119 29 -152 60c-20 17 -37 37 -50 60c-11 -23 -25 -43 -43 -60c-31 -31 -80 -60 -152 -60c-104 0 -170 65 -170 140c0 80 70 150 165 150h165v15c0 77 -49 130 -120 130c-43 0 -74 -18 -97 -35
c-13 -11 -24 -22 -33 -35zM445 280h315c-15 85 -75 145 -155 145c-81 0 -149 -70 -160 -145zM375 215h-165c-60 0 -95 -34 -95 -85c0 -40 35 -75 100 -75c96 0 160 75 160 160zM410 565l75 135h75l-95 -135h-55z" />
    <glyph glyph-name="Oslashacute" unicode="&#x1fe;" horiz-adv-x="840" 
d="M50 30l90 90c-15 18 -28 39 -40 62c-20 40 -40 97 -40 168c0 200 160 360 360 360c71 0 127 -20 167 -40c23 -12 44 -25 63 -40l90 90l50 -50l-90 -90c15 -19 28 -40 40 -63c20 -40 40 -96 40 -167c0 -200 -160 -360 -360 -360c-71 0 -128 20 -168 40
c-23 12 -44 25 -62 40l-90 -90zM190 170l410 410c-15 11 -31 21 -49 30c-31 15 -75 30 -131 30c-160 0 -285 -125 -285 -290c0 -56 12 -100 27 -131c8 -18 17 -34 28 -49zM650 530l-410 -410c15 -11 31 -21 49 -30c31 -15 75 -30 131 -30c160 0 285 125 285 290
c0 56 -13 100 -28 131c-8 18 -17 34 -27 49zM395 795l75 135h75l-95 -135h-55z" />
    <glyph glyph-name="oslashacute" unicode="&#x1ff;" horiz-adv-x="580" 
d="M35 20l65 65c-11 11 -20 25 -28 40c-15 27 -27 64 -27 115c0 140 110 250 245 250c45 0 81 -13 106 -25c15 -7 28 -16 39 -25l65 65l45 -45l-65 -65c10 -11 19 -25 27 -40c15 -27 28 -64 28 -115c0 -140 -110 -250 -245 -250c-45 0 -81 12 -106 25c-15 7 -28 16 -39 25
l-65 -65zM145 135l245 255c-9 6 -18 12 -28 17c-19 9 -41 18 -72 18c-95 0 -175 -80 -175 -185c0 -33 7 -58 15 -77c4 -11 9 -20 15 -28zM435 345l-245 -255c7 -7 16 -13 27 -18c17 -9 42 -17 73 -17c95 0 175 80 175 185c0 32 -8 58 -15 77c-5 11 -10 20 -15 28zM265 565
l75 135h75l-95 -135h-55z" />
    <glyph glyph-name="Scommaaccent" unicode="&#x218;" horiz-adv-x="565" 
d="M45 95l45 51c13 -17 28 -31 46 -43c31 -23 79 -43 144 -43c105 0 160 54 160 130c0 179 -380 81 -380 330c0 101 86 190 225 190c68 0 118 -22 153 -45c20 -13 37 -28 52 -45l-50 -50c-11 13 -24 24 -39 35c-27 17 -64 35 -116 35c-96 0 -150 -57 -150 -120
c0 -180 380 -81 380 -330c0 -115 -85 -200 -235 -200c-80 0 -139 25 -178 52c-23 15 -42 33 -57 53zM210 -215l45 135h65l-60 -135h-50z" />
    <glyph glyph-name="scommaaccent" unicode="&#x219;" horiz-adv-x="430" 
d="M35 75l50 50c9 -13 20 -25 32 -35c21 -19 53 -35 93 -35c71 0 105 35 105 80c0 110 -260 55 -260 220c0 69 64 135 160 135c51 0 88 -17 115 -33c15 -9 29 -20 40 -32l-50 -50c-7 9 -16 18 -26 25c-19 12 -44 25 -79 25c-55 0 -90 -35 -90 -70c0 -105 260 -50 260 -220
c0 -80 -66 -145 -175 -145c-60 0 -104 21 -133 42c-17 12 -31 26 -42 43zM135 -215l45 135h65l-60 -135h-50z" />
    <glyph glyph-name="uni021A" unicode="&#x21a;" horiz-adv-x="555" 
d="M240 0v630h-220v70h515v-70h-220v-630h-75zM200 -215l45 135h65l-60 -135h-50z" />
    <glyph glyph-name="uni021B" unicode="&#x21b;" horiz-adv-x="360" 
d="M120 130v285h-90v65h55c27 0 40 17 40 50v110h65v-160h105v-65h-105v-285c0 -51 25 -75 65 -75c17 0 34 3 46 7c7 3 14 5 19 8v-65c-6 -3 -13 -5 -20 -8c-12 -4 -29 -7 -48 -7c-83 0 -132 49 -132 140zM145 -215l45 135h65l-60 -135h-50z" />
    <glyph glyph-name="uni0232" unicode="&#x232;" horiz-adv-x="635" 
d="M280 0v245l-260 455h85l210 -375h5l210 375h85l-260 -455v-245h-75zM175 830v55h290v-55h-290z" />
    <glyph glyph-name="uni0233" unicode="&#x233;" horiz-adv-x="490" 
d="M45 -200v65c5 -2 11 -4 16 -5c10 -3 21 -5 34 -5c45 0 71 24 90 75l25 70l-195 480h75l155 -390l155 390h75l-220 -550c-40 -100 -81 -140 -150 -140c-17 0 -31 2 -43 5c-7 1 -12 3 -17 5zM100 610v55h290v-55h-290z" />
    <glyph glyph-name="uni0244" unicode="&#x244;" horiz-adv-x="770" 
d="M10 375v70h100v255h75v-255h400v255h75v-255h100v-70h-100v-100c0 -164 -119 -285 -275 -285s-275 121 -275 285v100h-100zM185 375v-100c0 -130 85 -215 200 -215s200 85 200 215v100h-400z" />
    <glyph glyph-name="uni0259" unicode="&#x259;" horiz-adv-x="555" 
d="M45 240v16l395 -1c-5 90 -79 170 -170 170c-51 0 -88 -19 -113 -38c-15 -11 -27 -24 -37 -37l-50 40c14 19 31 35 51 50c35 25 84 50 149 50c131 0 240 -110 240 -250s-110 -250 -230 -250c-136 0 -235 101 -235 250zM435 195h-315c11 -85 75 -140 160 -140
c76 0 144 60 155 140z" />
    <glyph glyph-name="uni0289" unicode="&#x289;" 
d="M20 250v65h75v165h70v-165h270v165h70v-165h75v-65h-75v-250h-70v65c-11 -14 -23 -27 -38 -38c-25 -19 -61 -37 -112 -37c-110 0 -190 79 -190 210v50h-75zM165 250v-50c0 -91 54 -145 130 -145c80 0 140 60 140 160v35h-270z" />
    <glyph glyph-name="uni02BC" unicode="&#x2bc;" horiz-adv-x="170" 
d="M30 565l45 135h65l-60 -135h-50z" />
    <glyph glyph-name="circumflex" unicode="&#x2c6;" horiz-adv-x="350" 
d="M30 565l110 135h70l110 -135h-65l-80 95l-80 -95h-65z" />
    <glyph glyph-name="caron" unicode="&#x2c7;" horiz-adv-x="350" 
d="M140 565l-110 135h65l80 -95l80 95h65l-110 -135h-70z" />
    <glyph glyph-name="breve" unicode="&#x2d8;" horiz-adv-x="330" 
d="M30 700h55c0 -56 29 -85 80 -85s80 29 80 85h55c0 -80 -55 -135 -135 -135s-135 55 -135 135z" />
    <glyph glyph-name="dotaccent" unicode="&#x2d9;" horiz-adv-x="150" 
d="M30 640c0 25 20 45 45 45s45 -20 45 -45s-20 -45 -45 -45s-45 20 -45 45z" />
    <glyph glyph-name="ring" unicode="&#x2da;" horiz-adv-x="250" 
d="M30 600c0 51 43 90 95 90s95 -39 95 -90s-43 -90 -95 -90s-95 39 -95 90zM125 555c25 0 45 20 45 45s-20 45 -45 45s-45 -20 -45 -45s20 -45 45 -45z" />
    <glyph glyph-name="ogonek" unicode="&#x2db;" horiz-adv-x="220" 
d="M190 -140v-50c-6 -3 -13 -5 -20 -8c-12 -4 -27 -7 -46 -7c-60 0 -94 34 -94 90c0 32 12 61 27 82c8 12 17 23 28 33h50c-11 -12 -20 -24 -28 -36c-15 -21 -27 -49 -27 -74c0 -30 17 -45 50 -45c15 0 28 2 41 7z" />
    <glyph glyph-name="tilde" unicode="&#x2dc;" horiz-adv-x="370" 
d="M80 575h-50c0 80 39 120 90 120c70 0 85 -65 130 -65c20 0 40 20 40 65h50c0 -80 -39 -120 -90 -120c-70 0 -85 65 -130 65c-20 0 -40 -20 -40 -65z" />
    <glyph glyph-name="hungarumlaut" unicode="&#x2dd;" horiz-adv-x="365" 
d="M30 565l75 135h75l-96 -135h-54zM185 565l74 135h76l-95 -135h-55z" />
    <glyph glyph-name="acutecomb" unicode="&#x301;" horiz-adv-x="0" 
d="M-400 730l75 135h75l-95 -135h-55z" />
    <glyph glyph-name="uni0302" unicode="&#x302;" horiz-adv-x="0" 
d="M-520 730l110 135h70l110 -135h-65l-80 95l-80 -95h-65z" />
    <glyph glyph-name="uni0304" unicode="&#x304;" horiz-adv-x="0" 
d="M-515 770v55h290v-55h-290z" />
    <glyph glyph-name="uni0306" unicode="&#x306;" horiz-adv-x="0" 
d="M-505 855h55c0 -56 29 -85 80 -85s80 29 80 85h55c0 -80 -55 -135 -135 -135s-135 55 -135 135z" />
    <glyph glyph-name="uni0307" unicode="&#x307;" horiz-adv-x="0" 
d="M-415 795c0 25 20 45 45 45s45 -20 45 -45s-20 -45 -45 -45s-45 20 -45 45z" />
    <glyph glyph-name="uni0308" unicode="&#x308;" horiz-adv-x="0" 
d="M-515 795c0 25 20 45 45 45s45 -20 45 -45s-20 -45 -45 -45s-45 20 -45 45zM-325 795c0 25 20 45 45 45s45 -20 45 -45s-20 -45 -45 -45s-45 20 -45 45z" />
    <glyph glyph-name="uni030A" unicode="&#x30a;" horiz-adv-x="0" 
d="M-465 825c0 51 43 90 95 90s95 -39 95 -90s-43 -90 -95 -90s-95 39 -95 90zM-370 780c25 0 45 20 45 45s-20 45 -45 45s-45 -20 -45 -45s20 -45 45 -45z" />
    <glyph glyph-name="uni030C" unicode="&#x30c;" horiz-adv-x="0" 
d="M-401 730l-110 135h65l80 -95l80 95h65l-110 -135h-70z" />
    <glyph glyph-name="uni0326" unicode="&#x326;" horiz-adv-x="170" 
d="M30 -215l45 135h65l-60 -135h-50z" />
    <glyph glyph-name="Alphatonos" unicode="&#x386;" horiz-adv-x="690" 
d="M80 565l75 135h75l-95 -135h-55zM20 0l290 700h70l290 -700h-80l-80 195h-330l-80 -195h-80zM210 265h270l-135 330z" />
    <glyph glyph-name="Epsilontonos" unicode="&#x388;" horiz-adv-x="640" 
d="M-65 565l75 135h75l-95 -135h-55zM105 0v700h480v-70h-405v-230h325v-70h-325v-260h415v-70h-490z" />
    <glyph glyph-name="Etatonos" unicode="&#x389;" horiz-adv-x="750" 
d="M-65 565l75 135h75l-95 -135h-55zM105 0v700h75v-310h390v310h75v-700h-75v320h-390v-320h-75z" />
    <glyph glyph-name="Iotatonos" unicode="&#x38a;" horiz-adv-x="285" 
d="M-65 565l75 135h75l-95 -135h-55zM105 0v700h75v-700h-75z" />
    <glyph glyph-name="Omicrontonos" unicode="&#x38c;" horiz-adv-x="840" 
d="M-20 565l75 135h75l-95 -135h-55zM60 350c0 200 160 360 360 360s360 -160 360 -360s-160 -360 -360 -360s-360 160 -360 360zM420 60c160 0 285 125 285 290s-125 290 -285 290s-285 -125 -285 -290s125 -290 285 -290z" />
    <glyph glyph-name="Upsilontonos" unicode="&#x38e;" horiz-adv-x="675" 
d="M-100 565l75 135h75l-95 -135h-55zM320 0v245l-260 455h85l210 -375h5l210 375h85l-260 -455v-245h-75z" />
    <glyph glyph-name="Omegatonos" unicode="&#x38f;" horiz-adv-x="870" 
d="M105 0v70h125c-95 55 -155 169 -155 280c0 200 160 360 360 360s360 -160 360 -360c0 -111 -60 -225 -155 -280h125v-70h-250v70c115 35 205 145 205 280c0 165 -125 290 -285 290s-285 -125 -285 -290c0 -135 90 -245 205 -280v-70h-250zM-5 565l75 135h75l-95 -135h-55
z" />
    <glyph glyph-name="iotadieresistonos" unicode="&#x390;" horiz-adv-x="295" 
d="M-25 630c0 25 20 45 45 45s45 -20 45 -45s-20 -45 -45 -45s-45 20 -45 45zM165 630c0 25 20 45 45 45s45 -20 45 -45s-20 -45 -45 -45s-45 20 -45 45zM44 565l75 135h75l-95 -135h-55zM80 130v350h70v-350c0 -50 23 -75 70 -75c15 0 28 3 39 7l16 8v-65
c-5 -3 -12 -5 -19 -8c-12 -4 -29 -7 -46 -7c-80 0 -130 49 -130 140z" />
    <glyph glyph-name="Alpha" unicode="&#x391;" horiz-adv-x="690" 
d="M20 0l290 700h70l290 -700h-80l-80 195h-330l-80 -195h-80zM210 265h270l-135 330z" />
    <glyph glyph-name="Beta" unicode="&#x392;" horiz-adv-x="665" 
d="M105 0v700h270c115 0 195 -80 195 -180c0 -56 -20 -91 -40 -114c-12 -13 -25 -24 -40 -31c21 -10 40 -23 57 -39c29 -28 58 -71 58 -136c0 -115 -85 -200 -215 -200h-285zM180 406h195c76 0 120 43 120 114c0 65 -44 110 -120 110h-195v-224zM180 70h210
c85 0 140 54 140 130c0 75 -55 140 -140 140h-210v-270z" />
    <glyph glyph-name="Gamma" unicode="&#x393;" horiz-adv-x="550" 
d="M105 0v700h435v-70h-360v-630h-75z" />
    <glyph glyph-name="uni0394" unicode="&#x394;" horiz-adv-x="680" 
d="M10 0l295 700h70l295 -700h-660zM120 70h440l-220 525z" />
    <glyph glyph-name="Epsilon" unicode="&#x395;" horiz-adv-x="640" 
d="M105 0v700h480v-70h-405v-230h325v-70h-325v-260h415v-70h-490z" />
    <glyph glyph-name="Zeta" unicode="&#x396;" 
d="M45 0v70l410 560h-395v70h485v-70l-410 -560h420v-70h-510z" />
    <glyph glyph-name="Eta" unicode="&#x397;" horiz-adv-x="750" 
d="M105 0v700h75v-310h390v310h75v-700h-75v320h-390v-320h-75z" />
    <glyph glyph-name="Theta" unicode="&#x398;" horiz-adv-x="840" 
d="M60 350c0 200 160 360 360 360s360 -160 360 -360s-160 -360 -360 -360s-360 160 -360 360zM420 60c160 0 285 125 285 290s-125 290 -285 290s-285 -125 -285 -290s125 -290 285 -290zM215 320v70h410v-70h-410z" />
    <glyph glyph-name="Iota" unicode="&#x399;" horiz-adv-x="285" 
d="M105 0v700h75v-700h-75z" />
    <glyph glyph-name="Kappa" unicode="&#x39a;" horiz-adv-x="670" 
d="M105 0v700h75v-395l360 395h95l-265 -290l290 -410h-90l-250 355l-140 -150v-205h-75z" />
    <glyph glyph-name="Lambda" unicode="&#x39b;" horiz-adv-x="680" 
d="M20 0l285 700h70l285 -700h-80l-240 595l-240 -595h-80z" />
    <glyph glyph-name="Mu" unicode="&#x39c;" horiz-adv-x="920" 
d="M105 0v700h65l290 -380l290 380h65v-700h-75v570l-280 -370l-280 370v-570h-75z" />
    <glyph glyph-name="Nu" unicode="&#x39d;" horiz-adv-x="780" 
d="M105 0v700h65l430 -565v565h75v-700h-65l-430 565v-565h-75z" />
    <glyph glyph-name="Xi" unicode="&#x39e;" horiz-adv-x="660" 
d="M70 0v70h520v-70h-520zM85 630v70h490v-70h-490zM145 330v70h370v-70h-370z" />
    <glyph glyph-name="Omicron" unicode="&#x39f;" horiz-adv-x="840" 
d="M60 350c0 200 160 360 360 360s360 -160 360 -360s-160 -360 -360 -360s-360 160 -360 360zM420 60c160 0 285 125 285 290s-125 290 -285 290s-285 -125 -285 -290s125 -290 285 -290z" />
    <glyph glyph-name="Pi" unicode="&#x3a0;" horiz-adv-x="750" 
d="M105 0v700h540v-700h-75v630h-390v-630h-75z" />
    <glyph glyph-name="Rho" unicode="&#x3a1;" horiz-adv-x="650" 
d="M105 0v700h265c130 0 225 -96 225 -220s-95 -220 -225 -220h-190v-260h-75zM180 330h190c91 0 150 59 150 150s-59 150 -150 150h-190v-300z" />
    <glyph glyph-name="Sigma" unicode="&#x3a3;" 
d="M60 0v60l230 305l-230 275v60h495v-70h-395l225 -265l-225 -295h395v-70h-495z" />
    <glyph glyph-name="Tau" unicode="&#x3a4;" horiz-adv-x="555" 
d="M240 0v630h-220v70h515v-70h-220v-630h-75z" />
    <glyph glyph-name="Upsilon" unicode="&#x3a5;" horiz-adv-x="635" 
d="M280 0v245l-260 455h85l210 -375h5l210 375h85l-260 -455v-245h-75z" />
    <glyph glyph-name="Phi" unicode="&#x3a6;" horiz-adv-x="845" 
d="M385 100v500c-155 -5 -250 -100 -250 -250s95 -245 250 -250zM385 -50v80c-190 5 -325 140 -325 320s135 315 325 320v80h75v-80c190 -5 325 -140 325 -320s-135 -315 -325 -320v-80h-75zM460 600v-500c155 5 250 100 250 250s-95 245 -250 250z" />
    <glyph glyph-name="Chi" unicode="&#x3a7;" horiz-adv-x="650" 
d="M20 0l260 365l-240 335h90l195 -275l195 275h90l-240 -335l260 -365h-90l-215 305l-215 -305h-90z" />
    <glyph glyph-name="Psi" unicode="&#x3a8;" horiz-adv-x="805" 
d="M365 0v210c-176 5 -290 120 -290 320v170h75v-170c0 -165 80 -245 215 -250v420h75v-420c135 5 215 85 215 250v170h75v-170c0 -200 -114 -315 -290 -320v-210h-75z" />
    <glyph glyph-name="uni03A9" unicode="&#x3a9;" horiz-adv-x="870" 
d="M105 0v70h125c-95 55 -155 169 -155 280c0 200 160 360 360 360s360 -160 360 -360c0 -111 -60 -225 -155 -280h125v-70h-250v70c115 35 205 145 205 280c0 165 -125 290 -285 290s-285 -125 -285 -290c0 -135 90 -245 205 -280v-70h-250z" />
    <glyph glyph-name="Iotadieresis" unicode="&#x3aa;" horiz-adv-x="285" 
d="M105 0v700h75v-700h-75zM5 855c0 25 20 45 45 45s45 -20 45 -45s-20 -45 -45 -45s-45 20 -45 45zM195 855c0 25 20 45 45 45s45 -20 45 -45s-20 -45 -45 -45s-45 20 -45 45z" />
    <glyph glyph-name="Upsilondieresis" unicode="&#x3ab;" horiz-adv-x="635" 
d="M280 0v245l-260 455h85l210 -375h5l210 375h85l-260 -455v-245h-75zM180 855c0 25 20 45 45 45s45 -20 45 -45s-20 -45 -45 -45s-45 20 -45 45zM370 855c0 25 20 45 45 45s45 -20 45 -45s-20 -45 -45 -45s-45 20 -45 45z" />
    <glyph glyph-name="alphatonos" unicode="&#x3ac;" horiz-adv-x="605" 
d="M585 60v-65l-8 -3c-5 -1 -11 -2 -22 -2c-51 0 -78 20 -93 40c-9 12 -14 25 -17 40c-11 -15 -25 -28 -41 -40c-28 -20 -68 -40 -124 -40c-130 0 -235 105 -235 250s105 250 235 250c56 0 96 -20 124 -40c16 -12 30 -25 41 -40v70h70v-375c0 -32 18 -50 45 -50
c7 0 13 1 18 2zM280 55c84 0 165 80 165 185s-81 185 -165 185c-91 0 -165 -76 -165 -185s74 -185 165 -185zM255 565l75 135h75l-95 -135h-55z" />
    <glyph glyph-name="epsilontonos" unicode="&#x3ad;" horiz-adv-x="460" 
d="M395 110l45 -45c-13 -14 -28 -27 -46 -38c-31 -19 -79 -37 -144 -37c-140 0 -200 70 -200 145c0 51 23 79 47 95c14 9 30 16 48 20c-14 5 -27 13 -38 23c-19 17 -37 44 -37 87c0 69 59 130 180 130c52 0 92 -13 119 -28c16 -8 30 -17 41 -27l-45 -50c-8 7 -18 14 -29 20
c-19 11 -49 20 -86 20c-80 0 -110 -30 -110 -70s35 -75 100 -75h75v-65h-75c-85 0 -120 -35 -120 -80c0 -40 40 -80 135 -80c45 0 80 12 104 27c14 8 26 17 36 28zM212 565l75 135h75l-95 -135h-55z" />
    <glyph glyph-name="etatonos" unicode="&#x3ae;" horiz-adv-x="580" 
d="M80 0v480h70v-70c10 15 23 28 38 40c27 20 64 40 117 40c115 0 195 -80 195 -205v-285h-70v285c0 85 -54 140 -130 140c-85 0 -150 -64 -150 -160v-265h-70zM265 565l75 135h75l-95 -135h-55z" />
    <glyph glyph-name="iotatonos" unicode="&#x3af;" horiz-adv-x="295" 
d="M80 130v350h70v-350c0 -50 23 -75 70 -75c15 0 28 3 39 7l16 8v-65c-5 -3 -12 -5 -19 -8c-12 -4 -29 -7 -46 -7c-80 0 -130 49 -130 140zM85 565l75 135h75l-95 -135h-55z" />
    <glyph glyph-name="upsilondieresistonos" unicode="&#x3b0;" horiz-adv-x="580" 
d="M150 630c0 25 20 45 45 45s45 -20 45 -45s-20 -45 -45 -45s-45 20 -45 45zM340 630c0 25 20 45 45 45s45 -20 45 -45s-20 -45 -45 -45s-45 20 -45 45zM219 565l75 135h75l-95 -135h-55zM80 200v280h70v-280c0 -91 55 -145 140 -145s140 54 140 145v280h70v-280
c0 -125 -85 -210 -210 -210s-210 85 -210 210z" />
    <glyph glyph-name="alpha" unicode="&#x3b1;" horiz-adv-x="605" 
d="M585 60v-65l-8 -3c-5 -1 -11 -2 -22 -2c-51 0 -78 20 -93 40c-9 12 -14 25 -17 40c-11 -15 -25 -28 -41 -40c-28 -20 -68 -40 -124 -40c-130 0 -235 105 -235 250s105 250 235 250c56 0 96 -20 124 -40c16 -12 30 -25 41 -40v70h70v-375c0 -32 18 -50 45 -50
c7 0 13 1 18 2zM280 55c84 0 165 80 165 185s-81 185 -165 185c-91 0 -165 -76 -165 -185s74 -185 165 -185z" />
    <glyph glyph-name="beta" unicode="&#x3b2;" horiz-adv-x="570" 
d="M85 -210v730c0 110 80 190 195 190c110 0 190 -80 190 -170c0 -55 -22 -90 -43 -113c-12 -13 -26 -24 -42 -32c25 -8 47 -20 67 -36c34 -29 68 -74 68 -149c0 -125 -85 -210 -230 -210h-135v-210h-70zM155 65h135c90 0 160 54 160 145c0 85 -55 145 -160 145h-75v65h55
c85 0 130 44 130 115c0 59 -51 110 -120 110c-76 0 -125 -49 -125 -125v-455z" />
    <glyph glyph-name="gamma" unicode="&#x3b3;" horiz-adv-x="490" 
d="M210 -210v210l-195 480h75l155 -385l155 385h75l-195 -480v-210h-70z" />
    <glyph glyph-name="delta" unicode="&#x3b4;" horiz-adv-x="580" 
d="M95 640v60h360v-60h-190v-5c95 -40 255 -183 255 -380c0 -160 -105 -265 -235 -265s-235 105 -235 235c0 136 100 235 225 235c43 0 74 -12 97 -23c13 -7 24 -14 33 -22h5c-56 109 -189 201 -315 225zM285 55c91 0 165 74 165 170c0 104 -74 170 -165 170
c-95 0 -165 -70 -165 -170c0 -96 74 -170 165 -170z" />
    <glyph glyph-name="epsilon" unicode="&#x3b5;" horiz-adv-x="460" 
d="M395 110l45 -45c-13 -14 -28 -27 -46 -38c-31 -19 -79 -37 -144 -37c-140 0 -200 70 -200 145c0 51 23 79 47 95c14 9 30 16 48 20c-14 5 -27 13 -38 23c-19 17 -37 44 -37 87c0 69 59 130 180 130c52 0 92 -13 119 -28c16 -8 30 -17 41 -27l-45 -50c-8 7 -18 14 -29 20
c-19 11 -49 20 -86 20c-80 0 -110 -30 -110 -70s35 -75 100 -75h75v-65h-75c-85 0 -120 -35 -120 -80c0 -40 40 -80 135 -80c45 0 80 12 104 27c14 8 26 17 36 28z" />
    <glyph glyph-name="zeta" unicode="&#x3b6;" horiz-adv-x="465" 
d="M415 -150h-70c0 43 8 81 17 109c5 17 11 32 18 46c-7 -3 -16 -5 -25 -8c-16 -4 -39 -7 -70 -7c-145 0 -230 80 -230 205c0 115 70 226 142 306c41 47 89 92 143 134h-260v65h360v-65c-59 -43 -111 -89 -158 -136c-79 -79 -157 -191 -157 -294c0 -96 54 -150 165 -150
c43 0 76 5 99 12c13 3 25 8 36 13l40 -50c-9 -17 -18 -35 -25 -54c-13 -33 -25 -78 -25 -126z" />
    <glyph glyph-name="eta" unicode="&#x3b7;" horiz-adv-x="580" 
d="M80 0v480h70v-70c10 15 23 28 38 40c27 20 64 40 117 40c115 0 195 -80 195 -205v-285h-70v285c0 85 -54 140 -130 140c-85 0 -150 -64 -150 -160v-265h-70z" />
    <glyph glyph-name="theta" unicode="&#x3b8;" horiz-adv-x="610" 
d="M305 -10c-125 0 -240 116 -240 360s115 360 240 360s240 -116 240 -360s-115 -360 -240 -360zM135 380h339c-5 185 -77 265 -169 265c-91 0 -165 -80 -170 -265zM474 315h-338c8 -189 85 -260 169 -260s161 71 169 260z" />
    <glyph glyph-name="iota" unicode="&#x3b9;" horiz-adv-x="295" 
d="M80 130v350h70v-350c0 -50 23 -75 70 -75c15 0 28 3 39 7l16 8v-65c-5 -3 -12 -5 -19 -8c-12 -4 -29 -7 -46 -7c-80 0 -130 49 -130 140z" />
    <glyph glyph-name="kappa" unicode="&#x3ba;" horiz-adv-x="505" 
d="M80 0v480h70v-255l240 255h85l-185 -195l205 -285h-80l-170 235l-95 -100v-135h-70z" />
    <glyph glyph-name="lambda" unicode="&#x3bb;" horiz-adv-x="500" 
d="M25 0l200 480l-40 100c-20 51 -45 65 -80 65c-13 0 -24 -2 -32 -5c-5 -2 -9 -4 -13 -5v65l17 5c11 3 24 5 43 5c65 0 102 -30 135 -115l230 -595h-75l-150 390l-162 -390h-73z" />
    <glyph glyph-name="uni03BC" unicode="&#x3bc;" horiz-adv-x="580" 
d="M80 -210v690h70v-285c0 -85 54 -140 130 -140c85 0 150 64 150 160v265h70v-480h-70v70c-10 -15 -23 -28 -38 -40c-27 -20 -65 -40 -117 -40c-43 0 -73 9 -94 20c-12 6 -22 13 -31 20v-240h-70z" />
    <glyph glyph-name="nu" unicode="&#x3bd;" horiz-adv-x="490" 
d="M210 0l-195 480h75l155 -385l155 385h75l-195 -480h-70z" />
    <glyph glyph-name="xi" unicode="&#x3be;" horiz-adv-x="520" 
d="M455 -150h-70c0 43 8 81 17 109c5 17 11 32 18 46c-6 -3 -14 -5 -23 -8c-16 -4 -40 -7 -72 -7c-171 0 -260 90 -260 205c0 145 130 182 139 185c-5 0 -114 34 -114 150c0 100 80 180 215 180c57 0 96 -12 123 -23c15 -7 28 -14 37 -22l-40 -55c-7 6 -17 12 -28 17
c-19 9 -49 18 -92 18c-96 0 -145 -50 -145 -115s50 -115 155 -115h65v-70h-65c-115 0 -180 -65 -180 -150c0 -80 60 -140 195 -140c43 0 76 5 99 12c13 3 25 8 36 13l40 -50c-9 -17 -18 -35 -25 -54c-13 -33 -25 -78 -25 -126z" />
    <glyph glyph-name="omicron" unicode="&#x3bf;" horiz-adv-x="580" 
d="M290 -10c-135 0 -245 110 -245 250s110 250 245 250s245 -110 245 -250s-110 -250 -245 -250zM290 55c95 0 175 80 175 185s-80 185 -175 185s-175 -80 -175 -185c0 -104 80 -185 175 -185z" />
    <glyph glyph-name="pi" unicode="&#x3c0;" horiz-adv-x="585" 
d="M80 0v480h425v-480h-70v414h-285v-414h-70z" />
    <glyph glyph-name="rho" unicode="&#x3c1;" 
d="M75 -210v450c0 145 105 250 240 250s240 -105 240 -250s-105 -250 -240 -250c-59 0 -100 20 -128 40c-17 12 -31 25 -42 40v-280h-70zM315 55c96 0 170 76 170 185s-74 185 -170 185s-170 -76 -170 -185s74 -185 170 -185z" />
    <glyph glyph-name="sigma1" unicode="&#x3c2;" horiz-adv-x="515" 
d="M410 -150h-70c0 43 8 79 17 106c5 15 11 29 18 42c-5 -1 -10 -3 -17 -4c-11 -3 -26 -4 -43 -4c-162 0 -270 108 -270 250c0 145 105 250 245 250c57 0 102 -15 131 -30c17 -9 32 -19 44 -30l-40 -50c-11 8 -23 15 -36 22c-23 11 -56 23 -99 23c-100 0 -175 -76 -175 -185
c0 -107 77 -185 210 -185c31 0 54 5 70 10c9 3 18 6 25 10l40 -50c-9 -15 -18 -32 -25 -50c-13 -31 -25 -74 -25 -125z" />
    <glyph glyph-name="sigma" unicode="&#x3c3;" 
d="M290 480h10h290v-65h-140c51 -40 85 -104 85 -180c0 -140 -105 -245 -245 -245s-245 105 -245 245s105 245 245 245zM290 55c100 0 175 76 175 180s-75 180 -175 180s-175 -76 -175 -180s75 -180 175 -180z" />
    <glyph glyph-name="tau" unicode="&#x3c4;" horiz-adv-x="445" 
d="M180 130v285h-165v65h405v-65h-170v-285c0 -50 23 -75 70 -75c15 0 28 3 39 7l16 8v-65c-5 -3 -12 -5 -19 -8c-12 -4 -29 -7 -46 -7c-80 0 -130 49 -130 140z" />
    <glyph glyph-name="upsilon" unicode="&#x3c5;" horiz-adv-x="580" 
d="M80 200v280h70v-280c0 -91 55 -145 140 -145s140 54 140 145v280h70v-280c0 -125 -85 -210 -210 -210s-210 85 -210 210z" />
    <glyph glyph-name="phi" unicode="&#x3c6;" horiz-adv-x="730" 
d="M330 -210v200c-170 5 -280 110 -280 245c0 120 80 211 175 240l25 -55c-76 -27 -130 -89 -130 -185c0 -105 74 -175 210 -180v425h70c170 0 280 -110 280 -245s-110 -240 -280 -245v-200h-70zM400 415v-360c136 5 210 75 210 180c0 104 -75 180 -210 180z" />
    <glyph glyph-name="chi" unicode="&#x3c7;" horiz-adv-x="480" 
d="M15 0l180 250l-165 230h85l125 -175l125 175h85l-165 -230l180 -250h-85l-140 195l-140 -195h-85z" />
    <glyph glyph-name="psi" unicode="&#x3c8;" horiz-adv-x="720" 
d="M325 -210v200c-145 5 -245 104 -245 275v215h70v-210c0 -145 64 -210 175 -215v425h70v-425c111 5 175 70 175 215v210h70v-215c0 -171 -100 -270 -245 -275v-200h-70z" />
    <glyph glyph-name="omega" unicode="&#x3c9;" horiz-adv-x="820" 
d="M375 240v80h70v-80c0 -135 49 -185 120 -185c70 0 125 54 125 185c0 100 -45 164 -96 196l36 54c76 -40 130 -134 130 -250c0 -164 -85 -250 -190 -250c-64 0 -103 25 -127 52c-14 15 -25 33 -33 53c-8 -20 -19 -38 -33 -53c-24 -27 -64 -52 -127 -52
c-105 0 -190 86 -190 250c0 116 54 210 130 250l36 -54c-51 -32 -96 -96 -96 -196c0 -131 55 -185 125 -185c69 0 120 50 120 185z" />
    <glyph glyph-name="iotadieresis" unicode="&#x3ca;" horiz-adv-x="295" 
d="M80 130v350h70v-350c0 -50 23 -75 70 -75c15 0 28 3 39 7l16 8v-65c-5 -3 -12 -5 -19 -8c-12 -4 -29 -7 -46 -7c-80 0 -130 49 -130 140zM-25 630c0 25 20 45 45 45s45 -20 45 -45s-20 -45 -45 -45s-45 20 -45 45zM165 630c0 25 20 45 45 45s45 -20 45 -45
s-20 -45 -45 -45s-45 20 -45 45z" />
    <glyph glyph-name="upsilondieresis" unicode="&#x3cb;" horiz-adv-x="580" 
d="M80 200v280h70v-280c0 -91 55 -145 140 -145s140 54 140 145v280h70v-280c0 -125 -85 -210 -210 -210s-210 85 -210 210zM150 630c0 25 20 45 45 45s45 -20 45 -45s-20 -45 -45 -45s-45 20 -45 45zM340 630c0 25 20 45 45 45s45 -20 45 -45s-20 -45 -45 -45
s-45 20 -45 45z" />
    <glyph glyph-name="omicrontonos" unicode="&#x3cc;" horiz-adv-x="580" 
d="M260 565l75 135h75l-95 -135h-55zM290 -10c-135 0 -245 110 -245 250s110 250 245 250s245 -110 245 -250s-110 -250 -245 -250zM290 55c95 0 175 80 175 185s-80 185 -175 185s-175 -80 -175 -185c0 -104 80 -185 175 -185z" />
    <glyph glyph-name="upsilontonos" unicode="&#x3cd;" horiz-adv-x="580" 
d="M80 200v280h70v-280c0 -91 55 -145 140 -145s140 54 140 145v280h70v-280c0 -125 -85 -210 -210 -210s-210 85 -210 210zM255 565l75 135h75l-95 -135h-55z" />
    <glyph glyph-name="omegatonos" unicode="&#x3ce;" horiz-adv-x="820" 
d="M375 240v80h70v-80c0 -135 49 -185 120 -185c70 0 125 54 125 185c0 100 -45 164 -96 196l36 54c76 -40 130 -134 130 -250c0 -164 -85 -250 -190 -250c-64 0 -103 25 -127 52c-14 15 -25 33 -33 53c-8 -20 -19 -38 -33 -53c-24 -27 -64 -52 -127 -52
c-105 0 -190 86 -190 250c0 116 54 210 130 250l36 -54c-51 -32 -96 -96 -96 -196c0 -131 55 -185 125 -185c69 0 120 50 120 185zM355 565l75 135h75l-95 -135h-55z" />
    <glyph glyph-name="uni0400" unicode="&#x400;" horiz-adv-x="640" 
d="M335 795l-95 135h75l75 -135h-55zM105 0v700h480v-70h-405v-230h325v-70h-325v-260h415v-70h-490z" />
    <glyph glyph-name="uni0401" unicode="&#x401;" horiz-adv-x="640" 
d="M105 0v700h480v-70h-405v-230h325v-70h-325v-260h415v-70h-490zM205 855c0 25 20 45 45 45s45 -20 45 -45s-20 -45 -45 -45s-45 20 -45 45zM395 855c0 25 20 45 45 45s45 -20 45 -45s-20 -45 -45 -45s-45 20 -45 45z" />
    <glyph glyph-name="uni0402" unicode="&#x402;" horiz-adv-x="715" 
d="M180 0v630h-180v70h435v-70h-180v-240c15 12 33 23 52 32c33 16 79 33 138 33c125 0 210 -85 210 -230c0 -144 -91 -235 -230 -235v70c96 0 155 60 155 165c0 100 -60 160 -145 160c-53 0 -97 -20 -129 -40c-19 -12 -36 -25 -51 -40v-305h-75z" />
    <glyph glyph-name="uni0403" unicode="&#x403;" horiz-adv-x="550" 
d="M105 0v700h435v-70h-360v-630h-75zM295 795l75 135h75l-95 -135h-55z" />
    <glyph glyph-name="uni0404" unicode="&#x404;" horiz-adv-x="750" 
d="M135 390h370v-70h-370c16 -145 128 -260 285 -260c80 0 140 29 180 60c23 17 43 37 60 60l50 -45c-21 -27 -45 -52 -74 -73c-49 -36 -120 -72 -216 -72c-200 0 -360 160 -360 360s160 360 360 360c96 0 166 -37 214 -73c27 -21 51 -45 71 -72l-50 -45
c-16 23 -35 43 -58 60c-39 31 -97 60 -177 60c-154 0 -266 -110 -285 -250z" />
    <glyph glyph-name="uni0405" unicode="&#x405;" horiz-adv-x="565" 
d="M45 95l45 51c13 -17 28 -31 46 -43c31 -23 79 -43 144 -43c105 0 160 54 160 130c0 179 -380 81 -380 330c0 101 86 190 225 190c68 0 118 -22 153 -45c20 -13 37 -28 52 -45l-50 -50c-11 13 -24 24 -39 35c-27 17 -64 35 -116 35c-96 0 -150 -57 -150 -120
c0 -180 380 -81 380 -330c0 -115 -85 -200 -235 -200c-80 0 -139 25 -178 52c-23 15 -42 33 -57 53z" />
    <glyph glyph-name="uni0406" unicode="&#x406;" horiz-adv-x="285" 
d="M105 0v700h75v-700h-75z" />
    <glyph glyph-name="uni0407" unicode="&#x407;" horiz-adv-x="285" 
d="M105 0v700h75v-700h-75zM5 855c0 25 20 45 45 45s45 -20 45 -45s-20 -45 -45 -45s-45 20 -45 45zM195 855c0 25 20 45 45 45s45 -20 45 -45s-20 -45 -45 -45s-45 20 -45 45z" />
    <glyph glyph-name="uni0408" unicode="&#x408;" horiz-adv-x="495" 
d="M10 70l50 50c8 -11 18 -21 30 -30c20 -15 50 -30 90 -30c85 0 140 54 140 145v495h75v-495c0 -125 -90 -215 -215 -215c-56 0 -97 20 -126 40c-17 12 -32 25 -44 40z" />
    <glyph glyph-name="uni0409" unicode="&#x409;" horiz-adv-x="1080" 
d="M-5 0v75c5 -2 11 -4 18 -5c12 -3 24 -5 37 -5c75 0 130 55 130 425v210h435v-260h180c130 0 225 -96 225 -220s-95 -220 -225 -220h-255v630h-285v-140c0 -425 -75 -500 -195 -500c-17 0 -33 2 -46 5c-7 1 -14 3 -19 5zM615 70h180c91 0 150 59 150 150s-59 150 -150 150
h-180v-300z" />
    <glyph glyph-name="uni040A" unicode="&#x40a;" horiz-adv-x="1080" 
d="M105 0v700h75v-260h360v260h75v-260h180c130 0 225 -96 225 -220s-95 -220 -225 -220h-255v370h-360v-370h-75zM615 70h180c91 0 150 59 150 150s-59 150 -150 150h-180v-300z" />
    <glyph glyph-name="uni040B" unicode="&#x40b;" horiz-adv-x="740" 
d="M180 0v630h-180v70h435v-70h-180v-240c15 12 33 23 52 32c33 16 79 33 138 33c125 0 210 -85 210 -215v-240h-75v240c0 85 -60 145 -145 145c-53 0 -97 -20 -129 -40c-19 -12 -36 -25 -51 -40v-305h-75z" />
    <glyph glyph-name="uni040C" unicode="&#x40c;" horiz-adv-x="670" 
d="M105 0v700h75v-395l360 395h95l-265 -290l290 -410h-90l-250 355l-140 -150v-205h-75zM325 795l75 135h75l-95 -135h-55z" />
    <glyph glyph-name="uni040D" unicode="&#x40d;" horiz-adv-x="780" 
d="M105 0v700h75v-565l430 565h65v-700h-75v565l-430 -565h-65zM370 795l-95 135h75l75 -135h-55z" />
    <glyph glyph-name="uni040E" unicode="&#x40e;" horiz-adv-x="610" 
d="M65 0v70c5 -2 10 -4 17 -5c12 -3 26 -5 43 -5c64 0 95 30 130 95l30 55c-87 164 -175 326 -260 490h80l220 -410l190 410h80l-260 -545c-56 -114 -105 -165 -205 -165c-17 0 -33 2 -46 5c-7 1 -14 3 -19 5zM175 930h55c0 -45 35 -80 80 -80s80 35 80 80h55
c0 -80 -55 -135 -135 -135s-135 55 -135 135z" />
    <glyph glyph-name="uni040F" unicode="&#x40f;" horiz-adv-x="745" 
d="M105 0v700h75v-630h385v630h75v-700h-230v-150h-75v150h-230z" />
    <glyph glyph-name="uni0410" unicode="&#x410;" horiz-adv-x="690" 
d="M20 0l290 700h70l290 -700h-80l-80 195h-330l-80 -195h-80zM210 265h270l-135 330z" />
    <glyph glyph-name="uni0411" unicode="&#x411;" horiz-adv-x="655" 
d="M105 0v700h435v-70h-360v-210h195c124 0 220 -94 220 -210s-96 -210 -220 -210h-270zM180 70h195c85 0 145 60 145 140s-60 140 -145 140h-195v-280z" />
    <glyph glyph-name="uni0412" unicode="&#x412;" horiz-adv-x="665" 
d="M105 0v700h270c115 0 195 -80 195 -180c0 -56 -20 -91 -40 -114c-12 -13 -25 -24 -40 -31c21 -10 40 -23 57 -39c29 -28 58 -71 58 -136c0 -115 -85 -200 -215 -200h-285zM180 406h195c76 0 120 43 120 114c0 65 -44 110 -120 110h-195v-224zM180 70h210
c85 0 140 54 140 130c0 75 -55 140 -140 140h-210v-270z" />
    <glyph glyph-name="uni0413" unicode="&#x413;" horiz-adv-x="550" 
d="M105 0v700h435v-70h-360v-630h-75z" />
    <glyph glyph-name="uni0414" unicode="&#x414;" horiz-adv-x="710" 
d="M0 -150v220h40c23 24 44 55 62 94c31 67 63 170 63 326v210h430v-630h85v-220h-75v150h-530v-150h-75zM120 70h400v560h-280v-140c0 -153 -29 -256 -60 -324c-17 -39 -37 -71 -60 -96z" />
    <glyph glyph-name="uni0415" unicode="&#x415;" horiz-adv-x="640" 
d="M105 0v700h480v-70h-405v-230h325v-70h-325v-260h415v-70h-490z" />
    <glyph glyph-name="uni0416" unicode="&#x416;" horiz-adv-x="965" 
d="M10 0l290 410l-265 290h95l315 -344v344h75v-344l315 344h95l-265 -290l290 -410h-90l-250 355l-95 -100v-255h-75v255l-95 100l-250 -355h-90z" />
    <glyph glyph-name="uni0417" unicode="&#x417;" horiz-adv-x="595" 
d="M30 100l50 50c14 -17 31 -32 51 -45c35 -23 84 -45 149 -45c115 0 180 65 180 135c0 75 -65 140 -180 140h-80v70h80c100 0 155 55 155 115c0 65 -55 120 -155 120c-56 0 -98 -20 -129 -40c-17 -12 -33 -25 -46 -40l-50 50c17 19 36 35 58 50c39 25 94 50 167 50
c145 0 230 -85 230 -185c0 -60 -29 -99 -60 -123c-17 -14 -37 -25 -60 -32c27 -8 51 -20 72 -35c36 -27 73 -69 73 -140c0 -104 -100 -205 -255 -205c-84 0 -144 27 -187 55c-25 16 -46 34 -63 55z" />
    <glyph glyph-name="uni0418" unicode="&#x418;" horiz-adv-x="780" 
d="M105 0v700h75v-565l430 565h65v-700h-75v565l-430 -565h-65z" />
    <glyph glyph-name="uni0419" unicode="&#x419;" horiz-adv-x="780" 
d="M105 0v700h75v-565l430 565h65v-700h-75v565l-430 -565h-65zM255 930h55c0 -45 35 -80 80 -80s80 35 80 80h55c0 -80 -55 -135 -135 -135s-135 55 -135 135z" />
    <glyph glyph-name="uni041A" unicode="&#x41a;" horiz-adv-x="670" 
d="M105 0v700h75v-395l360 395h95l-265 -290l290 -410h-90l-250 355l-140 -150v-205h-75z" />
    <glyph glyph-name="uni041B" unicode="&#x41b;" horiz-adv-x="735" 
d="M-5 0v75c5 -2 11 -4 18 -5c12 -3 24 -5 37 -5c75 0 130 55 130 425v210h450v-700h-75v630h-300v-140c0 -425 -75 -500 -195 -500c-17 0 -33 2 -46 5c-7 1 -14 3 -19 5z" />
    <glyph glyph-name="uni041C" unicode="&#x41c;" horiz-adv-x="920" 
d="M105 0v700h65l290 -380l290 380h65v-700h-75v570l-280 -370l-280 370v-570h-75z" />
    <glyph glyph-name="uni041D" unicode="&#x41d;" horiz-adv-x="750" 
d="M105 0v700h75v-310h390v310h75v-700h-75v320h-390v-320h-75z" />
    <glyph glyph-name="uni041E" unicode="&#x41e;" horiz-adv-x="840" 
d="M60 350c0 200 160 360 360 360s360 -160 360 -360s-160 -360 -360 -360s-360 160 -360 360zM420 60c160 0 285 125 285 290s-125 290 -285 290s-285 -125 -285 -290s125 -290 285 -290z" />
    <glyph glyph-name="uni041F" unicode="&#x41f;" horiz-adv-x="750" 
d="M105 0v700h540v-700h-75v630h-390v-630h-75z" />
    <glyph glyph-name="uni0420" unicode="&#x420;" horiz-adv-x="650" 
d="M105 0v700h265c130 0 225 -96 225 -220s-95 -220 -225 -220h-190v-260h-75zM180 330h190c91 0 150 59 150 150s-59 150 -150 150h-190v-300z" />
    <glyph glyph-name="uni0421" unicode="&#x421;" horiz-adv-x="750" 
d="M660 180l50 -45c-21 -27 -45 -52 -74 -73c-49 -36 -120 -72 -216 -72c-200 0 -360 160 -360 360s160 360 360 360c96 0 166 -37 214 -73c27 -21 51 -45 71 -72l-50 -45c-16 23 -35 43 -58 60c-39 31 -97 60 -177 60c-160 0 -285 -125 -285 -290s125 -290 285 -290
c80 0 140 29 180 60c23 17 43 37 60 60z" />
    <glyph glyph-name="uni0422" unicode="&#x422;" horiz-adv-x="555" 
d="M240 0v630h-220v70h515v-70h-220v-630h-75z" />
    <glyph glyph-name="uni0423" unicode="&#x423;" horiz-adv-x="610" 
d="M65 0v70c5 -2 10 -4 17 -5c12 -3 26 -5 43 -5c64 0 95 30 130 95l30 55c-87 164 -175 326 -260 490h80l220 -410l190 410h80l-260 -545c-56 -114 -105 -165 -205 -165c-17 0 -33 2 -46 5c-7 1 -14 3 -19 5z" />
    <glyph glyph-name="uni0424" unicode="&#x424;" horiz-adv-x="845" 
d="M385 -20v95c-205 5 -330 130 -330 285s125 280 330 285v75h75v-75c205 -5 330 -130 330 -285s-125 -280 -330 -285v-95h-75zM385 145v430c-165 -5 -255 -95 -255 -215s90 -210 255 -215zM460 575v-430c165 5 255 95 255 215s-90 210 -255 215z" />
    <glyph glyph-name="uni0425" unicode="&#x425;" horiz-adv-x="650" 
d="M20 0l260 365l-240 335h90l195 -275l195 275h90l-240 -335l260 -365h-90l-215 305l-215 -305h-90z" />
    <glyph glyph-name="uni0426" unicode="&#x426;" horiz-adv-x="755" 
d="M105 0v700h75v-630h380v630h75v-630h90v-220h-75v150h-545z" />
    <glyph glyph-name="uni0427" unicode="&#x427;" horiz-adv-x="705" 
d="M525 0v305c-15 -11 -33 -21 -52 -30c-33 -15 -81 -30 -138 -30c-147 0 -240 93 -240 245v210h75v-210c0 -113 64 -175 175 -175c57 0 102 18 133 37c18 11 34 24 47 38v310h75v-700h-75z" />
    <glyph glyph-name="uni0428" unicode="&#x428;" horiz-adv-x="1015" 
d="M105 0v700h75v-630h290v630h75v-630h290v630h75v-700h-805z" />
    <glyph glyph-name="uni0429" unicode="&#x429;" horiz-adv-x="1030" 
d="M105 0v700h75v-630h290v630h75v-630h290v630h75v-630h90v-220h-75v150h-820z" />
    <glyph glyph-name="uni042A" unicode="&#x42a;" horiz-adv-x="710" 
d="M170 0v630h-170v70h245v-260h180c130 0 225 -96 225 -220s-95 -220 -225 -220h-255zM245 70h180c91 0 150 59 150 150s-59 150 -150 150h-180v-300z" />
    <glyph glyph-name="uni042B" unicode="&#x42b;" horiz-adv-x="885" 
d="M105 0v700h75v-260h180c130 0 225 -96 225 -220s-95 -220 -225 -220h-255zM705 0v700h75v-700h-75zM180 70h180c91 0 150 59 150 150s-59 150 -150 150h-180v-300z" />
    <glyph glyph-name="uni042C" unicode="&#x42c;" horiz-adv-x="655" 
d="M105 0v700h75v-260h190c130 0 225 -96 225 -220s-95 -220 -225 -220h-265zM180 70h190c91 0 150 59 150 150s-59 150 -150 150h-190v-300z" />
    <glyph glyph-name="uni042D" unicode="&#x42d;" horiz-adv-x="745" 
d="M35 135l50 45c17 -23 37 -43 60 -60c40 -31 100 -60 180 -60c155 0 269 115 285 260h-370v70h370c-21 140 -129 250 -285 250c-80 0 -138 -29 -177 -60c-23 -17 -42 -37 -58 -60l-50 45c19 27 43 51 71 72c47 36 118 73 214 73c200 0 360 -160 360 -360
s-160 -360 -360 -360c-96 0 -167 36 -216 72c-29 21 -53 46 -74 73z" />
    <glyph glyph-name="uni042E" unicode="&#x42e;" horiz-adv-x="1055" 
d="M105 0v700h75v-310h135c19 175 161 320 340 320c185 0 340 -155 340 -360s-155 -360 -340 -360c-180 0 -324 145 -340 330h-135v-320h-75zM655 60c145 0 265 120 265 290s-120 290 -265 290s-265 -120 -265 -290s120 -290 265 -290z" />
    <glyph glyph-name="uni042F" unicode="&#x42f;" horiz-adv-x="670" 
d="M50 0l165 290c-27 9 -52 23 -73 40c-36 31 -72 80 -72 160c0 120 90 210 215 210h280v-700h-75v280h-200l-155 -280h-85zM285 350h205v280h-205c-85 0 -140 -55 -140 -140s55 -140 140 -140z" />
    <glyph glyph-name="uni0430" unicode="&#x430;" horiz-adv-x="520" 
d="M370 0v65c-10 -14 -23 -27 -38 -38c-27 -19 -65 -37 -117 -37c-100 0 -170 70 -170 140c0 80 49 130 140 145l185 30c0 71 -49 120 -120 120c-43 0 -76 -18 -99 -35c-13 -11 -25 -22 -36 -35l-45 45c13 17 29 32 47 45c31 23 74 45 133 45c110 0 190 -80 190 -185v-305
h-70zM370 215v30l-165 -30c-60 -11 -90 -40 -90 -85c0 -40 35 -75 100 -75c91 0 155 64 155 160z" />
    <glyph glyph-name="uni0431" unicode="&#x431;" horiz-adv-x="585" 
d="M470 730l35 -55c-9 -7 -22 -14 -39 -21c-29 -13 -75 -29 -151 -44c-101 -21 -175 -95 -180 -235c11 17 25 33 42 47c28 24 69 48 128 48c124 0 230 -105 230 -240s-105 -240 -235 -240c-135 0 -240 105 -240 310c0 244 105 351 245 375c60 11 100 24 127 35
c15 7 28 13 38 20zM300 55c91 0 165 75 165 175s-74 175 -165 175s-165 -75 -165 -175s74 -175 165 -175z" />
    <glyph glyph-name="uni0432" unicode="&#x432;" horiz-adv-x="515" 
d="M80 0v480h220c91 0 145 -54 145 -125c0 -35 -15 -60 -30 -76c-9 -9 -19 -17 -30 -24c15 -5 28 -12 40 -22c20 -17 40 -46 40 -93c0 -85 -55 -140 -155 -140h-230zM150 285h150c51 0 75 25 75 65s-24 65 -75 65h-150v-130zM150 65h160c56 0 85 29 85 80s-29 80 -85 80
h-160v-160z" />
    <glyph glyph-name="uni0433" unicode="&#x433;" horiz-adv-x="410" 
d="M80 0v480h320v-65h-250v-415h-70z" />
    <glyph glyph-name="uni0434" unicode="&#x434;" horiz-adv-x="555" 
d="M0 -120v185h35c16 17 30 39 42 66c21 45 43 113 43 209v140h330v-415h75v-185h-70v120h-385v-120h-70zM110 65h270v350h-190v-75c0 -92 -20 -160 -40 -207c-12 -27 -25 -49 -40 -68z" />
    <glyph glyph-name="uni0435" unicode="&#x435;" horiz-adv-x="555" 
d="M440 135l45 -45c-14 -19 -31 -35 -51 -50c-35 -25 -84 -50 -149 -50c-131 0 -240 110 -240 250s110 250 235 250c131 0 230 -100 230 -240c0 -11 -2 -19 -3 -26l-2 -10l-390 1c5 -85 79 -160 170 -160c51 0 88 20 115 40c15 12 29 25 40 40zM115 275h325
c-11 85 -75 150 -160 150c-86 0 -154 -70 -165 -150z" />
    <glyph glyph-name="uni0436" unicode="&#x436;" horiz-adv-x="730" 
d="M10 0l205 285l-185 195h85l215 -230v230h70v-230l215 230h85l-185 -195l205 -285h-80l-170 235l-70 -75v-160h-70v160l-70 75l-170 -235h-80z" />
    <glyph glyph-name="uni0437" unicode="&#x437;" horiz-adv-x="440" 
d="M25 75l45 45c11 -13 23 -24 36 -33c23 -16 56 -32 99 -32c80 0 115 35 115 80s-35 80 -115 80h-55v65h55c60 0 95 35 95 75s-30 70 -95 70c-39 0 -67 -13 -88 -28c-12 -8 -23 -17 -32 -27l-50 50c12 13 27 24 44 35c29 17 70 35 126 35c100 0 165 -66 165 -135
c0 -43 -19 -70 -38 -85c-11 -9 -24 -16 -37 -20c17 -4 33 -11 47 -20c24 -16 48 -44 48 -95c0 -75 -61 -145 -185 -145c-60 0 -104 21 -135 42c-17 12 -32 26 -45 43z" />
    <glyph glyph-name="uni0438" unicode="&#x438;" horiz-adv-x="580" 
d="M80 0v480h70v-360l290 360h60v-480h-70v360l-290 -360h-60z" />
    <glyph glyph-name="uni0439" unicode="&#x439;" horiz-adv-x="580" 
d="M155 700h55c0 -56 29 -85 80 -85s80 29 80 85h55c0 -80 -55 -135 -135 -135s-135 55 -135 135zM80 0v480h70v-360l290 360h60v-480h-70v360l-290 -360h-60z" />
    <glyph glyph-name="uni043A" unicode="&#x43a;" horiz-adv-x="505" 
d="M80 0v480h70v-255l240 255h85l-185 -195l205 -285h-80l-170 235l-95 -100v-135h-70z" />
    <glyph glyph-name="uni043B" unicode="&#x43b;" horiz-adv-x="560" 
d="M0 0v70c3 -2 7 -4 12 -5c8 -3 17 -5 28 -5c55 0 90 36 90 280v140h350v-480h-70v415h-210v-75c0 -290 -60 -350 -150 -350c-13 0 -25 2 -35 5c-5 1 -10 3 -15 5z" />
    <glyph glyph-name="uni043C" unicode="&#x43c;" horiz-adv-x="650" 
d="M80 0v480h55l190 -240l190 240h55v-480h-70v355l-175 -220l-175 220v-355h-70z" />
    <glyph glyph-name="uni043D" unicode="&#x43d;" horiz-adv-x="575" 
d="M80 0v480h70v-205h275v205h70v-480h-70v210h-275v-210h-70z" />
    <glyph glyph-name="uni043E" unicode="&#x43e;" horiz-adv-x="580" 
d="M290 -10c-135 0 -245 110 -245 250s110 250 245 250s245 -110 245 -250s-110 -250 -245 -250zM290 55c95 0 175 80 175 185s-80 185 -175 185s-175 -80 -175 -185c0 -104 80 -185 175 -185z" />
    <glyph glyph-name="uni043F" unicode="&#x43f;" horiz-adv-x="575" 
d="M80 0v480h415v-480h-70v414h-275v-414h-70z" />
    <glyph glyph-name="uni0440" unicode="&#x440;" horiz-adv-x="595" 
d="M80 -210v690h70v-70c11 15 24 28 41 40c27 20 68 40 124 40c130 0 235 -105 235 -250s-105 -250 -235 -250c-56 0 -97 20 -124 40c-17 12 -30 25 -41 40v-280h-70zM315 55c91 0 165 76 165 185s-74 185 -165 185c-84 0 -165 -80 -165 -185s81 -185 165 -185z" />
    <glyph glyph-name="uni0441" unicode="&#x441;" horiz-adv-x="515" 
d="M435 135l50 -45c-15 -19 -33 -35 -53 -50c-35 -25 -84 -50 -147 -50c-131 0 -240 110 -240 250s109 250 240 250c63 0 111 -24 144 -48c19 -14 36 -30 51 -47l-50 -50c-11 15 -23 28 -37 40c-24 20 -61 40 -108 40c-90 0 -170 -80 -170 -185s80 -185 170 -185
c47 0 84 20 111 40c15 12 28 25 39 40z" />
    <glyph glyph-name="uni0442" unicode="&#x442;" horiz-adv-x="450" 
d="M190 0v415h-170v65h410v-65h-170v-415h-70z" />
    <glyph glyph-name="uni0443" unicode="&#x443;" horiz-adv-x="490" 
d="M45 -200v65c5 -2 11 -4 16 -5c10 -3 21 -5 34 -5c45 0 71 24 90 75l25 70l-195 480h75l155 -390l155 390h75l-220 -550c-40 -100 -81 -140 -150 -140c-17 0 -31 2 -43 5c-7 1 -12 3 -17 5z" />
    <glyph glyph-name="uni0444" unicode="&#x444;" horiz-adv-x="710" 
d="M320 -210v200c-164 0 -275 110 -275 250s111 250 275 250v210h70v-210c164 0 275 -110 275 -250s-111 -250 -275 -250v-200h-70zM320 55v370c-125 0 -205 -80 -205 -185c0 -107 80 -185 205 -185zM390 425v-370c125 0 205 78 205 185c0 105 -80 185 -205 185z" />
    <glyph glyph-name="uni0445" unicode="&#x445;" horiz-adv-x="480" 
d="M15 0l180 250l-165 230h85l125 -175l125 175h85l-165 -230l180 -250h-85l-140 195l-140 -195h-85z" />
    <glyph glyph-name="uni0446" unicode="&#x446;" horiz-adv-x="590" 
d="M80 0v480h70v-415h265v415h70v-415h75v-185h-70v120h-410z" />
    <glyph glyph-name="uni0447" unicode="&#x447;" horiz-adv-x="540" 
d="M390 0v195c-11 -7 -24 -14 -38 -20c-24 -11 -57 -20 -97 -20c-109 0 -185 76 -185 185v140h70v-140c0 -71 49 -120 120 -120c40 0 72 11 95 22c13 7 24 14 35 23v215h70v-480h-70z" />
    <glyph glyph-name="uni0448" unicode="&#x448;" horiz-adv-x="780" 
d="M80 0v480h70v-415h205v415h71v-415h204v415h70v-480h-620z" />
    <glyph glyph-name="uni0449" unicode="&#x449;" horiz-adv-x="805" 
d="M80 0v480h70v-415h205v415h71v-415h204v415h70v-415h75v-185h-70v120h-625z" />
    <glyph glyph-name="uni044A" unicode="&#x44a;" horiz-adv-x="535" 
d="M125 0v415h-125v65h195v-160h120c111 0 175 -64 175 -160s-65 -160 -174 -160h-191zM195 65h121c64 0 104 39 104 95s-40 95 -105 95h-120v-190z" />
    <glyph glyph-name="uni044B" unicode="&#x44b;" horiz-adv-x="685" 
d="M80 0v480h70v-160h120c111 0 175 -64 175 -160s-65 -160 -174 -160h-191zM535 0v480h70v-480h-70zM150 65h121c64 0 104 39 104 95s-40 95 -105 95h-120v-190z" />
    <glyph glyph-name="uni044C" unicode="&#x44c;" horiz-adv-x="495" 
d="M80 0v480h70v-160h125c111 0 175 -64 175 -160s-65 -160 -174 -160h-196zM150 65h126c64 0 104 39 104 95s-40 95 -105 95h-125v-190z" />
    <glyph glyph-name="uni044D" unicode="&#x44d;" horiz-adv-x="510" 
d="M25 90l50 45c11 -15 24 -28 39 -40c27 -20 63 -40 111 -40c85 0 159 75 170 160h-240v65h235c-11 74 -79 145 -165 145c-48 0 -84 -20 -108 -40c-14 -12 -26 -25 -37 -40l-50 50c15 17 32 33 51 47c33 24 80 48 144 48c131 0 240 -110 240 -250s-109 -250 -240 -250
c-64 0 -112 25 -147 50c-20 15 -38 31 -53 50z" />
    <glyph glyph-name="uni044E" unicode="&#x44e;" horiz-adv-x="780" 
d="M80 0v480h70v-205h105c16 115 115 215 240 215c131 0 240 -110 240 -250s-109 -250 -240 -250c-125 0 -224 100 -240 220h-105v-210h-70zM495 55c90 0 170 80 170 185s-80 185 -170 185s-170 -80 -170 -185s80 -185 170 -185z" />
    <glyph glyph-name="uni044F" unicode="&#x44f;" horiz-adv-x="510" 
d="M40 0l110 175c-19 6 -35 15 -50 27c-25 21 -50 58 -50 118c0 90 70 160 175 160h205v-480h-70v160h-140l-100 -160h-80zM225 225h135v190h-135c-65 0 -105 -39 -105 -95s40 -95 105 -95z" />
    <glyph glyph-name="uni0450" unicode="&#x450;" horiz-adv-x="555" 
d="M250 565l-95 135h75l75 -135h-55zM440 135l45 -45c-14 -19 -31 -35 -51 -50c-35 -25 -84 -50 -149 -50c-131 0 -240 110 -240 250s110 250 235 250c131 0 230 -100 230 -240c0 -11 -2 -19 -3 -26l-2 -10l-390 1c5 -85 79 -160 170 -160c51 0 88 20 115 40
c15 12 29 25 40 40zM115 275h325c-11 85 -75 150 -160 150c-86 0 -154 -70 -165 -150z" />
    <glyph glyph-name="uni0451" unicode="&#x451;" horiz-adv-x="555" 
d="M440 135l45 -45c-14 -19 -31 -35 -51 -50c-35 -25 -84 -50 -149 -50c-131 0 -240 110 -240 250s110 250 235 250c131 0 230 -100 230 -240c0 -11 -2 -19 -3 -26l-2 -10l-390 1c5 -85 79 -160 170 -160c51 0 88 20 115 40c15 12 29 25 40 40zM115 275h325
c-11 85 -75 150 -160 150c-86 0 -154 -70 -165 -150zM140 630c0 25 20 45 45 45s45 -20 45 -45s-20 -45 -45 -45s-45 20 -45 45zM330 630c0 25 20 45 45 45s45 -20 45 -45s-20 -45 -45 -45s-45 20 -45 45z" />
    <glyph glyph-name="uni0452" unicode="&#x452;" horiz-adv-x="580" 
d="M95 0v545h-85v65h85v90h70v-90h140v-65h-140v-165c10 15 23 28 38 40c27 20 64 40 117 40c115 0 205 -91 205 -230c0 -145 -96 -240 -220 -240v65c85 0 150 66 150 175c0 100 -65 165 -140 165c-85 0 -150 -64 -150 -160v-235h-70z" />
    <glyph glyph-name="uni0453" unicode="&#x453;" horiz-adv-x="410" 
d="M80 0v480h320v-65h-250v-415h-70zM205 565l75 135h75l-95 -135h-55z" />
    <glyph glyph-name="uni0454" unicode="&#x454;" horiz-adv-x="515" 
d="M120 280h235v-65h-240c11 -85 85 -160 170 -160c47 0 84 20 111 40c15 12 28 25 39 40l50 -45c-15 -19 -33 -35 -53 -50c-35 -25 -84 -50 -147 -50c-131 0 -240 110 -240 250s109 250 240 250c63 0 111 -24 144 -48c19 -14 36 -30 51 -47l-50 -50c-11 15 -23 28 -37 40
c-24 20 -61 40 -108 40c-86 0 -154 -71 -165 -145z" />
    <glyph glyph-name="uni0455" unicode="&#x455;" horiz-adv-x="430" 
d="M35 75l50 50c9 -13 20 -25 32 -35c21 -19 53 -35 93 -35c71 0 105 35 105 80c0 110 -260 55 -260 220c0 69 64 135 160 135c51 0 88 -17 115 -33c15 -9 29 -20 40 -32l-50 -50c-7 9 -16 18 -26 25c-19 12 -44 25 -79 25c-55 0 -90 -35 -90 -70c0 -105 260 -50 260 -220
c0 -80 -66 -145 -175 -145c-60 0 -104 21 -133 42c-17 12 -31 26 -42 43z" />
    <glyph glyph-name="uni0456" unicode="&#x456;" horiz-adv-x="230" 
d="M70 640c0 25 20 45 45 45s45 -20 45 -45s-20 -45 -45 -45s-45 20 -45 45zM80 0v480h70v-480h-70z" />
    <glyph glyph-name="uni0457" unicode="&#x457;" horiz-adv-x="230" 
d="M80 0v480h70v-480h-70zM-25 630c0 25 20 45 45 45s45 -20 45 -45s-20 -45 -45 -45s-45 20 -45 45zM165 630c0 25 20 45 45 45s45 -20 45 -45s-20 -45 -45 -45s-45 20 -45 45z" />
    <glyph glyph-name="uni0458" unicode="&#x458;" horiz-adv-x="230" 
d="M70 640c0 25 20 45 45 45s45 -20 45 -45s-20 -45 -45 -45s-45 20 -45 45zM-40 -195v65l16 -8c11 -5 24 -7 39 -7c40 0 65 24 65 75v550h70v-550c0 -93 -43 -140 -130 -140c-19 0 -32 3 -43 7c-7 3 -12 5 -17 8z" />
    <glyph glyph-name="uni0459" unicode="&#x459;" horiz-adv-x="805" 
d="M0 0v70c3 -2 7 -4 12 -5c8 -3 17 -5 28 -5c55 0 90 36 90 280v140h335v-180h120c116 0 175 -59 175 -150s-59 -150 -174 -150h-191v415h-195v-75c0 -290 -60 -350 -150 -350c-13 0 -25 2 -35 5c-5 1 -10 3 -15 5zM465 65h121c69 0 104 34 104 85s-34 85 -105 85h-120
v-170z" />
    <glyph glyph-name="uni045A" unicode="&#x45a;" horiz-adv-x="815" 
d="M80 0v480h70v-180h255v180h70v-180h120c116 0 175 -59 175 -150s-59 -150 -174 -150h-191v235h-255v-235h-70zM475 65h121c69 0 104 34 104 85s-34 85 -105 85h-120v-170z" />
    <glyph glyph-name="uni045B" unicode="&#x45b;" horiz-adv-x="595" 
d="M95 0v545h-85v65h85v90h70v-90h140v-65h-140v-165c10 15 23 28 38 40c27 20 64 40 117 40c115 0 195 -80 195 -205v-255h-70v255c0 85 -54 140 -130 140c-85 0 -150 -64 -150 -160v-235h-70z" />
    <glyph glyph-name="uni045C" unicode="&#x45c;" horiz-adv-x="505" 
d="M80 0v480h70v-255l240 255h85l-185 -195l205 -285h-80l-170 235l-95 -100v-135h-70zM235 565l75 135h75l-95 -135h-55z" />
    <glyph glyph-name="uni045D" unicode="&#x45d;" horiz-adv-x="580" 
d="M80 0v480h70v-360l290 360h60v-480h-70v360l-290 -360h-60zM275 565l-95 135h75l75 -135h-55z" />
    <glyph glyph-name="uni045E" unicode="&#x45e;" horiz-adv-x="490" 
d="M45 -200v65c5 -2 11 -4 16 -5c10 -3 21 -5 34 -5c45 0 71 24 90 75l25 70l-195 480h75l155 -390l155 390h75l-220 -550c-40 -100 -81 -140 -150 -140c-17 0 -31 2 -43 5c-7 1 -12 3 -17 5zM110 700h55c0 -56 29 -85 80 -85s80 29 80 85h55c0 -80 -55 -135 -135 -135
s-135 55 -135 135z" />
    <glyph glyph-name="uni045F" unicode="&#x45f;" horiz-adv-x="570" 
d="M80 0v480h70v-415h270v415h70v-480h-170v-120h-70v120h-170z" />
    <glyph glyph-name="uni0462" unicode="&#x462;" horiz-adv-x="690" 
d="M150 0v525h-150v70h150v105h75v-105h190v-70h-190v-115h185c135 0 220 -85 220 -205s-85 -205 -220 -205h-260zM225 70h185c96 0 145 50 145 135s-49 135 -145 135h-185v-270z" />
    <glyph glyph-name="uni0463" unicode="&#x463;" horiz-adv-x="535" 
d="M125 0v415h-125v65h125v220h70v-220h155v-65h-155v-95h120c111 0 175 -64 175 -160s-65 -160 -174 -160h-191zM195 65h121c64 0 104 39 104 95s-40 95 -105 95h-120v-190z" />
    <glyph glyph-name="uni046A" unicode="&#x46a;" horiz-adv-x="795" 
d="M70 0v85c0 181 90 290 235 315l-220 250v50h625v-50l-220 -250c145 -25 235 -134 235 -315v-85h-75v85c0 170 -80 245 -215 250v-335h-75v335c-135 -5 -215 -80 -215 -250v-85h-75zM395 405h5l200 225h-405z" />
    <glyph glyph-name="uni046B" unicode="&#x46b;" horiz-adv-x="650" 
d="M115 0h-70c0 146 80 239 195 260l-160 170v50h490v-50l-160 -170c115 -21 195 -114 195 -260h-70c0 136 -64 200 -175 205v-205h-70v205c-111 -5 -175 -69 -175 -205zM325 260l147 160h-294z" />
    <glyph glyph-name="uni0472" unicode="&#x472;" horiz-adv-x="840" 
d="M60 350c0 200 160 360 360 360s360 -160 360 -360s-160 -360 -360 -360s-360 160 -360 360zM705 325c-13 -6 -28 -11 -43 -15c-27 -8 -62 -15 -102 -15c-115 0 -190 40 -280 40c-48 0 -83 -8 -107 -16c-14 -5 -26 -10 -35 -16c21 -139 133 -243 282 -243
c150 0 269 110 285 265zM702 397c-21 139 -133 243 -282 243c-150 0 -269 -110 -285 -265l42 15c27 7 63 15 103 15c115 0 190 -40 280 -40c47 0 83 8 107 16c14 5 26 10 35 16z" />
    <glyph glyph-name="uni0473" unicode="&#x473;" horiz-adv-x="580" 
d="M290 -10c-135 0 -245 110 -245 250s110 250 245 250s245 -110 245 -250s-110 -250 -245 -250zM461 280c-16 85 -91 145 -171 145c-91 0 -164 -70 -175 -161c7 4 15 7 24 10c15 5 36 11 61 11c80 0 120 -25 185 -25c27 0 47 5 59 10c7 3 13 6 17 10zM465 216
c-7 -5 -15 -8 -24 -11c-15 -5 -36 -10 -61 -10c-80 0 -120 25 -185 25c-28 0 -47 -5 -59 -10c-7 -3 -13 -6 -17 -10c16 -85 91 -145 171 -145c91 0 164 70 175 161z" />
    <glyph glyph-name="uni0474" unicode="&#x474;" horiz-adv-x="700" 
d="M300 0l-270 700h80l225 -590l171 450c40 103 68 150 149 150c15 0 28 -2 39 -5c6 -2 11 -4 16 -5l-20 -65l-8 2c-5 1 -11 3 -22 3c-35 0 -51 -19 -70 -70l-220 -570h-70z" />
    <glyph glyph-name="uni0475" unicode="&#x475;" horiz-adv-x="515" 
d="M210 0l-190 480h75l150 -385l110 285c31 80 65 110 125 110c15 0 27 -2 36 -5l14 -5l-20 -60l-7 2c-4 1 -11 3 -18 3c-31 0 -43 -15 -59 -55l-146 -370h-70z" />
    <glyph glyph-name="uni048A" unicode="&#x48a;" horiz-adv-x="785" 
d="M105 0v700h75v-565l430 565h65v-630h110v-10l-115 -210h-50l50 150h-70v565l-430 -565h-65zM255 930h55c0 -45 35 -80 80 -80s80 35 80 80h55c0 -80 -55 -135 -135 -135s-135 55 -135 135z" />
    <glyph glyph-name="uni048B" unicode="&#x48b;" horiz-adv-x="595" 
d="M80 0v480h70v-360l290 360h60v-415h95v-10l-95 -175h-45l40 120h-65v360l-290 -360h-60zM155 700h55c0 -56 29 -85 80 -85s80 29 80 85h55c0 -80 -55 -135 -135 -135s-135 55 -135 135z" />
    <glyph glyph-name="uni048C" unicode="&#x48c;" horiz-adv-x="690" 
d="M150 0v525h-150v70h150v105h75v-105h190v-70h-190v-115h185c135 0 220 -85 220 -205s-85 -205 -220 -205h-260zM225 70h185c96 0 145 50 145 135s-49 135 -145 135h-185v-270z" />
    <glyph glyph-name="uni048D" unicode="&#x48d;" horiz-adv-x="535" 
d="M125 0v415h-125v65h125v220h70v-220h155v-65h-155v-95h120c111 0 175 -64 175 -160s-65 -160 -174 -160h-191zM195 65h121c64 0 104 39 104 95s-40 95 -105 95h-120v-190z" />
    <glyph glyph-name="uni048E" unicode="&#x48e;" horiz-adv-x="650" 
d="M105 0v700h265c130 0 225 -96 225 -220c0 -80 -39 -155 -110 -192l55 -78l-60 -40l-65 94l-13 -2c-8 -1 -20 -2 -32 -2h-190v-260h-75zM180 330h188l-53 75l60 40l70 -100c45 25 75 70 75 135c0 91 -59 150 -150 150h-190v-300z" />
    <glyph glyph-name="uni048F" unicode="&#x48f;" horiz-adv-x="595" 
d="M80 -210v690h70v-70c11 15 24 28 41 40c27 20 68 40 124 40c130 0 235 -105 235 -250c0 -85 -34 -150 -85 -195l60 -85l-55 -35l-60 85c-9 -4 -19 -7 -29 -10c-19 -5 -41 -10 -66 -10c-56 0 -97 20 -124 40c-17 12 -30 25 -41 40v-280h-70zM371 65l-66 95l55 35l66 -94
c29 29 54 79 54 139c0 109 -74 185 -165 185c-84 0 -165 -80 -165 -185s81 -185 165 -185c16 0 30 2 41 5c6 1 11 3 15 5z" />
    <glyph glyph-name="uni0490" unicode="&#x490;" horiz-adv-x="550" 
d="M105 0v700h365v140h70v-210h-360v-630h-75z" />
    <glyph glyph-name="uni0491" unicode="&#x491;" horiz-adv-x="410" 
d="M80 0v480h254v120h66v-185h-250v-415h-70z" />
    <glyph glyph-name="uni0492" unicode="&#x492;" horiz-adv-x="575" 
d="M130 0v320h-100v70h100v310h425v-70h-350v-240h195v-70h-195v-320h-75z" />
    <glyph glyph-name="uni0493" unicode="&#x493;" horiz-adv-x="430" 
d="M100 0v200h-80v65h80v215h320v-65h-250v-150h140v-65h-140v-200h-70z" />
    <glyph glyph-name="uni0494" unicode="&#x494;" horiz-adv-x="665" 
d="M105 0v700h435v-70h-360v-285c15 9 31 18 49 25c31 12 75 25 131 25c150 0 245 -95 245 -255c0 -171 -105 -275 -260 -275v70c111 0 185 74 185 205c0 116 -70 185 -175 185c-59 0 -102 -17 -131 -33c-17 -9 -32 -20 -44 -32v-260h-75z" />
    <glyph glyph-name="uni0495" unicode="&#x495;" horiz-adv-x="490" 
d="M250 -210v65c81 0 140 55 140 175c0 111 -54 165 -130 165c-35 0 -62 -13 -81 -25c-11 -7 -21 -16 -29 -25v-145h-70v480h310v-65h-240v-190c8 6 18 12 29 17c19 9 47 18 86 18c109 0 195 -85 195 -230c0 -156 -85 -240 -210 -240z" />
    <glyph glyph-name="uni0496" unicode="&#x496;" horiz-adv-x="975" 
d="M10 0l290 410l-265 290h95l315 -344v344h75v-344l315 344h95l-265 -290l240 -340h85v-220h-75v150h-50l-250 355l-95 -100v-255h-75v255l-95 100l-250 -355h-90z" />
    <glyph glyph-name="uni0497" unicode="&#x497;" horiz-adv-x="750" 
d="M10 0l205 285l-185 195h85l215 -230v230h70v-230l215 230h85l-185 -195l158 -220h82v-185h-70v120h-45l-170 235l-70 -75v-160h-70v160l-70 75l-170 -235h-80z" />
    <glyph glyph-name="uni0498" unicode="&#x498;" horiz-adv-x="595" 
d="M245 -150v142c-71 7 -124 34 -160 59c-21 15 -40 31 -55 49l50 50c14 -17 31 -32 51 -45c35 -23 84 -45 149 -45c115 0 180 65 180 135c0 75 -65 140 -180 140h-80v70h80c100 0 155 55 155 115c0 65 -55 120 -155 120c-56 0 -98 -20 -129 -40c-17 -12 -33 -25 -46 -40
l-50 50c17 19 36 35 58 50c39 25 94 50 167 50c145 0 230 -85 230 -185c0 -60 -29 -99 -60 -123c-17 -14 -37 -25 -60 -32c27 -8 51 -20 72 -35c36 -27 73 -69 73 -140c0 -94 -85 -191 -215 -202v-143h-75z" />
    <glyph glyph-name="uni0499" unicode="&#x499;" horiz-adv-x="440" 
d="M180 -120v112c-51 4 -88 24 -115 44c-15 12 -29 25 -40 39l45 45c11 -13 23 -24 36 -33c23 -16 56 -32 99 -32c80 0 115 35 115 80s-35 80 -115 80h-55v65h55c60 0 95 35 95 75s-30 70 -95 70c-39 0 -67 -13 -88 -28c-12 -8 -23 -17 -32 -27l-50 50c12 13 27 24 44 35
c29 17 70 35 126 35c100 0 165 -66 165 -135c0 -83 -67 -102 -75 -105c5 0 95 -19 95 -115c0 -63 -49 -131 -140 -142v-113h-70z" />
    <glyph glyph-name="uni049A" unicode="&#x49a;" horiz-adv-x="680" 
d="M105 0v700h75v-395l360 395h95l-265 -290l240 -340h85v-220h-75v150h-50l-250 355l-140 -150v-205h-75z" />
    <glyph glyph-name="uni049B" unicode="&#x49b;" horiz-adv-x="525" 
d="M80 0v480h70v-255l240 255h85l-185 -195l158 -220h82v-185h-70v120h-45l-170 235l-95 -100v-135h-70z" />
    <glyph glyph-name="uni049C" unicode="&#x49c;" horiz-adv-x="705" 
d="M105 0v700h75v-310h60v135h70v-135h50l210 310h90l-235 -345l260 -355h-90l-235 320h-50v-135h-70v135h-60v-320h-75z" />
    <glyph glyph-name="uni049D" unicode="&#x49d;" horiz-adv-x="540" 
d="M80 0v480h70v-210h50v105h60v-105h30l125 210h80l-140 -235l160 -245h-85l-137 210h-33v-100h-60v100h-50v-210h-70z" />
    <glyph glyph-name="uni049E" unicode="&#x49e;" horiz-adv-x="690" 
d="M135 0v530h-135v70h135v100h75v-100h125v-70h-125v-220l350 390h95l-260 -290l285 -410h-95l-244 351l-131 -146v-205h-75z" />
    <glyph glyph-name="uni049F" unicode="&#x49f;" horiz-adv-x="520" 
d="M95 0v545h-85v65h85v90h70v-90h140v-65h-140v-320l240 255h85l-185 -195l205 -285h-80l-170 235l-95 -100v-135h-70z" />
    <glyph glyph-name="uni04A0" unicode="&#x4a0;" horiz-adv-x="735" 
d="M180 0v630h-180v70h255v-390l350 390h95l-260 -290l285 -410h-95l-244 351l-131 -146v-205h-75z" />
    <glyph glyph-name="uni04A1" unicode="&#x4a1;" horiz-adv-x="525" 
d="M100 0v415h-100v65h170v-255l240 255h85l-185 -195l205 -285h-80l-170 235l-95 -100v-135h-70z" />
    <glyph glyph-name="uni04A2" unicode="&#x4a2;" horiz-adv-x="760" 
d="M105 0v700h75v-310h390v310h75v-630h85v-220h-75v150h-85v320h-390v-320h-75z" />
    <glyph glyph-name="uni04A3" unicode="&#x4a3;" 
d="M80 0v480h70v-205h275v205h70v-415h75v-185h-70v120h-75v210h-275v-210h-70z" />
    <glyph glyph-name="uni04A4" unicode="&#x4a4;" horiz-adv-x="975" 
d="M105 0v700h75v-310h370v310h415v-70h-340v-630h-75v320h-370v-320h-75z" />
    <glyph glyph-name="uni04A5" unicode="&#x4a5;" horiz-adv-x="725" 
d="M80 0v480h70v-205h260v205h305v-65h-235v-415h-70v210h-260v-210h-70z" />
    <glyph glyph-name="uni04A6" unicode="&#x4a6;" horiz-adv-x="1085" 
d="M105 0v700h530v-355c15 9 31 18 49 25c31 12 75 25 131 25c150 0 245 -95 245 -255c0 -171 -105 -275 -260 -275v70c111 0 185 74 185 205c0 116 -70 185 -175 185c-59 0 -102 -17 -131 -33c-17 -9 -32 -20 -44 -32v-260h-75v630h-380v-630h-75z" />
    <glyph glyph-name="uni04A7" unicode="&#x4a7;" horiz-adv-x="815" 
d="M80 0v480h405v-255c8 6 18 12 29 17c19 9 47 18 86 18c109 0 195 -85 195 -230c0 -156 -85 -240 -210 -240v65c81 0 140 55 140 175c0 111 -54 165 -130 165c-35 0 -62 -13 -81 -25c-11 -7 -21 -16 -29 -25v-145h-70v414h-265v-414h-70z" />
    <glyph glyph-name="uni04A8" unicode="&#x4a8;" horiz-adv-x="835" 
d="M620 60h40c40 0 70 8 90 17c12 5 22 11 30 18l30 -60c-9 -9 -20 -16 -34 -23c-24 -11 -60 -22 -116 -22c-35 0 -64 5 -84 12c-12 3 -22 8 -31 13c-11 -5 -24 -10 -37 -13c-23 -7 -56 -12 -93 -12c-190 0 -345 155 -345 360c0 215 145 349 310 360v-70
c-125 -11 -235 -110 -235 -290c0 -170 119 -290 275 -290h45c-27 20 -52 46 -73 77c-36 52 -72 132 -72 243c0 176 105 280 225 280s225 -104 225 -280c0 -111 -38 -191 -75 -243c-22 -31 -47 -57 -75 -77zM543 85c29 17 54 38 76 65c39 47 76 119 76 230
c0 140 -70 210 -150 210s-150 -70 -150 -210c0 -111 37 -183 74 -230c22 -27 47 -48 74 -65z" />
    <glyph glyph-name="uni04A9" unicode="&#x4a9;" 
d="M290 50h15c-15 14 -28 31 -40 52c-20 35 -40 87 -40 158c0 116 65 185 150 185s150 -69 150 -185c0 -71 -20 -123 -40 -158c-12 -21 -25 -38 -40 -52h20c35 0 60 12 76 27c9 8 17 17 24 28l45 -45c-10 -13 -21 -25 -34 -35c-23 -19 -56 -35 -101 -35c-35 0 -60 5 -76 10
c-9 3 -17 6 -24 10c-7 -4 -14 -7 -23 -10c-15 -5 -36 -10 -67 -10c-135 0 -240 105 -240 255c0 140 95 234 200 245v-65c-65 -11 -130 -74 -130 -180c0 -114 75 -195 175 -195zM375 65c15 11 28 25 40 42c20 31 40 77 40 148c0 85 -40 125 -80 125s-80 -40 -80 -125
c0 -71 20 -117 40 -148c12 -17 25 -31 40 -42z" />
    <glyph glyph-name="uni04AA" unicode="&#x4aa;" horiz-adv-x="750" 
d="M375 -150v143c-180 21 -315 173 -315 357c0 200 160 360 360 360c96 0 166 -37 214 -73c27 -21 51 -45 71 -72l-50 -45c-16 23 -35 43 -58 60c-39 31 -97 60 -177 60c-160 0 -285 -125 -285 -290s125 -290 285 -290c80 0 140 29 180 60c23 17 43 37 60 60l50 -45
c-18 -25 -40 -47 -66 -67c-44 -35 -109 -70 -194 -77v-141h-75z" />
    <glyph glyph-name="uni04AB" unicode="&#x4ab;" horiz-adv-x="515" 
d="M245 -120v114c-109 16 -200 121 -200 246c0 140 109 250 240 250c63 0 111 -24 144 -48c19 -14 36 -30 51 -47l-50 -50c-11 15 -23 28 -37 40c-24 20 -61 40 -108 40c-90 0 -170 -80 -170 -185s80 -185 170 -185c47 0 84 20 111 40c15 12 28 25 39 40l50 -45
c-13 -16 -29 -31 -46 -44c-29 -23 -72 -47 -124 -54v-112h-70z" />
    <glyph glyph-name="uni04AC" unicode="&#x4ac;" horiz-adv-x="555" 
d="M325 -150v150h-85v630h-220v70h515v-70h-220v-560h85v-220h-75z" />
    <glyph glyph-name="uni04AD" unicode="&#x4ad;" horiz-adv-x="450" 
d="M265 -120v120h-75v415h-170v65h410v-65h-170v-350h75v-185h-70z" />
    <glyph glyph-name="uni04AE" unicode="&#x4ae;" horiz-adv-x="635" 
d="M280 0v245l-260 455h85l210 -375h5l210 375h85l-260 -455v-245h-75z" />
    <glyph glyph-name="uni04AF" unicode="&#x4af;" horiz-adv-x="490" 
d="M210 -210v210l-195 480h75l155 -385l155 385h75l-195 -480v-210h-70z" />
    <glyph glyph-name="uni04B0" unicode="&#x4b0;" horiz-adv-x="635" 
d="M280 0v200h-160v70h155l-255 430h85l210 -360h5l210 360h85l-255 -430h155v-70h-160v-200h-75z" />
    <glyph glyph-name="uni04B1" unicode="&#x4b1;" horiz-adv-x="490" 
d="M210 -210v145h-110v65h110l-195 480h75l155 -385l155 385h75l-195 -480h110v-65h-110v-145h-70z" />
    <glyph glyph-name="uni04B2" unicode="&#x4b2;" horiz-adv-x="665" 
d="M20 0l260 365l-240 335h90l195 -275l195 275h90l-240 -335l210 -295h85v-220h-75v150h-50l-215 305l-215 -305h-90z" />
    <glyph glyph-name="uni04B3" unicode="&#x4b3;" horiz-adv-x="490" 
d="M15 0l180 250l-165 230h85l125 -175l125 175h85l-165 -230l133 -185h77v-185h-70v120h-45l-140 195l-140 -195h-85z" />
    <glyph glyph-name="uni04B4" unicode="&#x4b4;" horiz-adv-x="890" 
d="M240 0v630h-220v70h495v-70h-200v-560h380v630h75v-630h90v-220h-75v150h-545z" />
    <glyph glyph-name="uni04B5" unicode="&#x4b5;" horiz-adv-x="700" 
d="M190 0v415h-170v65h390v-65h-150v-350h265v415h70v-415h75v-185h-70v120h-410z" />
    <glyph glyph-name="uni04B6" unicode="&#x4b6;" horiz-adv-x="715" 
d="M610 -150v150h-85v305c-15 -11 -33 -21 -52 -30c-33 -15 -81 -30 -138 -30c-147 0 -240 93 -240 245v210h75v-210c0 -113 64 -175 175 -175c57 0 102 18 133 37c18 11 34 24 47 38v310h75v-630h85v-220h-75z" />
    <glyph glyph-name="uni04B7" unicode="&#x4b7;" horiz-adv-x="565" 
d="M465 -120v120h-75v195c-11 -7 -24 -14 -38 -20c-24 -11 -57 -20 -97 -20c-109 0 -185 76 -185 185v140h70v-140c0 -71 49 -120 120 -120c40 0 72 11 95 22c13 7 24 14 35 23v215h70v-415h75v-185h-70z" />
    <glyph glyph-name="uni04B8" unicode="&#x4b8;" horiz-adv-x="715" 
d="M320 140v105c-140 5 -225 100 -225 245v210h75v-210c0 -105 54 -165 150 -174v139h70v-136c45 8 81 27 106 44c15 10 28 21 39 32v305h75v-700h-75v310c-11 -9 -24 -17 -39 -24c-25 -13 -61 -29 -106 -36v-110h-70z" />
    <glyph glyph-name="uni04B9" unicode="&#x4b9;" horiz-adv-x="550" 
d="M245 80v75c-105 5 -175 80 -175 185v140h70v-140c0 -65 45 -115 105 -119v99h60v-95c27 5 51 15 68 26c10 6 19 12 27 19v210h70v-480h-70v200c-6 -5 -14 -9 -23 -14c-16 -8 -40 -19 -72 -26v-80h-60z" />
    <glyph glyph-name="uni04BA" unicode="&#x4ba;" horiz-adv-x="680" 
d="M105 0v700h75v-305c15 11 33 21 52 30c33 15 79 30 138 30c147 0 240 -93 240 -245v-210h-75v210c0 113 -64 175 -175 175c-59 0 -102 -19 -133 -38c-18 -11 -34 -24 -47 -37v-310h-75z" />
    <glyph glyph-name="uni04BB" unicode="&#x4bb;" horiz-adv-x="585" 
d="M85 0v700h70v-290c10 15 23 28 38 40c27 20 64 40 117 40c115 0 195 -80 195 -205v-285h-70v285c0 85 -54 140 -130 140c-85 0 -150 -64 -150 -160v-265h-70z" />
    <glyph glyph-name="uni04BC" unicode="&#x4bc;" horiz-adv-x="870" 
d="M-5 490h70v-20c0 -40 19 -60 70 -60h24c21 175 155 300 326 300c180 0 325 -145 325 -370h-580c0 -165 115 -280 275 -280c77 0 134 25 171 52c22 15 40 33 54 53l50 -45c-17 -25 -39 -46 -66 -65c-45 -33 -113 -65 -209 -65c-195 0 -345 146 -350 350h-15
c-105 0 -150 44 -150 115c0 12 1 20 2 27zM236 410h493c-24 149 -124 230 -244 230c-125 0 -225 -81 -249 -230z" />
    <glyph glyph-name="uni04BD" unicode="&#x4bd;" horiz-adv-x="625" 
d="M126 215h-1c-91 0 -130 40 -130 100c0 12 1 20 2 27l3 8h60v-15c0 -40 22 -60 65 -60h2c19 125 112 215 228 215c125 0 225 -100 225 -240c0 -11 -2 -19 -3 -26l-2 -10l-380 1c5 -85 79 -160 170 -160c51 0 88 20 115 40c15 12 29 25 40 40l45 -45
c-14 -19 -31 -35 -51 -50c-35 -25 -84 -50 -149 -50c-130 0 -231 110 -239 225zM195 275h315c-11 85 -75 150 -155 150c-85 0 -149 -70 -160 -150z" />
    <glyph glyph-name="uni04BE" unicode="&#x4be;" horiz-adv-x="870" 
d="M455 -150v144c-171 21 -295 161 -300 346h-15c-105 0 -150 44 -150 115c0 12 1 20 2 27l3 8h70v-20c0 -40 19 -60 70 -60h24c21 175 155 300 326 300c180 0 325 -145 325 -370h-580c0 -165 115 -280 275 -280c77 0 134 25 171 52c22 15 40 33 54 53l50 -45
c-17 -23 -37 -43 -61 -61c-41 -31 -104 -64 -189 -68v-141h-75zM236 410h493c-24 149 -124 230 -244 230c-125 0 -225 -81 -249 -230z" />
    <glyph glyph-name="uni04BF" unicode="&#x4bf;" horiz-adv-x="625" 
d="M320 -120v115c-104 19 -186 117 -194 220h-1c-91 0 -130 40 -130 100c0 12 1 20 2 27l3 8h60v-15c0 -40 22 -60 65 -60h2c19 125 112 215 228 215c125 0 225 -100 225 -240c0 -11 -2 -19 -3 -26l-2 -10l-380 1c5 -85 79 -160 170 -160c51 0 88 20 115 40
c15 12 29 25 40 40l45 -45c-12 -16 -27 -31 -44 -44c-29 -23 -74 -48 -131 -55v-111h-70zM195 275h315c-11 85 -75 150 -155 150c-85 0 -149 -70 -160 -150z" />
    <glyph glyph-name="uni04C0" unicode="&#x4c0;" horiz-adv-x="285" 
d="M105 0v700h75v-700h-75z" />
    <glyph glyph-name="uni04C1" unicode="&#x4c1;" horiz-adv-x="965" 
d="M10 0l290 410l-265 290h95l315 -344v344h75v-344l315 344h95l-265 -290l290 -410h-90l-250 355l-95 -100v-255h-75v255l-95 100l-250 -355h-90zM345 930h55c0 -45 35 -80 80 -80s80 35 80 80h55c0 -80 -55 -135 -135 -135s-135 55 -135 135z" />
    <glyph glyph-name="uni04C2" unicode="&#x4c2;" horiz-adv-x="730" 
d="M10 0l205 285l-185 195h85l215 -230v230h70v-230l215 230h85l-185 -195l205 -285h-80l-170 235l-70 -75v-160h-70v160l-70 75l-170 -235h-80zM230 700h55c0 -56 29 -85 80 -85s80 29 80 85h55c0 -80 -55 -135 -135 -135s-135 55 -135 135z" />
    <glyph glyph-name="uni04C3" unicode="&#x4c3;" horiz-adv-x="705" 
d="M105 0v700h75v-390l340 390h95l-275 -310l19 7c12 4 31 8 56 8c140 0 235 -96 235 -285c0 -215 -115 -330 -260 -330v70c100 0 185 85 185 260c0 145 -70 215 -165 215c-80 0 -139 -26 -208 -105l-22 -25v-205h-75z" />
    <glyph glyph-name="uni04C4" unicode="&#x4c4;" horiz-adv-x="520" 
d="M280 -210v65c80 0 130 50 130 175c0 124 -55 175 -130 175c-40 0 -72 -17 -95 -33c-13 -9 -25 -20 -35 -32v-140h-70v480h70v-250l225 250h85l-200 -220l11 2c7 1 16 3 29 3c100 0 180 -75 180 -235s-80 -240 -200 -240z" />
    <glyph glyph-name="uni04C5" unicode="&#x4c5;" horiz-adv-x="740" 
d="M-5 0v75c5 -2 11 -4 18 -5c12 -3 24 -5 37 -5c75 0 130 55 130 425v210h450v-630h110v-10l-115 -210h-50l50 150h-70v630h-300v-140c0 -425 -75 -500 -195 -500c-17 0 -33 2 -46 5c-7 1 -14 3 -19 5z" />
    <glyph glyph-name="uni04C6" unicode="&#x4c6;" horiz-adv-x="575" 
d="M0 0v70c3 -2 7 -4 12 -5c8 -3 17 -5 28 -5c55 0 90 36 90 280v140h350v-415h95v-10l-95 -175h-45l40 120h-65v415h-210v-75c0 -290 -60 -350 -150 -350c-13 0 -25 2 -35 5c-5 1 -10 3 -15 5z" />
    <glyph glyph-name="uni04C7" unicode="&#x4c7;" horiz-adv-x="750" 
d="M105 0v700h75v-310h390v310h75v-765c0 -100 -45 -145 -125 -145c-23 0 -41 3 -54 7l-21 8v65c5 -3 10 -5 17 -8c13 -5 29 -7 48 -7c37 0 60 23 60 80v385h-390v-320h-75z" />
    <glyph glyph-name="uni04C8" unicode="&#x4c8;" horiz-adv-x="575" 
d="M80 0v480h70v-205h275v205h70v-550c0 -93 -43 -140 -130 -140c-19 0 -32 3 -43 7c-7 3 -12 5 -17 8v65l16 -8c11 -5 24 -7 39 -7c40 0 65 24 65 75v280h-275v-210h-70z" />
    <glyph glyph-name="uni04C9" unicode="&#x4c9;" horiz-adv-x="755" 
d="M105 0v700h75v-310h390v310h75v-630h110v-10l-115 -210h-50l50 150h-70v320h-390v-320h-75z" />
    <glyph glyph-name="uni04CA" unicode="&#x4ca;" horiz-adv-x="590" 
d="M80 0v480h70v-205h275v205h70v-415h95v-10l-95 -175h-45l40 120h-65v210h-275v-210h-70z" />
    <glyph glyph-name="uni04CB" unicode="&#x4cb;" horiz-adv-x="705" 
d="M440 -150v220h85v235c-15 -11 -33 -21 -52 -30c-33 -15 -81 -30 -138 -30c-147 0 -240 93 -240 245v210h75v-210c0 -113 64 -175 175 -175c57 0 102 18 133 37c18 11 34 24 47 38v310h75v-700h-85v-150h-75z" />
    <glyph glyph-name="uni04CC" unicode="&#x4cc;" horiz-adv-x="540" 
d="M315 -120v185h75v130c-11 -7 -24 -14 -38 -20c-24 -11 -57 -20 -97 -20c-109 0 -185 76 -185 185v140h70v-140c0 -71 49 -120 120 -120c40 0 72 11 95 22c13 7 24 14 35 23v215h70v-480h-75v-120h-70z" />
    <glyph glyph-name="uni04CD" unicode="&#x4cd;" horiz-adv-x="925" 
d="M105 0v700h65l290 -380l290 380h65v-630h110v-10l-115 -210h-50l50 150h-70v570l-280 -370l-280 370v-570h-75z" />
    <glyph glyph-name="uni04CE" unicode="&#x4ce;" horiz-adv-x="665" 
d="M80 0v480h55l190 -240l190 240h55v-415h95v-10l-95 -175h-45l40 120h-65v355l-175 -220l-175 220v-355h-70z" />
    <glyph glyph-name="uni04CF" unicode="&#x4cf;" horiz-adv-x="240" 
d="M85 0v700h70v-700h-70z" />
    <glyph glyph-name="uni04D0" unicode="&#x4d0;" horiz-adv-x="690" 
d="M210 930h55c0 -45 35 -80 80 -80s80 35 80 80h55c0 -80 -55 -135 -135 -135s-135 55 -135 135zM20 0l290 700h70l290 -700h-80l-80 195h-330l-80 -195h-80zM210 265h270l-135 330z" />
    <glyph glyph-name="uni04D1" unicode="&#x4d1;" horiz-adv-x="520" 
d="M370 0v65c-10 -14 -23 -27 -38 -38c-27 -19 -65 -37 -117 -37c-100 0 -170 70 -170 140c0 80 49 130 140 145l185 30c0 71 -49 120 -120 120c-43 0 -76 -18 -99 -35c-13 -11 -25 -22 -36 -35l-45 45c13 17 29 32 47 45c31 23 74 45 133 45c110 0 190 -80 190 -185v-305
h-70zM370 215v30l-165 -30c-60 -11 -90 -40 -90 -85c0 -40 35 -75 100 -75c91 0 155 64 155 160zM130 700h55c0 -56 29 -85 80 -85s80 29 80 85h55c0 -80 -55 -135 -135 -135s-135 55 -135 135z" />
    <glyph glyph-name="uni04D2" unicode="&#x4d2;" horiz-adv-x="690" 
d="M205 855c0 25 20 45 45 45s45 -20 45 -45s-20 -45 -45 -45s-45 20 -45 45zM395 855c0 25 20 45 45 45s45 -20 45 -45s-20 -45 -45 -45s-45 20 -45 45zM20 0l290 700h70l290 -700h-80l-80 195h-330l-80 -195h-80zM210 265h270l-135 330z" />
    <glyph glyph-name="uni04D3" unicode="&#x4d3;" horiz-adv-x="520" 
d="M125 630c0 25 20 45 45 45s45 -20 45 -45s-20 -45 -45 -45s-45 20 -45 45zM315 630c0 25 20 45 45 45s45 -20 45 -45s-20 -45 -45 -45s-45 20 -45 45zM370 0v65c-10 -14 -23 -27 -38 -38c-27 -19 -65 -37 -117 -37c-100 0 -170 70 -170 140c0 80 49 130 140 145l185 30
c0 71 -49 120 -120 120c-43 0 -76 -18 -99 -35c-13 -11 -25 -22 -36 -35l-45 45c13 17 29 32 47 45c31 23 74 45 133 45c110 0 190 -80 190 -185v-305h-70zM370 215v30l-165 -30c-60 -11 -90 -40 -90 -85c0 -40 35 -75 100 -75c91 0 155 64 155 160z" />
    <glyph glyph-name="uni04D6" unicode="&#x4d6;" horiz-adv-x="640" 
d="M210 930h55c0 -45 35 -80 80 -80s80 35 80 80h55c0 -80 -55 -135 -135 -135s-135 55 -135 135zM105 0v700h480v-70h-405v-230h325v-70h-325v-260h415v-70h-490z" />
    <glyph glyph-name="uni04D7" unicode="&#x4d7;" horiz-adv-x="555" 
d="M440 135l45 -45c-14 -19 -31 -35 -51 -50c-35 -25 -84 -50 -149 -50c-131 0 -240 110 -240 250s110 250 235 250c131 0 230 -100 230 -240c0 -11 -2 -19 -3 -26l-2 -10l-390 1c5 -85 79 -160 170 -160c51 0 88 20 115 40c15 12 29 25 40 40zM115 275h325
c-11 85 -75 150 -160 150c-86 0 -154 -70 -165 -150zM145 700h55c0 -56 29 -85 80 -85s80 29 80 85h55c0 -80 -55 -135 -135 -135s-135 55 -135 135z" />
    <glyph glyph-name="uni04D8" unicode="&#x4d8;" horiz-adv-x="785" 
d="M60 350h590c0 176 -115 290 -270 290c-79 0 -134 -25 -171 -50c-22 -15 -40 -31 -54 -50l-50 45c19 23 41 44 68 62c47 31 114 63 207 63c195 0 345 -149 345 -360c0 -215 -145 -360 -330 -360c-190 0 -335 145 -335 360zM644 280h-503c24 -139 123 -220 254 -220
c125 0 225 80 249 220z" />
    <glyph glyph-name="uni04D9" unicode="&#x4d9;" horiz-adv-x="555" 
d="M45 240v16l395 -1c-5 90 -79 170 -170 170c-51 0 -88 -19 -113 -38c-15 -11 -27 -24 -37 -37l-50 40c14 19 31 35 51 50c35 25 84 50 149 50c131 0 240 -110 240 -250s-110 -250 -230 -250c-136 0 -235 101 -235 250zM435 195h-315c11 -85 75 -140 160 -140
c76 0 144 60 155 140z" />
    <glyph glyph-name="uni04DA" unicode="&#x4da;" horiz-adv-x="785" 
d="M60 350h590c0 176 -115 290 -270 290c-79 0 -134 -25 -171 -50c-22 -15 -40 -31 -54 -50l-50 45c19 23 41 44 68 62c47 31 114 63 207 63c195 0 345 -149 345 -360c0 -215 -145 -360 -330 -360c-190 0 -335 145 -335 360zM644 280h-503c24 -139 123 -220 254 -220
c125 0 225 80 249 220zM260 855c0 25 20 45 45 45s45 -20 45 -45s-20 -45 -45 -45s-45 20 -45 45zM450 855c0 25 20 45 45 45s45 -20 45 -45s-20 -45 -45 -45s-45 20 -45 45z" />
    <glyph glyph-name="uni04DB" unicode="&#x4db;" horiz-adv-x="555" 
d="M45 240v16l395 -1c-5 90 -79 170 -170 170c-51 0 -88 -19 -113 -38c-15 -11 -27 -24 -37 -37l-50 40c14 19 31 35 51 50c35 25 84 50 149 50c131 0 240 -110 240 -250s-110 -250 -230 -250c-136 0 -235 101 -235 250zM435 195h-315c11 -85 75 -140 160 -140
c76 0 144 60 155 140zM140 630c0 25 20 45 45 45s45 -20 45 -45s-20 -45 -45 -45s-45 20 -45 45zM330 630c0 25 20 45 45 45s45 -20 45 -45s-20 -45 -45 -45s-45 20 -45 45z" />
    <glyph glyph-name="uni04DC" unicode="&#x4dc;" horiz-adv-x="965" 
d="M10 0l290 410l-265 290h95l315 -344v344h75v-344l315 344h95l-265 -290l290 -410h-90l-250 355l-95 -100v-255h-75v255l-95 100l-250 -355h-90zM340 855c0 25 20 45 45 45s45 -20 45 -45s-20 -45 -45 -45s-45 20 -45 45zM530 855c0 25 20 45 45 45s45 -20 45 -45
s-20 -45 -45 -45s-45 20 -45 45z" />
    <glyph glyph-name="uni04DD" unicode="&#x4dd;" horiz-adv-x="730" 
d="M10 0l205 285l-185 195h85l215 -230v230h70v-230l215 230h85l-185 -195l205 -285h-80l-170 235l-70 -75v-160h-70v160l-70 75l-170 -235h-80zM225 630c0 25 20 45 45 45s45 -20 45 -45s-20 -45 -45 -45s-45 20 -45 45zM415 630c0 25 20 45 45 45s45 -20 45 -45
s-20 -45 -45 -45s-45 20 -45 45z" />
    <glyph glyph-name="uni04DE" unicode="&#x4de;" horiz-adv-x="595" 
d="M30 100l50 50c14 -17 31 -32 51 -45c35 -23 84 -45 149 -45c115 0 180 65 180 135c0 75 -65 140 -180 140h-80v70h80c100 0 155 55 155 115c0 65 -55 120 -155 120c-56 0 -98 -20 -129 -40c-17 -12 -33 -25 -46 -40l-50 50c17 19 36 35 58 50c39 25 94 50 167 50
c145 0 230 -85 230 -185c0 -60 -29 -99 -60 -123c-17 -14 -37 -25 -60 -32c27 -8 51 -20 72 -35c36 -27 73 -69 73 -140c0 -104 -100 -205 -255 -205c-84 0 -144 27 -187 55c-25 16 -46 34 -63 55zM145 855c0 25 20 45 45 45s45 -20 45 -45s-20 -45 -45 -45s-45 20 -45 45z
M335 855c0 25 20 45 45 45s45 -20 45 -45s-20 -45 -45 -45s-45 20 -45 45z" />
    <glyph glyph-name="uni04DF" unicode="&#x4df;" horiz-adv-x="440" 
d="M25 75l45 45c11 -13 23 -24 36 -33c23 -16 56 -32 99 -32c80 0 115 35 115 80s-35 80 -115 80h-55v65h55c60 0 95 35 95 75s-30 70 -95 70c-39 0 -67 -13 -88 -28c-12 -8 -23 -17 -32 -27l-50 50c12 13 27 24 44 35c29 17 70 35 126 35c100 0 165 -66 165 -135
c0 -43 -19 -70 -38 -85c-11 -9 -24 -16 -37 -20c17 -4 33 -11 47 -20c24 -16 48 -44 48 -95c0 -75 -61 -145 -185 -145c-60 0 -104 21 -135 42c-17 12 -32 26 -45 43zM70 630c0 25 20 45 45 45s45 -20 45 -45s-20 -45 -45 -45s-45 20 -45 45zM260 630c0 25 20 45 45 45
s45 -20 45 -45s-20 -45 -45 -45s-45 20 -45 45z" />
    <glyph glyph-name="uni04E0" unicode="&#x4e0;" horiz-adv-x="590" 
d="M35 100l50 50c14 -17 31 -32 51 -45c35 -23 84 -45 149 -45c115 0 180 65 180 145s-65 145 -190 145h-120v50l260 230h-345v70h440v-70l-240 -210h5c165 0 265 -100 265 -215s-100 -215 -255 -215c-84 0 -144 27 -187 55c-25 16 -46 34 -63 55z" />
    <glyph glyph-name="uni04E1" unicode="&#x4e1;" horiz-adv-x="490" 
d="M20 -125l50 50c11 -13 25 -25 40 -35c27 -19 64 -35 115 -35c96 0 155 55 155 140s-60 135 -160 135h-95v50l210 235h-290v65h375v-65l-200 -220h5c136 0 225 -75 225 -200s-89 -205 -225 -205c-68 0 -118 21 -153 42c-20 12 -37 26 -52 43z" />
    <glyph glyph-name="uni04E2" unicode="&#x4e2;" horiz-adv-x="780" 
d="M105 0v700h75v-565l430 565h65v-700h-75v565l-430 -565h-65zM245 830v55h290v-55h-290z" />
    <glyph glyph-name="uni04E3" unicode="&#x4e3;" horiz-adv-x="580" 
d="M80 0v480h70v-360l290 360h60v-480h-70v360l-290 -360h-60zM145 610v55h290v-55h-290z" />
    <glyph glyph-name="uni04E4" unicode="&#x4e4;" horiz-adv-x="780" 
d="M105 0v700h75v-565l430 565h65v-700h-75v565l-430 -565h-65zM250 855c0 25 20 45 45 45s45 -20 45 -45s-20 -45 -45 -45s-45 20 -45 45zM440 855c0 25 20 45 45 45s45 -20 45 -45s-20 -45 -45 -45s-45 20 -45 45z" />
    <glyph glyph-name="uni04E5" unicode="&#x4e5;" horiz-adv-x="580" 
d="M80 0v480h70v-360l290 360h60v-480h-70v360l-290 -360h-60zM150 630c0 25 20 45 45 45s45 -20 45 -45s-20 -45 -45 -45s-45 20 -45 45zM340 630c0 25 20 45 45 45s45 -20 45 -45s-20 -45 -45 -45s-45 20 -45 45z" />
    <glyph glyph-name="uni04E6" unicode="&#x4e6;" horiz-adv-x="840" 
d="M280 855c0 25 20 45 45 45s45 -20 45 -45s-20 -45 -45 -45s-45 20 -45 45zM470 855c0 25 20 45 45 45s45 -20 45 -45s-20 -45 -45 -45s-45 20 -45 45zM60 350c0 200 160 360 360 360s360 -160 360 -360s-160 -360 -360 -360s-360 160 -360 360zM420 60
c160 0 285 125 285 290s-125 290 -285 290s-285 -125 -285 -290s125 -290 285 -290z" />
    <glyph glyph-name="uni04E7" unicode="&#x4e7;" horiz-adv-x="580" 
d="M150 630c0 25 20 45 45 45s45 -20 45 -45s-20 -45 -45 -45s-45 20 -45 45zM340 630c0 25 20 45 45 45s45 -20 45 -45s-20 -45 -45 -45s-45 20 -45 45zM290 -10c-135 0 -245 110 -245 250s110 250 245 250s245 -110 245 -250s-110 -250 -245 -250zM290 55
c95 0 175 80 175 185s-80 185 -175 185s-175 -80 -175 -185c0 -104 80 -185 175 -185z" />
    <glyph glyph-name="uni04E8" unicode="&#x4e8;" horiz-adv-x="840" 
d="M60 350c0 200 160 360 360 360s360 -160 360 -360s-160 -360 -360 -360s-360 160 -360 360zM705 320h-570c16 -150 135 -260 285 -260s269 110 285 260zM136 390h567c-19 145 -138 250 -283 250c-144 0 -265 -105 -284 -250z" />
    <glyph glyph-name="uni04E9" unicode="&#x4e9;" horiz-adv-x="580" 
d="M290 -10c-135 0 -245 110 -245 250s110 250 245 250s245 -110 245 -250s-110 -250 -245 -250zM463 210h-346c13 -91 88 -155 173 -155s160 64 173 155zM118 275h344c-13 80 -80 150 -172 150c-90 0 -161 -70 -172 -150z" />
    <glyph glyph-name="uni04EA" unicode="&#x4ea;" horiz-adv-x="840" 
d="M60 350c0 200 160 360 360 360s360 -160 360 -360s-160 -360 -360 -360s-360 160 -360 360zM705 320h-570c16 -150 135 -260 285 -260s269 110 285 260zM136 390h567c-19 145 -138 250 -283 250c-144 0 -265 -105 -284 -250zM280 855c0 25 20 45 45 45s45 -20 45 -45
s-20 -45 -45 -45s-45 20 -45 45zM470 855c0 25 20 45 45 45s45 -20 45 -45s-20 -45 -45 -45s-45 20 -45 45z" />
    <glyph glyph-name="uni04EB" unicode="&#x4eb;" horiz-adv-x="580" 
d="M290 -10c-135 0 -245 110 -245 250s110 250 245 250s245 -110 245 -250s-110 -250 -245 -250zM463 210h-346c13 -91 88 -155 173 -155s160 64 173 155zM118 275h344c-13 80 -80 150 -172 150c-90 0 -161 -70 -172 -150zM150 630c0 25 20 45 45 45s45 -20 45 -45
s-20 -45 -45 -45s-45 20 -45 45zM340 630c0 25 20 45 45 45s45 -20 45 -45s-20 -45 -45 -45s-45 20 -45 45z" />
    <glyph glyph-name="uni04EC" unicode="&#x4ec;" horiz-adv-x="745" 
d="M35 135l50 45c17 -23 37 -43 60 -60c40 -31 100 -60 180 -60c155 0 269 115 285 260h-370v70h370c-21 140 -129 250 -285 250c-80 0 -138 -29 -177 -60c-23 -17 -42 -37 -58 -60l-50 45c19 27 43 51 71 72c47 36 118 73 214 73c200 0 360 -160 360 -360
s-160 -360 -360 -360c-96 0 -167 36 -216 72c-29 21 -53 46 -74 73zM220 855c0 25 20 45 45 45s45 -20 45 -45s-20 -45 -45 -45s-45 20 -45 45zM410 855c0 25 20 45 45 45s45 -20 45 -45s-20 -45 -45 -45s-45 20 -45 45z" />
    <glyph glyph-name="uni04ED" unicode="&#x4ed;" horiz-adv-x="510" 
d="M25 90l50 45c11 -15 24 -28 39 -40c27 -20 63 -40 111 -40c85 0 159 75 170 160h-240v65h235c-11 74 -79 145 -165 145c-48 0 -84 -20 -108 -40c-14 -12 -26 -25 -37 -40l-50 50c15 17 32 33 51 47c33 24 80 48 144 48c131 0 240 -110 240 -250s-109 -250 -240 -250
c-64 0 -112 25 -147 50c-20 15 -38 31 -53 50zM105 630c0 25 20 45 45 45s45 -20 45 -45s-20 -45 -45 -45s-45 20 -45 45zM295 630c0 25 20 45 45 45s45 -20 45 -45s-20 -45 -45 -45s-45 20 -45 45z" />
    <glyph glyph-name="uni04EE" unicode="&#x4ee;" horiz-adv-x="610" 
d="M65 0v70c5 -2 10 -4 17 -5c12 -3 26 -5 43 -5c64 0 95 30 130 95l30 55c-87 164 -175 326 -260 490h80l220 -410l190 410h80l-260 -545c-56 -114 -105 -165 -205 -165c-17 0 -33 2 -46 5c-7 1 -14 3 -19 5zM170 830v55h290v-55h-290z" />
    <glyph glyph-name="uni04EF" unicode="&#x4ef;" horiz-adv-x="490" 
d="M100 610v55h290v-55h-290zM45 -200v65c5 -2 11 -4 16 -5c10 -3 21 -5 34 -5c45 0 71 24 90 75l25 70l-195 480h75l155 -390l155 390h75l-220 -550c-40 -100 -81 -140 -150 -140c-17 0 -31 2 -43 5c-7 1 -12 3 -17 5z" />
    <glyph glyph-name="uni04F0" unicode="&#x4f0;" horiz-adv-x="610" 
d="M65 0v70c5 -2 10 -4 17 -5c12 -3 26 -5 43 -5c64 0 95 30 130 95l30 55c-87 164 -175 326 -260 490h80l220 -410l190 410h80l-260 -545c-56 -114 -105 -165 -205 -165c-17 0 -33 2 -46 5c-7 1 -14 3 -19 5zM175 855c0 25 20 45 45 45s45 -20 45 -45s-20 -45 -45 -45
s-45 20 -45 45zM365 855c0 25 20 45 45 45s45 -20 45 -45s-20 -45 -45 -45s-45 20 -45 45z" />
    <glyph glyph-name="uni04F1" unicode="&#x4f1;" horiz-adv-x="490" 
d="M105 630c0 25 20 45 45 45s45 -20 45 -45s-20 -45 -45 -45s-45 20 -45 45zM295 630c0 25 20 45 45 45s45 -20 45 -45s-20 -45 -45 -45s-45 20 -45 45zM45 -200v65c5 -2 11 -4 16 -5c10 -3 21 -5 34 -5c45 0 71 24 90 75l25 70l-195 480h75l155 -390l155 390h75l-220 -550
c-40 -100 -81 -140 -150 -140c-17 0 -31 2 -43 5c-7 1 -12 3 -17 5z" />
    <glyph glyph-name="uni04F2" unicode="&#x4f2;" horiz-adv-x="610" 
d="M65 0v70c5 -2 10 -4 17 -5c12 -3 26 -5 43 -5c64 0 95 30 130 95l30 55c-87 164 -175 326 -260 490h80l220 -410l190 410h80l-260 -545c-56 -114 -105 -165 -205 -165c-17 0 -33 2 -46 5c-7 1 -14 3 -19 5zM200 795l75 135h75l-96 -135h-54zM355 795l74 135h76l-95 -135
h-55z" />
    <glyph glyph-name="uni04F3" unicode="&#x4f3;" horiz-adv-x="490" 
d="M140 565l75 135h75l-96 -135h-54zM295 565l74 135h76l-95 -135h-55zM45 -200v65c5 -2 11 -4 16 -5c10 -3 21 -5 34 -5c45 0 71 24 90 75l25 70l-195 480h75l155 -390l155 390h75l-220 -550c-40 -100 -81 -140 -150 -140c-17 0 -31 2 -43 5c-7 1 -12 3 -17 5z" />
    <glyph glyph-name="uni04F4" unicode="&#x4f4;" horiz-adv-x="705" 
d="M525 0v305c-15 -11 -33 -21 -52 -30c-33 -15 -81 -30 -138 -30c-147 0 -240 93 -240 245v210h75v-210c0 -113 64 -175 175 -175c57 0 102 18 133 37c18 11 34 24 47 38v310h75v-700h-75zM210 855c0 25 20 45 45 45s45 -20 45 -45s-20 -45 -45 -45s-45 20 -45 45zM400 855
c0 25 20 45 45 45s45 -20 45 -45s-20 -45 -45 -45s-45 20 -45 45z" />
    <glyph glyph-name="uni04F5" unicode="&#x4f5;" horiz-adv-x="540" 
d="M390 0v195c-11 -7 -24 -14 -38 -20c-24 -11 -57 -20 -97 -20c-109 0 -185 76 -185 185v140h70v-140c0 -71 49 -120 120 -120c40 0 72 11 95 22c13 7 24 14 35 23v215h70v-480h-70zM125 630c0 25 20 45 45 45s45 -20 45 -45s-20 -45 -45 -45s-45 20 -45 45zM315 630
c0 25 20 45 45 45s45 -20 45 -45s-20 -45 -45 -45s-45 20 -45 45z" />
    <glyph glyph-name="uni04F6" unicode="&#x4f6;" horiz-adv-x="550" 
d="M190 -150v150h-85v700h435v-70h-360v-560h85v-220h-75z" />
    <glyph glyph-name="uni04F7" unicode="&#x4f7;" horiz-adv-x="410" 
d="M155 -120v120h-75v480h320v-65h-250v-350h75v-185h-70z" />
    <glyph glyph-name="uni04F8" unicode="&#x4f8;" horiz-adv-x="885" 
d="M105 0v700h75v-260h180c130 0 225 -96 225 -220s-95 -220 -225 -220h-255zM705 0v700h75v-700h-75zM180 70h180c91 0 150 59 150 150s-59 150 -150 150h-180v-300zM300 855c0 25 20 45 45 45s45 -20 45 -45s-20 -45 -45 -45s-45 20 -45 45zM490 855c0 25 20 45 45 45
s45 -20 45 -45s-20 -45 -45 -45s-45 20 -45 45z" />
    <glyph glyph-name="uni04F9" unicode="&#x4f9;" horiz-adv-x="685" 
d="M80 0v480h70v-160h120c111 0 175 -64 175 -160s-65 -160 -174 -160h-191zM535 0v480h70v-480h-70zM150 65h121c64 0 104 39 104 95s-40 95 -105 95h-120v-190zM200 630c0 25 20 45 45 45s45 -20 45 -45s-20 -45 -45 -45s-45 20 -45 45zM390 630c0 25 20 45 45 45
s45 -20 45 -45s-20 -45 -45 -45s-45 20 -45 45z" />
    <glyph glyph-name="uni04FA" unicode="&#x4fa;" horiz-adv-x="575" 
d="M150 -200v60l7 -3c5 -1 11 -2 18 -2c27 0 40 17 40 50v95h-85v320h-100v70h100v310h425v-70h-350v-240h195v-70h-195v-250h85v-165c0 -76 -35 -115 -95 -115c-15 0 -26 2 -34 5c-5 1 -8 3 -11 5z" />
    <glyph glyph-name="uni04FB" unicode="&#x4fb;" horiz-adv-x="430" 
d="M110 -200v55l7 -3c5 -1 11 -2 18 -2c27 0 40 17 40 50v100h-75v200h-80v65h80v215h320v-65h-250v-150h140v-65h-140v-135h75v-160c0 -80 -34 -115 -90 -115c-15 0 -26 2 -34 5c-5 1 -8 3 -11 5z" />
    <glyph glyph-name="uni04FC" unicode="&#x4fc;" horiz-adv-x="655" 
d="M20 0l260 365l-240 335h90l195 -275l195 275h90l-240 -335l200 -280c57 -81 75 -125 75 -165c0 -80 -49 -130 -125 -130c-23 0 -41 3 -54 7l-21 8v65c5 -3 10 -5 17 -8c13 -5 29 -7 48 -7c37 0 60 23 60 60c0 29 -14 63 -65 135l-180 255l-215 -305h-90z" />
    <glyph glyph-name="uni04FD" unicode="&#x4fd;" horiz-adv-x="485" 
d="M15 0l180 250l-165 230h85l125 -175l125 175h85l-165 -230l137 -190c44 -61 58 -100 58 -140c0 -80 -50 -130 -130 -130c-19 0 -32 3 -43 7c-7 3 -12 5 -17 8v65l16 -8c11 -5 24 -7 39 -7c40 0 65 25 65 65c0 37 -13 53 -66 130l-104 145l-140 -195h-85z" />
    <glyph glyph-name="uni04FE" unicode="&#x4fe;" horiz-adv-x="650" 
d="M20 0l235 330h-145v70h145l-215 300h90l195 -280l195 280h90l-215 -300h145v-70h-145l235 -330h-90l-215 310l-215 -310h-90z" />
    <glyph glyph-name="uni04FF" unicode="&#x4ff;" horiz-adv-x="480" 
d="M15 0l160 220h-90v60h90l-145 200h85l125 -175l125 175h85l-145 -200h90v-60h-90l160 -220h-85l-140 195l-140 -195h-85z" />
    <glyph glyph-name="uni0510" unicode="&#x510;" horiz-adv-x="590" 
d="M510 145l50 -50c-16 -20 -35 -38 -57 -53c-39 -27 -96 -52 -173 -52c-165 0 -260 95 -260 205c0 71 36 113 72 140c21 15 46 27 73 35c-23 7 -43 18 -60 32c-31 24 -60 63 -60 123c0 100 85 185 230 185c65 0 113 -17 146 -33c19 -9 35 -20 49 -32l-50 -55
c-11 9 -23 18 -37 25c-24 12 -61 25 -108 25c-100 0 -155 -55 -155 -115c0 -65 55 -120 155 -120h75v-70h-75c-115 0 -180 -65 -180 -140s61 -135 185 -135c60 0 104 21 135 42c17 12 32 26 45 43z" />
    <glyph glyph-name="uni0511" unicode="&#x511;" horiz-adv-x="435" 
d="M370 110l45 -45c-11 -14 -26 -27 -43 -38c-29 -19 -72 -37 -132 -37c-130 0 -190 70 -190 145c0 51 23 79 47 95c14 9 30 16 48 20c-14 5 -27 13 -38 23c-19 17 -37 44 -37 87c0 69 60 130 165 130c56 0 92 -13 116 -25c14 -7 25 -16 34 -25l-45 -50c-6 6 -14 12 -24 17
c-17 9 -44 18 -81 18c-65 0 -95 -30 -95 -70s35 -75 95 -75h55v-65h-55c-80 0 -115 -35 -115 -80s35 -80 120 -80c43 0 74 12 97 27c13 8 24 17 33 28z" />
    <glyph glyph-name="uni0512" unicode="&#x512;" horiz-adv-x="735" 
d="M-5 0v75c5 -2 11 -4 18 -5c12 -3 24 -5 37 -5c75 0 130 55 130 425v210h450v-765c0 -100 -45 -145 -125 -145c-23 0 -41 3 -54 7l-21 8v65c5 -3 10 -5 17 -8c13 -5 29 -7 48 -7c37 0 60 23 60 80v695h-300v-140c0 -425 -75 -500 -195 -500c-17 0 -33 2 -46 5
c-7 1 -14 3 -19 5z" />
    <glyph glyph-name="uni0513" unicode="&#x513;" horiz-adv-x="560" 
d="M0 0v70c3 -2 7 -4 12 -5c8 -3 17 -5 28 -5c55 0 90 36 90 280v140h350v-550c0 -93 -43 -140 -130 -140c-19 0 -32 3 -43 7c-7 3 -12 5 -17 8v65l16 -8c11 -5 24 -7 39 -7c40 0 65 24 65 75v485h-210v-75c0 -290 -60 -350 -150 -350c-13 0 -25 2 -35 5c-5 1 -10 3 -15 5z
" />
    <glyph glyph-name="Wgrave" unicode="&#x1e80;" horiz-adv-x="1040" 
d="M260 0l-230 700h80l185 -585l190 585h70l190 -585l185 585h80l-230 -700h-75l-185 585l-185 -585h-75zM490 795l-95 135h75l75 -135h-55z" />
    <glyph glyph-name="wgrave" unicode="&#x1e81;" horiz-adv-x="730" 
d="M180 0l-165 480h75l125 -370l120 370h60l120 -370l125 370h75l-165 -480h-65l-120 365l-120 -365h-65zM335 565l-95 135h75l75 -135h-55z" />
    <glyph glyph-name="Wacute" unicode="&#x1e82;" horiz-adv-x="1040" 
d="M260 0l-230 700h80l185 -585l190 585h70l190 -585l185 585h80l-230 -700h-75l-185 585l-185 -585h-75zM495 795l75 135h75l-95 -135h-55z" />
    <glyph glyph-name="wacute" unicode="&#x1e83;" horiz-adv-x="730" 
d="M180 0l-165 480h75l125 -370l120 370h60l120 -370l125 370h75l-165 -480h-65l-120 365l-120 -365h-65zM335 565l75 135h75l-95 -135h-55z" />
    <glyph glyph-name="Wdieresis" unicode="&#x1e84;" horiz-adv-x="1040" 
d="M260 0l-230 700h80l185 -585l190 585h70l190 -585l185 585h80l-230 -700h-75l-185 585l-185 -585h-75zM380 855c0 25 20 45 45 45s45 -20 45 -45s-20 -45 -45 -45s-45 20 -45 45zM570 855c0 25 20 45 45 45s45 -20 45 -45s-20 -45 -45 -45s-45 20 -45 45z" />
    <glyph glyph-name="wdieresis" unicode="&#x1e85;" horiz-adv-x="730" 
d="M180 0l-165 480h75l125 -370l120 370h60l120 -370l125 370h75l-165 -480h-65l-120 365l-120 -365h-65zM225 630c0 25 20 45 45 45s45 -20 45 -45s-20 -45 -45 -45s-45 20 -45 45zM415 630c0 25 20 45 45 45s45 -20 45 -45s-20 -45 -45 -45s-45 20 -45 45z" />
    <glyph glyph-name="uni1E9E" unicode="&#x1e9e;" horiz-adv-x="720" 
d="M105 0v486c0 124 90 214 215 214h285v-70l-180 -210h5c135 0 230 -94 230 -210s-95 -210 -230 -210h-90v70h90c95 0 155 60 155 140s-60 140 -155 140h-90v70l180 210h-200c-85 0 -140 -55 -140 -144v-486h-75z" />
    <glyph glyph-name="Ygrave" unicode="&#x1ef2;" horiz-adv-x="635" 
d="M280 0v245l-260 455h85l210 -375h5l210 375h85l-260 -455v-245h-75zM295 795l-95 135h75l75 -135h-55z" />
    <glyph glyph-name="ygrave" unicode="&#x1ef3;" horiz-adv-x="490" 
d="M45 -200v65c5 -2 11 -4 16 -5c10 -3 21 -5 34 -5c45 0 71 24 90 75l25 70l-195 480h75l155 -390l155 390h75l-220 -550c-40 -100 -81 -140 -150 -140c-17 0 -31 2 -43 5c-7 1 -12 3 -17 5zM215 565l-95 135h75l75 -135h-55z" />
    <glyph glyph-name="endash" unicode="&#x2013;" horiz-adv-x="480" 
d="M45 260v65h390v-65h-390z" />
    <glyph glyph-name="emdash" unicode="&#x2014;" horiz-adv-x="720" 
d="M45 260v65h630v-65h-630z" />
    <glyph glyph-name="quoteleft" unicode="&#x2018;" horiz-adv-x="210" 
d="M25 540l115 180l45 -25l-90 -195z" />
    <glyph glyph-name="quoteright" unicode="&#x2019;" horiz-adv-x="210" 
d="M25 525l90 195l70 -40l-115 -180z" />
    <glyph glyph-name="quotesinglbase" unicode="&#x201a;" horiz-adv-x="220" 
d="M0 -105l90 195l70 -40l-115 -180z" />
    <glyph glyph-name="quotedblleft" unicode="&#x201c;" horiz-adv-x="365" 
d="M25 540l115 180l45 -25l-90 -195zM180 540l115 180l45 -25l-90 -195z" />
    <glyph glyph-name="quotedblright" unicode="&#x201d;" horiz-adv-x="365" 
d="M25 525l90 195l70 -40l-115 -180zM180 525l90 195l70 -40l-115 -180z" />
    <glyph glyph-name="quotedblbase" unicode="&#x201e;" horiz-adv-x="375" 
d="M0 -105l90 195l70 -40l-115 -180zM155 -105l90 195l70 -40l-115 -180z" />
    <glyph glyph-name="dagger" unicode="&#x2020;" horiz-adv-x="420" 
d="M180 200v310h-120v55h120v135h60v-135h120v-55h-120v-310h-60z" />
    <glyph glyph-name="daggerdbl" unicode="&#x2021;" horiz-adv-x="420" 
d="M180 200v135h-120v55h120v120h-120v55h120v135h60v-135h120v-55h-120v-120h120v-55h-120v-135h-60z" />
    <glyph glyph-name="bullet" unicode="&#x2022;" horiz-adv-x="430" 
d="M120 240c0 50 45 95 95 95s95 -45 95 -95s-45 -95 -95 -95s-95 45 -95 95z" />
    <glyph glyph-name="ellipsis" unicode="&#x2026;" horiz-adv-x="670" 
d="M60 40c0 31 19 50 50 50s50 -19 50 -50s-19 -50 -50 -50s-50 19 -50 50zM285 40c0 31 19 50 50 50s50 -19 50 -50s-19 -50 -50 -50s-50 19 -50 50zM510 40c0 31 19 50 50 50s50 -19 50 -50s-19 -50 -50 -50s-50 19 -50 50z" />
    <glyph glyph-name="perthousand" unicode="&#x2030;" horiz-adv-x="1120" 
d="M40 555c0 84 71 155 155 155s155 -71 155 -155s-71 -155 -155 -155s-155 71 -155 155zM125 0l440 700h70l-440 -700h-70zM195 460c51 0 90 39 90 95s-39 95 -90 95s-90 -39 -90 -95s39 -95 90 -95zM410 145c0 84 71 155 155 155s155 -71 155 -155s-71 -155 -155 -155
s-155 71 -155 155zM770 145c0 84 71 155 155 155s155 -71 155 -155s-71 -155 -155 -155s-155 71 -155 155zM565 50c51 0 90 39 90 95s-39 95 -90 95s-90 -39 -90 -95s39 -95 90 -95zM925 50c51 0 90 39 90 95s-39 95 -90 95s-90 -39 -90 -95s39 -95 90 -95z" />
    <glyph glyph-name="guilsinglleft" unicode="&#x2039;" horiz-adv-x="280" 
d="M160 75l-115 165l115 165h75l-115 -165l115 -165h-75z" />
    <glyph glyph-name="guilsinglright" unicode="&#x203a;" horiz-adv-x="280" 
d="M45 75l115 165l-115 165h75l115 -165l-115 -165h-75z" />
    <glyph glyph-name="uni203D" unicode="&#x203d;" horiz-adv-x="525" 
d="M215 170v465c-45 -11 -73 -36 -89 -60c-9 -14 -16 -29 -21 -45l-65 20c9 30 23 57 42 80c32 40 87 80 178 80c131 0 220 -90 220 -190c0 -190 -195 -165 -195 -330v-20h-70zM285 640v-290c50 56 120 84 120 170c0 60 -44 109 -120 120zM200 40c0 31 19 50 50 50
s50 -19 50 -50s-19 -50 -50 -50s-50 19 -50 50z" />
    <glyph glyph-name="fraction" unicode="&#x2044;" horiz-adv-x="175" 
d="M-160 0l430 700h65l-430 -700h-65z" />
    <glyph glyph-name="uni2070" unicode="&#x2070;" horiz-adv-x="350" 
d="M175 445c-80 0 -145 65 -145 180s65 180 145 180s145 -65 145 -180s-65 -180 -145 -180zM175 495c45 0 90 46 90 130s-45 130 -90 130s-90 -46 -90 -130s45 -130 90 -130z" />
    <glyph glyph-name="uni2074" unicode="&#x2074;" horiz-adv-x="300" 
d="M10 530v50l155 220h65v-220h40v-50h-40v-80h-55v80h-165zM65 580h110v155z" />
    <glyph glyph-name="uni2075" unicode="&#x2075;" horiz-adv-x="290" 
d="M10 500l35 35c7 -7 16 -14 25 -20c16 -11 39 -20 70 -20c51 0 75 25 75 60c0 40 -25 65 -70 65c-23 0 -38 -5 -49 -10c-7 -3 -12 -6 -16 -10h-45l20 200h195v-50h-150l-10 -95l17 7c11 4 24 8 43 8c71 0 120 -50 120 -115c0 -60 -50 -110 -130 -110c-45 0 -78 12 -99 27
c-12 8 -22 17 -31 28z" />
    <glyph glyph-name="uni2076" unicode="&#x2076;" horiz-adv-x="300" 
d="M45 645l105 155h60l-75 -115h15c75 0 130 -55 130 -120s-55 -120 -130 -120s-130 55 -130 120c0 23 5 42 12 57c3 8 8 16 13 23zM75 566c0 -41 30 -71 75 -71s75 30 75 70s-30 70 -75 70s-75 -30 -75 -69z" />
    <glyph glyph-name="uni2077" unicode="&#x2077;" horiz-adv-x="265" 
d="M65 450l135 300h-180v50h235v-50l-135 -300h-55z" />
    <glyph glyph-name="uni2078" unicode="&#x2078;" horiz-adv-x="280" 
d="M15 550c0 33 16 54 32 67c9 7 20 13 33 18c-9 4 -18 10 -25 17c-13 12 -25 31 -25 58c0 50 45 95 110 95s110 -45 110 -95c0 -27 -13 -46 -25 -58c-7 -7 -16 -13 -25 -17c12 -5 23 -11 32 -18c16 -13 33 -34 33 -67c0 -56 -50 -105 -125 -105s-125 49 -125 105zM85 710
c0 -31 15 -50 55 -50s55 19 55 50c0 25 -20 45 -55 45s-55 -20 -55 -45zM70 550c0 -31 25 -55 70 -55s70 24 70 55s-25 60 -70 60s-70 -29 -70 -60z" />
    <glyph glyph-name="uni2079" unicode="&#x2079;" horiz-adv-x="300" 
d="M90 450l75 115h-15c-75 0 -130 55 -130 120s55 120 130 120s130 -55 130 -120c0 -23 -6 -42 -13 -57c-3 -8 -7 -16 -12 -23l-105 -155h-60zM75 685c0 -40 30 -70 75 -70s75 30 75 69c0 41 -30 71 -75 71s-75 -30 -75 -70z" />
    <glyph glyph-name="uni2080" unicode="&#x2080;" horiz-adv-x="350" 
d="M175 -105c-80 0 -145 65 -145 180s65 180 145 180s145 -65 145 -180s-65 -180 -145 -180zM175 -55c45 0 90 46 90 130s-45 130 -90 130s-90 -46 -90 -130s45 -130 90 -130z" />
    <glyph glyph-name="uni2081" unicode="&#x2081;" horiz-adv-x="220" 
d="M95 -100v265h-65v40c31 0 49 11 60 22c7 7 12 14 15 23h45v-350h-55z" />
    <glyph glyph-name="uni2082" unicode="&#x2082;" horiz-adv-x="300" 
d="M95 -50h170v-50h-235c0 150 180 170 180 250c0 31 -25 55 -60 55c-25 0 -43 -13 -54 -28c-7 -8 -12 -17 -16 -27l-45 15c5 17 12 32 22 45c17 23 45 45 93 45c71 0 115 -45 115 -105c0 -110 -134 -120 -170 -200z" />
    <glyph glyph-name="uni2083" unicode="&#x2083;" horiz-adv-x="310" 
d="M25 -45l35 40c7 -9 16 -18 25 -25c16 -13 39 -25 70 -25c43 0 65 18 65 55c0 35 -25 60 -70 60h-40v50h40c35 0 55 19 55 50c0 25 -20 45 -60 45c-24 0 -43 -11 -55 -22c-7 -7 -14 -14 -19 -22l-36 37c8 11 17 20 28 28c19 15 45 29 82 29c71 0 115 -44 115 -95
c0 -31 -9 -49 -20 -60c-6 -7 -13 -12 -20 -15c10 -3 19 -9 27 -16c15 -13 28 -34 28 -69c0 -60 -44 -105 -120 -105c-45 0 -78 15 -99 30c-12 9 -22 19 -31 30z" />
    <glyph glyph-name="uni2084" unicode="&#x2084;" horiz-adv-x="300" 
d="M10 -20v50l155 220h65v-220h40v-50h-40v-80h-55v80h-165zM65 30h110v155z" />
    <glyph glyph-name="uni2085" unicode="&#x2085;" horiz-adv-x="290" 
d="M10 -50l35 35c7 -7 16 -14 25 -20c16 -11 39 -20 70 -20c51 0 75 25 75 60c0 40 -25 65 -70 65c-23 0 -38 -5 -49 -10c-7 -3 -12 -6 -16 -10h-45l20 200h195v-50h-150l-10 -95l17 7c11 4 24 8 43 8c71 0 120 -50 120 -115c0 -60 -50 -110 -130 -110c-45 0 -78 12 -99 27
c-12 8 -22 17 -31 28z" />
    <glyph glyph-name="uni2086" unicode="&#x2086;" horiz-adv-x="300" 
d="M45 95l105 155h60l-75 -115h15c75 0 130 -55 130 -120s-55 -120 -130 -120s-130 55 -130 120c0 23 5 42 12 57c3 8 8 16 13 23zM75 16c0 -41 30 -71 75 -71s75 30 75 70s-30 70 -75 70s-75 -30 -75 -69z" />
    <glyph glyph-name="uni2087" unicode="&#x2087;" horiz-adv-x="265" 
d="M65 -100l135 300h-180v50h235v-50l-135 -300h-55z" />
    <glyph glyph-name="uni2088" unicode="&#x2088;" horiz-adv-x="280" 
d="M15 0c0 33 16 54 32 67c9 7 20 13 33 18c-9 4 -18 10 -25 17c-13 12 -25 31 -25 58c0 50 45 95 110 95s110 -45 110 -95c0 -27 -13 -46 -25 -58c-7 -7 -16 -13 -25 -17c12 -5 23 -11 32 -18c16 -13 33 -34 33 -67c0 -56 -50 -105 -125 -105s-125 49 -125 105zM85 160
c0 -31 15 -50 55 -50s55 19 55 50c0 25 -20 45 -55 45s-55 -20 -55 -45zM70 0c0 -31 25 -55 70 -55s70 24 70 55s-25 60 -70 60s-70 -29 -70 -60z" />
    <glyph glyph-name="uni2089" unicode="&#x2089;" horiz-adv-x="300" 
d="M90 -100l75 115h-15c-75 0 -130 55 -130 120s55 120 130 120s130 -55 130 -120c0 -23 -6 -42 -13 -57c-3 -8 -7 -16 -12 -23l-105 -155h-60zM75 135c0 -40 30 -70 75 -70s75 30 75 69c0 41 -30 71 -75 71s-75 -30 -75 -70z" />
    <glyph glyph-name="uni20A9" unicode="&#x20a9;" horiz-adv-x="990" 
d="M45 235v60h147l-32 105h-115v60h97l-72 240h80l70 -240h178l62 240h70l62 -240h178l70 240h80l-72 -240h97v-60h-115l-32 -105h147v-60h-165l-70 -235h-70l-60 235h-170l-60 -235h-70l-70 235h-165zM268 295h88l27 105h-146zM634 295h88l31 105h-146zM425 295h140
l-28 105h-84zM676 130l29 105h-56zM314 130l27 105h-56zM468 460h54l-27 105z" />
    <glyph glyph-name="Euro" unicode="&#x20ac;" horiz-adv-x="740" 
d="M40 235v65h88l-2 16c-1 9 -1 21 -1 34c0 12 0 25 1 34l2 16h-88v65h100c40 125 160 245 320 245c77 0 135 -28 175 -55c23 -17 43 -35 60 -55l-50 -50c-14 17 -30 32 -48 45c-32 23 -77 45 -137 45c-119 0 -221 -100 -240 -175h230v-65h-247l-2 -16c-1 -9 -1 -22 -1 -34
c0 -13 0 -25 1 -34l2 -16h247v-65h-230c19 -75 121 -175 240 -175c60 0 106 22 139 45c19 13 36 28 51 45l50 -50c-17 -21 -38 -39 -62 -55c-41 -28 -101 -55 -178 -55c-160 0 -280 120 -320 245h-100z" />
    <glyph glyph-name="uni20B4" unicode="&#x20b4;" horiz-adv-x="635" 
d="M65 395v70h370l7 14c4 9 8 22 8 41c0 63 -54 120 -150 120c-52 0 -90 -18 -117 -35c-15 -11 -28 -22 -38 -35l-50 50c14 17 31 32 52 45c35 23 85 45 153 45c139 0 225 -89 225 -190c0 -19 -2 -32 -5 -41l-5 -14h55v-70h-505zM65 235v70h505v-70h-370c-3 -4 -5 -9 -8 -14
c-5 -11 -7 -24 -7 -41c0 -63 54 -120 150 -120c52 0 89 16 116 35c15 10 28 22 39 35l50 -50c-15 -17 -32 -32 -52 -45c-35 -23 -85 -45 -153 -45c-139 0 -225 89 -225 190c0 17 2 31 5 41c1 5 3 10 5 14h-55z" />
    <glyph glyph-name="uni20B8" unicode="&#x20b8;" horiz-adv-x="575" 
d="M250 0v460h-210v70h495v-70h-210v-460h-75zM40 630v70h495v-70h-495z" />
    <glyph glyph-name="uni20B9" unicode="&#x20b9;" horiz-adv-x="605" 
d="M80 300v70h155c96 0 139 39 150 95h-305v70h305c-11 56 -59 95 -150 95h-155v70h185h290v-70h-160c11 -5 20 -12 29 -21c15 -15 31 -39 38 -74h93v-70h-93c-13 -91 -86 -165 -227 -165h-40l370 -300h-115z" />
    <glyph glyph-name="uni20BA" unicode="&#x20ba;" horiz-adv-x="565" 
d="M130 -10v276l-80 -26v65l80 26v90l-80 -26v65l80 26v214h75v-190l185 60v-65l-185 -60v-90l185 60v-65l-185 -60v-225c185 16 250 80 250 150c0 12 -2 24 -5 32c-2 5 -4 9 -5 13l60 35c4 -7 7 -15 10 -23c5 -15 10 -34 10 -57c0 -115 -99 -214 -395 -225z" />
    <glyph glyph-name="uni20BD" unicode="&#x20bd;" horiz-adv-x="670" 
d="M130 0v125h-80v70h80v85h-80v70h80v350h260c131 0 220 -90 220 -210s-89 -210 -220 -210h-185v-85h245v-70h-245v-125h-75zM205 350h185c85 0 145 60 145 140s-60 140 -145 140h-185v-280z" />
    <glyph glyph-name="uni20BF" unicode="&#x20bf;" horiz-adv-x="650" 
d="M205 -120v120h-100v700h100v120h65v-120h70v120h65v-125c91 -20 150 -84 150 -175c0 -56 -20 -91 -40 -114c-12 -13 -25 -24 -40 -31c21 -10 40 -23 57 -39c29 -28 58 -71 58 -136c0 -104 -69 -185 -185 -196v-124h-65v120h-70v-120h-65zM180 70h195c85 0 140 54 140 130
c0 75 -55 140 -140 140h-195v-270zM180 406h180c76 0 120 43 120 114c0 65 -44 110 -120 110h-180v-224z" />
    <glyph glyph-name="uni2113" unicode="&#x2113;" horiz-adv-x="365" 
d="M10 215v65c27 0 50 3 66 7c9 3 17 5 24 8v275c0 91 49 140 120 140c76 0 125 -50 125 -150c0 -141 -70 -249 -175 -305v-125c0 -50 23 -75 70 -75c15 0 28 3 39 7l16 8v-65c-5 -3 -12 -5 -19 -8c-12 -4 -29 -7 -46 -7c-80 0 -130 49 -130 140v100c-8 -3 -17 -5 -26 -8
c-16 -4 -39 -7 -64 -7zM170 563v-233c65 45 105 125 105 230c0 60 -24 85 -55 85s-50 -19 -50 -82z" />
    <glyph glyph-name="uni2116" unicode="&#x2116;" horiz-adv-x="1125" 
d="M105 0v700h65l425 -565v565h75v-700h-65l-425 565v-565h-75zM770 325c0 84 71 155 155 155s155 -71 155 -155s-71 -155 -155 -155s-155 71 -155 155zM925 230c51 0 90 39 90 95s-39 95 -90 95s-90 -39 -90 -95s39 -95 90 -95zM780 0v65h290v-65h-290z" />
    <glyph glyph-name="uni2117" unicode="&#x2117;" horiz-adv-x="880" 
d="M75 350c0 200 161 360 365 360s365 -160 365 -360s-161 -360 -365 -360s-365 160 -365 360zM140 350c0 -170 130 -300 300 -300s300 130 300 300s-130 300 -300 300s-300 -130 -300 -300zM325 165v370h135c95 0 140 -55 140 -125c0 -76 -44 -125 -140 -125h-75v-120h-60z
M385 340h75c50 0 75 23 75 70s-25 70 -75 70h-75v-140z" />
    <glyph glyph-name="trademark" unicode="&#x2122;" horiz-adv-x="665" 
d="M100 400v250h-90v50h235v-50h-90v-250h-55zM300 400v300h50l105 -140l105 140h50v-300h-55v200l-100 -130l-100 130v-200h-55z" />
    <glyph glyph-name="uni2126" unicode="&#x2126;" horiz-adv-x="880" 
d="M125 0v70h135c-81 51 -160 160 -160 295c0 195 151 345 340 345s340 -150 340 -345c0 -135 -81 -245 -160 -295h135v-70h-245v70c36 17 68 38 97 65c49 46 98 119 98 230c0 160 -116 275 -265 275s-265 -115 -265 -275c0 -110 49 -185 97 -230c29 -27 61 -48 98 -65v-70
h-245z" />
    <glyph glyph-name="estimated" unicode="&#x212e;" horiz-adv-x="870" 
d="M225 380h420v215c-56 51 -130 80 -210 80s-154 -29 -210 -80v-215zM225 345v-238c16 -15 35 -29 57 -41c37 -21 92 -41 163 -41c92 0 162 36 209 75c27 22 51 47 71 75l30 -25c-23 -30 -49 -57 -80 -80c-53 -40 -130 -80 -230 -80c-210 0 -370 160 -370 360
s160 360 360 360s360 -160 360 -360v-5h-570z" />
    <glyph glyph-name="uni2150" unicode="&#x2150;" horiz-adv-x="685" 
d="M65 0l430 700h65l-430 -700h-65zM105 350v265h-65v40c31 0 49 11 60 22c7 7 12 14 15 23h45v-350h-55zM465 0l135 300h-180v50h235v-50l-135 -300h-55z" />
    <glyph glyph-name="uni2151" unicode="&#x2151;" horiz-adv-x="705" 
d="M65 0l430 700h65l-430 -700h-65zM105 350v265h-65v40c31 0 49 11 60 22c7 7 12 14 15 23h45v-350h-55zM485 0l75 115h-15c-75 0 -130 55 -130 120s55 120 130 120s130 -55 130 -120c0 -23 -6 -42 -13 -57c-3 -8 -7 -16 -12 -23l-105 -155h-60zM470 235
c0 -40 30 -70 75 -70s75 30 75 69c0 41 -30 71 -75 71s-75 -30 -75 -70z" />
    <glyph glyph-name="uni2152" unicode="&#x2152;" horiz-adv-x="935" 
d="M65 0l430 700h65l-430 -700h-65zM105 350v265h-65v40c31 0 49 11 60 22c7 7 12 14 15 23h45v-350h-55zM475 0v265h-65v40c31 0 49 11 60 22c7 7 12 14 15 23h45v-350h-55zM750 -5c-80 0 -145 65 -145 180s65 180 145 180s145 -65 145 -180s-65 -180 -145 -180zM750 45
c45 0 90 46 90 130s-45 130 -90 130s-90 -46 -90 -130s45 -130 90 -130z" />
    <glyph glyph-name="onethird" unicode="&#x2153;" horiz-adv-x="685" 
d="M65 0l430 700h65l-430 -700h-65zM105 350v265h-65v40c31 0 49 11 60 22c7 7 12 14 15 23h45v-350h-55zM395 55l35 40c7 -9 16 -18 25 -25c16 -13 39 -25 70 -25c43 0 65 18 65 55c0 35 -25 60 -70 60h-40v50h40c35 0 55 19 55 50c0 25 -20 45 -60 45
c-24 0 -43 -11 -55 -22c-7 -7 -14 -14 -19 -22l-36 37c8 11 17 20 28 28c19 15 45 29 82 29c71 0 115 -44 115 -95c0 -31 -9 -49 -20 -60c-6 -7 -13 -12 -20 -15c10 -3 19 -9 27 -16c15 -13 28 -34 28 -69c0 -60 -44 -105 -120 -105c-45 0 -78 15 -99 30
c-12 9 -22 19 -31 30z" />
    <glyph glyph-name="twothirds" unicode="&#x2154;" horiz-adv-x="760" 
d="M140 0l430 700h65l-430 -700h-65zM105 400h170v-50h-235c0 150 180 170 180 250c0 31 -25 55 -60 55c-25 0 -43 -13 -54 -28c-7 -8 -12 -17 -16 -27l-45 15c5 17 12 32 22 45c17 23 45 45 93 45c71 0 115 -45 115 -105c0 -110 -134 -120 -170 -200zM470 55l35 40
c7 -9 16 -18 25 -25c16 -13 39 -25 70 -25c43 0 65 18 65 55c0 35 -25 60 -70 60h-40v50h40c35 0 55 19 55 50c0 25 -20 45 -60 45c-24 0 -43 -11 -55 -22c-7 -7 -14 -14 -19 -22l-36 37c8 11 17 20 28 28c19 15 45 29 82 29c71 0 115 -44 115 -95c0 -31 -9 -49 -20 -60
c-6 -7 -13 -12 -20 -15c10 -3 19 -9 27 -16c15 -13 28 -34 28 -69c0 -60 -44 -105 -120 -105c-45 0 -78 15 -99 30c-12 9 -22 19 -31 30z" />
    <glyph glyph-name="uni2155" unicode="&#x2155;" horiz-adv-x="690" 
d="M65 0l430 700h65l-430 -700h-65zM105 350v265h-65v40c31 0 49 11 60 22c7 7 12 14 15 23h45v-350h-55zM395 50l35 35c7 -7 16 -14 25 -20c16 -11 39 -20 70 -20c51 0 75 25 75 60c0 40 -25 65 -70 65c-23 0 -38 -5 -49 -10c-7 -3 -12 -6 -16 -10h-45l20 200h195v-50h-150
l-10 -95l17 7c11 4 24 8 43 8c71 0 120 -50 120 -115c0 -60 -50 -110 -130 -110c-45 0 -78 12 -99 27c-12 8 -22 17 -31 28z" />
    <glyph glyph-name="uni2156" unicode="&#x2156;" horiz-adv-x="765" 
d="M140 0l430 700h65l-430 -700h-65zM105 400h170v-50h-235c0 150 180 170 180 250c0 31 -25 55 -60 55c-25 0 -43 -13 -54 -28c-7 -8 -12 -17 -16 -27l-45 15c5 17 12 32 22 45c17 23 45 45 93 45c71 0 115 -45 115 -105c0 -110 -134 -120 -170 -200zM470 50l35 35
c7 -7 16 -14 25 -20c16 -11 39 -20 70 -20c51 0 75 25 75 60c0 40 -25 65 -70 65c-23 0 -38 -5 -49 -10c-7 -3 -12 -6 -16 -10h-45l20 200h195v-50h-150l-10 -95l17 7c11 4 24 8 43 8c71 0 120 -50 120 -115c0 -60 -50 -110 -130 -110c-45 0 -78 12 -99 27
c-12 8 -22 17 -31 28z" />
    <glyph glyph-name="uni2157" unicode="&#x2157;" horiz-adv-x="755" 
d="M130 0l430 700h65l-430 -700h-65zM30 405l35 40c7 -9 16 -18 25 -25c16 -13 39 -25 70 -25c43 0 65 18 65 55c0 35 -25 60 -70 60h-40v50h40c35 0 55 19 55 50c0 25 -20 45 -60 45c-24 0 -43 -11 -55 -22c-7 -7 -14 -14 -19 -22l-36 37c8 11 17 20 28 28
c19 15 45 29 82 29c71 0 115 -44 115 -95c0 -31 -9 -49 -20 -60c-6 -7 -13 -12 -20 -15c10 -3 19 -9 27 -16c15 -13 28 -34 28 -69c0 -60 -44 -105 -120 -105c-45 0 -78 15 -99 30c-12 9 -22 19 -31 30zM460 50l35 35c7 -7 16 -14 25 -20c16 -11 39 -20 70 -20
c51 0 75 25 75 60c0 40 -25 65 -70 65c-23 0 -38 -5 -49 -10c-7 -3 -12 -6 -16 -10h-45l20 200h195v-50h-150l-10 -95l17 7c11 4 24 8 43 8c71 0 120 -50 120 -115c0 -60 -50 -110 -130 -110c-45 0 -78 12 -99 27c-12 8 -22 17 -31 28z" />
    <glyph glyph-name="uni2158" unicode="&#x2158;" horiz-adv-x="780" 
d="M155 0l430 700h65l-430 -700h-65zM30 430v50l155 220h65v-220h40v-50h-40v-80h-55v80h-165zM85 480h110v155zM485 50l35 35c7 -7 16 -14 25 -20c16 -11 39 -20 70 -20c51 0 75 25 75 60c0 40 -25 65 -70 65c-23 0 -38 -5 -49 -10c-7 -3 -12 -6 -16 -10h-45l20 200h195
v-50h-150l-10 -95l17 7c11 4 24 8 43 8c71 0 120 -50 120 -115c0 -60 -50 -110 -130 -110c-45 0 -78 12 -99 27c-12 8 -22 17 -31 28z" />
    <glyph glyph-name="uni2159" unicode="&#x2159;" horiz-adv-x="665" 
d="M65 0l430 700h65l-430 -700h-65zM105 350v265h-65v40c31 0 49 11 60 22c7 7 12 14 15 23h45v-350h-55zM400 195l105 155h60l-75 -115h15c75 0 130 -55 130 -120s-55 -120 -130 -120s-130 55 -130 120c0 23 5 42 12 57c3 8 8 16 13 23zM430 116c0 -41 30 -71 75 -71
s75 30 75 70s-30 70 -75 70s-75 -30 -75 -69z" />
    <glyph glyph-name="uni215A" unicode="&#x215a;" horiz-adv-x="735" 
d="M135 0l430 700h65l-430 -700h-65zM30 400l35 35c7 -7 16 -14 25 -20c16 -11 39 -20 70 -20c51 0 75 25 75 60c0 40 -25 65 -70 65c-23 0 -38 -5 -49 -10c-7 -3 -12 -6 -16 -10h-45l20 200h195v-50h-150l-10 -95l17 7c11 4 24 8 43 8c71 0 120 -50 120 -115
c0 -60 -50 -110 -130 -110c-45 0 -78 12 -99 27c-12 8 -22 17 -31 28zM470 195l105 155h60l-75 -115h15c75 0 130 -55 130 -120s-55 -120 -130 -120s-130 55 -130 120c0 23 5 42 12 57c3 8 8 16 13 23zM500 116c0 -41 30 -71 75 -71s75 30 75 70s-30 70 -75 70
s-75 -30 -75 -69z" />
    <glyph glyph-name="oneeighth" unicode="&#x215b;" horiz-adv-x="695" 
d="M65 0l430 700h65l-430 -700h-65zM105 350v265h-65v40c31 0 49 11 60 22c7 7 12 14 15 23h45v-350h-55zM405 100c0 33 16 54 32 67c9 7 20 13 33 18c-9 4 -18 10 -25 17c-13 12 -25 31 -25 58c0 50 45 95 110 95s110 -45 110 -95c0 -27 -13 -46 -25 -58
c-7 -7 -16 -13 -25 -17c12 -5 23 -11 32 -18c16 -13 33 -34 33 -67c0 -56 -50 -105 -125 -105s-125 49 -125 105zM475 260c0 -31 15 -50 55 -50s55 19 55 50c0 25 -20 45 -55 45s-55 -20 -55 -45zM460 100c0 -31 25 -55 70 -55s70 24 70 55s-25 60 -70 60s-70 -29 -70 -60z
" />
    <glyph glyph-name="threeeighths" unicode="&#x215c;" horiz-adv-x="755" 
d="M130 0l430 700h65l-430 -700h-65zM30 405l35 40c7 -9 16 -18 25 -25c16 -13 39 -25 70 -25c43 0 65 18 65 55c0 35 -25 60 -70 60h-40v50h40c35 0 55 19 55 50c0 25 -20 45 -60 45c-24 0 -43 -11 -55 -22c-7 -7 -14 -14 -19 -22l-36 37c8 11 17 20 28 28
c19 15 45 29 82 29c71 0 115 -44 115 -95c0 -31 -9 -49 -20 -60c-6 -7 -13 -12 -20 -15c10 -3 19 -9 27 -16c15 -13 28 -34 28 -69c0 -60 -44 -105 -120 -105c-45 0 -78 15 -99 30c-12 9 -22 19 -31 30zM465 100c0 33 16 54 32 67c9 7 20 13 33 18c-9 4 -18 10 -25 17
c-13 12 -25 31 -25 58c0 50 45 95 110 95s110 -45 110 -95c0 -27 -13 -46 -25 -58c-7 -7 -16 -13 -25 -17c12 -5 23 -11 32 -18c16 -13 33 -34 33 -67c0 -56 -50 -105 -125 -105s-125 49 -125 105zM535 260c0 -31 15 -50 55 -50s55 19 55 50c0 25 -20 45 -55 45
s-55 -20 -55 -45zM520 100c0 -31 25 -55 70 -55s70 24 70 55s-25 60 -70 60s-70 -29 -70 -60z" />
    <glyph glyph-name="fiveeighths" unicode="&#x215d;" horiz-adv-x="760" 
d="M135 0l430 700h65l-430 -700h-65zM30 400l35 35c7 -7 16 -14 25 -20c16 -11 39 -20 70 -20c51 0 75 25 75 60c0 40 -25 65 -70 65c-23 0 -38 -5 -49 -10c-7 -3 -12 -6 -16 -10h-45l20 200h195v-50h-150l-10 -95l17 7c11 4 24 8 43 8c71 0 120 -50 120 -115
c0 -60 -50 -110 -130 -110c-45 0 -78 12 -99 27c-12 8 -22 17 -31 28zM470 100c0 33 16 54 32 67c9 7 20 13 33 18c-9 4 -18 10 -25 17c-13 12 -25 31 -25 58c0 50 45 95 110 95s110 -45 110 -95c0 -27 -13 -46 -25 -58c-7 -7 -16 -13 -25 -17c12 -5 23 -11 32 -18
c16 -13 33 -34 33 -67c0 -56 -50 -105 -125 -105s-125 49 -125 105zM540 260c0 -31 15 -50 55 -50s55 19 55 50c0 25 -20 45 -55 45s-55 -20 -55 -45zM525 100c0 -31 25 -55 70 -55s70 24 70 55s-25 60 -70 60s-70 -29 -70 -60z" />
    <glyph glyph-name="seveneighths" unicode="&#x215e;" horiz-adv-x="700" 
d="M75 0l430 700h65l-430 -700h-65zM85 350l135 300h-180v50h235v-50l-135 -300h-55zM410 100c0 33 16 54 32 67c9 7 20 13 33 18c-9 4 -18 10 -25 17c-13 12 -25 31 -25 58c0 50 45 95 110 95s110 -45 110 -95c0 -27 -13 -46 -25 -58c-7 -7 -16 -13 -25 -17
c12 -5 23 -11 32 -18c16 -13 33 -34 33 -67c0 -56 -50 -105 -125 -105s-125 49 -125 105zM480 260c0 -31 15 -50 55 -50s55 19 55 50c0 25 -20 45 -55 45s-55 -20 -55 -45zM465 100c0 -31 25 -55 70 -55s70 24 70 55s-25 60 -70 60s-70 -29 -70 -60z" />
    <glyph glyph-name="uni215F" unicode="&#x215f;" 
d="M65 0l430 700h65l-430 -700h-65zM105 350v265h-65v40c31 0 49 11 60 22c7 7 12 14 15 23h45v-350h-55z" />
    </font>
</defs>
</svg>
